<svg xmlns="http://www.w3.org/2000/svg" width="59.999" height="60" viewBox="0 0 59.999 60">
  <path id="Subtraction_40" data-name="Subtraction 40" d="M1811,7419a29.9,29.9,0,1,1,11.677-2.357A29.816,29.816,0,0,1,1811,7419Zm.37-27.032h0l7.79,7.788a1.835,1.835,0,1,0,2.6-2.6l-7.788-7.79,7.79-7.789a1.836,1.836,0,0,0-1.3-3.135,1.823,1.823,0,0,0-1.3.538l-7.79,7.79-7.788-7.79a1.837,1.837,0,0,0-2.6,0,1.842,1.842,0,0,0,0,2.6l7.79,7.789-7.788,7.79a1.835,1.835,0,1,0,2.6,2.6l7.788-7.788Z" transform="translate(-1781.001 -7359)" fill="#ff8066"/>
</svg>
