<svg xmlns="http://www.w3.org/2000/svg" viewBox="0 0 829 100.35"><defs><style>.cls-1{fill:none;stroke:#cecece;stroke-width:2px;}.cls-2,.cls-3,.cls-5,.cls-7,.cls-8{isolation:isolate;}.cls-3,.cls-8{font-size:18px;font-family:YuGothicUI-Regular, Yu Gothic UI;}.cls-3,.cls-4{fill:#043f98;}.cls-5{font-size:26px;}.cls-5,.cls-7{fill:#fff;font-family:SegoeUI-Bold, Segoe UI;font-weight:700;}.cls-6,.cls-8{fill:#cecece;}.cls-7{font-size:25px;}</style></defs><g id="圖層_2" data-name="圖層 2"><g id="圖層_1-2" data-name="圖層 1"><g id="Group_4464" data-name="Group 4464"><line id="Line_3" data-name="Line 3" class="cls-1" x1="31.5" y1="24.5" x2="808.84" y2="24.5"/><g id="Group_4461" data-name="Group 4461"><g id="購物車" class="cls-2"><text class="cls-3" transform="translate(0 95)">購物車</text></g><g id="Group_374" data-name="Group 374"><path id="Path_728" data-name="Path 728" class="cls-4" d="M27.23,0A24.23,24.23,0,1,0,51.45,24.23,24.23,24.23,0,0,0,27.23,0Z"/><g id="_1" data-name=" 1" class="cls-2"><text class="cls-5" transform="translate(20.04 34)">1</text></g></g></g><g id="Group_4462" data-name="Group 4462"><g id="Group_374-2" data-name="Group 374-2"><path id="Path_728-2" data-name="Path 728-2" class="cls-6" d="M793.23,0a24.23,24.23,0,1,0,24.22,24.23A24.23,24.23,0,0,0,793.23,0Z"/><g id="_3" data-name=" 3" class="cls-2"><text class="cls-7" transform="translate(785.33 32.93)">3</text></g></g><g id="完成訂購" class="cls-2"><text class="cls-8" transform="translate(757 95)">完成訂購</text></g></g><g id="Group_4463" data-name="Group 4463"><g id="填寫資料" class="cls-2"><text class="cls-8" transform="translate(376 95)">填寫資料</text></g><g id="Group_374-3" data-name="Group 374-3"><path id="Path_728-3" data-name="Path 728-3" class="cls-6" d="M412.23,0a24.23,24.23,0,1,0,24.22,24.23A24.23,24.23,0,0,0,412.23,0Z"/><g id="_2" data-name=" 2" class="cls-2"><text class="cls-7" transform="translate(404.46 32.93)">2</text></g></g></g></g></g></g></svg>