<svg xmlns="http://www.w3.org/2000/svg" viewBox="0 0 153.4 195.88"><defs><style>.cls-1{fill:#043f98;}.cls-2{fill:#fff;}</style></defs><g id="圖層_2" data-name="圖層 2"><g id="圖層_1-2" data-name="圖層 1"><path class="cls-1" d="M101.14,110.36c-14.31,51.06-37.42,89.22-51.63,85.24S35.38,147,49.69,96,88.15-3.75,102.36.23,115.44,59.31,101.14,110.36Z"/><path class="cls-2" d="M90.8,114.16c-3.36,12-13.76,19.57-23.21,16.92s-14.4-14.52-11-26.52S69.79,82.31,79.25,85,94.16,102.16,90.8,114.16Z"/><path class="cls-2" d="M11.4,140.54a3.81,3.81,0,0,0,5.23,1.31L126.15,80.49A3.71,3.71,0,1,0,122.53,74L13,135.4A3.81,3.81,0,0,0,11.4,140.54Z"/><path class="cls-1" d="M32.41,128.77c.53.94,2.16,1,3.64.19l86.2-48.3c1.48-.83,2.26-2.26,1.74-3.2s-2.16-1-3.65-.19L34.15,125.56C32.66,126.4,31.88,127.83,32.41,128.77Z"/><path class="cls-1" d="M13.64,118.16H25.21a2.39,2.39,0,0,1,2.39,2.39v28.84a6.14,6.14,0,0,1-6.14,6.14H17.39a6.14,6.14,0,0,1-6.14-6.14V120.54a2.39,2.39,0,0,1,2.39-2.39Z" transform="translate(-90.45 220.67) rotate(-119.26)"/><path class="cls-1" d="M128.18,52.59h11.57A2.39,2.39,0,0,1,142.14,55V83.81A6.14,6.14,0,0,1,136,89.95h-4.07a6.14,6.14,0,0,1-6.14-6.14V55a2.39,2.39,0,0,1,2.39-2.39Z" transform="translate(130.65 -80.44) rotate(60.74)"/></g></g></svg>