<svg xmlns="http://www.w3.org/2000/svg" viewBox="0 0 182.58 174"><defs><style>.cls-1{fill:#043f98;}.cls-2{fill:#fff;}.cls-3{fill:none;stroke:#043f98;stroke-linejoin:round;stroke-width:3px;}.cls-4{fill:#fff7ee;}</style></defs><g id="圖層_2" data-name="圖層 2"><g id="圖層_1-2" data-name="圖層 1"><rect class="cls-1" x="26.75" width="123.97" height="174" rx="57"/><rect class="cls-2" x="43.12" y="23.34" width="91.22" height="127.31" rx="45.61"/><line class="cls-3" x1="48.67" y1="69.23" x2="128.67" y2="69.23"/><line class="cls-3" x1="48.67" y1="108.23" x2="128.67" y2="108.23"/><path class="cls-4" d="M173,128.14c-1.86.29-3.52-.48-3.72-1.73l-11.09-72c-.19-1.24,1.16-2.48,3-2.77s3.53.49,3.72,1.73l11.09,72C176.24,126.62,174.89,127.86,173,128.14Z"/><path class="cls-1" d="M170.9,114.33a1.79,1.79,0,0,1-2-1.5l-8.73-56.66a1.79,1.79,0,1,1,3.54-.54l8.73,56.66A1.79,1.79,0,0,1,170.9,114.33Z"/><path class="cls-1" d="M171.48,109.88h2.78a6.14,6.14,0,0,1,6.14,6.14v25.87a2.39,2.39,0,0,1-2.39,2.39H167.73a2.39,2.39,0,0,1-2.39-2.39V116a6.14,6.14,0,0,1,6.14-6.14Z" transform="translate(-17.33 27.8) rotate(-8.76)"/><path class="cls-4" d="M8.75,128.37c1.88.17,3.49-.7,3.61-2L19,53.88c.12-1.25-1.31-2.41-3.18-2.58s-3.49.71-3.6,2L5.57,125.8C5.45,127.05,6.88,128.2,8.75,128.37Z"/><path class="cls-1" d="M10,114.46a1.8,1.8,0,0,0,2-1.62L17.2,55.75a1.79,1.79,0,1,0-3.57-.33L8.41,112.51A1.79,1.79,0,0,0,10,114.46Z"/><path class="cls-1" d="M3.72,110.1H14a2.39,2.39,0,0,1,2.39,2.39v25.87a6.14,6.14,0,0,1-6.14,6.14H7.46a6.14,6.14,0,0,1-6.14-6.14V112.49a2.39,2.39,0,0,1,2.39-2.39Z" transform="translate(6.07 254.88) rotate(-174.77)"/></g></g></svg>