<svg xmlns="http://www.w3.org/2000/svg" viewBox="0 0 33.99 26"><defs><style>.cls-1{fill:#fff;stroke:#afafaf;stroke-width:2px;}</style></defs><g id="圖層_2" data-name="圖層 2"><g id="圖層_1-2" data-name="圖層 1"><g id="Group_4699" data-name="Group 4699"><path id="Subtraction_37" data-name="Subtraction 37" class="cls-1" d="M33,14.49H19v-.13a4.27,4.27,0,0,1,.55-2.09,5.56,5.56,0,0,1,1.5-1.7,7.47,7.47,0,0,1,2.22-1.16,9.05,9.05,0,0,1,5.45,0,7.69,7.69,0,0,1,2.22,1.15,5.6,5.6,0,0,1,1.5,1.71A4.27,4.27,0,0,1,33,14.36Z"/><ellipse id="Ellipse_101" data-name="Ellipse 101" class="cls-1" cx="26.01" cy="5" rx="3.88" ry="4"/></g><g id="Group_4699-2" data-name="Group 4699"><path id="Subtraction_37-2" data-name="Subtraction 37" class="cls-1" d="M15,14.49H1v-.13a4.27,4.27,0,0,1,.55-2.09,5.56,5.56,0,0,1,1.5-1.7A7.47,7.47,0,0,1,5.27,9.41a9.05,9.05,0,0,1,5.45,0,7.69,7.69,0,0,1,2.22,1.15,5.6,5.6,0,0,1,1.5,1.71A4.27,4.27,0,0,1,15,14.36Z"/><ellipse id="Ellipse_101-2" data-name="Ellipse 101" class="cls-1" cx="8.01" cy="5" rx="3.88" ry="4"/></g><g id="Group_4699-3" data-name="Group 4699"><path id="Subtraction_37-3" data-name="Subtraction 37" class="cls-1" d="M27.7,25H5.92v-.19a6.78,6.78,0,0,1,.86-3.26,8.74,8.74,0,0,1,2.33-2.66,11.68,11.68,0,0,1,3.47-1.79,14.07,14.07,0,0,1,8.47,0,11.5,11.5,0,0,1,3.46,1.79,8.64,8.64,0,0,1,2.34,2.66,6.61,6.61,0,0,1,.85,3.26Z"/><ellipse id="Ellipse_101-3" data-name="Ellipse 101" class="cls-1" cx="16.84" cy="10.22" rx="6.03" ry="6.22"/></g></g></g></svg>