<svg xmlns="http://www.w3.org/2000/svg" viewBox="0 0 160.71 204.93"><defs><style>.cls-1,.cls-3{fill:#043f98;}.cls-2{fill:none;stroke-miterlimit:10;}.cls-2,.cls-3{stroke:#fff;stroke-width:2px;}.cls-3{stroke-linejoin:round;}</style></defs><g id="圖層_2" data-name="圖層 2"><g id="圖層_1-2" data-name="圖層 1"><path class="cls-1" d="M98.19,119.44C92.33,176,72.78,206.9,52.83,204.83S20.09,168.5,26,112,54.12-2,74.07.05,104.06,62.89,98.19,119.44Z"/><path class="cls-2" d="M91.9,117.53c-5.47,52.74-22.13,81.73-38.79,80s-27-33.52-21.55-86.26S56.25,4.82,72.91,6.55,97.37,64.79,91.9,117.53Z"/><path class="cls-3" d="M121.14,154.54a3.17,3.17,0,0,1-2.23-.92L1.94,37.92A3.18,3.18,0,0,1,6.42,33.4l117,115.69a3.18,3.18,0,0,1-2.24,5.45Z"/><path class="cls-1" d="M159.47,175.41a5,5,0,0,0,.28-6.2,89,89,0,0,0-9.42-11c-15.11-14.94-32.4-22-38.61-15.69s1,23.49,16.11,38.44a105.36,105.36,0,0,0,11.91,10.06,4.93,4.93,0,0,0,6.57-.76Z"/><polyline class="cls-2" points="30.92 118.22 57.99 143.57 90.72 129.94"/><polyline class="cls-2" points="29.82 136.3 54.25 159.02 87.08 145.33"/></g></g></svg>