<svg xmlns="http://www.w3.org/2000/svg" viewBox="0 0 157.98 188.21"><defs><style>.cls-1,.cls-3,.cls-4{fill:none;stroke:#043f98;}.cls-1{stroke-linejoin:round;stroke-width:7px;}.cls-2{fill:#043f98;}.cls-3,.cls-4{stroke-miterlimit:10;}.cls-3{stroke-width:5px;}.cls-4{stroke-width:3px;}</style></defs><g id="圖層_2" data-name="圖層 2"><g id="圖層_1-2" data-name="圖層 1"><path class="cls-1" d="M102.93,78.84,33.38,69.66a26.42,26.42,0,1,0-6.91,52.39L49,125c.07-.12.15-.24.23-.35L60.6,109.93a3.9,3.9,0,0,1,6.69.88q3.63,8.79,7.26,17.6,10.74,1.4,21.47,2.82a26.42,26.42,0,1,0,6.91-52.39Z"/><rect class="cls-2" x="137.75" y="53.42" width="19.5" height="12.5" transform="matrix(0.99, 0.13, -0.13, 0.99, 9.07, -18.78)"/><rect class="cls-2" x="49.66" y="140.43" width="31.5" height="12.5" rx="6.2" transform="translate(19.75 -7.3) rotate(7.52)"/><path class="cls-2" d="M92.26,187.8C67.53,184.53,53.9,163.18,57,139.55l13.88,1.83c-2.11,16,6.11,30.28,23.19,32.54S126.79,165,128.9,149l11.87-90,13.88,1.83-11.87,90C139.66,174.49,117,191.06,92.26,187.8Z"/><line class="cls-3" x1="123.08" y1="97.55" x2="144.89" y2="100.43"/><line class="cls-3" x1="122.97" y1="113.68" x2="140.82" y2="116.03"/><circle class="cls-4" cx="120.55" cy="13.5" r="12"/><circle class="cls-4" cx="130.13" cy="36.45" r="5.5"/><path class="cls-2" d="M22.44,89a4,4,0,0,1,.75-2.42A6.81,6.81,0,0,1,26,84.33c2.55-1.17,6-.87,8.91-.59C42,84.4,49,85.32,56,86.37a3.11,3.11,0,0,0,3.69-2.1c.39-1.42-.48-3.45-2.09-3.69-8.26-1.24-16.66-2.58-25-3-3.72-.2-7.75.19-10.93,2.31A11,11,0,0,0,16.44,89c0,3.86,6,3.87,6,0Z"/></g></g></svg>