<svg xmlns="http://www.w3.org/2000/svg" width="131.177" height="127.837" viewBox="0 0 131.177 127.837">
  <g id="组_4855" data-name="组 4855" transform="translate(-758 -776.427)">
    <g id="组_499" data-name="组 499" transform="translate(784.582 796.313)">
      <g id="组_489" data-name="组 489" transform="translate(27.536 0)">
        <path id="路径_762" data-name="路径 762" d="M351.559,323.694a42.186,42.186,0,0,0,22.31.685c2.227-.606.143-1.775-1.123-1.739a114.393,114.393,0,0,1-19.492-.778c-1.348-.186-4.318,1.012-1.7,1.832Z" transform="translate(-350.512 -321.843)" fill="#043f98"/>
      </g>
      <g id="组_490" data-name="组 490" transform="translate(25.027 2.402)">
        <path id="路径_763" data-name="路径 763" d="M349.1,325.208c-2.1,1.834-1.757,3.173-1.846,6-.1,3.157-.045,6.331-.017,9.488.047,5.294-.587,12.037,1.3,17.018.423,1.119,3.81.816,4.089-.311.689-2.773.156-5.911.061-8.768q-.146-4.381-.316-8.758c-.109-2.917-.132-5.837-.237-8.754-.1-2.634.273-4.142-1.726-5.874a1.253,1.253,0,0,0-1.3-.04Z" transform="translate(-347.168 -325.044)" fill="#043f98"/>
      </g>
      <g id="组_491" data-name="组 491" transform="translate(2.584 31.242)">
        <path id="路径_764" data-name="路径 764" d="M319.245,366.227c8.243.536,16.753,1.351,25.007.934,2.578-.13,4.273-2.337.745-2.779-8.2-1.029-16.759-.839-25.014-.9-2.6-.02-4.2,2.523-.738,2.748Z" transform="translate(-317.258 -363.479)" fill="#043f98"/>
      </g>
      <g id="组_492" data-name="组 492" transform="translate(0 36.078)">
        <path id="路径_765" data-name="路径 765" d="M313.843,370.946c-.26,2.292,1.3,4.726,2.318,6.685,1.157,2.229,2.388,4.428,3.72,6.557a131.187,131.187,0,0,0,10.365,14.01,222.581,222.581,0,0,0,23.741,24.961c.87.765,5.388.217,4.42-.915-7.153-8.371-15.262-15.874-22.34-24.33-3.329-3.978-6.494-8.087-9.41-12.377-1.438-2.116-2.856-4.25-4.186-6.435-1.473-2.421-3.733-5.458-4.384-8.229-.3-1.273-4.092-1.276-4.245.074Z" transform="translate(-313.815 -369.925)" fill="#043f98"/>
      </g>
      <g id="组_493" data-name="组 493" transform="translate(53.527 2.847)">
        <path id="路径_766" data-name="路径 766" d="M386.252,326.451c-1.249,4-1.105,8.415-1.09,12.57a55.527,55.527,0,0,0,1.553,13.766c.325,1.272,4.285,1.312,4.325-.076.128-4.369-.116-8.7-.238-13.063-.119-4.288.478-8.785-.194-13.015-.2-1.266-4-1.324-4.357-.182Z" transform="translate(-385.149 -325.637)" fill="#043f98"/>
      </g>
      <g id="组_494" data-name="组 494" transform="translate(51.561 33.119)">
        <path id="路径_767" data-name="路径 767" d="M385.748,369.524c3.248.079,6.494.016,9.743-.016,2.83-.028,5.827.251,8.516-.748,1.635-.608,1.618-1.638-.038-2.188-2.722-.9-5.708-.52-8.537-.449-3.248.082-6.494.133-9.737.326-.9.053-3.188.272-3.164,1.594s2.385,1.461,3.218,1.482Z" transform="translate(-382.53 -365.98)" fill="#043f98"/>
      </g>
      <g id="组_495" data-name="组 495" transform="translate(36.678 35.751)">
        <path id="路径_768" data-name="路径 768" d="M395.462,370.2c-6.437,8.18-11.684,17.415-17.12,26.281-5.292,8.63-11.506,17.212-15.565,26.5-.756,1.731,3.991,1.506,4.793.51,6.493-8.076,11.521-17.5,16.967-26.3,5.34-8.628,11.227-17.269,15.411-26.525.708-1.565-3.741-1.415-4.486-.469Z" transform="translate(-362.696 -369.489)" fill="#043f98"/>
      </g>
      <g id="组_496" data-name="组 496" transform="translate(29.009 39.181)">
        <path id="路径_769" data-name="路径 769" d="M357.693,377.5a2.511,2.511,0,0,0,1.09-.867.979.979,0,0,1,.356-.455q-1.757-.358-.668.46c.48,1.33,1.592,2.634,1.315,4.183-.165.92-1.815,2.966-2.691,2.168a1.964,1.964,0,0,1-.426-1.394c.015-.317.345-.928.187-.877.576-.188,1.225-.531.662-1.114s-1.941-.387-2.6-.244a2.89,2.89,0,0,0-.421,5.61c3.131,1.251,8.9-.093,9.941-3.75a7.03,7.03,0,0,0-1.31-5.239,5.475,5.475,0,0,0-5.137-1.877c-1.155.124-3.21.678-3.437,2.093s2.151,1.836,3.142,1.3Z" transform="translate(-352.475 -374.059)" fill="#043f98"/>
      </g>
      <g id="组_497" data-name="组 497" transform="translate(22.744 41.754)">
        <path id="路径_770" data-name="路径 770" d="M370.674,377.633a159.14,159.14,0,0,0-26.227,20.745c-1.623,1.61,3.369,1.812,4.393,1.08,4.671-3.339,8.913-7.215,13.255-10.966a103.806,103.806,0,0,0,10.947-10.5c.519-.6-2.02-.576-2.369-.354Z" transform="translate(-344.126 -377.488)" fill="#043f98"/>
      </g>
      <g id="组_498" data-name="组 498" transform="translate(38.872 55.704)">
        <path id="路径_771" data-name="路径 771" d="M371.72,397.952q-.77-.545-.014.017a4.878,4.878,0,0,1,.729.871,4.149,4.149,0,0,1,.629,1.553,4.085,4.085,0,0,1-.656,3.056c-.578.843-1.315,1.652-2.123.96A2.4,2.4,0,0,1,370,401.3c.965-.944-2.014-1-2.5-.744-2.616,1.394-2.486,4.518.3,5.67,2.706,1.122,6.451.5,8.35-1.82a5.114,5.114,0,0,0-1.025-7.358c-1.366-.976-6.1-1.874-6.2.8-.031.831,2.487.649,2.8.1Z" transform="translate(-365.62 -396.08)" fill="#043f98"/>
      </g>
    </g>
    <g id="组_488" data-name="组 488" transform="translate(758 776.427)">
      <path id="路径_761" data-name="路径 761" d="M402.6,359.3c-.2,24.758-15.317,47.945-38.695,56.848-23.689,9.022-50.731.641-66.165-19.217a61.933,61.933,0,0,1-4.639-68.6c12.465-21.383,37.7-33.787,62.21-28.49,27.71,5.989,47.056,31.458,47.288,59.458.019,2.289,6.771,2.208,6.752-.118a64.475,64.475,0,0,0-42.972-60.048c-25.652-9.046-55.6-1.623-73.279,19.24-17.557,20.724-19.931,51.249-5.5,74.336,14.451,23.112,42.756,34.5,69.32,29.176,29.953-6.006,52.173-32,52.427-62.7C409.375,356.91,402.624,356.957,402.6,359.3Z" transform="translate(-278.179 -295.341)" fill="#043f98"/>
    </g>
  </g>
</svg>
