<svg xmlns="http://www.w3.org/2000/svg" width="359.851" height="72.436" viewBox="0 0 359.851 72.436">
  <g id="组_4545" data-name="组 4545" transform="translate(-198.07 -355.267)">
    <path id="路径_4167" data-name="路径 4167" d="M348.285,430.458s.01-.008.014-.013c.024-.019.036-.047.065-.061Z" transform="translate(-19.915 -9.959)"/>
    <path id="路径_4168" data-name="路径 4168" d="M344.018,437.815l.015-.141-.027-.071A.2.2,0,0,0,344.018,437.815Z" transform="translate(-19.345 -10.916)"/>
    <path id="路径_4169" data-name="路径 4169" d="M346.767,427.148l.141.094-.144-.149A.1.1,0,0,0,346.767,427.148Z" transform="translate(-19.713 -9.522)"/>
    <path id="路径_4170" data-name="路径 4170" d="M350.773,422.24c.016.008.03.019.047.028s.026.011.037.018Z" transform="translate(-20.245 -8.879)"/>
    <path id="路径_4171" data-name="路径 4171" d="M349.12,421.8c.016,0,.031.007.047.01s.042,0,.062.006Z" transform="translate(-20.026 -8.821)"/>
    <path id="路径_4172" data-name="路径 4172" d="M347.025,431.41l-.952-.182.88.234a.516.516,0,0,1,.066-.044Z" transform="translate(-19.622 -10.071)"/>
    <path id="路径_4173" data-name="路径 4173" d="M346.443,426.508l.013-.118-.017-.044A.15.15,0,0,0,346.443,426.508Z" transform="translate(-19.668 -9.424)"/>
    <path id="路径_4174" data-name="路径 4174" d="M346.5,426.5h0v0Z" transform="translate(-19.679 -9.444)"/>
    <path id="路径_4175" data-name="路径 4175" d="M348.216,421.921c.009,0,.018,0,.028-.009a1.144,1.144,0,0,1,.134-.044Z" transform="translate(-19.906 -8.83)"/>
    <path id="路径_4176" data-name="路径 4176" d="M351.924,426.509c-.04-.124.018-.273-.056-.464l.005.027a.347.347,0,0,0-.033-.141.335.335,0,0,0-.041-.062c-.013-.013-.041-.046-.04-.031a2.14,2.14,0,0,0,.041-.436,2.731,2.731,0,0,0-.039-.458,3.007,3.007,0,0,0-.246-.85.423.423,0,0,0-.008-.291l.017.1a.5.5,0,0,0-.192-.456l.06.07a1.5,1.5,0,0,0-.153-.188l.06.071a1.422,1.422,0,0,0-.156-.192l.062.071a1.574,1.574,0,0,0-.159-.19l.064.075a1.469,1.469,0,0,0-.155-.19l.066.079a.638.638,0,0,0-.3-.285l.07.048a1.914,1.914,0,0,0-.252-.167l.073.039c-.038-.025-.08-.047-.121-.07a2.131,2.131,0,0,0-.206-.127l.075.042a1.952,1.952,0,0,0-.229-.126l.078.039c-.036-.023-.074-.043-.111-.063a2.023,2.023,0,0,0-.2-.12l.082.047a1.854,1.854,0,0,0-.174-.1,1.915,1.915,0,0,0-.261-.128l.089.036a.775.775,0,0,0-.393-.13l.1.017a1.917,1.917,0,0,0-.245-.05l.1.018a1.71,1.71,0,0,0-.266-.049l.106.017a2,2,0,0,0-.226-.044l.1.021a1.873,1.873,0,0,0-.295-.053l.109.016a1.881,1.881,0,0,0-.206-.041l.106.023a1.8,1.8,0,0,0-.258-.049,1.766,1.766,0,0,0-.261-.027l.122.008a.707.707,0,0,0-.557.078l.162-.056a1.272,1.272,0,0,0-.27.088,1.21,1.21,0,0,0-.182.061l.168-.058a1.224,1.224,0,0,0-.323.11l.169-.061a1.19,1.19,0,0,0-.3.1l.167-.058a1.047,1.047,0,0,0-.134.042.67.67,0,0,0-.3.1.659.659,0,0,0-.541.4.6.6,0,0,0-.155.2.641.641,0,0,0-.224.145c-.034.015-.063.038-.1.056a.7.7,0,0,0-.237.124.68.68,0,0,0-.38.53v.173l.053.073a.773.773,0,0,0,.082.076.561.561,0,0,0,.214.194.489.489,0,0,0,0,.063,1.7,1.7,0,0,0,.095.258l-.281.3.3.24c.023.018.049.032.073.049v.017a.578.578,0,0,0,.162.11l.153.341-.032.289.034.089a.065.065,0,0,1,.025-.068l.044.12-.068-.049.074.194-.078-.069a.611.611,0,0,0,.147.35c.034.038.013.045.006-.046l.078.081c0-.008,0-.014,0-.021l.188.2-.043-.029.124.128h.013l.057.061c.028,0,.054-.005.082-.007l.061.064c.029,0,.056-.005.085-.007l.052.056c.028,0,.055-.006.082-.008l.06.062c.028,0,.056-.005.084-.008l.056.059c.029,0,.058-.005.088-.008l.052.056c.027,0,.053-.005.079-.007l.06.062c.029,0,.056,0,.085-.007l.054.057c.027,0,.054-.005.081-.006l.059.062a.787.787,0,0,0,.079-.007l.056.062c.029,0,.058-.006.088-.009l.055.058c.029,0,.06-.006.09-.009l.049.052c.026,0,.051,0,.077-.005l.063.066c.029,0,.056-.005.086-.008l.056.059c.028,0,.055-.005.082-.007l.058.06c.036,0,.071-.011.108-.016l.038.04a1.278,1.278,0,0,0,.126-.024l.024.026a1.143,1.143,0,0,0,.128-.025l.024.025a1.084,1.084,0,0,0,.127-.024l.016.016c-.017.027-.039.052-.053.079l.056-.075h0a1.132,1.132,0,0,0-.1.147.436.436,0,0,0-.117.194l.055-.078a1.108,1.108,0,0,0-.124.2l.052-.07a1.154,1.154,0,0,0-.127.2l.049-.064a.374.374,0,0,0-.113.159l-.012.036c-.021.026-.04.052-.059.079a1.185,1.185,0,0,0-.123.161l.048-.064a1.315,1.315,0,0,0-.088.114,1.059,1.059,0,0,0-.112.113.472.472,0,0,0-.12.108l.066-.062a1.089,1.089,0,0,0-.176.16l.07-.065a.417.417,0,0,0-.178.162,1.1,1.1,0,0,0-.116.1l.075-.068a.445.445,0,0,0-.193.173l.077-.071a.433.433,0,0,0-.185.171,1.018,1.018,0,0,0-.107.095.532.532,0,0,0-.129.122l.087-.082a.465.465,0,0,0-.2.18l.089-.083a.46.46,0,0,0-.2.179,1.026,1.026,0,0,0-.12.108l.095-.086a.472.472,0,0,0-.2.177,1.115,1.115,0,0,0-.117.1l.1-.087a1.077,1.077,0,0,0-.109.094.482.482,0,0,0-.174.136.5.5,0,0,0-.109.094h0l-.011.007a.448.448,0,0,0-.042.05l-.024-.006a.449.449,0,0,0-.05.058.521.521,0,0,0-.114.1.526.526,0,0,0-.149.144.956.956,0,0,0-.119.1l.112-.1a.5.5,0,0,0-.182.142.549.549,0,0,0-.151.145l-.006.005a.5.5,0,0,0-.187.147.572.572,0,0,0-.155.15l0,0a3.179,3.179,0,0,0-.3.245.58.58,0,0,0-.156.152l-.006.005a1.049,1.049,0,0,0-.225.19l.132-.111a.532.532,0,0,0-.2.152.552.552,0,0,0-.122.108.6.6,0,0,0-.158.159.425.425,0,0,0-.036.032c-.02.015-.037.033-.056.049a.564.564,0,0,0-.234.2.587.587,0,0,0-.245.219,1.024,1.024,0,0,0-.088.075.611.611,0,0,0-.263.227c-.027.018-.048.043-.073.063a.645.645,0,0,0-.373.51l-.007.13.056.1a.554.554,0,0,0,.241.215.294.294,0,0,0,.038.014.606.606,0,0,0,0,.115,1.631,1.631,0,0,0,.085.25l-.3.3.32.263a.73.73,0,0,0,.212.137c.043.116.088.25.145.39l-.03.28.027.071a.432.432,0,0,0-.01.236.7.7,0,0,0,.116.255c.068.071.04.123.017-.056l.41.435a.815.815,0,0,0,.21-.009.627.627,0,0,0,.31-.167l.027-.029a.361.361,0,0,0,.088-.07l.023-.03a.388.388,0,0,0,.088-.07l.021-.026a.415.415,0,0,0,.091-.073l.013-.017a.367.367,0,0,0,.107-.082l.018-.025a.36.36,0,0,0,.092-.075l.028-.035a.345.345,0,0,0,.086-.071l.01-.014a.388.388,0,0,0,.1-.081l.017-.023a.4.4,0,0,0,.1-.076l.016-.023a.388.388,0,0,0,.1-.078l.017-.023a.357.357,0,0,0,.1-.076l.023-.03v0a.373.373,0,0,0,.087-.073l.023-.031a.385.385,0,0,0,.088-.073l.014-.02a.361.361,0,0,0,.095-.075l.019-.024a.38.38,0,0,0,.1-.078l.017-.023a.359.359,0,0,0,.1-.077l.023-.03a.4.4,0,0,0,.086-.07l.025-.034a.326.326,0,0,0,.086-.07l.022-.028h0a.355.355,0,0,0,.091-.075l.011-.014v0a.392.392,0,0,0,.1-.082l.025-.035a.353.353,0,0,0,.082-.069l.021-.027a.387.387,0,0,0,.091-.074l.016-.022a.378.378,0,0,0,.1-.077l.031-.042a.32.32,0,0,0,.081-.069l.018-.025a.379.379,0,0,0,.088-.071l.023-.03a.367.367,0,0,0,.09-.075l.024-.033a.329.329,0,0,0,.086-.072l.024-.033a.371.371,0,0,0,.087-.073l.028-.038a.357.357,0,0,0,.081-.069l.023-.032a.352.352,0,0,0,.087-.072l.019-.026a.37.37,0,0,0,.089-.074l.02-.027a.353.353,0,0,0,.091-.075l.022-.029a.374.374,0,0,0,.087-.073l.029-.038a.325.325,0,0,0,.079-.068l.029-.039a.332.332,0,0,0,.078-.067l.035-.046a.352.352,0,0,0,.073-.063l.033-.045a.309.309,0,0,0,.073-.064l.041-.055a.282.282,0,0,0,.063-.058l.043-.059a.549.549,0,0,0,.054-.04l.057-.072a.254.254,0,0,0,.054-.049l.047-.064a.638.638,0,0,0,.056-.042l.045-.06a.447.447,0,0,0,.057-.042l.066-.086a.325.325,0,0,0,.039-.029l.036-.048a.3.3,0,0,0,.07-.062l.049-.065a.4.4,0,0,0,.055-.042l.052-.068a.48.48,0,0,0,.05-.036l.112-.145v0l.084-.073v-.052l.085-.075v-.055l.082-.072v-.055l.082-.071v-.054l.082-.07V430.9l.084-.072,0-.063.08-.069v-.049l.084-.073v-.054l.083-.072V430.4l.082-.07,0-.059.082-.07v-.056l.091-.081-.006-.084.062-.054-.01-.112.022-.017,0-.131.042-.031-.011-.127.036-.027-.01-.123.036-.029-.01-.121.036-.028-.01-.121.036-.026-.01-.123.036-.027-.011-.128.037-.029-.011-.125.033-.025-.01-.121.036-.028-.01-.124.036-.028-.01-.13.041-.032-.028-.121a.852.852,0,0,1-.013-.2.719.719,0,0,0-.062-.3l0-.01a.351.351,0,0,0,.078-.041.373.373,0,0,0,.15-.062.346.346,0,0,0,.143-.061.307.307,0,0,0,.189-.1l.045-.068-.006-.052,0-.048.03-.023-.008-.077-.006-.06.015-.012-.007-.07-.008-.074.016-.012-.006-.064-.008-.082.026-.021Zm-6.168-2.052v0Zm.638,1.165c.007,0,.015,0,.023,0l-.011.007Zm-.075-.455h0Zm2.954,2.124a.035.035,0,0,1,.008-.015l.006.007-.006.012Zm.01-.737Zm0,0h0Zm.3.027v-.005h0l0,.005Zm-.752-.057v-.006l0,.006Zm.452.769.007-.01,0,0-.005.009Zm-.163-.033.041.043-.048-.024A.034.034,0,0,1,349.119,427.263Zm-5.142,6.958-.114-.03a.249.249,0,0,1,.106-.028A.429.429,0,0,1,343.977,434.221Zm.39,1.6a.26.26,0,0,0,.024.049l-.068.081Zm1.875-10.52.092-.052c-.032.015-.061.039-.093.057Zm.335,1.25a.105.105,0,0,1,0-.073l.129.139Zm.149.063a.089.089,0,0,1,0-.07l.12.127Zm.145.054a.088.088,0,0,1,0-.065l.115.121Zm.142.051a.091.091,0,0,1,0-.064l.119.124Zm.148.062a.073.073,0,0,1,0-.062l.108.114Zm.143.053a.081.081,0,0,1,0-.061l.11.116Zm.142.056a.07.07,0,0,1,0-.059l.106.113Zm.142.054a.065.065,0,0,1,0-.054l.1.1Zm.148.058a.06.06,0,0,1,0-.05l.091.1Zm.146.052a.066.066,0,0,1,0-.053l.1.1Zm.146.063a.049.049,0,0,1,0-.048l.086.089Zm.145.053a.049.049,0,0,1,0-.045l.082.088Zm.145.056a.043.043,0,0,1,0-.041l.078.081Zm.153.028a.048.048,0,0,1,.006-.032l.065.067Zm.48.015a.048.048,0,0,1,.006-.02l.044.046Zm-2.54-4.882a1.233,1.233,0,0,0-.1.128l0,0Zm-.508.5a1.172,1.172,0,0,0-.147.092l.15-.094Zm.533,3.612a.1.1,0,0,1,0-.077l.129.137Zm2.193.746a.064.064,0,0,1,.007-.024l.051.055Zm.163.013a.041.041,0,0,1,.006-.022l.047.049Zm-2.14,2.9.283.054c-.009.01-.023.015-.03.027s-.032.031-.049.046l-.266-.071ZM344.2,432.3l0,0a.993.993,0,0,0-.121.1Zm-.447.387a.953.953,0,0,0-.122.109c-.006,0-.01.01-.017.015Zm.318,3.277a.306.306,0,0,1-.062-.091l.01-.056.057.153Z" transform="translate(-19.235 -8.816)"/>
    <path id="路径_4177" data-name="路径 4177" d="M601.973,420.867c-.005-.01-.009-.021-.013-.03l-.008-.017Z" transform="translate(-53.546 -8.691)"/>
    <path id="路径_4178" data-name="路径 4178" d="M610.872,411.253a4.978,4.978,0,0,0-2.019-2.294,4.783,4.783,0,0,0-3.046-.67,4.7,4.7,0,0,0-.794.154l-.387.125-.193.077a.888.888,0,0,0-.241.161,1.556,1.556,0,0,0-.41.86,4.479,4.479,0,0,0-.071.83,7.793,7.793,0,0,0,.192,1.6,5.76,5.76,0,0,0,.235.783,2.825,2.825,0,0,0,.189.4,1.237,1.237,0,0,0,.167.227.553.553,0,0,0,.54.18l.106-.017.008-.01a5.057,5.057,0,0,1,1.714-.212,4.527,4.527,0,0,1,1.483.335l-.651.828-.015.017a3.562,3.562,0,0,1-2,1.365,3.354,3.354,0,0,1-1.229.081,1.9,1.9,0,0,1-1.047-.563,1.947,1.947,0,0,1-.514-1.066,2.978,2.978,0,0,1,.164-1.223,4.23,4.23,0,0,0-.362-2.665l-.007-.013-.01-.015a1.215,1.215,0,0,0-.6-.514.635.635,0,0,0-.539.079.915.915,0,0,0-.3.344,3.239,3.239,0,0,0-.226.652c-.06.2-.1.41-.15.618a11.28,11.28,0,0,0-.254,2.538,11.793,11.793,0,0,0,1.177,4.925,3.562,3.562,0,0,0,1.452,1.778,3.369,3.369,0,0,0,2.26.483,5.174,5.174,0,0,0,3.665-2.272l-.023.029a9.655,9.655,0,0,0,1.952-3.774A7.41,7.41,0,0,0,610.872,411.253Z" transform="translate(-53.367 -7.025)"/>
    <path id="路径_4179" data-name="路径 4179" d="M396.5,406.071a24.652,24.652,0,0,0-5.075-2.347,18.872,18.872,0,0,0-5.434-.992l-.513-9.024a33.178,33.178,0,0,0,4.079-2.385c.658-.456,1.3-.941,1.909-1.461q.458-.392.894-.807l.216-.21.108-.1a.639.639,0,0,0,.112-.179,2.177,2.177,0,0,0,.138-.638,2.265,2.265,0,0,0-.192-1.28.5.5,0,0,0-.368-.247,1.268,1.268,0,0,0-.351.041c-.2.036-.4.08-.593.127a15.91,15.91,0,0,0-2.3.749,40.7,40.7,0,0,0-3.993,1.945l-.515-4.085a56.8,56.8,0,0,0,9.981-4.666l-.037.02a1.432,1.432,0,0,0,.673-1.042,4.312,4.312,0,0,0-.135-2.08,2.281,2.281,0,0,0-.248-.52.907.907,0,0,0-.631-.419.789.789,0,0,0-.426.069c-.1.042-.149.075-.226.112l-.427.219-.854.435-1.711.862q-3.242,1.626-6.551,3.093c-.017-.036-.036-.074-.057-.11a17.034,17.034,0,0,0,2.3-6.286,13.607,13.607,0,0,0-.669-6.617,21.334,21.334,0,0,0,2.856-1.689l.365-.271c.063-.052.114-.083.186-.151a1.072,1.072,0,0,0,.2-.246,2.945,2.945,0,0,0,.331-.939,5.489,5.489,0,0,0,.061-1.884,1.91,1.91,0,0,0-.416-.971.8.8,0,0,0-.588-.276,1.045,1.045,0,0,0-.279.013l-.226.032a16.125,16.125,0,0,0-1.773.389,25.713,25.713,0,0,0-3.042,1.086c-.012-.1-.014-.2-.034-.293a1.464,1.464,0,0,0-.315-.721q-.458-.452-.937-.879c-.636-.573-1.293-1.116-1.959-1.647s-1.325-1.065-2.05-1.544a8.023,8.023,0,0,0-1.143-.641,4.65,4.65,0,0,0-.629-.232.83.83,0,0,0-.824.11,1.218,1.218,0,0,0-.332.7,3.685,3.685,0,0,0-.054.677,7.513,7.513,0,0,0,.124,1.305,5.759,5.759,0,0,0,.149.644,1.605,1.605,0,0,0,.33.63,7.591,7.591,0,0,0,.884.965,10.3,10.3,0,0,0,4.06,2.24c-1.709.834-3.4,1.69-5.134,2.49a6.216,6.216,0,0,0-2.536,1.88,2.183,2.183,0,0,0-.331,1.594,5.319,5.319,0,0,0,.608,1.471,2.857,2.857,0,0,0,.443.684.73.73,0,0,0,.409.248,1.176,1.176,0,0,0,.437-.1c.492-.169.978-.351,1.462-.542.965-.384,1.915-.8,2.862-1.22l5.513-2.461a9.727,9.727,0,0,1,.526,4.092,12.383,12.383,0,0,1-1.142,4.155,19.3,19.3,0,0,1-5.376,6.69,49.138,49.138,0,0,0-4.907,1.571,13.264,13.264,0,0,0-2.332,1.214,8.692,8.692,0,0,0-1.049.813,5.5,5.5,0,0,0-.476.466c-.078.086-.148.151-.233.254a1.117,1.117,0,0,0-.167.383,3.705,3.705,0,0,0-.078,1.384,1.3,1.3,0,0,0,.3.733.612.612,0,0,0,.5.18l.329-.046a16.455,16.455,0,0,0,2.559-.589,19.436,19.436,0,0,0,4.692-2.228l4.924-1.719.314,4.423c-2.267,1.115-4.64,2.094-6.987,3.072L372.029,395l-1.833.714-.919.353a1.234,1.234,0,0,0-.305.147.872.872,0,0,0-.278.32,1.864,1.864,0,0,0-.189.6,3.806,3.806,0,0,0,0,1.1,1.839,1.839,0,0,0,.511,1.16,1.178,1.178,0,0,0,.264.128,1.04,1.04,0,0,0,.316,0l.239-.062.478-.123.955-.249c1.273-.337,2.543-.686,3.809-1.059,2.075-.614,4.134-1.3,6.159-2.081-2.137,2.917-4.968,5.419-6.976,8.594a58.483,58.483,0,0,0-3.334,5.334,29.817,29.817,0,0,0-1.362,2.862c-.1.244-.192.5-.288.742a1.719,1.719,0,0,0-.115.486c-.015.152-.023.291-.023.432a7.344,7.344,0,0,0,.159,1.658,2.056,2.056,0,0,0,.4.917.961.961,0,0,0,.348.242.774.774,0,0,0,.483-.019,1.3,1.3,0,0,0,.5-.378c.336-.415.658-.839.963-1.274a31.66,31.66,0,0,0,1.66-2.7c.033-.059.062-.118.094-.176l0,.033a3.841,3.841,0,0,0,.03.642,1.962,1.962,0,0,0,.182.679l.368.5a18.566,18.566,0,0,0,1.6,1.832,9.966,9.966,0,0,0,4.057,2.674,3.951,3.951,0,0,0,2.464-.048,3.621,3.621,0,0,0,1.865-1.6,12.127,12.127,0,0,0,1.367-4.636c.2-1.568.232-3.143.306-4.714,1.194.159,2.4.337,3.583.476,1.22.177,2.427.45,3.635.719l1.817.386.914.167c.155.021.3.056.464.065a.516.516,0,0,0,.45-.2,2.832,2.832,0,0,0,.3-1.832A2.74,2.74,0,0,0,396.5,406.071Zm-19.908,1.272a34.388,34.388,0,0,1,3.575-5.026,40.267,40.267,0,0,0,2.9-3.9l.214,4.229a10.914,10.914,0,0,0-1.682.454l-.245.1a.971.971,0,0,0-.337.231,1.456,1.456,0,0,0-.322.594,3.754,3.754,0,0,0,.124,2.23,1.457,1.457,0,0,0,.374.555,2.063,2.063,0,0,0,.183.118,1.059,1.059,0,0,0,.128.049l.243.087,1.689.6a8.892,8.892,0,0,1-.8,4.271,2.868,2.868,0,0,1-1.693,1.308,5.287,5.287,0,0,1-2.257.094,10.76,10.76,0,0,1-2.263-.613c-.372-.133-.733-.293-1.1-.452l-.536-.257c-.1-.045-.16-.082-.285-.134a.479.479,0,0,0-.337-.024C374.98,410.336,375.749,408.809,376.593,407.342Z" transform="translate(-22.59 -0.272)"/>
    <path id="路径_4180" data-name="路径 4180" d="M421.4,384.752a5.378,5.378,0,0,0-2.678.723,20.652,20.652,0,0,0-2.357,1.488c-.754.545-1.521,1.05-2.289,1.574l-2.021,1.353a17.7,17.7,0,0,0,.752-7.662,3.515,3.515,0,0,0-.964-1.911,2.327,2.327,0,0,0-1.016-.526,2.188,2.188,0,0,0-1.148.1,7.2,7.2,0,0,0-1.811,1.044c-.531.389-1.086.74-1.642,1.12l-3.327,2.235-.832.559-.413.283-.1.071a1.907,1.907,0,0,0-.154.138,1.26,1.26,0,0,0-.209.309,3.532,3.532,0,0,0-.056,2.241,1.729,1.729,0,0,0,.282.576.836.836,0,0,0,.367.276,1.134,1.134,0,0,0,.3.029,1.494,1.494,0,0,0,.238-.084c.338-.2.581-.361.876-.543l1.695-1.065,3.373-2.143c.534-.328,1.147-.6,1.538-.323a1.439,1.439,0,0,1,.483.628,1.843,1.843,0,0,1-.047.827,15.4,15.4,0,0,1-.6,1.87c-.25.625-.422,1.292-.639,1.9-.862,2.506-2.131,4.867-3.2,7.323a20.59,20.59,0,0,0-1.316,3.822,5.627,5.627,0,0,0,.032,1.026,2.5,2.5,0,0,0,.3,1.011.551.551,0,0,0,.533.293,1.366,1.366,0,0,0,.506-.231,4.276,4.276,0,0,0,.81-.631,10.94,10.94,0,0,0,2.214-3.374c.551-1.2.995-2.448,1.441-3.683l2.779-1.815,1.412-.923c.389-.247.775-.51,1.168-.749a10.8,10.8,0,0,1,.522,4.007l-.043,2.235c0,.752,0,1.485-.018,2.228a64.575,64.575,0,0,1-.818,8.836c-.494,2.916-1.226,5.794-1.986,8.67l-1.13,4.328-.134.544a2.31,2.31,0,0,0-.055.35c0,.108-.011.222-.005.322a6.642,6.642,0,0,0,.147,1.194,3.154,3.154,0,0,0,.482,1.218,1.632,1.632,0,0,0,.148.168,1.563,1.563,0,0,0,.258.158.961.961,0,0,0,.364.039.854.854,0,0,0,.286-.108,1.527,1.527,0,0,0,.521-.591c2.814-5.421,3.957-11.427,4.464-17.373a73.771,73.771,0,0,0-.566-17.806,14.66,14.66,0,0,0,3.095-2.2,6.37,6.37,0,0,0,.64-.736,2.371,2.371,0,0,0,.245-.953,3.043,3.043,0,0,0-.062-.974C421.971,385.153,421.78,384.781,421.4,384.752Z" transform="translate(-26.901 -3.246)"/>
    <path id="路径_4181" data-name="路径 4181" d="M447.1,368.714a2.7,2.7,0,0,0,1,1.075,15.863,15.863,0,0,0,2.512.971l1.208.539a2.949,2.949,0,0,0,1.376.287,1.5,1.5,0,0,0,.763-.24,1.39,1.39,0,0,0,.512-.676,2.9,2.9,0,0,0,.128-1.457,4.594,4.594,0,0,0-.423-1.337,3.093,3.093,0,0,0-.932-1.044,12.2,12.2,0,0,0-2.361-1.253,4.687,4.687,0,0,0-2.68-.791,1.88,1.88,0,0,0-.77.337,1.723,1.723,0,0,0-.534.683,3,3,0,0,0-.2,1.509A4.165,4.165,0,0,0,447.1,368.714Z" transform="translate(-32.96 -1.259)"/>
    <path id="路径_4182" data-name="路径 4182" d="M486.3,375.5l.336-.281.167-.142a1.08,1.08,0,0,0,.212-.218,2.478,2.478,0,0,0,.309-.983,3.2,3.2,0,0,0-.01-.971,1.364,1.364,0,0,0-.222-.558.786.786,0,0,0-.729-.286c-.291.05-.586.079-.872.151a15.719,15.719,0,0,0-3.3,1.131,46.02,46.02,0,0,0-5.074,2.9,12.6,12.6,0,0,1,2.49-3.044,21.775,21.775,0,0,1,4.144-2.823,8.975,8.975,0,0,1,4.7-1.4,2.4,2.4,0,0,1,1.893,1.3l.253.554.142.6a6.911,6.911,0,0,1,.154,1.231,14.125,14.125,0,0,1-.64,4.943,7.71,7.71,0,0,1-1,2.25c-.46.69-1.012,1.334-1.454,2.1a4.324,4.324,0,0,0-.55,2.6,4.426,4.426,0,0,0,.343,1.309,1.182,1.182,0,0,0,.553.617.557.557,0,0,0,.3.037.879.879,0,0,0,.194-.056l.331-.117a4.878,4.878,0,0,0,2-1.772,11.5,11.5,0,0,0,1.206-2.309,25.391,25.391,0,0,0,1.553-10.109,16.317,16.317,0,0,0-.941-5.1,6.378,6.378,0,0,0-1.433-2.3,2.68,2.68,0,0,0-.559-.447,2.913,2.913,0,0,0-.645-.334,3.317,3.317,0,0,0-.686-.187,2.843,2.843,0,0,0-.69-.081,7.4,7.4,0,0,0-2.648.388,14.655,14.655,0,0,0-2.411.994,25.6,25.6,0,0,0-4.307,2.823,15.267,15.267,0,0,0-3.524,3.789A15.6,15.6,0,0,0,474.2,375.3l-1.1-3.853a8.239,8.239,0,0,0-1-2.46,2.94,2.94,0,0,0-1-.93,1.591,1.591,0,0,0-.315-.145,1.107,1.107,0,0,0-.353-.095.7.7,0,0,0-.686.328,2.488,2.488,0,0,0-.324,1.321,5.18,5.18,0,0,0,.136,1.318,2.445,2.445,0,0,0,.229.636,4.68,4.68,0,0,0,.435.5,4.882,4.882,0,0,1,.658,1.089,28.875,28.875,0,0,1,1.235,5.021c.29,1.233.564,2.47.875,3.7.155.614.32,1.227.5,1.835.1.3.173.607.295.91a1.419,1.419,0,0,0,.573.815.469.469,0,0,0,.522-.134,1.433,1.433,0,0,0,.3-.41,4.014,4.014,0,0,0,.339-.913,4.824,4.824,0,0,0,.157-.962,8.377,8.377,0,0,0-.045-.964,9.655,9.655,0,0,1,.187-2.454,2.168,2.168,0,0,0,.232.516.732.732,0,0,0,.537.318.82.82,0,0,0,.322-.05l.2-.076.8-.3c1.063-.41,2.133-.818,3.177-1.3a29.414,29.414,0,0,0,3.071-1.58c.5-.3.985-.611,1.454-.955C485.841,375.86,486.064,375.673,486.3,375.5Z" transform="translate(-35.974 -1.115)"/>
    <path id="路径_4183" data-name="路径 4183" d="M480.056,384.14a14.025,14.025,0,0,0-.339-1.4,2.155,2.155,0,0,0-.3-.668.718.718,0,0,0-.288-.251.406.406,0,0,0-.384.046,16.191,16.191,0,0,0-2.039,1.45c-.32.267-.63.548-.932.836a1.851,1.851,0,0,0-.414,1.213,4.708,4.708,0,0,0,.078,1.275,1.572,1.572,0,0,0,.255.635.427.427,0,0,0,.417.181,1.046,1.046,0,0,0,.2-.1l.122-.095a15.069,15.069,0,0,1,1.659-1.108A26.37,26.37,0,0,1,476,393.534c-.7,1.758-1.5,3.486-2.272,5.231.006-.039.014-.079.019-.116a5.88,5.88,0,0,0-.307-2.556,3.266,3.266,0,0,0-1.5-1.475,5.5,5.5,0,0,0-2.071-.462c-1.418-.079-2.826.121-4.226.114a25.376,25.376,0,0,1-4.165-.552c-1.315-.265-2.619-.585-3.928-.9a71.59,71.59,0,0,0,.461-10.123c-.049-1.723-.158-3.445-.347-5.161-.046-.429-.1-.857-.164-1.285l-.093-.645a5.119,5.119,0,0,0-.172-.679,4.008,4.008,0,0,0-.277-.658,1.4,1.4,0,0,0-.6-.63.781.781,0,0,0-.58-.038,1.426,1.426,0,0,0-.388.216l-.514.369a31.246,31.246,0,0,1-4.421,2.5l-2.329,1.075-1.172.533a2.1,2.1,0,0,0-.331.169.844.844,0,0,0-.292.366,2.208,2.208,0,0,0-.178.717,3.007,3.007,0,0,0,.184,1.4.854.854,0,0,0,.671.568c.255,0,.448-.006.674-.018a15.43,15.43,0,0,0,2.581-.389,27.95,27.95,0,0,0,4.656-1.612l.077,6a1.028,1.028,0,0,0-.171-.2.329.329,0,0,0-.36,0,.709.709,0,0,0-.2.208l-.25.394-.989,1.569-1.979,3.137c-.661,1.044-1.312,2.1-2,3.118s-1.41,2.03-2.077,3.081c-.333.525-.653,1.061-.945,1.615-.145.278-.286.557-.416.843l-.19.431-.093.219a1.527,1.527,0,0,0-.059.293,6.58,6.58,0,0,0,.1,1.935,1.844,1.844,0,0,0,.2.517.656.656,0,0,0,.316.261.526.526,0,0,0,.436-.043c.051-.029.107-.063.151-.095l.091-.079.182-.158c.124-.1.231-.221.347-.33,1.7-1.75,2.691-3.938,3.9-5.915l.085.053.4.242q.406.236.823.451c.463.238.938.448,1.416.651a40.051,40.051,0,0,1-1.044,5.093,9.1,9.1,0,0,1-2.535,4.576,10.438,10.438,0,0,1-4.792,2.165l-.666.139-.087.018-.147.049a.794.794,0,0,0-.264.139,1.4,1.4,0,0,0-.353.379,3.3,3.3,0,0,0-.409,1.557,3.825,3.825,0,0,0,.226,1.551,1.408,1.408,0,0,0,.623.769l.141.069.09.025.176.045.351.09a6.952,6.952,0,0,0,5.689-.684,10.2,10.2,0,0,0,3.557-4.474,27.7,27.7,0,0,0,1.7-5.36c.389-1.721.606-3.458.893-5.186a47.214,47.214,0,0,0,9.915,1.166l5.137.11.642.013a1.1,1.1,0,0,0,.66-.108.917.917,0,0,0,.087-.088c-.2.455-.395.908-.583,1.367-.518,1.288-1.025,2.55-1.615,3.8s-1.238,2.456-1.9,3.661c-1.353,2.4-2.821,4.731-4.274,7.077l-.049.081.02.061a3.627,3.627,0,0,0-.3,1.4,5.687,5.687,0,0,0,.132,1.5,2.477,2.477,0,0,0,.3.755.86.86,0,0,0,.409.345.753.753,0,0,0,.335.022,1.54,1.54,0,0,0,.264-.121c.395-.315.789-.6,1.15-.932a19.718,19.718,0,0,0,3.575-4.615,66.65,66.65,0,0,0,4.586-10.609c1.277-3.589,2.986-7.046,4.027-10.789a21.944,21.944,0,0,0,.908-5.717,14.388,14.388,0,0,0-.051-1.448A10.791,10.791,0,0,0,480.056,384.14Zm-25.507,6.124c.041.632.122,1.31.219,2.151-.482-.2-.847-.365-1.186-.49a3.592,3.592,0,0,0,.214-.546,5.689,5.689,0,0,1,.369-1c.115-.21.239-.415.37-.618C454.536,389.927,454.54,390.093,454.549,390.264Z" transform="translate(-32.528 -2.425)"/>
    <path id="路径_4184" data-name="路径 4184" d="M508.989,401.679c-.106-.243-.319-.565-.659-.5l-6.555,1.442c-2.182.449-4.356,1.057-6.494,1.471a7.77,7.77,0,0,1-3.2,0,4.553,4.553,0,0,1-2.6-1.791,7.73,7.73,0,0,1-.813-1.431l-.164-.38c-.071-.128-.079-.286-.307-.421a.307.307,0,0,0-.341.115.9.9,0,0,0-.13.213,2.5,2.5,0,0,0-.145.422,3.509,3.509,0,0,0-.086.429,1.476,1.476,0,0,0,.006.455c.025.281.059.561.1.841a12.519,12.519,0,0,0,.356,1.668,6.408,6.408,0,0,0,1.734,3,5.5,5.5,0,0,0,3.241,1.387c2.381.225,4.592-.54,6.728-1.059,2.162-.577,4.321-1.176,6.454-1.852l1.6-.5c.27-.087.528-.156.807-.257a1.08,1.08,0,0,0,.585-.725,4,4,0,0,0,.109-1.7A3.256,3.256,0,0,0,508.989,401.679Z" transform="translate(-38.368 -5.938)"/>
    <path id="路径_4185" data-name="路径 4185" d="M539.172,364.207c1.007-.514,2.465-1.308,2.92.049a3.614,3.614,0,0,1,.124,1.763,7.569,7.569,0,0,1-.465,1.774c-.219.577-.478,1.139-.751,1.7l-.207.416a1.123,1.123,0,0,0-.151.5,3.738,3.738,0,0,0,.057.978,1.243,1.243,0,0,0,.2.5.4.4,0,0,0,.366.166.624.624,0,0,0,.3-.172,7.89,7.89,0,0,0,.618-.74,13.152,13.152,0,0,0,1.014-1.609,13.726,13.726,0,0,0,1.316-3.572,6.949,6.949,0,0,0-.136-3.888,4.062,4.062,0,0,0-1.177-1.68,3.553,3.553,0,0,0-1.952-.755,5.44,5.44,0,0,0-2,.271,8.964,8.964,0,0,0-1.79.771,27.9,27.9,0,0,0-5.277,3.981c.028-1.975.031-3.949.023-5.923a10.462,10.462,0,0,0-.115-1.742,2.163,2.163,0,0,0-.849-1.537,1.045,1.045,0,0,0-.9-.134,1.1,1.1,0,0,0-.355.816,3.122,3.122,0,0,0,.04.872,1.043,1.043,0,0,0,.424.765c.2.16.22.535.261.821.029.308.041.618.042.928,0,.62-.038,1.241-.078,1.862-.1,1.24-.246,2.475-.4,3.709l-.24,1.853a6.7,6.7,0,0,0-.087.978,6.585,6.585,0,0,0,.1.972,2.272,2.272,0,0,0,.407,1.039,1.36,1.36,0,0,0,.177.144.867.867,0,0,0,.279.077,1.1,1.1,0,0,0,.27-.053c.058-.032.115-.067.171-.1.171-.131.249-.212.378-.32l1.415-1.206c.939-.8,1.9-1.583,2.9-2.294A24.545,24.545,0,0,1,539.172,364.207Z" transform="translate(-44)"/>
    <path id="路径_4186" data-name="路径 4186" d="M531.805,422.756c.255-3.628.394-7.31.447-10.966s.12-7.326.016-10.988-.316-7.324-.529-10.981c-.13-1.829-.244-3.655-.406-5.483a2.819,2.819,0,0,0-.151-.71.68.68,0,0,0-.63-.529.914.914,0,0,0-.658.475,2.412,2.412,0,0,0-.29.684,7.029,7.029,0,0,0-.108,1.408l-.033,1.374c-.18,7.33.038,14.654.063,21.962q-.047,5.484-.048,10.978l.009,2.742a5.827,5.827,0,0,0,.494,2.792,2.871,2.871,0,0,0,.429.6,2.433,2.433,0,0,0,.264.254.534.534,0,0,0,.454.173,1.168,1.168,0,0,0,.629-.483,2.288,2.288,0,0,0,.415-.6,2.758,2.758,0,0,0,.121-1.415A2.9,2.9,0,0,0,531.805,422.756Z" transform="translate(-43.926 -3.69)"/>
    <path id="路径_4187" data-name="路径 4187" d="M579.215,386.228a1.442,1.442,0,0,0-.3-.446.546.546,0,0,0-.522-.147c-4.4,1.2-8.725,2.688-13.026,4.213-2.157.743-4.3,1.527-6.47,2.232l-6.224,1.984.023-8.228a37.008,37.008,0,0,0-.137-4.3,10.462,10.462,0,0,0-1.247-4.2,4.841,4.841,0,0,0-3.712-2.4,8.066,8.066,0,0,0-4.346.755,24.483,24.483,0,0,0-6.952,5.1l-.753.767-.371.389a1.094,1.094,0,0,0-.218.322,1.619,1.619,0,0,0-.1.325,4.125,4.125,0,0,0-.046,1.168,2.932,2.932,0,0,0,.319,1.176.742.742,0,0,0,.121.162.541.541,0,0,0,.193.154.6.6,0,0,0,.554.02,1.394,1.394,0,0,0,.288-.176l.219-.154.87-.619c.579-.409,1.156-.82,1.744-1.21a25.151,25.151,0,0,1,3.652-2.095,8.213,8.213,0,0,1,3.982-.893,4.521,4.521,0,0,1,.982.191,2.527,2.527,0,0,1,.82.5,4.34,4.34,0,0,1,1.023,1.719,14.984,14.984,0,0,1,.634,4.141,80.947,80.947,0,0,1-.391,8.4,71.815,71.815,0,0,0-8.273,3.313,26.593,26.593,0,0,0,.825-6.423,10.879,10.879,0,0,0,1.962-1.384,7.01,7.01,0,0,0,.858-.926,2.413,2.413,0,0,0,.377-1.263,2.81,2.81,0,0,0-.165-1.307.748.748,0,0,0-.63-.462,3.24,3.24,0,0,0-.657.053,7.592,7.592,0,0,0-2.094.8l-.392-1.894a10.416,10.416,0,0,0-.253-1.094,1.332,1.332,0,0,0-.331-.577.764.764,0,0,0-.244-.107.586.586,0,0,0-.264.064.87.87,0,0,0-.266.268,3.4,3.4,0,0,0-.407,1.11,3.6,3.6,0,0,0-.073,1.175l.328,1.979c-1.046.461-2.145.85-3.228,1.285-.572.226-1.142.468-1.7.735a3.578,3.578,0,0,0-.447.235,1.1,1.1,0,0,0-.361.5,3.052,3.052,0,0,0-.187,1,3.4,3.4,0,0,0,.109,1,1.789,1.789,0,0,0,.22.506.852.852,0,0,0,.555.387,8.864,8.864,0,0,0,1.927-.083,15.6,15.6,0,0,0,3.1-.772,20.6,20.6,0,0,1-1.221,5.09c-.168.451-.357.9-.554,1.335l-.309.654a3.708,3.708,0,0,0-.169.376,2.8,2.8,0,0,0-.1.415,6.59,6.59,0,0,0-.077,1.56,4.113,4.113,0,0,0,.126.8,1.677,1.677,0,0,0,.45.832.9.9,0,0,0,.548.251,1.854,1.854,0,0,0,.456-.022l.739-.1q.739-.107,1.468-.256c.973-.2,1.934-.435,2.885-.706,1.694-.484,3.35-1.07,4.989-1.686-.163,4.735-.373,9.473-.448,14.219-.044,2.478-.059,4.959-.031,7.441l.029,1.861a4.944,4.944,0,0,0,.322,2,1.383,1.383,0,0,0,.977.867,1.288,1.288,0,0,0,1.214-.576,3.261,3.261,0,0,0,.507-2.064v.054c.268-4.236.474-8.476.593-12.719.123-4.175.206-8.352.2-12.527,2.535-.993,5.041-2.056,7.616-2.971l7.846-2.961q3.916-1.494,7.874-2.873l1.983-.68a2.027,2.027,0,0,0,.953-.475,2.288,2.288,0,0,0,.456-.966,5.707,5.707,0,0,0,.064-2.1A3.889,3.889,0,0,0,579.215,386.228Z" transform="translate(-44.563 -2.6)"/>
    <path id="路径_4188" data-name="路径 4188" d="M286.849,379.984c.158.3.309.6.483.9a1.1,1.1,0,0,0,.359.388.528.528,0,0,0,.53-.007c2.339-1.2,4.649-2.457,7.009-3.611a58.235,58.235,0,0,1,7.268-2.988,26.094,26.094,0,0,1,3.766-.975,37.673,37.673,0,0,1,3.889-.287,29.144,29.144,0,0,1,3.887.155,8.522,8.522,0,0,1,3.574,1.013,1.319,1.319,0,0,1,.64,1.327,2.3,2.3,0,0,1-.285.8l-.118.234a1.614,1.614,0,0,0-.1.307,4.2,4.2,0,0,0-.085.533,3.144,3.144,0,0,0,.059,1.109.717.717,0,0,0,.938.591l.258-.065a3.445,3.445,0,0,0,1.807-1.133,4.841,4.841,0,0,0,.7-4,6.528,6.528,0,0,0-.689-1.919,6.637,6.637,0,0,0-1.277-1.577,11.863,11.863,0,0,0-7.346-2.766,23.123,23.123,0,0,0-7.492,1.076,4.585,4.585,0,0,0,.251-1.532c.009-.578-.043-1.148-.079-1.709a9.758,9.758,0,0,0,2.164-1.321,6.484,6.484,0,0,0,.952-.963,5.363,5.363,0,0,0,.392-.56c.062-.1.113-.2.169-.3a1.426,1.426,0,0,0,.125-.377,2.769,2.769,0,0,0,.034-.723,1.269,1.269,0,0,0-.291-.762.673.673,0,0,0-.458-.206,2.041,2.041,0,0,0-.378,0,3.062,3.062,0,0,0-.7.16,9.336,9.336,0,0,0-1.833.959l.2-2.689.028-.426a2.476,2.476,0,0,0-.028-.482,4.279,4.279,0,0,0-.232-.871,2.767,2.767,0,0,0-.46-.834,1.291,1.291,0,0,0-.24-.207.642.642,0,0,0-.455-.094.686.686,0,0,0-.385.226,1.306,1.306,0,0,0-.167.261,8.777,8.777,0,0,0-.4,1.71q-.143.821-.256,1.648c-.138,1.005-.239,2.016-.311,3.03a18.521,18.521,0,0,1-3.333.831c-.61.09-1.225.154-1.842.188l-.232.012a1.224,1.224,0,0,0-.413.1,1.172,1.172,0,0,0-.5.572,2.9,2.9,0,0,0-.219,1.1,3.6,3.6,0,0,0,.126,1.076,1.922,1.922,0,0,0,.267.568.966.966,0,0,0,.775.419c.661-.028,1.289-.086,1.93-.165a24.29,24.29,0,0,0,3.205-.633,7.892,7.892,0,0,0,.088,1.168,3.849,3.849,0,0,0,.408,1.226c-1.1.417-2.2.825-3.285,1.266-1.259.54-2.493,1.132-3.712,1.747s-2.417,1.25-3.62,1.919c-.61.357-1.152.765-1.721,1.089a2.53,2.53,0,0,1-1.74.447,2.171,2.171,0,0,1-1.341-1.17,12.055,12.055,0,0,1-.773-1.847,5.388,5.388,0,0,0-.421-.973c-.073-.08-.106-.168-.241-.228a.361.361,0,0,0-.384.018,1.092,1.092,0,0,0-.356.473,5.118,5.118,0,0,0-.371,2.051,3.811,3.811,0,0,0,.285,1.006l.356.957q.367.954.774,1.89T286.849,379.984Z" transform="translate(-11.467 -0.117)"/>
    <path id="路径_4189" data-name="路径 4189" d="M307.519,412.147c-.254-4.744-.516-9.488-.885-14.222l.762-.181a9.131,9.131,0,0,0,4.365-2.627c.3-.268.653-.64,1-.535a1.685,1.685,0,0,1,.583,1.016,7.311,7.311,0,0,0,.8,2.483.72.72,0,0,0,.711.277,1.131,1.131,0,0,0,.6-.433,3.134,3.134,0,0,0,.54-1.244,5.607,5.607,0,0,0-.178-2.633,7.15,7.15,0,0,0-1.006-2.459,3.3,3.3,0,0,0-2.339-1.44l-.036,0-.048,0a.839.839,0,0,0-.526.271,3.047,3.047,0,0,0-.234.349,4.732,4.732,0,0,1-.392.564,5.748,5.748,0,0,1-.96.966,7,7,0,0,1-2.424,1.252,7.9,7.9,0,0,1-2.723.357,10.493,10.493,0,0,1-1.386-.157,3.87,3.87,0,0,1-1.228-.373c-.059,0-.2-.294-.193-.319a1.922,1.922,0,0,1,.295-.342c.192-.218.31-.424.447-.6s.288-.362.443-.536a20.756,20.756,0,0,1,2.083-1.94l1.1-.945.272-.245a1.817,1.817,0,0,0,.143-.138.741.741,0,0,0,.141-.22,2.915,2.915,0,0,0,.2-.771,3.674,3.674,0,0,0-.072-1.542.833.833,0,0,0-.254-.405.577.577,0,0,0-.272-.124,1.231,1.231,0,0,0-.261.028,6.413,6.413,0,0,1-.684.144,11.738,11.738,0,0,1-2.84.08,4.893,4.893,0,0,1-2.613-.863,1.2,1.2,0,0,1-.409-1.168,3.044,3.044,0,0,1,.592-1.237,2.439,2.439,0,0,0,.188-1.507,1.911,1.911,0,0,0-.225-.743.438.438,0,0,0-.432-.233.736.736,0,0,0-.367.248,8.331,8.331,0,0,0-1.64,2.427,5.154,5.154,0,0,0-.392,2.921,4.439,4.439,0,0,0,1.46,2.585,4.986,4.986,0,0,0,2.288,1.032,9.845,9.845,0,0,0-1.8,2.411,4.56,4.56,0,0,0-.343,3.53,4.91,4.91,0,0,0,.9,1.573,4.517,4.517,0,0,0,1.395,1.176,6.735,6.735,0,0,0,3.045.755c-.1,1.4-.161,2.794-.206,4.193a1.932,1.932,0,0,0-.077-.2.58.58,0,0,0-.358-.334c-.191-.049-.335.091-.45.193-2.075,2.215-4.246,4.343-6.31,6.582A59.433,59.433,0,0,0,291.657,416c-.837,1.274-1.662,2.555-2.415,3.879-.794,1.3-1.5,2.645-2.222,3.986l-.52,1.017a3.721,3.721,0,0,0-.25.536,2.949,2.949,0,0,0-.1.6,7.383,7.383,0,0,0,.187,2.326,2.275,2.275,0,0,0,.245.579.741.741,0,0,0,.676.382,1.134,1.134,0,0,0,.363-.146l.26-.216.4-.406.8-.811a1.678,1.678,0,0,0,.227-.258,1.47,1.47,0,0,0,.151-.328,3.1,3.1,0,0,0,.114-.517c1.406-2.052,2.687-4.178,4.008-6.262,1.332-2.1,2.728-4.137,4.2-6.152l4.389-6.043c.735-1.006,1.489-2,2.248-2.988.015-.016.023-.037.036-.054-.016,1.286-.023,2.572-.007,3.857.058,3.653.258,7.3.507,10.938a3.6,3.6,0,0,0,.252,1.919,2.768,2.768,0,0,0,.588.881,1.451,1.451,0,0,0,.516.336.79.79,0,0,0,.355.072.712.712,0,0,0,.385-.069,1.367,1.367,0,0,0,.736-.98,2.114,2.114,0,0,0,.094-.5,3.18,3.18,0,0,0,.036-.483c.013-.649-.037-1.209-.057-1.814Q307.712,415.716,307.519,412.147Z" transform="translate(-11.675 -3.245)"/>
    <path id="路径_4190" data-name="路径 4190" d="M331.484,416.8c-.167-.209-.337-.416-.512-.618a31.875,31.875,0,0,0-2.2-2.316,37.219,37.219,0,0,0-4.934-4.049,14.579,14.579,0,0,0-5.9-2.554,4.262,4.262,0,0,0-3.153.676,4.8,4.8,0,0,0-1.626,2.7,3.864,3.864,0,0,0,.038,1.6,1.082,1.082,0,0,0,.177.38.484.484,0,0,0,.41.184l.792-.08a6.181,6.181,0,0,1,3.035.139,30.905,30.905,0,0,1,5.453,2.96,57.824,57.824,0,0,1,5.121,3.659c.829.651,1.648,1.318,2.495,1.953a1.874,1.874,0,0,0,.36.237.512.512,0,0,0,.529-.059,1.442,1.442,0,0,0,.416-.788,6.775,6.775,0,0,0,.167-1.621,5.907,5.907,0,0,0-.19-1.653A2.973,2.973,0,0,0,331.484,416.8Z" transform="translate(-15.25 -6.888)"/>
    <path id="路径_4191" data-name="路径 4191" d="M377.641,382.154c.528.5,1.152.847,1.656,1.319a1.513,1.513,0,0,0,.446.3,1,1,0,0,0,.56.026.661.661,0,0,0,.294-.11.97.97,0,0,0,.225-.23,2.251,2.251,0,0,0,.258-.523,2.9,2.9,0,0,0-.062-2.221,5.142,5.142,0,0,0-1.466-1.62,10.247,10.247,0,0,1-1.3-1.608,1.877,1.877,0,0,0-.383-.458.741.741,0,0,0-.841-.026,1.84,1.84,0,0,0-.689,1.076,3.891,3.891,0,0,0,0,2.293,4.227,4.227,0,0,0,.574.988A5,5,0,0,0,377.641,382.154Z" transform="translate(-23.611 -2.866)"/>
    <path id="路径_4192" data-name="路径 4192" d="M228.478,392.241l.031.042.036-.034a28.58,28.58,0,0,0,3.717-4.5c1.1-1.59,2.315-3.058,3.535-4.57q.494-.631.98-1.261c-.019.043-.04.087-.056.13a3.521,3.521,0,0,0-.192.95,2.968,2.968,0,0,0,.092.992,1.135,1.135,0,0,0,.76.85,13.774,13.774,0,0,0,3.8.4,31.9,31.9,0,0,0,3.79-.445c1.253-.2,2.491-.4,3.747-.71a1.349,1.349,0,0,0,.765-.848,3.04,3.04,0,0,0,.2-1.026,3.191,3.191,0,0,0-.144-1.057,1.324,1.324,0,0,0-.887-.926,18.425,18.425,0,0,0-3.845-.381,16.6,16.6,0,0,0-3.8.45c-1.246.286-2.45.686-3.663,1.025a.683.683,0,0,0-.181.1c.726-.955,1.438-1.926,2.121-2.952a4.847,4.847,0,0,0,.255-1.48,9.526,9.526,0,0,0-.024-1.475,4.348,4.348,0,0,0-.363-1.475.971.971,0,0,0-.291-.341.647.647,0,0,0-.5-.1,2.411,2.411,0,0,0-.709.4,22.647,22.647,0,0,0-4.285,4.024c-1.26,1.491-2.5,2.97-3.662,4.554a25.689,25.689,0,0,0-2.944,5.1,2.271,2.271,0,0,0-.218.786,5.254,5.254,0,0,0-.013.773,8.482,8.482,0,0,0,.216,1.483,4.745,4.745,0,0,0,.538,1.405.964.964,0,0,0,.623.5A.616.616,0,0,0,228.478,392.241Z" transform="translate(-3.771 -2.427)"/>
    <path id="路径_4193" data-name="路径 4193" d="M250.225,396.4a2.449,2.449,0,0,0,.409-1.328,2.6,2.6,0,0,0-.18-1.382.487.487,0,0,0-.288-.246.762.762,0,0,0-.369.021l-.673.148-1.339.324c-1.717.448-3.419.948-5.109,1.487l-.219-2.426a6.538,6.538,0,0,0-.192-1.341,1.441,1.441,0,0,0-.425-.647.722.722,0,0,0-.89-.036,1.772,1.772,0,0,0-.539,1.386l-.043,1.312-.072,2.387-5.929,2.129-3.059,1.114-1.537.531-.771.256a2.107,2.107,0,0,0-.478.228,1.787,1.787,0,0,0-.346.4,3.694,3.694,0,0,0-.488,1.726,5.353,5.353,0,0,0,.16,1.73,2.237,2.237,0,0,0,.417.852,2.285,2.285,0,0,0,.2.192,2.668,2.668,0,0,0,.278.138,1.337,1.337,0,0,0,.545,0q.807-.142,1.61-.309a56.094,56.094,0,0,0,5.788-1.531c-1.324,1.842-2.66,3.677-3.956,5.539l-2.092,3.036c-.342.511-.679,1.026-1,1.552-.16.265-.319.529-.465.8-.074.138-.145.278-.207.426a1.251,1.251,0,0,0-.114.37.461.461,0,0,0-.266.158.837.837,0,0,0-.164.379,2.4,2.4,0,0,0-.014.724,3.115,3.115,0,0,0,.169.7,2.227,2.227,0,0,0,.367.611.606.606,0,0,0,.455.271h.035l.018-.005a3.962,3.962,0,0,0,1.934-1.546,19.04,19.04,0,0,0,1.329-2.018l1.178-2.08c.386-.668.85-1.332,1.276-2l2.607-4,1.3-2,.652-1,.326-.5.163-.252c.014-.033.024-.069.037-.1a73.593,73.593,0,0,1-.531,11,13.384,13.384,0,0,1-.728,2.725c-.346.839-.918,1.576-1.628,1.46a.812.812,0,0,1-.276-.059,1.026,1.026,0,0,1-.281-.108l-.337-.162a.725.725,0,0,0-.839.143,1.667,1.667,0,0,0-.356.949,4.79,4.79,0,0,0-.016.81,4,4,0,0,0,.126.82,1.786,1.786,0,0,0,.082.234.988.988,0,0,0,.173.265l.276.278a4.706,4.706,0,0,0,1.273.973,2.393,2.393,0,0,0,.815.275,2.349,2.349,0,0,0,.891,0,2.975,2.975,0,0,0,1.46-.86,7.049,7.049,0,0,0,1.543-2.686,12.624,12.624,0,0,0,.636-2.954c.1-.977.193-1.955.265-2.935a106.489,106.489,0,0,0,.167-11.694A34.131,34.131,0,0,0,250.225,396.4Z" transform="translate(-3.925 -4.715)"/>
    <path id="路径_4194" data-name="路径 4194" d="M229.141,421.938l-.009-.011h0Z" transform="translate(-4.118 -8.837)"/>
    <path id="路径_4195" data-name="路径 4195" d="M267.513,425.637a2.472,2.472,0,0,0-.16-.3l-.272-.389-.545-.778c-.363-.518-.73-1.035-1.114-1.539-.762-1.012-1.528-2.024-2.352-2.989-1.629-1.946-3.353-3.8-5.107-5.622s-3.277-3.844-5.188-5.558a10.286,10.286,0,0,0-3.277-2.1l-.483-.144a2.5,2.5,0,0,0-.259-.069.821.821,0,0,0-.425.036.92.92,0,0,0-.538.564,2.466,2.466,0,0,0-.121.56,6.648,6.648,0,0,0,.182,2,3.073,3.073,0,0,0,.153.5,1.95,1.95,0,0,0,.3.468c.191.26.387.516.6.76.407.5.847.962,1.3,1.416.9.9,1.863,1.73,2.812,2.565a47.689,47.689,0,0,1,5.456,5.227c1.678,1.888,3.353,3.773,4.975,5.7.808.963,1.6,1.942,2.353,2.941a1.629,1.629,0,0,0,.474.465.954.954,0,0,0,.271.093,1.032,1.032,0,0,0,.35-.055.917.917,0,0,0,.358-.315,2.827,2.827,0,0,0,.374-1.085,5.837,5.837,0,0,0-.021-2.064Z" transform="translate(-6.574 -6.744)"/>
    <path id="路径_4196" data-name="路径 4196" d="M227.128,376.405a2.691,2.691,0,0,0,.4,1.2.446.446,0,0,0,.627.095,1.483,1.483,0,0,0,.418-.5,3.375,3.375,0,0,0,.374-1.219,8.015,8.015,0,0,0-.019-1.262,6.263,6.263,0,0,1,2.138-4.262,15.994,15.994,0,0,1,4.046-2.761,17.728,17.728,0,0,1,4.627-1.563,10.145,10.145,0,0,1,4.787.245,6.818,6.818,0,0,1,3.681,2.988,11.27,11.27,0,0,1,1.314,4.727c.09.828.121,1.665.19,2.5.035.421.066.83.124,1.261a1.542,1.542,0,0,0,.716,1.154.566.566,0,0,0,.429.016.734.734,0,0,0,.309-.258,1.882,1.882,0,0,0,.262-.638l.248-1.244a20.32,20.32,0,0,0,.241-2.524,18.924,18.924,0,0,0-.494-5.059,13.672,13.672,0,0,0-2.1-4.675,9.492,9.492,0,0,0-4.013-3.267,10.048,10.048,0,0,0-1.246-.426l-1.292-.249a16.868,16.868,0,0,0-2.6.023,16.4,16.4,0,0,0-4.96,1.331,14.494,14.494,0,0,0-7.047,6.681,1.517,1.517,0,0,0-.154-.179.6.6,0,0,0-.363-.179.454.454,0,0,0-.392.21,2.777,2.777,0,0,0-.295,1.151c-.089.742-.133,1.487-.158,2.23s-.021,1.489.016,2.231S227.07,375.665,227.128,376.405Z" transform="translate(-3.824 -0.713)"/>
    <path id="路径_4197" data-name="路径 4197" d="M222.033,397.055a.661.661,0,0,0-.626-.316,39.641,39.641,0,0,0-4.925.845c-1.566.371-3.116.81-4.649,1.305l-.409-4.392a30.4,30.4,0,0,0,4.677-2.09,19.8,19.8,0,0,0,2.227-1.466,1.878,1.878,0,0,0,.285-.239,1.363,1.363,0,0,0,.248-.363,3.654,3.654,0,0,0,.242-.691,6.975,6.975,0,0,0,.183-1.373,4.958,4.958,0,0,0-.121-1.41,1.816,1.816,0,0,0-.366-.743c-.058-.06-.12-.119-.183-.174a1.822,1.822,0,0,0-.257-.117,1.139,1.139,0,0,0-.518-.022,20.843,20.843,0,0,0-2.562.761c-1.531.553-3,1.208-4.484,1.795l-.454-2.6-.268-1.523a2.458,2.458,0,0,0-.313-.816.844.844,0,0,0-.437-.35.66.66,0,0,0-.6.128,1.986,1.986,0,0,0-.511,1.646l.141,1.538.27,2.928q-2.882.938-5.819,1.7l-1.5.378-.756.173a2.941,2.941,0,0,0-.783.232,2.172,2.172,0,0,0-.814,1.4,6.011,6.011,0,0,0-.123,1.584,5.386,5.386,0,0,0,.292,1.568,1.987,1.987,0,0,0,.428.721.891.891,0,0,0,.4.242,1.055,1.055,0,0,0,.454-.01c1.023-.173,2.044-.36,3.061-.566,1.927-.389,3.842-.855,5.73-1.428l.455,4.2a35.93,35.93,0,0,0-5.157,2.474,17.872,17.872,0,0,0-4.662,3.818,7.953,7.953,0,0,0-1.7,5.846,8.263,8.263,0,0,0,2.836,5.4c.388.347.821.618,1.231.928a11.249,11.249,0,0,0,1.378.723,5.921,5.921,0,0,0,3.124.435,5.4,5.4,0,0,0,2.843-1.369,7.946,7.946,0,0,0,1.884-2.451,13.823,13.823,0,0,0,1.459-5.85,34.077,34.077,0,0,0-.357-5.761c2.8-.892,5.59-1.815,8.4-2.673a2.944,2.944,0,0,0,.328.041.975.975,0,0,0,.379,0,.959.959,0,0,0,.455-.584,4.688,4.688,0,0,0,.26-1.372,5.836,5.836,0,0,0-.06-1.4A1.713,1.713,0,0,0,222.033,397.055Zm-12.492,14.477a4.688,4.688,0,0,1-1.861,2.814,4.448,4.448,0,0,1-3.551,0,8.072,8.072,0,0,1-1.861-1.044,4.3,4.3,0,0,1-.757-.7.9.9,0,0,1-.193-.382,2.359,2.359,0,0,1-.037-.475,4.739,4.739,0,0,1,.564-1.879,7.453,7.453,0,0,1,1.131-1.669,10.958,10.958,0,0,1,3.543-2.249c1.19-.518,2.411-.939,3.631-1.347A25.708,25.708,0,0,1,209.542,411.532Z" transform="translate(0 -3.683)"/>
  </g>
</svg>
