<svg xmlns="http://www.w3.org/2000/svg" width="131.177" height="127.837" viewBox="0 0 131.177 127.837">
  <g id="组_4856" data-name="组 4856" transform="translate(-557 -776.427)">
    <g id="组_487" data-name="组 487" transform="translate(557 776.427)">
      <g id="组_481" data-name="组 481" transform="translate(0)">
        <path id="路径_755" data-name="路径 755" d="M203.6,360.3c-.2,24.758-15.317,47.945-38.694,56.848-23.69,9.022-50.731.641-66.165-19.217a61.933,61.933,0,0,1-4.639-68.6c12.465-21.383,37.7-33.787,62.21-28.49,27.71,5.989,47.056,31.458,47.288,59.458.019,2.289,6.771,2.208,6.752-.118a64.475,64.475,0,0,0-42.972-60.048c-25.652-9.046-55.6-1.623-73.279,19.24-17.557,20.724-19.931,51.249-5.5,74.336,14.451,23.112,42.756,34.5,69.32,29.176,29.954-6.006,52.173-32,52.427-62.7C210.375,357.91,203.624,357.957,203.6,360.3Z" transform="translate(-79.179 -296.341)" fill="#043f98"/>
      </g>
      <g id="组_482" data-name="组 482" transform="translate(40.692 42.107)">
        <path id="路径_756" data-name="路径 756" d="M133.719,375.135a92.263,92.263,0,0,0,15.751,18.687c2.49,2.264,8.394,2.274,10.164-.959,1.586-2.9,3.728-5.479,5.365-8.367,1.844-3.253,3.229-6.626,4.772-10.022,3.13-6.889,5.493-14.292,8-21.438.239-.68-2-.777-2.242-.2-2.992,7.138-6.806,13.281-10.969,19.769-2.071,3.23-4.482,6.205-6.756,9.291-2.087,2.833-4.4,6.22-7.532,7.95l8.757.509a101.812,101.812,0,0,1-14.691-17.122c-1.45-2.135-4.428-2.584-6.831-2.139-1.465.272-5.188,1.853-3.787,4.044Z" transform="translate(-133.409 -352.457)" fill="#043f98"/>
      </g>
      <g id="组_483" data-name="组 483" transform="matrix(0.995, -0.105, 0.105, 0.995, 19.946, 24.52)">
        <path id="路径_757" data-name="路径 757" d="M39.279.829c-9.064,10.82-22.1,17.911-36.3,18.605-3.971.194-3.995,3.473.057,3.275,16.191-.791,31.58-7.822,42.055-20.328C47.046.049,40.619-.77,39.279.829Z" transform="translate(0 0)" fill="#043f98"/>
      </g>
      <g id="组_484" data-name="组 484" transform="matrix(0.995, -0.105, 0.105, 0.995, 69.351, 22.813)">
        <path id="路径_758" data-name="路径 758" d="M.159,2.024C6.4,11.934,16.372,18.141,27.8,20.223c3.119.568,6.156-2.382,1.726-3.189A34.863,34.863,0,0,1,6.6,1.041C5.417-.844-1.091.04.159,2.024Z" transform="translate(0 0)" fill="#043f98"/>
      </g>
      <g id="组_485" data-name="组 485" transform="matrix(0.995, -0.105, 0.105, 0.995, 22.1, 43.279)">
        <path id="路径_759" data-name="路径 759" d="M0,1.764c1.171,12.908,3.32,24.937,9.21,36.6A167.661,167.661,0,0,0,29.893,69.749c1.443,1.724,7.814.652,6.445-.984A170.9,170.9,0,0,1,16.259,38.551C10.139,26.8,7.89,14.725,6.7,1.647,6.492-.687-.2-.442,0,1.764Z" transform="translate(0 0)" fill="#043f98"/>
      </g>
      <g id="组_486" data-name="组 486" transform="matrix(0.995, -0.105, 0.105, 0.995, 57.558, 45.183)">
        <path id="路径_760" data-name="路径 760" d="M41.544,1.307C32.231,23.844,22.142,47.644.518,63.418c-2.5,1.827,4.79,2.886,6.619,1.552C29.1,48.95,39.454,24.962,48.917,2.064c.986-2.387-6.533-2.79-7.373-.758Z" transform="translate(0 0)" fill="#043f98"/>
      </g>
    </g>
  </g>
</svg>
