<svg xmlns="http://www.w3.org/2000/svg" width="481.099" height="170.917" viewBox="0 0 481.099 170.917">
  <g id="组_4844" data-name="组 4844" transform="translate(1.012 1.004)">
    <g id="组_4302" data-name="组 4302" transform="translate(0)">
      <path id="路径_460" data-name="路径 460" d="M875.071,466.266a109.165,109.165,0,0,1,16.954-3.765c1.617-.227,1.311-5.238-.124-5.037a109.218,109.218,0,0,0-16.953,3.765c-1.646.505-1.086,5.408.123,5.037Z" transform="translate(-551.588 -457.458)" fill="#fff" stroke="#fff" stroke-width="2"/>
      <path id="路径_461" data-name="路径 461" d="M353.355,519.725q-.694,16.4-.468,32.805c.009.6.21,2.57,1.161,2.491s1.047-1.912,1.037-2.545q-.229-15.736.423-31.464c.03-.711.1-2.8-.844-3.079s-1.279,1.087-1.309,1.792Z" transform="translate(-340.644 -481.924)" fill="#fff" stroke="#fff" stroke-width="2"/>
      <path id="路径_462" data-name="路径 462" d="M332.568,559.5c.6,2.831-.859,5.613.681,8.405,1.367,2.478,4.315,3.055,6.934,3.062,6.51.018,11.412-4.635,15.249-9.386l-.841.274c1.626.924,2.594,2.606,3.915,3.891,1.489,1.448,2.035-3.373,1-4.376-1.511-1.469-2.586-3.325-4.453-4.385-.339-.192-.63.013-.841.274-3.194,3.954-7.161,7.908-12.453,8.569-2.237.28-6.725.4-7.178-2.514-.324-2.089.276-4.235-.182-6.4-.2-.929-.759-1.45-1.527-.867-.807.612-.476,2.668-.31,3.455Z" transform="translate(-332.358 -497.267)" fill="#fff" stroke="#fff" stroke-width="2"/>
      <path id="路径_463" data-name="路径 463" d="M380.9,501.918a37.014,37.014,0,0,1,12.437-7.989c1.347-.526.932-5.48-.7-4.843a37.012,37.012,0,0,0-12.436,7.989,3.646,3.646,0,0,0-.692,3.116c.055.357.636,2.463,1.4,1.726Z" transform="translate(-351.416 -470.238)" fill="#fff" stroke="#fff" stroke-width="2"/>
      <path id="路径_464" data-name="路径 464" d="M378.668,488.831a100.882,100.882,0,0,0,3.166,36.286c.248.9.728,1.473,1.526.867.776-.59.519-2.7.31-3.456a89.965,89.965,0,0,1-2.849-32.41c.209-2.226-1.832-4.7-2.153-1.287Z" transform="translate(-350.923 -469.477)" fill="#fff" stroke="#fff" stroke-width="2"/>
      <path id="路径_465" data-name="路径 465" d="M387.718,548.75a432.289,432.289,0,0,1,59.552-20.81c1.646-.443,1.14-5.377-.124-5.037a436.54,436.54,0,0,0-60.132,21c-1.348.584-.88,5.529.7,4.843Z" transform="translate(-354.163 -483.944)" fill="#fff" stroke="#fff" stroke-width="2"/>
      <path id="路径_466" data-name="路径 466" d="M418.369,497.421l12.239-2.049c1.628-.272,1.277-5.271-.123-5.036l-12.24,2.049c-1.627.273-1.277,5.271.124,5.036Z" transform="translate(-366.688 -470.764)" fill="#fff" stroke="#fff" stroke-width="2"/>
      <path id="路径_467" data-name="路径 467" d="M419.045,481.136c-.362,4.135-.656,8.274-.856,12.421-.152,3.168-.811,6.923-.013,10.043.745,2.916,2.449,3.08,5.051,2.24,2.079-.671,4.147-1.376,6.221-2.064.864-.286,1.723-.591,2.591-.86,1.225-.38.9-.631,1.113-.021.392,1.146-1.7,4.826-2.224,5.97-.9,1.973-1.928,3.882-3.012,5.759-1.991,3.447-4.126,6.815-6.308,10.144q-6.747,10.293-14.429,19.92c-.883,1.11-.046,5.911,1.217,4.322q7.827-9.847,14.729-20.377c4.4-6.741,9.008-13.723,11.46-21.454.776-2.447,1.986-6.025.5-8.483-1.576-2.6-6.247.207-8.349.9-1.512.5-3.793,1.777-5.358,1.751-2.2-.036-1.161-3.646-1.083-5.376.2-4.524.512-9.04.908-13.551.062-.7.076-2.81-.844-3.079-.966-.283-1.248,1.093-1.309,1.792Z" transform="translate(-362.498 -466.302)" fill="#fff" stroke="#fff" stroke-width="2"/>
      <path id="路径_468" data-name="路径 468" d="M463.313,482.3a8.128,8.128,0,0,1,7.305.861c2.777,1.984,2.114,7.107,1.894,10.109a48.819,48.819,0,0,1-5.853,19.355,4.525,4.525,0,0,0-.31,3.455c.171.493.952,1.943,1.526.867a56.084,56.084,0,0,0,6.942-27.24c-.043-3.466-.036-7.754-2.589-10.447a9.065,9.065,0,0,0-9.62-1.8c-1.348.57-.892,5.517.7,4.842Z" transform="translate(-384.763 -465.288)" fill="#fff" stroke="#fff" stroke-width="2"/>
      <path id="路径_469" data-name="路径 469" d="M458.8,559.119a43.882,43.882,0,0,1,12.413,9.234c1.4,1.49,1.989-3.323,1-4.377a45.965,45.965,0,0,0-12.951-9.729c-1.436-.723-1.847,4.176-.465,4.871Z" transform="translate(-383.197 -496.61)" fill="#fff" stroke="#fff" stroke-width="2"/>
      <path id="路径_470" data-name="路径 470" d="M381.942,521.212a14.848,14.848,0,0,0,10.779-3.032c1.246-.959.46-5.738-.7-4.842a13.837,13.837,0,0,1-10.2,2.838c-1.4-.155-1.527,4.854.124,5.036Z" transform="translate(-351.942 -480.033)" fill="#fff" stroke="#fff" stroke-width="2"/>
      <path id="路径_471" data-name="路径 471" d="M386.657,538.922l12.629-5.741c1.347-.612.854-5.55-.7-4.842l-12.629,5.741c-1.347.613-.854,5.551.7,4.843Z" transform="translate(-353.737 -486.123)" fill="#fff" stroke="#fff" stroke-width="2"/>
      <path id="路径_472" data-name="路径 472" d="M507.561,532.958a66.355,66.355,0,0,0,18.193-12.613l-1.173-4.183a44.534,44.534,0,0,0-3.537,30.636c.214.92.749,1.458,1.527.867.8-.6.491-2.677.309-3.456a35.482,35.482,0,0,1,3.343-24.524c.348-.673-.034-5.294-1.173-4.183a66.366,66.366,0,0,1-18.193,12.613c-1.346.633-.834,5.566.7,4.843Z" transform="translate(-402.682 -480.885)" fill="#fff" stroke="#fff" stroke-width="2"/>
      <path id="路径_473" data-name="路径 473" d="M564.2,470.232c-4.445,1.611-3.041,9.469,1.018,10.706,5.3,1.613,11.513-4.349,15.952-6.542,2.273-1.123,5.641-2.617,8.208-1.5,1.893.822,1.456,2.417,1.018,4.1a39.626,39.626,0,0,1-5.381,11.447c-.776,1.18.149,5.946,1.217,4.322,3.681-5.6,9.447-15.788,5.82-22.571-2.262-4.231-7.777-2.452-11.193-.831-2.8,1.327-5.347,3.09-8.043,4.595a15.075,15.075,0,0,1-5.172,2.165c-.78.1-4.468-.418-2.74-1.044,1.344-.487.964-5.447-.7-4.842Z" transform="translate(-425.097 -461.55)" fill="#fff" stroke="#fff" stroke-width="2"/>
      <path id="路径_474" data-name="路径 474" d="M583.381,497.715a143.421,143.421,0,0,1-.2,35.757c-.29,2.238,1.712,4.678,2.153,1.287a154.29,154.29,0,0,0,.134-38.435c-.084-.693-.459-2.082-1.4-1.725-.894.339-.771,2.459-.692,3.116Z" transform="translate(-433.882 -472.47)" fill="#fff" stroke="#fff" stroke-width="2"/>
      <path id="路径_475" data-name="路径 475" d="M563.911,535.528a48.85,48.85,0,0,1-8.4,13.212c-.938,1.062-.156,5.875,1.216,4.322a51.774,51.774,0,0,0,8.822-14.011,4.455,4.455,0,0,0-.088-3.562c-.5-.8-1.127-.961-1.555.038Z" transform="translate(-422.528 -488.78)" fill="#fff" stroke="#fff" stroke-width="2"/>
      <path id="路径_476" data-name="路径 476" d="M583.594,543.856l30.625,2.353c1.442.111,1.509-4.912-.124-5.037l-30.624-2.353c-1.442-.111-1.51,4.912.123,5.037Z" transform="translate(-433.568 -490.393)" fill="#fff" stroke="#fff" stroke-width="2"/>
      <path id="路径_477" data-name="路径 477" d="M683.06,506.112a56.627,56.627,0,0,0,4.116,26.691c.442,1.065,1.079.648,1.555-.038.605-.874.286-2.662-.087-3.562a46.269,46.269,0,0,1-3.431-21.8c.06-.7.078-2.809-.843-3.079-.965-.282-1.25,1.093-1.309,1.792Z" transform="translate(-474.239 -476.413)" fill="#fff" stroke="#fff" stroke-width="2"/>
      <path id="路径_478" data-name="路径 478" d="M700.158,486.668a162.165,162.165,0,0,1,26.528-5.256c5.721-.634,12.338-.474,14.095,6.172a25.886,25.886,0,0,1,.4,8.293c-.3,4.531-.589,9.058-.8,13.594-.432,9.39-.782,18.784-1.847,28.13-.254,2.233,1.766,4.688,2.153,1.287,1.217-10.683,1.49-21.427,2.041-32.156.373-7.249,1.878-15.2-.276-22.312-1.711-5.651-6.082-8.5-11.932-8.383-10.17.209-20.753,2.823-30.487,5.593-1.646.469-1.118,5.39.124,5.037Z" transform="translate(-480.777 -464.978)" fill="#fff" stroke="#fff" stroke-width="2"/>
      <path id="路径_479" data-name="路径 479" d="M710.506,508.488a69.693,69.693,0,0,0,15.41-6.287c1.33-.74.725-5.637-.7-4.842a67.057,67.057,0,0,1-14.831,6.093c-1.646.455-1.13,5.383.124,5.037Z" transform="translate(-484.965 -473.575)" fill="#fff" stroke="#fff" stroke-width="2"/>
      <path id="路径_480" data-name="路径 480" d="M713.263,533.859l.057,14.2c.006,1.519,1.411,3.8,2.08,1.221.885-3.409,2.225-7.527,4.733-10.1,1.2-1.231,3.487-2.467,3.861-.112.285,1.8-1.377,3.8-2.526,4.976-.986,1.011-.256,5.831,1.217,4.322a12.9,12.9,0,0,0,3.547-8.374c.129-2.087.1-5.913-2.112-7.049-5.814-2.993-9.813,10.512-10.68,13.846l2.08,1.221-.057-14.2c0-.6-.214-2.569-1.161-2.491-.971.08-1.04,1.911-1.037,2.545Z" transform="translate(-486.551 -487.355)" fill="#fff" stroke="#fff" stroke-width="2"/>
      <path id="路径_481" data-name="路径 481" d="M718.448,565.608q7.256-2.161,14.286-4.957c1.348-.537.923-5.49-.7-4.842q-6.75,2.688-13.706,4.763c-1.646.49-1.1,5.4.124,5.036Z" transform="translate(-488.184 -497.248)" fill="#fff" stroke="#fff" stroke-width="2"/>
      <path id="路径_482" data-name="路径 482" d="M826.021,473.346a17.54,17.54,0,0,1-4.774,5.813c-.836.667-.834,2.159-.692,3.116.064.433.574,2.383,1.4,1.726a21.06,21.06,0,0,0,5.713-7.132,4.483,4.483,0,0,0-.087-3.562c-.471-.922-1.111-.847-1.555.038Z" transform="translate(-529.955 -463.607)" fill="#fff" stroke="#fff" stroke-width="2"/>
      <path id="路径_483" data-name="路径 483" d="M814.235,509.588a25.152,25.152,0,0,0,6.565-6.277c.942-1.236,1.829-2.512,2.784-3.738.475-.609,2.828-3.95,3.572-3.789,1.405.3.671,9.969.654,11.418l-.139,12.3c-.034,3,2.165,2.939,2.2-.054.059-5.219.129-10.437.177-15.656a63.865,63.865,0,0,0-.21-7.17c-.161-1.558-.195-3.919-1.217-5.22-2-2.547-5.349,2.67-6.513,4.182-2.618,3.4-4.863,6.825-8.576,9.159-1.307.822-.632,5.682.7,4.842Z" transform="translate(-526.856 -470.921)" fill="#fff" stroke="#fff" stroke-width="2"/>
      <path id="路径_484" data-name="路径 484" d="M865.739,483.243,878,481.28c2.277-.365,3.435-.5,4.693,1.736a15.814,15.814,0,0,1,1.316,3.66,32.718,32.718,0,0,1,.076,16.292A18.846,18.846,0,0,1,881,509.773c-2.016,2.636-4.963,4.009-7.912,5.351a146.412,146.412,0,0,1-22.577,8.064c-1.646.443-1.139,5.377.124,5.037,9.009-2.426,18.441-5.391,26.63-9.94,5.839-3.244,8.332-9.441,9.383-15.759a42.7,42.7,0,0,0-1.2-19.8c-.683-2.114-1.74-5.914-4.079-6.723-1.965-.68-5.595.577-7.577.895l-8.174,1.309c-1.625.26-1.286,5.262.123,5.036Z" transform="translate(-541.688 -464.885)" fill="#fff" stroke="#fff" stroke-width="2"/>
    </g>
    <g id="组_4303" data-name="组 4303" transform="translate(88.027 78.422)">
      <path id="路径_485" data-name="路径 485" d="M391.484,657.314a130.487,130.487,0,0,0,19.292-7.49c1.347-.651.819-5.589-.7-4.851a126.643,126.643,0,0,1-18.711,7.3c-1.649.495-1.1,5.413.123,5.046Z" transform="translate(-364.522 -635.495)" fill="#fff" stroke="#fff" stroke-width="2"/>
      <path id="路径_486" data-name="路径 486" d="M396.659,771.146a33.075,33.075,0,0,0,12.692-9.519c.905-1.1.088-5.91-1.219-4.33a31.6,31.6,0,0,1-12.178,9c-1.351.571-.895,5.528.7,4.852Z" transform="translate(-366.471 -680.743)" fill="#fff" stroke="#fff" stroke-width="2"/>
      <path id="路径_487" data-name="路径 487" d="M587.411,653.827a54.83,54.83,0,0,0,12.284,3.633c1.326.23,1.552-4.756-.123-5.046a52.187,52.187,0,0,1-11.695-3.467c-1.536-.658-1.862,4.283-.466,4.88Z" transform="translate(-443.725 -637.106)" fill="#fff" stroke="#fff" stroke-width="2"/>
      <path id="路径_488" data-name="路径 488" d="M813.72,666.239a35.06,35.06,0,0,0,15.637-4.027c1.34-.7.772-5.621-.7-4.852a33.579,33.579,0,0,1-15.056,3.832c-1.542.032-1.44,5.079.124,5.047Z" transform="translate(-534.948 -640.494)" fill="#fff" stroke="#fff" stroke-width="2"/>
      <path id="路径_489" data-name="路径 489" d="M863.859,645.568q11.693-5.226,22.862-11.5c1.331-.748.719-5.651-.7-4.852q-11.166,6.273-22.862,11.5c-1.35.6-.865,5.553.7,4.852Z" transform="translate(-555.082 -629.13)" fill="#fff" stroke="#fff" stroke-width="2"/>
      <g id="组_314" data-name="组 314" transform="translate(0 8.55)">
        <path id="路径_490" data-name="路径 490" d="M348.277,692.579a48.31,48.31,0,0,0,16.448-3.036c1.348-.495.961-5.463-.7-4.851a46.631,46.631,0,0,1-15.866,2.841c-1.53.012-1.452,5.058.123,5.046Z" transform="translate(-347.049 -660.089)" fill="#fff" stroke="#fff" stroke-width="2"/>
        <path id="路径_491" data-name="路径 491" d="M349.73,717.117a77.3,77.3,0,0,0,14.668-7.433c1.3-.844.609-5.7-.7-4.851a77.293,77.293,0,0,1-14.668,7.433c-1.349.512-.946,5.478.705,4.852Z" transform="translate(-347.52 -668.2)" fill="#fff" stroke="#fff" stroke-width="2"/>
        <path id="路径_492" data-name="路径 492" d="M371.723,718.347a261.585,261.585,0,0,1-20.213,17.977c-1.233.987-.424,5.755.7,4.851A261.607,261.607,0,0,0,372.428,723.2c1.133-1.117.226-5.77-.7-4.852Z" transform="translate(-348.601 -673.648)" fill="#fff" stroke="#fff" stroke-width="2"/>
        <path id="路径_493" data-name="路径 493" d="M402.664,676.717a39.146,39.146,0,0,1,9.956-2.933c2.013-.3,8.295-1.563,9.815.292.673.821.629,3.251.674,4.284a21.166,21.166,0,0,1-.318,4.634,23.7,23.7,0,0,1-3.806,9.124c-.793,1.175.123,5.955,1.219,4.33a30.552,30.552,0,0,0,4.4-23.6c-.327-1.484-.662-3.308-2.113-4.089-1.677-.9-4.433-.495-6.261-.4a40.785,40.785,0,0,0-14.269,3.5c-1.351.591-.875,5.544.7,4.852Z" transform="translate(-368.897 -653.448)" fill="#fff" stroke="#fff" stroke-width="2"/>
        <path id="路径_494" data-name="路径 494" d="M405.949,702.394a68.442,68.442,0,0,1,14.566-7.372c1.346-.491.964-5.46-.705-4.851a68.439,68.439,0,0,0-14.565,7.372c-1.3.862-.587,5.711.7,4.852Z" transform="translate(-370.265 -662.301)" fill="#fff" stroke="#fff" stroke-width="2"/>
        <path id="路径_495" data-name="路径 495" d="M402.932,721.142a64.029,64.029,0,0,0,15.585-4.874c1.35-.618.85-5.565-.705-4.851a61.526,61.526,0,0,1-15,4.679c-1.634.289-1.267,5.292.124,5.046Z" transform="translate(-369.123 -670.87)" fill="#fff" stroke="#fff" stroke-width="2"/>
        <path id="路径_496" data-name="路径 496" d="M400.839,690.606l-.139,46.677c-.009,3,2.194,2.95,2.2-.054l.139-46.678c.009-3-2.194-2.95-2.2.054Z" transform="translate(-368.708 -661.577)" fill="#fff" stroke="#fff" stroke-width="2"/>
        <path id="路径_497" data-name="路径 497" d="M443.981,731.587a64.5,64.5,0,0,1-8.634,8.058c-1.244.968-.451,5.75.705,4.852a68.585,68.585,0,0,0,9.148-8.58c.943-1.06.163-5.883-1.219-4.33Z" transform="translate(-382.44 -678.918)" fill="#fff" stroke="#fff" stroke-width="2"/>
        <path id="路径_498" data-name="路径 498" d="M416.5,743.774c11.757,5.035,24.531,6.781,37.065,8.8,13.392,2.157,26.8,4.2,40.215,6.236,1.353.206,1.546-4.792-.124-5.046-13.027-1.981-26.055-3.962-39.067-6.051-12.705-2.04-25.7-3.713-37.622-8.818-1.537-.658-1.862,4.283-.466,4.88Z" transform="translate(-374.727 -681.967)" fill="#fff" stroke="#fff" stroke-width="2"/>
        <path id="路径_499" data-name="路径 499" d="M523.548,691.427a26.12,26.12,0,0,0,2.324,5.7.721.721,0,0,0,.564.331c1.544-.111,2.354-1.742,3.209-2.889,1.188-1.593,2.324-3.241,3.667-4.711a8.542,8.542,0,0,1,2.2-2.038q.981-1.113.657.18a16.533,16.533,0,0,1-.77,1.741c-1.023,2.14-2.185,4.222-3.277,6.327-.356.686-.545,4.5.885,4.288a7.718,7.718,0,0,0,2.355-.738c1.346-.655.815-5.591-.705-4.852a3.855,3.855,0,0,1-1.773.544l.884,4.288c1.68-3.238,3.973-6.606,4.639-10.24.3-1.612.555-6.271-1.47-7.107-1.948-.8-4.911,3.3-5.937,4.571-.987,1.219-1.887,2.506-2.828,3.76q-.381.515-.775,1.021-.788,1.234-.934.2c-.531-.462-.83-2.3-1.073-2.969-1.112-3.077-2.414,1-1.839,2.593Z" transform="translate(-418.245 -659.083)" fill="#fff" stroke="#fff" stroke-width="2"/>
        <path id="路径_500" data-name="路径 500" d="M544.83,710.049l-2.983,1.2c-.906.365-1.487.553-1.86,1.524-.74,1.923-.336,4.586.056,6.541.125.622.448,2.171,1.4,1.729.853-.4.833-2.425.693-3.123a14.311,14.311,0,0,1-.24-1.438q-.028-.425-.032-.851.006-.579-.128.427l-.47.661a6.947,6.947,0,0,1,1.927-.878l2.344-.944c1.35-.544.918-5.506-.706-4.851Z" transform="translate(-424.771 -670.322)" fill="#fff" stroke="#fff" stroke-width="2"/>
        <path id="路径_501" data-name="路径 501" d="M520.079,724.379c.89,9.341,12.2,11.687,19.833,12.893,7.036,1.113,17.082,1.33,19.229-7.2.407-1.616-1.168-5.667-1.965-2.5-1.618,6.426-11.934,5.447-16.755,4.747-5.076-.737-17.616-2.673-18.251-9.337-.067-.7-.471-2.082-1.4-1.729-.907.345-.756,2.459-.693,3.123Z" transform="translate(-416.881 -674.848)" fill="#fff" stroke="#fff" stroke-width="2"/>
        <path id="路径_502" data-name="路径 502" d="M589.431,679.845l-3.8,10.479a4.648,4.648,0,0,0,.088,3.568c.449.793,1.187.983,1.557-.038l3.8-10.478a4.648,4.648,0,0,0-.088-3.568c-.449-.792-1.187-.983-1.557.038Z" transform="translate(-443.237 -657.87)" fill="#fff" stroke="#fff" stroke-width="2"/>
        <path id="路径_503" data-name="路径 503" d="M599.473,684.21a101.461,101.461,0,0,0-4.028,22.119c-.049.707-.085,2.813.846,3.085.96.281,1.262-1.092,1.311-1.8a95.783,95.783,0,0,1,3.836-20.908c.485-1.617-1.026-5.631-1.965-2.5Z" transform="translate(-447.318 -659.446)" fill="#fff" stroke="#fff" stroke-width="2"/>
        <path id="路径_504" data-name="路径 504" d="M614.328,681.036a299.267,299.267,0,0,1,2.432,45.215c-.013.6.225,2.574,1.163,2.5.984-.082,1.026-1.914,1.039-2.55a308.079,308.079,0,0,0-2.543-46.555c-.091-.692-.455-2.087-1.4-1.729-.891.339-.779,2.466-.693,3.122Z" transform="translate(-454.927 -657.35)" fill="#fff" stroke="#fff" stroke-width="2"/>
        <path id="路径_505" data-name="路径 505" d="M612.315,713.884a125.545,125.545,0,0,1,16.3,5.438c1.559.64,1.863-4.307.466-4.881a130.142,130.142,0,0,0-16.888-5.6c-1.206-.312-1.561,4.611.124,5.046Z" transform="translate(-453.673 -669.852)" fill="#fff" stroke="#fff" stroke-width="2"/>
        <path id="路径_506" data-name="路径 506" d="M687.581,670.7a57.685,57.685,0,0,0,23.145-6.244c1.342-.684.786-5.611-.705-4.851a56.086,56.086,0,0,1-22.564,6.049c-1.568.085-1.408,5.129.124,5.046Z" transform="translate(-484.026 -649.949)" fill="#fff" stroke="#fff" stroke-width="2"/>
        <path id="路径_507" data-name="路径 507" d="M580.531,675.316a87.173,87.173,0,0,0,35.4-9.54c1.342-.689.781-5.614-.705-4.852a85.612,85.612,0,0,1-34.817,9.345c-1.567.08-1.411,5.125.123,5.046Z" transform="translate(-440.81 -650.483)" fill="#fff" stroke="#fff" stroke-width="2"/>
        <path id="路径_508" data-name="路径 508" d="M684.159,697.765c4.583,2.872,11.575.7,16.477-.323a106.762,106.762,0,0,0,17.318-5.247c1.35-.533.928-5.5-.705-4.852a103.024,103.024,0,0,1-16.737,5.052c-4.584.96-11.608,3.171-15.887.489-1.277-.8-1.809,4.039-.466,4.881Z" transform="translate(-482.823 -661.157)" fill="#fff" stroke="#fff" stroke-width="2"/>
        <path id="路径_509" data-name="路径 509" d="M709.059,677.939c-.971,14.112-10.218,26-13.892,39.41-.444,1.617,1.1,5.652,1.964,2.5,3.816-13.924,13.07-25.88,14.085-40.621.049-.707.085-2.812-.845-3.085-.959-.28-1.263,1.093-1.311,1.8Z" transform="translate(-487.552 -656.644)" fill="#fff" stroke="#fff" stroke-width="2"/>
        <path id="路径_510" data-name="路径 510" d="M717.249,716.77c12.966.53,25.629,3.336,38.241,6.2,1.251.284,1.56-4.664-.124-5.046-12.612-2.865-25.275-5.673-38.241-6.2-1.483-.06-1.489,4.98.124,5.046Z" transform="translate(-496.004 -671.022)" fill="#fff" stroke="#fff" stroke-width="2"/>
        <path id="路径_511" data-name="路径 511" d="M822.477,693.151a32.537,32.537,0,0,0,14.1-4.614c1.318-.8.664-5.68-.706-4.852a30.961,30.961,0,0,1-13.516,4.419c-1.592.141-1.373,5.178.124,5.046Z" transform="translate(-538.485 -659.665)" fill="#fff" stroke="#fff" stroke-width="2"/>
        <path id="路径_512" data-name="路径 512" d="M829.353,724.027a125.519,125.519,0,0,0,13.475-19.8,4.5,4.5,0,0,0,.311-3.462c-.175-.5-.943-1.935-1.53-.868a125.535,125.535,0,0,1-13.474,19.8c-.908,1.093-.092,5.908,1.219,4.33Z" transform="translate(-541.107 -666.092)" fill="#fff" stroke="#fff" stroke-width="2"/>
        <path id="路径_513" data-name="路径 513" d="M864.1,646.647a203.855,203.855,0,0,1-.872,49.8c-.314,2.245,1.684,4.679,2.157,1.289a214.812,214.812,0,0,0,.806-52.485c-.074-.7-.466-2.083-1.4-1.729-.9.343-.764,2.461-.693,3.122Z" transform="translate(-555.416 -643.467)" fill="#fff" stroke="#fff" stroke-width="2"/>
        <path id="路径_514" data-name="路径 514" d="M885.979,666.222c2.711-1.108,5.437-1.832,7.47-4.057l-1.219-4.33a87.431,87.431,0,0,0-6.247,11.846c-.9,2.193-1.667,4.984-.536,7.255,1.143,2.3,3.788,1.742,5.89,1.366,4.7-.844,9.317-2.125,13.991-3.1,1.642-.344,1.224-5.329-.124-5.046-2.878.6-5.733,1.305-8.6,1.964-2.516.579-5.3,1.488-7.894,1.493a5.6,5.6,0,0,1-1.131-.047q-.978-.556-.268.414c.084-1.128,1.192-2.689,1.683-3.7,1.35-2.779,2.852-5.471,4.455-8.111.591-.973.321-6.016-1.219-4.33-1.779,1.947-4.6,2.571-6.956,3.535-1.351.552-.912,5.512.7,4.852Z" transform="translate(-564.007 -649.13)" fill="#fff" stroke="#fff" stroke-width="2"/>
        <path id="路径_515" data-name="路径 515" d="M877.087,719.539c4.806.05,9.559-.224,12.993-3.971.958-1.045.193-5.871-1.219-4.33-3.032,3.308-7.75,3.3-11.9,3.254-1.513-.015-1.466,5.03.124,5.047Z" transform="translate(-560.53 -670.705)" fill="#fff" stroke="#fff" stroke-width="2"/>
        <path id="路径_516" data-name="路径 516" d="M886.392,704.9c-.331,3.889-.467,7.853-1.423,11.644-.595,2.358-1.138,4.993-.354,7.379.8,2.435,2.85,3.229,5.3,2.806,3.495-.6,6.891-2.244,10.339-3.127a451.367,451.367,0,0,1,53.621-10.386c1.615-.211,1.324-5.236-.123-5.046-15.42,2.015-30.892,4.448-45.952,8.374-3.649.952-7.337,1.813-10.965,2.835-2.586.728-5.116,2.231-7.823,2.412-3.724.249-2.03-2.478-1.56-4.844a98.2,98.2,0,0,0,1.1-10.759c.06-.7.077-2.815-.846-3.085-.967-.283-1.252,1.095-1.311,1.8Z" transform="translate(-563.906 -667.528)" fill="#fff" stroke="#fff" stroke-width="2"/>
      </g>
    </g>
  </g>
</svg>
