<svg xmlns="http://www.w3.org/2000/svg" width="131.177" height="127.837" viewBox="0 0 131.177 127.837">
  <g id="组_508" data-name="组 508" transform="translate(0 0)">
    <g id="组_500" data-name="组 500" transform="translate(0)">
      <path id="路径_772" data-name="路径 772" d="M615.6,359.3c-.2,24.758-15.317,47.945-38.695,56.848-23.69,9.022-50.731.641-66.165-19.217a61.933,61.933,0,0,1-4.639-68.6c12.465-21.383,37.7-33.787,62.21-28.49,27.71,5.989,47.056,31.458,47.288,59.458.019,2.289,6.771,2.208,6.752-.118a64.475,64.475,0,0,0-42.972-60.048c-25.652-9.046-55.6-1.623-73.279,19.24-17.557,20.724-19.931,51.249-5.5,74.336,14.451,23.112,42.756,34.5,69.32,29.176,29.954-6.006,52.173-32,52.427-62.7C622.375,356.91,615.624,356.957,615.6,359.3Z" transform="translate(-491.179 -295.341)" fill="#043f98"/>
    </g>
    <g id="组_501" data-name="组 501" transform="translate(53.694 57.18)">
      <path id="路径_773" data-name="路径 773" d="M563.05,387.647a62.314,62.314,0,0,0,10.581,12.514c2.06,1.874,9.109,2.622,10.164-.959.6-2.05,2.251-3.872,3.249-5.771a56.813,56.813,0,0,0,2.581-6.239c1.9-4.938,3.323-10.044,5.013-15.069.231-.687-1.994-.769-2.242-.2a69.846,69.846,0,0,1-7.714,12.884c-1.369,1.914-2.9,3.658-4.362,5.494-1.1,1.378-3.032,4.7-4.77,5.353l7.639,1.041a73.063,73.063,0,0,1-9.5-10.953c-1.494-2.121-4.4-2.6-6.843-2.144-1.461.27-5.2,1.861-3.793,4.052Z" transform="translate(-562.738 -371.545)" fill="#043f98"/>
    </g>
    <g id="组_502" data-name="组 502" transform="translate(37.189 36.973)">
      <path id="路径_774" data-name="路径 774" d="M547.824,362.3c5.814-9.088,15.979-15.251,26.987-14.27,9.848.878,18.587,7.188,23.316,15.743,9.753,17.642.1,42.157-20.346,46.137-12.283,2.391-24.1-4.293-30.39-14.684-1.162-1.919-7.736-1.054-6.5.993,13.347,22.049,47.117,23.38,61.94,2.124a34.064,34.064,0,0,0,2.684-33.82c-5.055-10.594-15.448-17.695-26.942-19.46A37.391,37.391,0,0,0,541.3,361.535c-1.231,1.923,5.294,2.691,6.526.766Z" transform="translate(-540.741 -344.615)" fill="#043f98"/>
    </g>
    <g id="组_503" data-name="组 503" transform="translate(18.768 56.455)">
      <path id="路径_775" data-name="路径 775" d="M520.064,376.592c10.122-1.508,20.22-1.546,30.359-2.547,2.948-.291,2.707-2.646-.053-3-10.428-1.328-21.871.363-32.074,2.567-4.268.921-1.2,3.421,1.768,2.977Z" transform="translate(-516.191 -370.579)" fill="#043f98"/>
    </g>
    <g id="组_504" data-name="组 504" transform="translate(14.125 64.973)">
      <path id="路径_776" data-name="路径 776" d="M511.125,388.386c5.5.274,11.162-1.263,16.6-2.012,5.619-.775,11.946-.646,17.345-2.4,1.82-.593.888-1.7-.588-1.87-5.715-.663-11.974.774-17.615,1.63-5.121.777-11.861,1.042-16.456,3.583-.969.536.021,1.038.717,1.073Z" transform="translate(-510.004 -381.931)" fill="#043f98"/>
    </g>
    <g id="组_505" data-name="组 505" transform="translate(19.677 73.99)">
      <path id="路径_777" data-name="路径 777" d="M519.621,401.346a74.189,74.189,0,0,0,14.714-.881c4.438-.6,10.294-.876,14.132-3.322,2.843-1.811-.976-3.155-2.7-3.191-4.321-.092-8.68,1.661-12.925,2.428-4.4.795-8.872,1.093-13.271,1.873-2.786.494-3,2.9.054,3.093Z" transform="translate(-517.403 -393.948)" fill="#043f98"/>
    </g>
    <g id="组_506" data-name="组 506" transform="translate(52.759 23.618)">
      <path id="路径_778" data-name="路径 778" d="M563.584,330.311a69.788,69.788,0,0,0,12.129.5c3.776-.043,7.853.2,11.477-.946,2.614-.83,1.147-2.467-.811-2.8-3.493-.588-7.2.041-10.729.128-4.034.1-8.1-.089-12.116.246-2.938.246-2.515,2.443.05,2.871Z" transform="translate(-561.491 -326.817)" fill="#043f98"/>
    </g>
    <g id="组_507" data-name="组 507" transform="translate(64.675 25.091)">
      <path id="路径_779" data-name="路径 779" d="M578.157,330.041a99.51,99.51,0,0,0-.72,14.694c.083,1.615,4.846,1.609,5.239.233a34.792,34.792,0,0,0,.545-15.015c-.28-1.6-4.9-1.555-5.064.088Z" transform="translate(-577.372 -328.78)" fill="#043f98"/>
    </g>
  </g>
</svg>
