<svg xmlns="http://www.w3.org/2000/svg" width="467.36" height="168.208" viewBox="0 0 467.36 168.208">
  <g id="组_4841" data-name="组 4841" transform="translate(-158.256 -227.625)">
    <g id="组_313" data-name="组 313" transform="translate(159.264 228.629)">
      <path id="路径_460" data-name="路径 460" d="M874.863,464.674a89.437,89.437,0,0,1,13.891-3.084c1.324-.186,1.074-4.291-.1-4.127a89.486,89.486,0,0,0-13.89,3.085c-1.348.414-.89,4.431.1,4.126Z" transform="translate(-609.83 -457.458)" fill="#fff" stroke="#fff" stroke-width="2"/>
      <path id="路径_461" data-name="路径 461" d="M353.26,519.395q-.568,13.433-.384,26.878c.007.492.172,2.106.951,2.041s.858-1.567.85-2.085q-.188-12.893.347-25.779c.024-.582.08-2.3-.691-2.523s-1.048.891-1.073,1.468Z" transform="translate(-342.846 -488.424)" fill="#fff" stroke="#fff" stroke-width="2"/>
      <path id="路径_462" data-name="路径 462" d="M332.53,558.83c.49,2.319-.7,4.6.558,6.887,1.12,2.031,3.535,2.5,5.681,2.509,5.334.015,9.35-3.8,12.494-7.69l-.689.225c1.332.757,2.125,2.135,3.208,3.188,1.22,1.187,1.667-2.764.822-3.586-1.238-1.2-2.119-2.724-3.649-3.593-.277-.158-.516.011-.689.225-2.617,3.24-5.867,6.479-10.2,7.021-1.833.229-5.509.331-5.881-2.06-.266-1.711.226-3.47-.149-5.246-.16-.761-.622-1.188-1.251-.71-.661.5-.39,2.186-.254,2.831Z" transform="translate(-332.358 -507.843)" fill="#fff" stroke="#fff" stroke-width="2"/>
      <path id="路径_463" data-name="路径 463" d="M380.638,499.589a30.326,30.326,0,0,1,10.19-6.546c1.1-.431.764-4.49-.577-3.968a30.323,30.323,0,0,0-10.189,6.546,2.987,2.987,0,0,0-.567,2.553c.045.293.521,2.018,1.143,1.414Z" transform="translate(-356.479 -473.634)" fill="#fff" stroke="#fff" stroke-width="2"/>
      <path id="路径_464" data-name="路径 464" d="M378.587,488.527a82.652,82.652,0,0,0,2.594,29.73c.2.739.6,1.207,1.25.71.636-.483.425-2.209.254-2.831a73.708,73.708,0,0,1-2.334-26.554c.171-1.824-1.5-3.85-1.764-1.054Z" transform="translate(-355.855 -472.669)" fill="#fff" stroke="#fff" stroke-width="2"/>
      <path id="路径_465" data-name="路径 465" d="M387.448,544.077a354.223,354.223,0,0,1,48.792-17.05c1.349-.363.934-4.405-.1-4.127a357.666,357.666,0,0,0-49.267,17.209c-1.1.479-.721,4.53.576,3.967Z" transform="translate(-359.956 -490.98)" fill="#fff" stroke="#fff" stroke-width="2"/>
      <path id="路径_466" data-name="路径 466" d="M418.151,496.139l10.028-1.679c1.334-.223,1.046-4.319-.1-4.126l-10.028,1.678c-1.333.223-1.046,4.319.1,4.126Z" transform="translate(-375.809 -474.299)" fill="#fff" stroke="#fff" stroke-width="2"/>
      <path id="路径_467" data-name="路径 467" d="M416.835,480.806c-.3,3.388-.537,6.779-.7,10.176-.125,2.6-.665,5.672-.011,8.229.611,2.389,2.007,2.524,4.138,1.836,1.7-.55,3.4-1.128,5.1-1.691.708-.235,1.411-.484,2.123-.7,1-.311.741-.517.912-.017.321.939-1.4,3.954-1.822,4.891-.736,1.617-1.579,3.18-2.468,4.719-1.632,2.824-3.381,5.584-5.169,8.311q-5.528,8.433-11.822,16.321c-.723.91-.038,4.843,1,3.541q6.413-8.068,12.068-16.7c3.6-5.523,7.38-11.244,9.39-17.578.635-2,1.627-4.936.406-6.95-1.291-2.13-5.118.17-6.841.741-1.239.411-3.107,1.456-4.39,1.435-1.8-.03-.951-2.987-.888-4.4.165-3.707.42-7.407.744-11.1.051-.575.063-2.3-.691-2.523-.791-.232-1.022.9-1.072,1.468Z" transform="translate(-370.505 -468.652)" fill="#fff" stroke="#fff" stroke-width="2"/>
      <path id="路径_468" data-name="路径 468" d="M463.042,481.3a6.66,6.66,0,0,1,5.985.705c2.275,1.625,1.732,5.823,1.552,8.283a40,40,0,0,1-4.8,15.858,3.708,3.708,0,0,0-.254,2.831c.14.4.78,1.592,1.25.71a45.951,45.951,0,0,0,5.687-22.318c-.036-2.84-.03-6.353-2.121-8.559a7.427,7.427,0,0,0-7.882-1.477c-1.1.467-.731,4.52.577,3.968Z" transform="translate(-398.685 -467.368)" fill="#fff" stroke="#fff" stroke-width="2"/>
      <path id="路径_469" data-name="路径 469" d="M458.642,558.225a35.955,35.955,0,0,1,10.17,7.566c1.143,1.221,1.63-2.722.822-3.586a37.66,37.66,0,0,0-10.611-7.971c-1.177-.592-1.513,3.421-.381,3.991Z" transform="translate(-396.703 -507.011)" fill="#fff" stroke="#fff" stroke-width="2"/>
      <path id="路径_470" data-name="路径 470" d="M381.724,519.769a12.166,12.166,0,0,0,8.832-2.484c1.021-.786.377-4.7-.577-3.967a11.337,11.337,0,0,1-8.356,2.325c-1.149-.127-1.251,3.977.1,4.126Z" transform="translate(-357.144 -486.031)" fill="#fff" stroke="#fff" stroke-width="2"/>
      <path id="路径_471" data-name="路径 471" d="M386.388,537l10.347-4.7c1.1-.5.7-4.547-.577-3.967l-10.347,4.7c-1.1.5-.7,4.548.577,3.967Z" transform="translate(-359.416 -493.738)" fill="#fff" stroke="#fff" stroke-width="2"/>
      <path id="路径_472" data-name="路径 472" d="M507.294,529.773A54.372,54.372,0,0,0,522.2,519.439l-.961-3.427a36.488,36.488,0,0,0-2.9,25.1c.176.753.614,1.194,1.251.71s.4-2.193.254-2.831a29.072,29.072,0,0,1,2.739-20.093c.285-.551-.028-4.337-.961-3.427a54.374,54.374,0,0,1-14.906,10.334c-1.1.518-.684,4.56.576,3.968Z" transform="translate(-421.365 -487.109)" fill="#fff" stroke="#fff" stroke-width="2"/>
      <path id="路径_473" data-name="路径 473" d="M563.7,469.751c-3.642,1.32-2.492,7.758.834,8.771,4.339,1.322,9.433-3.563,13.069-5.36,1.862-.92,4.621-2.144,6.725-1.23,1.551.673,1.193,1.98.834,3.357a32.463,32.463,0,0,1-4.408,9.378c-.636.967.122,4.872,1,3.541,3.016-4.587,7.74-12.935,4.768-18.493-1.853-3.466-6.372-2.009-9.171-.681-2.291,1.087-4.381,2.532-6.59,3.765a12.35,12.35,0,0,1-4.238,1.774c-.639.079-3.661-.342-2.245-.856,1.1-.4.79-4.462-.576-3.967Z" transform="translate(-449.735 -462.637)" fill="#fff" stroke="#fff" stroke-width="2"/>
      <path id="路径_474" data-name="路径 474" d="M583.34,497.142a117.51,117.51,0,0,1-.164,29.3c-.238,1.834,1.4,3.832,1.764,1.054a126.414,126.414,0,0,0,.11-31.49c-.069-.568-.376-1.706-1.143-1.414-.733.278-.632,2.015-.567,2.553Z" transform="translate(-460.853 -476.458)" fill="#fff" stroke="#fff" stroke-width="2"/>
      <path id="路径_475" data-name="路径 475" d="M562.32,535.4a40.028,40.028,0,0,1-6.879,10.825c-.769.87-.128,4.814,1,3.541a42.42,42.42,0,0,0,7.228-11.479,3.65,3.65,0,0,0-.072-2.918c-.406-.658-.924-.788-1.274.031Z" transform="translate(-446.482 -497.101)" fill="#fff" stroke="#fff" stroke-width="2"/>
      <path id="路径_476" data-name="路径 476" d="M583.374,542.945l25.091,1.928c1.181.091,1.237-4.024-.1-4.127l-25.091-1.928c-1.182-.091-1.237,4.024.1,4.127Z" transform="translate(-460.457 -499.142)" fill="#fff" stroke="#fff" stroke-width="2"/>
      <path id="路径_477" data-name="路径 477" d="M683.022,505.782a46.4,46.4,0,0,0,3.373,21.869c.362.873.884.531,1.274-.031a3.7,3.7,0,0,0-.072-2.918,37.905,37.905,0,0,1-2.811-17.865c.049-.576.064-2.3-.691-2.523-.791-.231-1.024.9-1.073,1.468Z" transform="translate(-511.932 -481.449)" fill="#fff" stroke="#fff" stroke-width="2"/>
      <path id="路径_478" data-name="路径 478" d="M699.949,484.746a132.855,132.855,0,0,1,21.735-4.306c4.688-.52,10.109-.389,11.548,5.057a21.206,21.206,0,0,1,.327,6.795c-.25,3.712-.482,7.421-.654,11.138-.354,7.693-.641,15.39-1.514,23.047-.208,1.83,1.447,3.841,1.764,1.054,1-8.752,1.221-17.556,1.672-26.346.305-5.94,1.539-12.451-.226-18.281-1.4-4.63-4.983-6.967-9.776-6.868-8.332.171-17,2.313-24.978,4.582-1.349.384-.916,4.416.1,4.127Z" transform="translate(-520.208 -466.975)" fill="#fff" stroke="#fff" stroke-width="2"/>
      <path id="路径_479" data-name="路径 479" d="M710.3,506.462a57.1,57.1,0,0,0,12.626-5.151c1.09-.606.594-4.618-.576-3.967a54.941,54.941,0,0,1-12.151,4.992c-1.349.373-.926,4.41.1,4.126Z" transform="translate(-525.507 -477.857)" fill="#fff" stroke="#fff" stroke-width="2"/>
      <path id="路径_480" data-name="路径 480" d="M713.263,533.4l.047,11.638c0,1.245,1.156,3.11,1.7,1,.726-2.793,1.823-6.167,3.878-8.278.982-1.009,2.857-2.021,3.163-.092.233,1.473-1.128,3.112-2.07,4.077-.808.828-.21,4.777,1,3.541a10.572,10.572,0,0,0,2.906-6.861c.106-1.71.079-4.844-1.731-5.776-4.763-2.452-8.04,8.612-8.75,11.345l1.7,1-.047-11.638c0-.491-.176-2.105-.951-2.041-.8.066-.852,1.566-.85,2.085Z" transform="translate(-527.515 -495.297)" fill="#fff" stroke="#fff" stroke-width="2"/>
      <path id="路径_481" data-name="路径 481" d="M718.24,563.827q5.945-1.77,11.7-4.062c1.1-.44.756-4.5-.576-3.967q-5.53,2.2-11.23,3.9c-1.348.4-.9,4.425.1,4.126Z" transform="translate(-529.582 -507.818)" fill="#fff" stroke="#fff" stroke-width="2"/>
      <path id="路径_482" data-name="路径 482" d="M825.021,473.22a14.375,14.375,0,0,1-3.911,4.763,2.892,2.892,0,0,0-.567,2.553c.053.354.47,1.952,1.143,1.414a17.254,17.254,0,0,0,4.681-5.843,3.674,3.674,0,0,0-.071-2.918c-.386-.755-.91-.694-1.274.031Z" transform="translate(-582.45 -465.241)" fill="#fff" stroke="#fff" stroke-width="2"/>
      <path id="路径_483" data-name="路径 483" d="M813.981,506.178a20.606,20.606,0,0,0,5.379-5.143c.772-1.012,1.5-2.058,2.281-3.062.389-.5,2.317-3.236,2.927-3.1,1.151.248.55,8.168.536,9.355L824.99,514.3c-.028,2.455,1.774,2.408,1.8-.044.048-4.276.106-8.552.145-12.827a52.28,52.28,0,0,0-.172-5.874c-.132-1.276-.159-3.211-1-4.277-1.639-2.087-4.383,2.188-5.336,3.427-2.145,2.789-3.984,5.591-7.027,7.5-1.071.673-.518,4.656.576,3.967Z" transform="translate(-578.527 -474.497)" fill="#fff" stroke="#fff" stroke-width="2"/>
      <path id="路径_484" data-name="路径 484" d="M862.8,481.9l10.046-1.609c1.865-.3,2.814-.407,3.845,1.422a12.961,12.961,0,0,1,1.078,3,26.8,26.8,0,0,1,.062,13.348,15.443,15.443,0,0,1-2.529,5.576c-1.652,2.16-4.066,3.285-6.482,4.384a119.978,119.978,0,0,1-18.5,6.607c-1.349.363-.933,4.406.1,4.127,7.381-1.988,15.109-4.417,21.818-8.144,4.784-2.658,6.826-7.736,7.688-12.912a34.986,34.986,0,0,0-.985-16.221c-.559-1.732-1.426-4.845-3.342-5.509-1.61-.557-4.584.473-6.208.733l-6.7,1.073c-1.331.213-1.054,4.311.1,4.126Z" transform="translate(-597.3 -466.858)" fill="#fff" stroke="#fff" stroke-width="2"/>
    </g>
    <g id="组_315" data-name="组 315" transform="translate(260.264 310.521)">
      <path id="路径_485" data-name="路径 485" d="M391.405,656.466a121.6,121.6,0,0,0,17.975-6.979c1.255-.607.763-5.207-.657-4.52a118,118,0,0,1-17.433,6.8c-1.536.461-1.023,5.043.115,4.7Z" transform="translate(-366.285 -636.137)" fill="#fff" stroke="#fff" stroke-width="2"/>
      <path id="路径_486" data-name="路径 486" d="M396.556,770.178a30.816,30.816,0,0,0,11.825-8.869c.843-1.021.082-5.506-1.136-4.034a29.441,29.441,0,0,1-11.346,8.383c-1.258.532-.833,5.15.657,4.52Z" transform="translate(-368.43 -685.95)" fill="#fff" stroke="#fff" stroke-width="2"/>
      <path id="路径_487" data-name="路径 487" d="M587.35,653.49a51.088,51.088,0,0,0,11.445,3.385c1.235.214,1.446-4.431-.115-4.7a48.62,48.62,0,0,1-10.9-3.231c-1.431-.613-1.735,3.99-.434,4.547Z" transform="translate(-453.477 -637.91)" fill="#fff" stroke="#fff" stroke-width="2"/>
      <path id="路径_488" data-name="路径 488" d="M813.637,665.627a32.664,32.664,0,0,0,14.569-3.752c1.249-.651.719-5.237-.656-4.52a31.289,31.289,0,0,1-14.028,3.57c-1.437.03-1.342,4.732.116,4.7Z" transform="translate(-553.903 -641.64)" fill="#fff" stroke="#fff" stroke-width="2"/>
      <path id="路径_489" data-name="路径 489" d="M863.757,644.445q10.895-4.87,21.3-10.714c1.24-.7.67-5.265-.657-4.52q-10.4,5.844-21.3,10.714c-1.258.562-.806,5.174.657,4.52Z" transform="translate(-576.069 -629.13)" fill="#fff" stroke="#fff" stroke-width="2"/>
      <g id="组_314" data-name="组 314" transform="translate(0 7.966)">
        <path id="路径_490" data-name="路径 490" d="M348.193,692.037a45.014,45.014,0,0,0,15.325-2.828c1.256-.461.895-5.09-.657-4.52a43.444,43.444,0,0,1-14.783,2.647c-1.426.011-1.353,4.713.115,4.7Z" transform="translate(-347.049 -661.765)" fill="#fff" stroke="#fff" stroke-width="2"/>
        <path id="路径_491" data-name="路径 491" d="M349.626,716.271a72.012,72.012,0,0,0,13.666-6.925c1.213-.787.567-5.314-.657-4.52a72.026,72.026,0,0,1-13.667,6.925c-1.257.477-.881,5.1.657,4.52Z" transform="translate(-347.567 -670.695)" fill="#fff" stroke="#fff" stroke-width="2"/>
        <path id="路径_492" data-name="路径 492" d="M370.3,718.339a243.742,243.742,0,0,1-18.832,16.749c-1.149.92-.4,5.363.657,4.52a243.725,243.725,0,0,0,18.832-16.75c1.056-1.041.211-5.376-.657-4.52Z" transform="translate(-348.757 -676.693)" fill="#fff" stroke="#fff" stroke-width="2"/>
        <path id="路径_493" data-name="路径 493" d="M402.562,676.135a36.475,36.475,0,0,1,9.276-2.732c1.875-.28,7.728-1.457,9.145.272.627.765.586,3.029.628,3.992a19.72,19.72,0,0,1-.3,4.317,22.078,22.078,0,0,1-3.546,8.5c-.738,1.094.114,5.548,1.136,4.034a28.466,28.466,0,0,0,4.1-21.984c-.3-1.383-.617-3.082-1.969-3.81-1.563-.84-4.131-.461-5.834-.372a38,38,0,0,0-13.294,3.262c-1.258.551-.816,5.165.657,4.52Z" transform="translate(-371.101 -654.455)" fill="#fff" stroke="#fff" stroke-width="2"/>
        <path id="路径_494" data-name="路径 494" d="M405.854,701.556a63.768,63.768,0,0,1,13.571-6.868c1.254-.458.9-5.087-.657-4.52a63.766,63.766,0,0,0-13.571,6.868c-1.207.8-.547,5.321.657,4.52Z" transform="translate(-372.607 -664.201)" fill="#fff" stroke="#fff" stroke-width="2"/>
        <path id="路径_495" data-name="路径 495" d="M402.849,720.473a59.657,59.657,0,0,0,14.521-4.541c1.257-.576.792-5.185-.657-4.52a57.329,57.329,0,0,1-13.979,4.359c-1.522.269-1.18,4.931.115,4.7Z" transform="translate(-371.35 -673.635)" fill="#fff" stroke="#fff" stroke-width="2"/>
        <path id="路径_496" data-name="路径 496" d="M400.83,690.451l-.13,43.49c-.008,2.795,2.044,2.749,2.052-.05l.13-43.49c.008-2.795-2.044-2.749-2.053.051Z" transform="translate(-370.893 -663.404)" fill="#fff" stroke="#fff" stroke-width="2"/>
        <path id="路径_497" data-name="路径 497" d="M443.348,731.566a60.1,60.1,0,0,1-8.045,7.508c-1.159.9-.421,5.358.657,4.52a63.89,63.89,0,0,0,8.523-7.994c.879-.988.152-5.481-1.136-4.034Z" transform="translate(-386.011 -682.494)" fill="#fff" stroke="#fff" stroke-width="2"/>
        <path id="路径_498" data-name="路径 498" d="M416.436,743.437c10.954,4.691,22.855,6.318,34.534,8.2,12.478,2.01,24.973,3.91,37.468,5.81,1.261.192,1.441-4.465-.116-4.7-12.138-1.846-24.276-3.691-36.4-5.637-11.838-1.9-23.948-3.46-35.053-8.216-1.432-.613-1.735,3.99-.434,4.547Z" transform="translate(-377.52 -685.851)" fill="#fff" stroke="#fff" stroke-width="2"/>
        <path id="路径_499" data-name="路径 499" d="M523.538,690.793A24.34,24.34,0,0,0,525.7,696.1a.672.672,0,0,0,.526.308c1.438-.1,2.193-1.623,2.99-2.692,1.107-1.485,2.165-3.019,3.417-4.389a7.959,7.959,0,0,1,2.048-1.9q.914-1.036.612.168a15.448,15.448,0,0,1-.717,1.622c-.953,1.993-2.036,3.933-3.053,5.895-.332.64-.508,4.195.825,4a7.193,7.193,0,0,0,2.194-.688c1.254-.611.759-5.21-.657-4.52a3.591,3.591,0,0,1-1.652.507l.824,4c1.565-3.017,3.7-6.155,4.322-9.541.276-1.5.517-5.843-1.37-6.621-1.815-.749-4.575,3.078-5.531,4.259-.92,1.136-1.758,2.334-2.635,3.5q-.355.48-.722.952-.734,1.149-.871.185c-.495-.43-.773-2.139-1-2.767-1.036-2.867-2.25.935-1.714,2.416Z" transform="translate(-425.427 -660.658)" fill="#fff" stroke="#fff" stroke-width="2"/>
        <path id="路径_500" data-name="路径 500" d="M544.471,710.045l-2.779,1.12c-.844.34-1.385.515-1.733,1.42-.69,1.792-.313,4.273.052,6.095.116.579.417,2.022,1.3,1.611.794-.37.776-2.26.646-2.91a13.3,13.3,0,0,1-.223-1.34q-.026-.4-.029-.793.006-.539-.119.4l-.438.616a6.478,6.478,0,0,1,1.8-.818l2.184-.88c1.258-.507.856-5.13-.657-4.52Z" transform="translate(-432.612 -673.031)" fill="#fff" stroke="#fff" stroke-width="2"/>
        <path id="路径_501" data-name="路径 501" d="M520.076,724.162c.829,8.7,11.37,10.889,18.479,12.012,6.555,1.037,15.915,1.239,17.916-6.7.379-1.506-1.088-5.28-1.831-2.33-1.508,5.987-11.119,5.074-15.611,4.423-4.73-.687-16.413-2.491-17-8.7-.062-.65-.438-1.939-1.3-1.611-.845.322-.7,2.291-.646,2.909Z" transform="translate(-423.926 -678.014)" fill="#fff" stroke="#fff" stroke-width="2"/>
        <path id="路径_502" data-name="路径 502" d="M589.15,679.8l-3.545,9.763a4.329,4.329,0,0,0,.082,3.324c.418.739,1.106.916,1.451-.036l3.544-9.763a4.331,4.331,0,0,0-.082-3.324c-.418-.738-1.106-.916-1.451.035Z" transform="translate(-452.94 -659.323)" fill="#fff" stroke="#fff" stroke-width="2"/>
        <path id="路径_503" data-name="路径 503" d="M599.2,684.13a94.544,94.544,0,0,0-3.753,20.609c-.046.659-.079,2.621.788,2.874.894.262,1.176-1.018,1.222-1.673a89.245,89.245,0,0,1,3.574-19.48c.452-1.507-.956-5.246-1.831-2.33Z" transform="translate(-457.433 -661.058)" fill="#fff" stroke="#fff" stroke-width="2"/>
        <path id="路径_504" data-name="路径 504" d="M614.325,680.819a278.818,278.818,0,0,1,2.266,42.127c-.012.56.21,2.4,1.084,2.326.917-.076.956-1.783.968-2.376a287.017,287.017,0,0,0-2.369-43.376c-.085-.645-.424-1.945-1.3-1.611-.83.316-.725,2.3-.646,2.909Z" transform="translate(-465.809 -658.75)" fill="#fff" stroke="#fff" stroke-width="2"/>
        <path id="路径_505" data-name="路径 505" d="M612.237,713.539a116.99,116.99,0,0,1,15.185,5.067c1.452.6,1.736-4.013.434-4.547a121.237,121.237,0,0,0-15.735-5.221c-1.124-.291-1.454,4.3.115,4.7Z" transform="translate(-464.43 -672.513)" fill="#fff" stroke="#fff" stroke-width="2"/>
        <path id="路径_506" data-name="路径 506" d="M687.5,669.934a53.748,53.748,0,0,0,21.564-5.818c1.251-.637.732-5.227-.657-4.52a52.255,52.255,0,0,1-21.022,5.636c-1.461.079-1.312,4.779.116,4.7Z" transform="translate(-497.844 -650.603)" fill="#fff" stroke="#fff" stroke-width="2"/>
        <path id="路径_507" data-name="路径 507" d="M580.448,674.328a81.219,81.219,0,0,0,32.982-8.888c1.25-.642.728-5.231-.657-4.52a79.765,79.765,0,0,1-32.44,8.707c-1.46.075-1.315,4.775.115,4.7Z" transform="translate(-450.269 -651.19)" fill="#fff" stroke="#fff" stroke-width="2"/>
        <path id="路径_508" data-name="路径 508" d="M684.106,697.05c4.27,2.676,10.784.655,15.352-.3a99.466,99.466,0,0,0,16.135-4.889c1.258-.5.865-5.121-.657-4.52a95.993,95.993,0,0,1-15.594,4.707c-4.271.894-10.815,2.954-14.8.456-1.19-.746-1.686,3.763-.434,4.547Z" transform="translate(-496.52 -662.941)" fill="#fff" stroke="#fff" stroke-width="2"/>
        <path id="路径_509" data-name="路径 509" d="M708.1,677.814c-.905,13.148-9.52,24.228-12.943,36.718-.413,1.507,1.026,5.266,1.83,2.329,3.556-12.973,12.178-24.113,13.123-37.847.046-.659.08-2.62-.788-2.874-.893-.261-1.177,1.018-1.222,1.673Z" transform="translate(-501.726 -657.973)" fill="#fff" stroke="#fff" stroke-width="2"/>
        <path id="路径_510" data-name="路径 510" d="M717.165,716.425c12.081.493,23.879,3.109,35.63,5.778,1.166.265,1.453-4.345-.116-4.7-11.751-2.67-23.549-5.285-35.63-5.778-1.382-.056-1.387,4.64.116,4.7Z" transform="translate(-511.031 -673.802)" fill="#fff" stroke="#fff" stroke-width="2"/>
        <path id="路径_511" data-name="路径 511" d="M822.393,692.5a30.317,30.317,0,0,0,13.135-4.3c1.228-.743.618-5.292-.657-4.52a28.849,28.849,0,0,1-12.593,4.117c-1.483.131-1.279,4.825.116,4.7Z" transform="translate(-557.797 -661.299)" fill="#fff" stroke="#fff" stroke-width="2"/>
        <path id="路径_512" data-name="路径 512" d="M829.244,722.353A116.942,116.942,0,0,0,841.8,703.9a4.194,4.194,0,0,0,.289-3.225c-.163-.47-.879-1.8-1.425-.809a116.957,116.957,0,0,1-12.554,18.45c-.846,1.018-.086,5.5,1.135,4.034Z" transform="translate(-560.684 -668.374)" fill="#fff" stroke="#fff" stroke-width="2"/>
        <path id="路径_513" data-name="路径 513" d="M864.038,646.43a189.922,189.922,0,0,1-.813,46.4c-.292,2.091,1.569,4.359,2.01,1.2a200.153,200.153,0,0,0,.751-48.9c-.069-.648-.434-1.941-1.3-1.611-.841.32-.712,2.293-.646,2.909Z" transform="translate(-576.436 -643.467)" fill="#fff" stroke="#fff" stroke-width="2"/>
        <path id="路径_514" data-name="路径 514" d="M885.877,665.626c2.526-1.032,5.066-1.707,6.96-3.78l-1.136-4.034a81.45,81.45,0,0,0-5.821,11.037c-.842,2.043-1.553,4.644-.5,6.76,1.065,2.139,3.529,1.623,5.487,1.272,4.381-.786,8.68-1.98,13.035-2.892,1.53-.32,1.141-4.965-.116-4.7-2.682.562-5.341,1.216-8.011,1.83-2.344.539-4.934,1.387-7.355,1.391a5.218,5.218,0,0,1-1.054-.043q-.911-.518-.25.386c.078-1.051,1.11-2.506,1.568-3.447,1.258-2.59,2.657-5.1,4.151-7.557.551-.907.3-5.605-1.136-4.034-1.657,1.814-4.283,2.4-6.481,3.293-1.259.514-.85,5.136.657,4.52Z" transform="translate(-585.893 -649.701)" fill="#fff" stroke="#fff" stroke-width="2"/>
        <path id="路径_515" data-name="路径 515" d="M877,718.952c4.478.047,8.906-.209,12.105-3.7.893-.974.18-5.469-1.136-4.034-2.825,3.082-7.22,3.073-11.085,3.032-1.41-.014-1.366,4.686.116,4.7Z" transform="translate(-582.065 -673.453)" fill="#fff" stroke="#fff" stroke-width="2"/>
        <path id="路径_516" data-name="路径 516" d="M886.244,704.776a67.784,67.784,0,0,1-1.326,10.849c-.554,2.2-1.061,4.652-.33,6.875.745,2.268,2.656,3.009,4.935,2.615,3.256-.562,6.42-2.091,9.633-2.913a420.551,420.551,0,0,1,49.959-9.677c1.5-.2,1.234-4.878-.115-4.7-14.367,1.878-28.782,4.144-42.813,7.8-3.4.887-6.836,1.69-10.216,2.641-2.409.678-4.766,2.079-7.288,2.247-3.47.232-1.891-2.309-1.453-4.514a91.453,91.453,0,0,0,1.025-10.024c.056-.656.072-2.622-.788-2.874-.9-.263-1.166,1.02-1.222,1.673Z" transform="translate(-585.783 -669.955)" fill="#fff" stroke="#fff" stroke-width="2"/>
      </g>
    </g>
  </g>
</svg>
