<svg xmlns="http://www.w3.org/2000/svg" width="343.261" height="126.609" viewBox="0 0 343.261 126.609">
  <g id="组_4816" data-name="组 4816" transform="translate(-219.003 -205.476)">
    <g id="组_4248" data-name="组 4248" transform="translate(-1407.657 175.659)">
      <path id="Path_461" data-name="Path 461" d="M1690.911,161.589q-.721,17.053-.487,34.121c.009.624.218,2.673,1.208,2.591s1.088-1.989,1.079-2.647q-.239-16.367.439-32.725c.031-.739.1-2.916-.878-3.2s-1.33,1.131-1.362,1.865Z" transform="translate(-51.03 -87.644)" fill="#fff"/>
      <path id="Path_462" data-name="Path 462" d="M1655.377,228.7c.621,2.944-.893,5.837.708,8.738,1.425,2.578,4.488,3.177,7.212,3.185,6.771.019,11.873-4.821,15.862-9.762l-.875.285c1.691.961,2.7,2.711,4.072,4.047,1.549,1.506,2.116-3.509,1.045-4.552-1.572-1.528-2.69-3.458-4.632-4.559-.352-.2-.655.013-.875.285-3.325,4.113-7.448,8.225-12.953,8.913-2.327.291-6.994.42-7.465-2.615-.337-2.172.285-4.405-.19-6.66-.2-.966-.79-1.508-1.588-.9-.839.637-.495,2.774-.322,3.594Z" transform="translate(-28.497 -129.344)" fill="#fff"/>
      <path id="Path_463" data-name="Path 463" d="M1737.579,123.457a38.487,38.487,0,0,1,12.936-8.31c1.4-.547.97-5.7-.732-5.034a38.495,38.495,0,0,0-12.935,8.31,3.792,3.792,0,0,0-.72,3.242c.057.371.665,2.564,1.451,1.8Z" transform="translate(-80.25 -55.88)" fill="#fff"/>
      <path id="Path_464" data-name="Path 464" d="M1734.481,108.563a104.922,104.922,0,0,0,3.293,37.741c.259.939.76,1.532,1.587.9.808-.613.54-2.8.323-3.594a93.575,93.575,0,0,1-2.963-33.709c.218-2.316-1.905-4.888-2.24-1.338Z" transform="translate(-78.962 -53.806)" fill="#fff"/>
      <path id="Path_465" data-name="Path 465" d="M1749.335,195.163a449.665,449.665,0,0,1,61.94-21.645c1.709-.46,1.186-5.592-.129-5.238a454.086,454.086,0,0,0-62.543,21.845c-1.4.608-.915,5.75.731,5.034Z" transform="translate(-87.773 -93.132)" fill="#fff"/>
      <path id="Path_466" data-name="Path 466" d="M1802.233,119.672l12.727-2.13c1.693-.285,1.33-5.482-.128-5.238l-12.728,2.13c-1.692.285-1.329,5.482.129,5.238Z" transform="translate(-121.819 -57.314)" fill="#fff"/>
      <path id="Path_467" data-name="Path 467" d="M1795.9,95.232q-.57,6.451-.89,12.917c-.159,3.295-.844,7.2-.013,10.448.775,3.033,2.547,3.2,5.253,2.33,2.163-.7,4.313-1.431,6.47-2.147.9-.3,1.791-.615,2.7-.895,1.275-.4.941-.656,1.158-.022.407,1.192-1.771,5.02-2.313,6.209-.935,2.053-2,4.038-3.135,5.991-2.071,3.584-4.292,7.088-6.561,10.55q-7.017,10.705-15.007,20.719c-.918,1.155-.049,6.148,1.265,4.494q8.141-10.241,15.32-21.194c4.575-7.012,9.37-14.274,11.92-22.314.807-2.545,2.066-6.269.516-8.824-1.64-2.7-6.5.216-8.685.941-1.572.522-3.945,1.848-5.573,1.821-2.285-.038-1.207-3.792-1.126-5.591q.315-7.058.944-14.095c.064-.73.079-2.923-.878-3.2-1-.294-1.3,1.14-1.361,1.865Z" transform="translate(-110.429 -45.176)" fill="#fff"/>
      <path id="Path_468" data-name="Path 468" d="M1879.305,94.728a8.454,8.454,0,0,1,7.6.9c2.887,2.063,2.2,7.392,1.97,10.514a50.775,50.775,0,0,1-6.088,20.136,4.707,4.707,0,0,0-.322,3.594c.178.513.991,2.02,1.587.9a58.33,58.33,0,0,0,7.218-28.332c-.045-3.609-.038-8.065-2.693-10.865A9.427,9.427,0,0,0,1878.57,89.7c-1.4.593-.928,5.739.732,5.034Z" transform="translate(-170.945 -42.409)" fill="#fff"/>
      <path id="Path_469" data-name="Path 469" d="M1871.989,227.2a45.636,45.636,0,0,1,12.911,9.6c1.451,1.549,2.069-3.456,1.045-4.553a47.812,47.812,0,0,0-13.47-10.119c-1.494-.751-1.921,4.343-.483,5.066Z" transform="translate(-166.698 -127.56)" fill="#fff"/>
      <path id="Path_470" data-name="Path 470" d="M1739.59,159.963a15.442,15.442,0,0,0,11.208-3.153c1.3-1,.475-5.968-.732-5.034a14.392,14.392,0,0,1-10.608,2.952c-1.459-.162-1.588,5.049.129,5.238Z" transform="translate(-81.725 -82.506)" fill="#fff"/>
      <path id="Path_471" data-name="Path 471" d="M1747.519,188.6l13.136-5.971c1.4-.637.888-5.773-.732-5.034l-13.135,5.97c-1.4.637-.888,5.773.732,5.034Z" transform="translate(-86.617 -99.06)" fill="#fff"/>
      <g id="组_4240" data-name="组 4240" transform="translate(1743.325 40.857) rotate(2)">
        <path id="Path_485" data-name="Path 485" d="M2062.028,65.193a107.146,107.146,0,0,0,15.835-6.148c1.105-.534.672-4.587-.579-3.982a103.971,103.971,0,0,1-15.358,5.988C2060.573,61.457,2061.025,65.494,2062.028,65.193Z" transform="translate(-2039.898 -55.002)" fill="#fff"/>
        <path id="Path_486" data-name="Path 486" d="M2071.762,286.193a27.151,27.151,0,0,0,10.414-7.814c.743-.9.072-4.851-1-3.554a25.937,25.937,0,0,1-10,7.383c-1.109.469-.735,4.537.579,3.982Z" transform="translate(-2046.982 -219.707)" fill="#fff"/>
        <path id="Path_490" data-name="Path 490" d="M1977.306,139.37a39.654,39.654,0,0,0,13.5-2.492c1.106-.406.791-4.482-.579-3.982a38.277,38.277,0,0,1-13.023,2.332C1975.949,135.238,1976.013,139.38,1977.306,139.37Z" transform="translate(-1976.298 -113.402)" fill="#fff"/>
        <path id="Path_491" data-name="Path 491" d="M1979.82,182.38a63.462,63.462,0,0,0,12.04-6.1c1.069-.693.5-4.68-.579-3.983a63.447,63.447,0,0,1-12.04,6.1c-1.107.421-.776,4.5.579,3.982Z" transform="translate(-1978.007 -142.928)" fill="#fff"/>
        <path id="Path_492" data-name="Path 492" d="M2000.922,198.75a214.729,214.729,0,0,1-16.591,14.756c-1.012.81-.348,4.724.579,3.983a214.777,214.777,0,0,0,16.591-14.756C2002.431,201.815,2001.687,198,2000.922,198.75Z" transform="translate(-1981.943 -162.76)" fill="#fff"/>
        <path id="Path_493" data-name="Path 493" d="M2083.535,107.636a32.136,32.136,0,0,1,8.173-2.407c1.652-.247,6.808-1.284,8.057.239.552.674.516,2.668.554,3.516a17.381,17.381,0,0,1-.264,3.8,19.44,19.44,0,0,1-3.124,7.489c-.65.964.1,4.887,1,3.554a25.079,25.079,0,0,0,3.611-19.366c-.269-1.218-.544-2.716-1.735-3.356-1.377-.74-3.639-.406-5.141-.33a33.475,33.475,0,0,0-11.712,2.874c-1.109.486-.719,4.548.579,3.982Z" transform="translate(-2055.819 -89.236)" fill="#fff"/>
        <path id="Path_494" data-name="Path 494" d="M2090.094,153.65a56.179,56.179,0,0,1,11.956-6.051c1.105-.4.791-4.482-.579-3.983a56.168,56.168,0,0,0-11.955,6.051c-1.064.708-.482,4.688.579,3.982Z" transform="translate(-2060.805 -121.444)" fill="#fff"/>
        <path id="Path_495" data-name="Path 495" d="M2084.4,193.211a52.558,52.558,0,0,0,12.792-4c1.108-.508.7-4.568-.579-3.982a50.516,50.516,0,0,1-12.315,3.84C2082.955,189.306,2083.257,193.413,2084.4,193.211Z" transform="translate(-2056.647 -152.647)" fill="#fff"/>
        <path id="Path_496" data-name="Path 496" d="M2081.51,141.95l-.114,38.314c-.007,2.462,1.8,2.422,1.808-.044l.115-38.314c.007-2.462-1.8-2.422-1.809.045Z" transform="translate(-2055.136 -118.822)" fill="#fff"/>
        <path id="Path_497" data-name="Path 497" d="M2155.635,224.48a52.962,52.962,0,0,1-7.088,6.616c-1.021.794-.37,4.72.579,3.982a56.308,56.308,0,0,0,7.509-7.043c.774-.87.132-4.829-1-3.554Z" transform="translate(-2105.122 -181.949)" fill="#fff"/>
        <path id="Path_498" data-name="Path 498" d="M2111.333,243.072c9.651,4.133,20.135,5.566,30.424,7.222,10.993,1.771,22,3.444,33.009,5.118,1.111.169,1.269-3.933-.1-4.142-10.693-1.626-21.387-3.252-32.067-4.967-10.429-1.674-21.1-3.048-30.882-7.238-1.261-.54-1.529,3.515-.383,4.005Z" transform="translate(-2077.048 -193.039)" fill="#fff"/>
      </g>
      <g id="Group_135" data-name="Group 135" transform="translate(1840.601 50.311)">
        <g id="Group_130" data-name="Group 130" transform="translate(15.664)">
          <g id="Group_129" data-name="Group 129">
            <g id="Group_127" data-name="Group 127" transform="translate(0.522 0.515)">
              <path id="Path_360" data-name="Path 360" d="M2398.143,88.416c-1.049,2.733-.735,6.149-.423,9.021.163,1.52,4.933,1.07,4.843-.491-.169-2.868-.421-6.285-1.909-8.783-.327-.548-2.284-.326-2.506.254Z" transform="translate(-2397.111 -87.54)" fill="#fff"/>
              <path id="Path_361" data-name="Path 361" d="M2399.341,97.792l-.035,0c-1.3.109-2.663-.218-2.766-1.192-.354-3.3-.586-6.477.444-9.164h0c.181-.47.908-.7,1.533-.752h.012c.356-.033,1.217-.048,1.515.452,1.585,2.663,1.806,6.43,1.953,8.923C2402.054,97.089,2400.711,97.67,2399.341,97.792ZM2398.57,87.3a1.489,1.489,0,0,0-1.007.358h0c-.983,2.559-.753,5.659-.407,8.877.049.454.972.737,2.1.64l.032,0c1.2-.11,2.122-.579,2.091-1.079-.19-3.222-.473-6.307-1.866-8.644-.045-.078-.367-.2-.932-.153Z" transform="translate(-2396.239 -86.672)" fill="#fff"/>
            </g>
            <g id="Group_128" data-name="Group 128">
              <path id="Path_362" data-name="Path 362" d="M2398.735,97.415h0c-1.715.142-2.89-.4-3-1.382-.357-3.322-.591-6.531.458-9.263h0c.272-.71,1.389-.855,1.725-.886h.006c.4-.036,1.348-.043,1.709.556,1.613,2.707,1.835,6.506,1.981,9.019C2401.686,96.636,2400.22,97.289,2398.735,97.415Zm-1.577-10.246c-.955,2.512-.726,5.578-.385,8.754.023.251.753.548,1.873.453h0c1.127-.094,1.947-.532,1.927-.86-.14-2.412-.354-6.058-1.835-8.548a2.265,2.265,0,0,0-1.579.2Z" transform="translate(-2395.126 -85.565)" fill="#fff"/>
              <path id="Path_363" data-name="Path 363" d="M2397.911,96.862l-.03,0c-1.9.158-3.2-.492-3.33-1.655-.361-3.361-.6-6.612.478-9.4.328-.854,1.527-1.046,1.987-1.084s1.555-.046,2.006.706c1.65,2.773,1.875,6.616,2.023,9.16C2401.126,95.959,2399.533,96.718,2397.911,96.862Zm-.055-.307-.028-.309.026,0c1.283-.117,2.629-.67,2.573-1.63-.145-2.483-.362-6.237-1.937-8.88-.277-.465-1.155-.429-1.417-.407h-.012c-.575.053-1.293.262-1.457.691-1.024,2.669-.792,5.837-.44,9.12.086.8,1.131,1.234,2.664,1.108Zm-.033-.733-.028,0c-1.2.1-2.152-.214-2.207-.729-.346-3.22-.579-6.323.4-8.9l.069-.11a2.359,2.359,0,0,1,1.983-.23l.083.091c1.523,2.557,1.738,6.247,1.88,8.689.032.642-1.092,1.089-2.184,1.186Zm-1.626-.837a2.513,2.513,0,0,0,1.545.225l.027,0a2.5,2.5,0,0,0,1.625-.565c-.142-2.32-.347-5.864-1.75-8.291a2.8,2.8,0,0,0-1.107.153c-.89,2.417-.672,5.392-.341,8.483Z" transform="translate(-2394.248 -84.708)" fill="#fff"/>
            </g>
          </g>
        </g>
        <g id="Group_134" data-name="Group 134" transform="translate(0 10.518)">
          <g id="Group_133" data-name="Group 133">
            <g id="Group_131" data-name="Group 131" transform="translate(0.52 0.521)">
              <path id="Path_364" data-name="Path 364" d="M2339.541,137.062c3.592-1.3,6.93-3.171,10.558-4.39a42.262,42.262,0,0,1,12.791-2.171l-1.795-1.67c-7.582,8.172-15.084,16.489-23.152,24.189-.825.788.367,1.431,1.082,1.511,5.5.623,11.139,1.118,16.439,2.8,5.329,1.7,10.022,4.693,14.542,7.925,1.279.914,6.281-.4,4.45-1.7-4.8-3.4-9.833-6.514-15.479-8.29-5.686-1.787-11.675-2.373-17.572-3.022l1.081,1.511a333.555,333.555,0,0,0,23.385-24.135c1.25-1.473-1.714-1.684-2.514-1.642a55.05,55.05,0,0,0-14.515,2.756c-3.734,1.245-8.333,2.88-10.882,6.028-.386.476,1.429.357,1.582.3Z" transform="translate(-2337.358 -127.669)" fill="#fff"/>
              <path id="Path_365" data-name="Path 365" d="M2371.046,164.982a3.281,3.281,0,0,1-2.078-.339c-4.3-3.07-9.021-6.15-14.455-7.878a75.8,75.8,0,0,0-14.642-2.6l-1.739-.195a1.993,1.993,0,0,1-1.592-1.015.95.95,0,0,1,.332-1.026c6.776-6.468,13.254-13.484,19.519-20.264l1.325-1.434a40.734,40.734,0,0,0-8.381,1.868c-1.911.643-3.779,1.49-5.585,2.3-1.608.726-3.269,1.475-4.965,2.087h0c-.073.028-1.632.247-1.97-.229a.439.439,0,0,1,.045-.557c2.508-3.1,6.821-4.725,11.024-6.126a55.084,55.084,0,0,1,14.6-2.771c.026,0,2.553-.086,3.057.934.127.251.175.667-.292,1.217-6.572,7.732-13.714,14.81-21.635,22.451a77.428,77.428,0,0,1,14.6,2.7c6.025,1.9,11.25,5.275,15.565,8.332a1,1,0,0,1,.525.907c-.038.42-.4.783-1.076,1.092A7.094,7.094,0,0,1,2371.046,164.982Zm-12.4-34.848-1.8,1.952c-6.271,6.789-12.756,13.811-19.547,20.291-.228.217-.186.342-.173.383.094.279.654.551,1.076.6l1.737.194a76.261,76.261,0,0,1,14.761,2.622c5.516,1.755,10.29,4.865,14.626,7.963.581.416,2.452.28,3.642-.263.512-.233.707-.463.719-.586.009-.092-.089-.219-.268-.346-4.277-3.029-9.449-6.378-15.393-8.247a79.083,79.083,0,0,0-14.99-2.733l-1.194,1.149-.258.247L2339.895,151l1.707.187,1.214.133a316.2,316.2,0,0,0,21.963-22.763c.137-.161.284-.388.208-.539-.209-.422-1.626-.635-2.472-.591q-1.119.057-2.235.162l2.521,2.347-.762.015c-1.152.022-2.278.082-3.39.189ZM2341.2,151.762l.476.658.566-.546-.7-.077Zm-3.717-15.842a4.791,4.791,0,0,0,1.106-.016c1.669-.6,3.316-1.343,4.907-2.065,1.821-.822,3.7-1.671,5.643-2.324a41.471,41.471,0,0,1,9.213-1.968l1.656-1.788.15-.161a54.73,54.73,0,0,0-12.08,2.561c-4.035,1.349-8.173,2.9-10.6,5.761Zm21.785-6.456q.989-.077,2-.113l-1.017-.947Z" transform="translate(-2336.5 -126.803)" fill="#fff"/>
            </g>
            <g id="Group_132" data-name="Group 132">
              <path id="Path_366" data-name="Path 366" d="M2370.43,164.594a3.422,3.422,0,0,1-2.18-.383c-4.284-3.06-8.992-6.128-14.4-7.848a75.667,75.667,0,0,0-14.6-2.59l-1.735-.194a2.191,2.191,0,0,1-1.77-1.157,1.157,1.157,0,0,1,.387-1.249c6.762-6.453,13.225-13.453,19.484-20.224l.96-1.038a40.458,40.458,0,0,0-7.763,1.786c-1.9.64-3.765,1.482-5.567,2.295-1.61.726-3.276,1.479-4.979,2.092h0c-.019,0-1.766.325-2.212-.307a.654.654,0,0,1,.052-.814c2.543-3.144,6.89-4.784,11.123-6.2a55.341,55.341,0,0,1,14.652-2.781c.026,0,2.685-.106,3.258,1.054a1.266,1.266,0,0,1-.32,1.448c-6.486,7.634-13.533,14.628-21.326,22.153a75.752,75.752,0,0,1,14.19,2.654c6.049,1.9,11.292,5.294,15.623,8.361a1.2,1.2,0,0,1,.613,1.1c-.047.5-.451.922-1.2,1.265A7.366,7.366,0,0,1,2370.43,164.594Zm-29.317-11.661a68.382,68.382,0,0,1,13.056,2.438c5.542,1.762,10.333,4.879,14.685,7.993a4.486,4.486,0,0,0,3.005-.119c.775-.26,1-.529,1.02-.587-.013.01-.052-.053-.181-.145-4.264-3.021-9.421-6.36-15.333-8.218a78.468,78.468,0,0,0-14.853-2.714l-1.122,1.079Zm17.042-23.2-1.774,1.921c-6.265,6.782-12.744,13.8-19.531,20.271a.352.352,0,0,0-.118.159,1.29,1.29,0,0,0,.9.457l1.732.193,1.471.163-1.982-2.771,2.168.238,1.127.125c7.431-7.163,14.179-13.819,20.4-20.961l-1.1.022q-1.681.034-3.3.183Zm-17.1,21.684.053.073.062-.06Zm-3.711-16.292a4.189,4.189,0,0,0,.6-.034c1.655-.6,3.293-1.341,4.877-2.053,1.826-.823,3.713-1.675,5.663-2.332a41.693,41.693,0,0,1,9.179-1.973l1.37-1.477a54.529,54.529,0,0,0-11.475,2.5C2343.7,131.043,2339.761,132.516,2337.343,135.129Zm22.84-7.98,2.454,2.282q.7-.8,1.391-1.617c.181-.213.18-.311.18-.312-.1-.259-1.349-.521-2.271-.473-.59.03-1.186.064-1.759.12Zm-.979,1.459c.32-.021.639-.039.961-.054l-.49-.456Z" transform="translate(-2335.385 -125.678)" fill="#fff"/>
              <path id="Path_367" data-name="Path 367" d="M2369.625,164.038l-.037,0a3.751,3.751,0,0,1-2.386-.44c-4.265-3.042-8.951-6.1-14.31-7.805a75.375,75.375,0,0,0-14.541-2.576l-1.741-.194a2.471,2.471,0,0,1-2.026-1.365,1.47,1.47,0,0,1,.467-1.571c6.754-6.442,13.217-13.443,19.47-20.209l.379-.407a39.859,39.859,0,0,0-6.853,1.655c-1.875.631-3.721,1.464-5.507,2.272-1.655.747-3.322,1.5-5.033,2.116-.006,0-1.981.411-2.571-.417a.966.966,0,0,1,.064-1.187c2.6-3.208,6.99-4.868,11.265-6.294a55.834,55.834,0,0,1,14.733-2.8c.121-.006,2.893-.11,3.552,1.226a1.564,1.564,0,0,1-.357,1.784,300.665,300.665,0,0,1-20.876,21.721,73.88,73.88,0,0,1,13.6,2.6c6.09,1.915,11.358,5.322,15.708,8.4a1.5,1.5,0,0,1,.743,1.38c-.058.616-.521,1.126-1.377,1.518A7.66,7.66,0,0,1,2369.625,164.038Zm-13.119-35.406-1.536,1.664c-6.259,6.775-12.728,13.779-19.5,20.238a.86.86,0,0,0-.307.929,1.892,1.892,0,0,0,1.51.948l1.735.194a75.882,75.882,0,0,1,14.666,2.6c5.44,1.73,10.175,4.815,14.481,7.89a3.108,3.108,0,0,0,1.976.327h0a6.908,6.908,0,0,0,2.187-.539c.64-.292.982-.634,1.019-1.014a.768.768,0,0,0-.232-.6l-.2.62c-.066.2-.422.518-1.215.784-1.11.376-2.7.5-3.285.078-4.332-3.095-9.095-6.2-14.6-7.951a67.116,67.116,0,0,0-12.795-2.4l-3.685-.41c-.435-.05-1.107-.352-1.167-.712l0-.033,0-.033a.583.583,0,0,1,.213-.369q.879-.839,1.751-1.69l-.19-.266.42.046c6.058-5.919,11.882-12.214,17.522-18.327l1.872-2.027.118-.011c1.08-.089,2.19-.161,3.312-.182l.519-.01-2.335-2.172-1.824,1.969-.116.01a41.178,41.178,0,0,0-9.113,1.958c-1.925.647-3.795,1.491-5.6,2.305-1.618.73-3.257,1.472-4.931,2.076a3.773,3.773,0,0,1-.708.053l-.7-.006.473-.512c2.482-2.677,6.472-4.161,10.346-5.453a54.97,54.97,0,0,1,11.54-2.512l.818-.087-.009.011.343-.031c.57-.052,1.177-.091,1.767-.121.648-.033,2.366.117,2.576.674l.019.082a.782.782,0,0,1-.252.543q-.51.6-1.023,1.194h0l-.457.525c-6.511,7.474-13.653,14.463-20.418,20.98l-.1.1-2.753-.3,1.5,2.1,1.4-1.35.144.015a79.012,79.012,0,0,1,14.913,2.726c5.952,1.871,11.134,5.221,15.419,8.261l.338-.277c-.029-.022-.06-.046-.092-.068-4.31-3.053-9.532-6.428-15.537-8.318a75.809,75.809,0,0,0-14.12-2.648l-.651-.074.471-.459a305.146,305.146,0,0,0,21.306-22.131,1,1,0,0,0,.278-1.111c-.4-.8-2.324-.908-2.969-.882a55.131,55.131,0,0,0-14.566,2.765c-4.189,1.4-8.489,3.019-10.986,6.1a.345.345,0,0,0-.04.442c.251.352,1.443.276,1.9.183,1.649-.6,3.309-1.343,4.906-2.068,1.842-.831,3.7-1.67,5.606-2.311a40.594,40.594,0,0,1,7.823-1.8Zm-15.58,23.209a65.837,65.837,0,0,1,12.464,2.376c5.584,1.777,10.4,4.912,14.775,8.036a4.366,4.366,0,0,0,2.73-.16,3.237,3.237,0,0,0,.633-.277c-4.225-2.984-9.308-6.259-15.12-8.086a77.9,77.9,0,0,0-14.65-2.685Zm-4.645-.638a1.367,1.367,0,0,0,.511.175l2.513.28-1.43-1.995q-.787.775-1.583,1.539Zm2.255-2.182,2.626.289c6.562-6.326,13.481-13.1,19.819-20.316l-.4.008c-1.071.021-2.12.05-3.153.169l-1.694,1.835c-5.548,6.011-11.255,12.187-17.194,18.015Zm18.829-22.22a54.384,54.384,0,0,0-10.586,2.391c-3.444,1.147-6.979,2.449-9.383,4.6,1.476-.558,2.971-1.234,4.42-1.888,1.855-.836,3.738-1.686,5.693-2.343a41.789,41.789,0,0,1,9.132-1.979Zm2.662-.261,1.705,1.59q.593-.684,1.179-1.374l.02-.024a5.3,5.3,0,0,0-1.86-.253c-.34.015-.692.035-1.038.06Zm-19.771,24.5-.325-.3-.4-.554,1.441.162Zm19.779-23.073-.734.034c-.32.015-.639.033-.956.053l-.774.05,1.212-1.3Z" transform="translate(-2334.518 -124.817)" fill="#fff"/>
            </g>
          </g>
        </g>
      </g>
      <g id="Group_177" data-name="Group 177" transform="translate(1929.378 88.93)">
        <g id="Group_176" data-name="Group 176" transform="translate(0)">
          <g id="Group_174" data-name="Group 174" transform="translate(0.846 0.847)">
            <path id="Path_398" data-name="Path 398" d="M2661.949,240.418a49.121,49.121,0,0,0,2.7,13.417c.362,1.135,3.879.551,3.6-.468-1.2-4.407-2.124-8.968-3.548-13.3-.26-.789-2.773-.494-2.751.358Z" transform="translate(-2661.71 -239.359)" fill="#fff"/>
            <path id="Path_399" data-name="Path 399" d="M2666,254.06c-.913.11-1.941-.043-2.169-.754a49.8,49.8,0,0,1-2.709-13.482c-.012-.483.495-.871,1.322-1.014.782-.137,1.7-.012,1.9.575.916,2.787,1.635,5.705,2.332,8.528.388,1.576.791,3.206,1.221,4.788.136.5-.3.957-1.167,1.213A4.419,4.419,0,0,1,2666,254.06Zm-4.4-14.249a49.361,49.361,0,0,0,2.687,13.349c.158.495,1.391.565,2.3.3.55-.163.9-.421.839-.626-.432-1.587-.834-3.22-1.224-4.8-.694-2.815-1.412-5.724-2.322-8.494-.071-.218-.648-.383-1.361-.253-.531.092-.929.319-.924.531Z" transform="translate(-2661.119 -238.759)" fill="#fff"/>
          </g>
          <g id="Group_175" data-name="Group 175">
            <path id="Path_400" data-name="Path 400" d="M2664.519,253.174c-1.229.138-2.445-.188-2.762-1.183a50.388,50.388,0,0,1-2.738-13.652c-.02-.8.679-1.428,1.824-1.625,1.064-.193,2.269.051,2.575.983.924,2.811,1.647,5.743,2.345,8.579.388,1.57.788,3.195,1.216,4.768.181.665-.139,1.527-1.578,1.953A5.151,5.151,0,0,1,2664.519,253.174Zm-1.175-1.765a2.938,2.938,0,0,0,1.937-.166c-.407-1.515-.79-3.063-1.162-4.561-.681-2.753-1.38-5.6-2.261-8.306a2.132,2.132,0,0,0-1.148.118,49.165,49.165,0,0,0,2.634,12.914Zm-2.637-13.111Z" transform="translate(-2658.778 -236.413)" fill="#fff"/>
            <path id="Path_401" data-name="Path 401" d="M2663.98,252.818l-.026,0c-1.54.173-2.7-.343-3.017-1.347a50.646,50.646,0,0,1-2.75-13.72c-.024-.932.752-1.647,2.022-1.867,1.156-.208,2.488.062,2.844,1.146.924,2.812,1.646,5.742,2.345,8.575l.03.123c.379,1.537.771,3.125,1.189,4.662.2.738-.137,1.767-1.743,2.245A5.439,5.439,0,0,1,2663.98,252.818Zm-.079-.473a3.974,3.974,0,0,0,.84-.17c1.274-.377,1.567-1.1,1.416-1.658-.419-1.544-.815-3.134-1.192-4.671l-.024-.1c-.7-2.848-1.423-5.769-2.343-8.559-.265-.8-1.385-.99-2.306-.822-1.021.176-1.644.707-1.628,1.383a50.214,50.214,0,0,0,2.728,13.589c.3.927,1.49,1.134,2.508,1.018Zm-.077-1.216a2.228,2.228,0,0,1-1.191-.1l-.079-.046-.028-.084a49.353,49.353,0,0,1-2.642-12.977l0-.153.058-.029h0l.083-.04a2.368,2.368,0,0,1,1.32-.133l.122.035.039.121c.886,2.723,1.586,5.569,2.265,8.319l.021.085c.363,1.468.737,2.986,1.137,4.469l.048.179-.164.091a2.893,2.893,0,0,1-.985.266Zm-.876-.486a3.217,3.217,0,0,0,1.458-.124c-.381-1.425-.739-2.876-1.087-4.282l-.022-.085c-.665-2.7-1.351-5.485-2.211-8.15a2.234,2.234,0,0,0-.719.073,49.115,49.115,0,0,0,2.581,12.566Z" transform="translate(-2658.187 -235.823)" fill="#fff"/>
          </g>
        </g>
      </g>
      <g id="Group_181" data-name="Group 181" transform="translate(1932.905 84.756)">
        <g id="Group_180" data-name="Group 180" transform="translate(0 0)">
          <g id="Group_178" data-name="Group 178" transform="translate(0.846 0.841)">
            <path id="Path_402" data-name="Path 402" d="M2676.58,226.8c-1.327.744-2.064.387-.755.258a12.139,12.139,0,0,1,1.7-.277c2.284.007,3.5,1.967,4.044,4.021.888,3.366-.288,7.039.08,10.49.054.5,1.742.12,1.795-.39.45-4.317,2.7-10.194-.7-13.965-2.038-2.256-5.431-2.3-7.965-.944-1.784.952.885,1.315,1.8.8Z" transform="translate(-2673.942 -224.847)" fill="#fff"/>
            <path id="Path_403" data-name="Path 403" d="M2681.979,241.129a2.279,2.279,0,0,1-.441.049c-.6,0-.7-.314-.714-.448a24.426,24.426,0,0,1,.093-4.558,17.652,17.652,0,0,0-.166-5.9c-.378-1.43-1.375-3.835-3.813-3.842a3.478,3.478,0,0,0-.955.136c-.108.028-.219.055-.338.08h-.005c-.523.224-1.045.338-1.235.187l-.125-.1.021-.093a1.816,1.816,0,0,1-.656-.2.521.521,0,0,1-.292-.464c.007-.268.239-.519.726-.781,2.391-1.277,6-1.507,8.256,1,2.72,3.012,1.938,7.3,1.247,11.076-.2,1.087-.385,2.115-.486,3.071C2683.053,240.762,2682.482,241.026,2681.979,241.129Zm-5.779-15.1a3.525,3.525,0,0,1,.74-.072c2.759.009,3.863,2.635,4.275,4.2a18,18,0,0,1,.181,6.058,23.987,23.987,0,0,0-.093,4.468,1.607,1.607,0,0,0,.9-.112c.307-.117.412-.244.416-.278.1-.975.293-2.013.491-3.107.67-3.671,1.431-7.832-1.132-10.67-2.087-2.313-5.442-2.086-7.675-.9-.442.235-.474.371-.474.372a.69.69,0,0,0,.247.119,2.812,2.812,0,0,0,1.794-.105h0l.049.088c.088-.022.179-.044.276-.063Z" transform="translate(-2673.351 -224.262)" fill="#fff"/>
          </g>
          <g id="Group_179" data-name="Group 179">
            <path id="Path_404" data-name="Path 404" d="M2680.591,240.241a2.864,2.864,0,0,1-.543.057,1.173,1.173,0,0,1-1.314-.991,24.951,24.951,0,0,1,.091-4.672,16.955,16.955,0,0,0-.148-5.693c-.408-1.543-1.3-3.385-3.229-3.391a2.912,2.912,0,0,0-.806.118c-.1.02-.2.05-.3.074-.564.237-1.341.447-1.8.082l-.179-.14a1.987,1.987,0,0,1-.515-.208,1.129,1.129,0,0,1-.585-1c.022-.751.793-1.163,1.048-1.3,2.59-1.383,6.511-1.622,8.99,1.123,2.92,3.234,2.109,7.674,1.393,11.591-.2,1.076-.382,2.092-.479,3.028C2682.13,239.665,2681.327,240.1,2680.591,240.241Zm-4.777-16.364c2.133.18,3.759,1.844,4.5,4.635a18.448,18.448,0,0,1,.2,6.26,27.523,27.523,0,0,0-.141,3.782,1.552,1.552,0,0,0,.189-.065c.107-.923.284-1.889.47-2.906.677-3.706,1.377-7.539-.985-10.154a5.018,5.018,0,0,0-4.226-1.55Z" transform="translate(-2671.016 -221.936)" fill="#fff"/>
            <path id="Path_405" data-name="Path 405" d="M2680.059,239.884l-.019,0a3.106,3.106,0,0,1-.589.061,1.416,1.416,0,0,1-1.553-1.2,25.09,25.09,0,0,1,.089-4.716,16.786,16.786,0,0,0-.141-5.612c-.386-1.462-1.221-3.208-3-3.212a2.6,2.6,0,0,0-.738.108c-.114.029-.213.054-.323.077a1.981,1.981,0,0,1-2,.035l-.142-.114a2.148,2.148,0,0,1-.527-.22,1.361,1.361,0,0,1-.7-1.21,1.91,1.91,0,0,1,1.174-1.5c2.672-1.426,6.715-1.667,9.28,1.174,2.995,3.321,2.177,7.82,1.452,11.791-.2,1.086-.381,2.092-.477,3.01A2.022,2.022,0,0,1,2680.059,239.884Zm-5.78-15.1a2.716,2.716,0,0,1,.573-.057c1.648,0,2.844,1.239,3.459,3.569a17.126,17.126,0,0,1,.156,5.771,24.7,24.7,0,0,0-.091,4.628c.039.376.344.777,1.076.777a2.63,2.63,0,0,0,.5-.052h0c.612-.1,1.362-.489,1.427-1.116.1-.937.282-1.95.477-3.027.71-3.885,1.509-8.261-1.333-11.407-2.395-2.65-6.188-2.413-8.7-1.072-.224.119-.9.481-.921,1.093a.894.894,0,0,0,.47.79,1.745,1.745,0,0,0,.452.181l.089.044.179.14c.383.307,1.14.059,1.556-.117l.327-.081C2674.08,224.826,2674.177,224.8,2674.279,224.781Zm5.271,13.5-.017-.3a27.54,27.54,0,0,1,.142-3.813,18.3,18.3,0,0,0-.191-6.185c-.7-2.667-2.265-4.291-4.284-4.457v-.477a5.253,5.253,0,0,1,4.42,1.634c2.441,2.7,1.731,6.592,1.044,10.355-.177.967-.36,1.962-.466,2.893l-.016.138-.128.054a1.7,1.7,0,0,1-.219.076Zm-2.261-14.534a6.778,6.778,0,0,1,2.658,4.119,18.619,18.619,0,0,1,.206,6.338c-.047.574-.093,1.131-.124,1.678.055-.31.111-.618.164-.922.664-3.651,1.356-7.423-.927-9.951a4.433,4.433,0,0,0-1.979-1.263Z" transform="translate(-2670.418 -221.346)" fill="#fff"/>
          </g>
        </g>
      </g>
      <g id="Group_185" data-name="Group 185" transform="translate(1934.411 94.173)">
        <g id="Group_184" data-name="Group 184" transform="translate(0 0)">
          <g id="Group_182" data-name="Group 182" transform="translate(0.844 0.839)">
            <path id="Path_406" data-name="Path 406" d="M2679.764,259.269a11.46,11.46,0,0,0,3.169-.127c.369-.034,1.674-.338,1.431-.96s-1.578-.39-2.017-.3a9.6,9.6,0,0,0-2.676.672C2679.273,258.764,2679.272,259.173,2679.764,259.269Z" transform="translate(-2679.148 -257.52)" fill="#fff"/>
            <path id="Path_407" data-name="Path 407" d="M2682.409,258.775l-.033,0c-.238.022-.479.05-.724.081a8.275,8.275,0,0,1-2.514.04h0a.643.643,0,0,1-.568-.5.672.672,0,0,1,.408-.668,6.761,6.761,0,0,1,2.118-.586c.215-.035.429-.07.63-.11,1.3-.258,2.069-.1,2.285.452a.616.616,0,0,1-.05.565A2.438,2.438,0,0,1,2682.409,258.775Zm-.588-.418c.173-.021.345-.042.511-.055a2.082,2.082,0,0,0,1.219-.5.139.139,0,0,0,.012-.14c-.043-.109-.293-.444-1.748-.155-.209.04-.428.077-.645.112a6.4,6.4,0,0,0-1.966.535c-.131.07-.164.148-.16.174s.058.073.187.1a7.878,7.878,0,0,0,2.364-.047Z" transform="translate(-2678.569 -256.918)" fill="#fff"/>
          </g>
          <g id="Group_183" data-name="Group 183">
            <path id="Path_408" data-name="Path 408" d="M2679.815,258.016a7.452,7.452,0,0,1-2.285-.013h0a1.235,1.235,0,0,1-1.05-1,1.272,1.272,0,0,1,.72-1.291,7.285,7.285,0,0,1,2.3-.649c.208-.035.412-.068.61-.107,1.624-.321,2.626-.045,2.967.826a1.218,1.218,0,0,1-.1,1.1,3.1,3.1,0,0,1-2.043,1c-.231.02-.467.049-.7.078C2680.1,257.982,2679.955,258,2679.815,258.016Zm-1.964-1.672-.163.83Z" transform="translate(-2676.232 -254.59)" fill="#fff"/>
            <path id="Path_409" data-name="Path 409" d="M2680.4,257.544c-.26.024-.491.053-.724.081l-.423.051a7.559,7.559,0,0,1-2.357-.016,1.468,1.468,0,0,1-1.242-1.2,1.508,1.508,0,0,1,.844-1.537,7.426,7.426,0,0,1,2.377-.674c.206-.034.407-.067.6-.106,1.763-.347,2.848-.019,3.235.973a1.448,1.448,0,0,1-.118,1.317A3.143,3.143,0,0,1,2680.4,257.544Zm-.51-.426c.144-.018.288-.035.432-.046l.019,0a2.771,2.771,0,0,0,1.851-.89.981.981,0,0,0,.079-.891c-.291-.747-1.2-.973-2.7-.678-.2.04-.408.074-.619.109a7.09,7.09,0,0,0-2.228.624,1.037,1.037,0,0,0-.6,1.044,1,1,0,0,0,.859.8,7.147,7.147,0,0,0,2.214.01l.69-.083Zm-2.553-.481-.47-.091.194-1,.5-.06Z" transform="translate(-2675.641 -254.008)" fill="#fff"/>
          </g>
        </g>
      </g>
      <g id="Group_189" data-name="Group 189" transform="translate(1933.006 105.248)">
        <g id="Group_188" data-name="Group 188" transform="translate(0 0)">
          <g id="Group_186" data-name="Group 186" transform="translate(0.843 0.846)">
            <path id="Path_410" data-name="Path 410" d="M2676.773,298.327a17.106,17.106,0,0,1,5.084-.9c.386-.025,1.189-.072,1.453-.445.211-.3.107-.563-.292-.637a13.708,13.708,0,0,0-7.877,1.087c-.442.187-.9.528-.418.926.465.381,1.561.148,2.051-.038Z" transform="translate(-2674.279 -295.94)" fill="#fff"/>
            <path id="Path_411" data-name="Path 411" d="M2675.283,298.2a1.768,1.768,0,0,1-1.3-.237.653.653,0,0,1-.288-.608c.052-.356.445-.591.764-.725a13.918,13.918,0,0,1,8.014-1.1.678.678,0,0,1,.556.388.645.645,0,0,1-.111.626c-.328.462-1.168.516-1.618.545a17.1,17.1,0,0,0-5.028.883h0A4.518,4.518,0,0,1,2675.283,298.2Zm3.626-2.3a15.71,15.71,0,0,0-4.265,1.172c-.312.131-.466.276-.477.355-.006.039.039.1.12.169.33.274,1.265.131,1.812-.077a17.469,17.469,0,0,1,5.154-.911c.3-.02,1.077-.069,1.271-.345.055-.078.071-.14.059-.165s-.063-.071-.2-.1a11.526,11.526,0,0,0-3.474-.1Z" transform="translate(-2673.69 -295.349)" fill="#fff"/>
          </g>
          <g id="Group_187" data-name="Group 187">
            <path id="Path_412" data-name="Path 412" d="M2673.832,297.3a2.3,2.3,0,0,1-1.733-.379,1.241,1.241,0,0,1-.5-1.165,1.6,1.6,0,0,1,1.129-1.2,14.493,14.493,0,0,1,8.36-1.139,1.266,1.266,0,0,1,1.007.754,1.247,1.247,0,0,1-.179,1.2,2.693,2.693,0,0,1-2.081.8,16.3,16.3,0,0,0-4.844.846h0A5.12,5.12,0,0,1,2673.832,297.3Z" transform="translate(-2671.351 -292.997)" fill="#fff"/>
            <path id="Path_413" data-name="Path 413" d="M2673.3,296.95l-.02,0a2.471,2.471,0,0,1-1.913-.432,1.474,1.474,0,0,1-.584-1.38,1.826,1.826,0,0,1,1.274-1.383,14.735,14.735,0,0,1,8.5-1.154,1.5,1.5,0,0,1,1.185.9,1.486,1.486,0,0,1-.206,1.425,2.88,2.88,0,0,1-2.261.9,16.073,16.073,0,0,0-4.775.83l-.03.011A5.369,5.369,0,0,1,2673.3,296.95Zm-.075-.473a4.491,4.491,0,0,0,1.1-.262l.029-.011a16.638,16.638,0,0,1,4.886-.851,2.509,2.509,0,0,0,1.9-.7,1.015,1.015,0,0,0,.152-.972,1.038,1.038,0,0,0-.83-.609,14.265,14.265,0,0,0-8.222,1.124,1.425,1.425,0,0,0-.986,1.011,1,1,0,0,0,.416.942,2.024,2.024,0,0,0,1.555.326Z" transform="translate(-2670.766 -292.414)" fill="#fff"/>
          </g>
        </g>
      </g>
      <path id="路径_4064" data-name="路径 4064" d="M2569.231,88.414a314.808,314.808,0,0,1,2.988,68.853c-.03.444-.352,3.2,1.5,3.433,1.8.223,1.947-2.715,1.966-3a330.022,330.022,0,0,0-3.225-72.16c-.082-.535-.7-2.37-2.287-1.449-1.633.95-1.134,3.065-.941,4.326Z" transform="translate(-665.343 -38.73)" fill="#fff"/>
      <path id="路径_4065" data-name="路径 4065" d="M2549.073,63.122c3.844-2.19,7.919-4.493,12.473-4.5,4.538-.006,7.837,2.462,9.708,6.5a35.9,35.9,0,0,1,2.041,5.543,15.331,15.331,0,0,1,.571,2.941c.026.358-.013.006.006-.126a5.681,5.681,0,0,1-.385,1.364,9.466,9.466,0,0,1-4.163,4.369c-.586.341-5.287,2.911-5.489,1.676l.155,3.135c-.049,1.232.023.661.431.106.308-.42.631-.831.95-1.243q.879-1.134,1.788-2.244c1.266-1.548,1.773-3.754,3.118-5.234,2.692-2.96,6.273-6.839,9.258-9.5.8-.714.648-1.246.6-2.2-.017-.318-.22-2.815-.846-2.257a114.5,114.5,0,0,0-13.593,14.4,17.62,17.62,0,0,0-2.441,3.417,11.034,11.034,0,0,0-.45,6.168c.193,1.028.578,2.3,1.849,2.266a6.852,6.852,0,0,0,2.144-.819c.7-.312,1.4-.638,2.074-1A10.939,10.939,0,0,0,2574.3,80a22.368,22.368,0,0,0,.754-10.1,35.431,35.431,0,0,0-2.351-8.7c-1-2.532-2.25-5.19-4.456-6.9-5.978-4.622-13.514-.824-19.122,2.37-.828.472-.723,2.4-.73,3.215,0,.214.243,3.474.676,3.227Z" transform="translate(-650.676 -16.189)" fill="#fff"/>
      <path id="路径_4066" data-name="路径 4066" d="M2705.388,30.817c.121.176-5.685,5.945-6.2,6.669a29.119,29.119,0,0,0-3.992,7.844c-1.681,5.183-2,11.174,1.074,16.116,1.578,2.534,5.479.741,7.984-.173,5.681-2.073,9.949-5.555,15.563-7.626-.362.133-.861-1.891-.857-2.068.027.353.058.706.09,1.059-.009-.163-.022-.326-.032-.489,0,.133.009.266.016.4.043.819.088,1.639.122,2.458.078,1.9.132,3.8.178,5.7.078,3.259.138,6.518.16,9.778,0,.194,0,.388,0,.582.01,1,.019-1.942,0-.1-.135,13.789-.3,27.578-.235,41.368.042,8.981.206,17.96.372,26.939.028,1.532-.389,18.843,1.693,18.124.915-.316,2.041-3.771,2.1-4.7,1.843-30.1-.339-50.177-.064-80.3a99.036,99.036,0,0,0-.835-14.345A72.336,72.336,0,0,0,2721.1,50.6c-.406-1.64-.54-5.232-4.079-3.765-2.758,1.144-4.829,3.029-7.449,4.322a56.409,56.409,0,0,1-5.562,2.381c-1.477.541-3.247,1.495-4.952,1.54-2.728.073-2.131-1.619-2.283-3.227l.234-2.907c-.233-.094-.013.327.075.144,1.519-3.154,4.555-5.778,6.772-8.7S2707.445,33.8,2705.388,30.817Z" transform="translate(-754.251 -1)" fill="#fff"/>
      <path id="路径_4067" data-name="路径 4067" d="M2695.279,66.014a55.041,55.041,0,0,0,19.645-12.733c.769-.776.478-3,.394-3.973-.026-.3-.333-2.82-.92-2.228-5.467,5.511-12.527,13.321-19.79,16.06-1.442.544.29,3.018.671,2.874Z" transform="translate(-754.326 -12.51)" fill="#fff"/>
    </g>
    <g id="组_126" data-name="组 126" transform="translate(307.261 309)">
      <g id="组_118" data-name="组 118" transform="translate(0 0.345)">
        <path id="路径_344" data-name="路径 344" d="M451.332,362.823a3.38,3.38,0,0,1-5,.045,19.114,19.114,0,0,1-2.94-3.68c-.806-1.274-1.5-2.578-2.216-3.938-.116.029-.174.173-.2.289a42.027,42.027,0,0,1-2.767,7.974c-.233.317-.407.635-.812.721-.52.143-.9-.2-1.213-.553l-.288-.319a15.748,15.748,0,0,1-1.571-7.753,23.671,23.671,0,0,1,.97-6.185.442.442,0,0,1,.55-.259,1.008,1.008,0,0,1,.519.464.308.308,0,0,1-.03.4l-.116.144c-.058.029-.086.058-.086.087a22.216,22.216,0,0,0-.824,5.232,15.982,15.982,0,0,0,1.139,6.769,2.172,2.172,0,0,0,.692.927c.232-.058.377-.462.522-.664a48.14,48.14,0,0,0,2.8-7.8,1.039,1.039,0,0,1,.609-.49.769.769,0,0,1,.693.233,30.984,30.984,0,0,0,4.868,7.415c1.73,1.855,3.495,1.513,4.656-.567a9.467,9.467,0,0,0,.9-3.149,44.938,44.938,0,0,0,.68-6.1,50.656,50.656,0,0,0-.215-6.3.766.766,0,0,1,.319-.635.443.443,0,0,1,.462.377,60.156,60.156,0,0,1,.3,6.507,41.731,41.731,0,0,1-.946,8.007A7.231,7.231,0,0,1,451.332,362.823Z" transform="translate(-433.338 -344.156)" fill="#fff"/>
        <path id="路径_345" data-name="路径 345" d="M436.071,364.168a2.362,2.362,0,0,1-1.686-.9l-.371-.41-.056-.106a16.5,16.5,0,0,1-1.686-8.236,24.565,24.565,0,0,1,1.009-6.434,1.306,1.306,0,0,1,.617-.784,1.5,1.5,0,0,1,1.137-.139l.119.042a1.982,1.982,0,0,1,.963.846,1.279,1.279,0,0,1-.083,1.5l-.1.131a21.369,21.369,0,0,0-.727,4.78,15.463,15.463,0,0,0,.847,5.819,48.15,48.15,0,0,0,2.389-6.876l.07-.183a2.013,2.013,0,0,1,1.174-.977l.2-.043a1.741,1.741,0,0,1,1.539.568l.077.09.053.106a30.369,30.369,0,0,0,4.711,7.188,2.253,2.253,0,0,0,1.671.893c.492-.059,1-.511,1.422-1.272a8.675,8.675,0,0,0,.793-2.829,43.233,43.233,0,0,0,.669-5.975,49.509,49.509,0,0,0-.211-6.181l-.01-.1.011-.1a1.743,1.743,0,0,1,.773-1.354l.237-.148h.279a1.41,1.41,0,0,1,1.426,1.232,61.053,61.053,0,0,1,.309,6.641,42.985,42.985,0,0,1-.971,8.216,8.151,8.151,0,0,1-1.676,3.228l-.011.012a4.356,4.356,0,0,1-3.078,1.439,4.526,4.526,0,0,1-3.315-1.356,20,20,0,0,1-3.086-3.859c-.417-.659-.8-1.328-1.176-2a38.312,38.312,0,0,1-2.312,6.225l-.17.261a2.125,2.125,0,0,1-1.287.981A1.872,1.872,0,0,1,436.071,364.168Z" transform="translate(-432.265 -343.082)" fill="#fff"/>
      </g>
      <g id="组_119" data-name="组 119" transform="translate(23.576)">
        <path id="路径_346" data-name="路径 346" d="M495.972,359.424a7.062,7.062,0,0,1-.064,2.458c-.087.115-.116.26-.2.375a.877.877,0,0,1-.376.346c-.174.115-.492-.088-.433-.29a6.11,6.11,0,0,0,.065-2.891c-.228-1.273-.687-2.518-.944-3.761-2.488.543-4.948,1.288-7.379,2.034-.757,2.138-1.371,4.3-1.954,6.559a.65.65,0,0,1-.52.057.9.9,0,0,1-.258-.9c.5-1.82,1.05-3.64,1.6-5.432a1.4,1.4,0,0,1-.347-.03.519.519,0,0,1-.346-.348.626.626,0,0,1,.349-.549l.434-.114c.116-.058.232-.087.319-.144a94.957,94.957,0,0,1,4.571-12.191c.175-.346.608-.172.781-.027a.649.649,0,0,1,.057.463l-.117.347c1.294,2.981,2.5,6.021,3.533,9.117.463-.086,1.331-.257,2.054-.371.145,0,.115.406.028.434a7.949,7.949,0,0,1-1.823.805C495.228,356.7,495.745,358.036,495.972,359.424Zm-8.956-2.943c2.228-.631,4.4-1.261,6.684-1.747a70.662,70.662,0,0,0-3.016-8.046A101.515,101.515,0,0,0,487.016,356.481Z" transform="translate(-482.896 -343.43)" fill="#fff"/>
        <path id="路径_347" data-name="路径 347" d="M483.328,364.238a2.384,2.384,0,0,1-.4-.041l-.307-.052-.22-.221a1.859,1.859,0,0,1-.506-1.844c.4-1.476.836-2.935,1.345-4.594a1.435,1.435,0,0,1-.432-.69l-.028-.133a1.577,1.577,0,0,1,.833-1.53l.11-.062.336-.088a93.9,93.9,0,0,1,4.479-11.87,1.332,1.332,0,0,1,.925-.728,1.67,1.67,0,0,1,1.361.374l.126.105.084.141a1.6,1.6,0,0,1,.175,1.157l-.029.109c1.241,2.88,2.274,5.525,3.142,8.048.4-.075.847-.156,1.251-.219l.155-.012a1.078,1.078,0,0,1,1.055.952,1.24,1.24,0,0,1-.563,1.312,7.818,7.818,0,0,1-1.162.579c.084.344.182.695.282,1.058a20.865,20.865,0,0,1,.524,2.2l0,.017a8.022,8.022,0,0,1-.074,2.792l-.044.216-.123.175a1.9,1.9,0,0,1-.181.332,1.856,1.856,0,0,1-.716.658,1.267,1.267,0,0,1-1.368-.106,1.205,1.205,0,0,1-.472-1.308,5.136,5.136,0,0,0,.042-2.449c-.116-.644-.294-1.282-.485-1.958-.075-.266-.151-.538-.224-.812-1.891.45-3.76,1-5.9,1.657-.75,2.183-1.336,4.346-1.768,6.017l-.082.315-.255.2A1.39,1.39,0,0,1,483.328,364.238Zm.442-1.642Zm5.84-14.51c-.779,1.912-1.477,3.879-2.157,5.883,1.309-.368,2.593-.716,3.921-1.026C490.807,351.2,490.223,349.594,489.61,348.085Z" transform="translate(-481.822 -342.357)" fill="#fff"/>
      </g>
      <g id="组_120" data-name="组 120" transform="translate(40.082 0.139)">
        <path id="路径_348" data-name="路径 348" d="M525.638,360.969c-.2.491-.349.982-.553,1.5a6.147,6.147,0,0,1-.727,1.444,1.219,1.219,0,0,1-1.273.286,2.5,2.5,0,0,1-.952-1.1c-.2-.405-.374-.869-.575-1.273-.744-2.778-1.143-5.324-1.684-8.3-.4-2.227-.77-4.484-1.082-6.682a14.441,14.441,0,0,1-.227-2,.449.449,0,0,1,.55-.086,1.09,1.09,0,0,1,.433.464c.113.983.4,2.777.511,3.529.342,2.025,1,5.844,1.339,7.9.345,1.215.485,2.516.8,3.761a7.526,7.526,0,0,0,1.12,2.72.332.332,0,0,0,.347.175.9.9,0,0,0,.233-.433c.436-1.069,1.106-2.889,1.571-4.015.873-2.137,2.735-6.615,3.724-8.9l.2-.346.175-.376a1.611,1.611,0,0,1,.464-.664.794.794,0,0,1,.578-.143c.144.029.2.347.173.492-.582,1.329-1.367,2.975-1.774,3.928C528.17,354.9,526.424,358.976,525.638,360.969Z" transform="translate(-517.592 -343.725)" fill="#fff"/>
        <path id="路径_349" data-name="路径 349" d="M522.452,364.16a2.7,2.7,0,0,1-.693-.1l-.119-.032-.107-.06a3.406,3.406,0,0,1-1.333-1.493c-.12-.241-.222-.476-.323-.71-.086-.2-.171-.4-.264-.586l-.068-.181c-.623-2.323-1.012-4.511-1.424-6.828-.09-.507-.181-1.023-.278-1.553-.427-2.384-.793-4.645-1.087-6.719-.025-.2-.054-.376-.082-.555a9.528,9.528,0,0,1-.154-1.58v-.352l.226-.271a1.413,1.413,0,0,1,1.764-.314,2.02,2.02,0,0,1,.794.807l.107.179.032.221c.091.793.3,2.128.433,3.012l.074.482.505,2.979c.3,1.73.614,3.6.822,4.853.191.687.321,1.389.447,2.069.107.579.209,1.127.345,1.665a10.115,10.115,0,0,0,.327,1.131l.249-.645c.3-.776.6-1.572.851-2.172.9-2.2,2.755-6.663,3.731-8.913l.054-.106.18-.306.154-.333a2.556,2.556,0,0,1,.763-1.033,1.753,1.753,0,0,1,1.3-.327l.053.009a1.371,1.371,0,0,1,.933,1.64l-.062.2c-.287.657-.625,1.391-.942,2.082s-.624,1.359-.828,1.838c-.313.76-.758,1.819-1.232,2.946-.771,1.833-1.646,3.912-2.133,5.145l-.006.016c-.1.251-.191.5-.281.757-.083.238-.168.48-.265.727a6.955,6.955,0,0,1-.832,1.642l-.059.078A2.014,2.014,0,0,1,522.452,364.16Z" transform="translate(-516.519 -342.649)" fill="#fff"/>
      </g>
      <g id="组_121" data-name="组 121" transform="translate(56.576 0.441)">
        <path id="路径_350" data-name="路径 350" d="M562.037,347.409a2.745,2.745,0,0,0-.375-.435,3.974,3.974,0,0,0-1.647-.669,8.758,8.758,0,0,0-3.818.337,6.149,6.149,0,0,0-2.4,1.237.647.647,0,0,1-.433-.233l-.087-.087a.613.613,0,0,1,.407-.808,9.116,9.116,0,0,1,4.485-1.406,10.15,10.15,0,0,1,2.92.3l.577.291a1.837,1.837,0,0,1,.892,1.477c0,.2-.29.259-.4.144Zm1.2,5.988a76.93,76.93,0,0,0-8.892,5.963,4.754,4.754,0,0,0,.572,2.662,3.685,3.685,0,0,0,2.425,1.568,7.169,7.169,0,0,0,4.6-.8,5.684,5.684,0,0,0,1.391-1.124c.145-.087.231.059.26.145a.342.342,0,0,1-.03.289,4.64,4.64,0,0,1-2.666,2.133,7.657,7.657,0,0,1-3.067.4,5.085,5.085,0,0,1-3.032-1.222,4.859,4.859,0,0,1-1.438-3.271c-.141-1.562.095-3.267.1-4.77a26.836,26.836,0,0,1,.618-4.278,1.982,1.982,0,0,1,1.073-1.038.8.8,0,0,1,.809.378c-.03.318-.32.433-.551.548l-.174.116a1.442,1.442,0,0,0-.407,1.011,31.715,31.715,0,0,0-.478,5.984,50.449,50.449,0,0,1,9.036-5.586.617.617,0,0,1,.606.175.854.854,0,0,1-.348.462Z" transform="translate(-552.261 -344.358)" fill="#fff"/>
        <path id="路径_351" data-name="路径 351" d="M557.3,364.555c-.212,0-.421-.01-.625-.027a6.05,6.05,0,0,1-3.614-1.481,5.814,5.814,0,0,1-1.743-3.9,21.6,21.6,0,0,1,.027-3.16c.034-.6.067-1.165.068-1.7l.006-.1c.025-.245.049-.493.073-.742a21.9,21.9,0,0,1,.574-3.692l.069-.181a2.925,2.925,0,0,1,1.62-1.52l.164-.042a1.778,1.778,0,0,1,1.779.8l.19.286-.031.343a1.614,1.614,0,0,1-1.035,1.3l-.046.031c0,.036-.028.192-.044.3l-.015.1a35.122,35.122,0,0,0-.44,3.879,51.138,51.138,0,0,1,7.615-4.51l.136-.065.149-.021a1.55,1.55,0,0,1,1.484.509l.372.438-.2.537a1.813,1.813,0,0,1-.761.955l-.38.245c-.747.475-1.5.938-2.259,1.4a54.228,54.228,0,0,0-6.184,4.2,3.406,3.406,0,0,0,.429,1.7,2.74,2.74,0,0,0,1.788,1.121,6.188,6.188,0,0,0,3.942-.7,4.7,4.7,0,0,0,1.144-.934l.094-.1.117-.07a1.123,1.123,0,0,1,.968-.1,1.211,1.211,0,0,1,.716.77,1.322,1.322,0,0,1-.093,1.053,5.681,5.681,0,0,1-3.19,2.59A8.74,8.74,0,0,1,557.3,364.555Zm4.746-13.312-.006,0Zm-8.969-3.463h-.355a1.57,1.57,0,0,1-1.121-.519l-.242-.244-.073-.205a1.584,1.584,0,0,1,.072-1.256,1.614,1.614,0,0,1,.814-.753,10.148,10.148,0,0,1,4.875-1.5,11.069,11.069,0,0,1,3.2.322l.11.026.783.4a2.862,2.862,0,0,1,.772.71,2.913,2.913,0,0,1,.544,1.451l.009.128a1.172,1.172,0,0,1-.734,1.079,1.235,1.235,0,0,1-1.336-.251l-.281-.347a1.829,1.829,0,0,0-.132-.164,3.034,3.034,0,0,0-1.217-.469,7.727,7.727,0,0,0-3.364.317,5.233,5.233,0,0,0-2.048,1.048Z" transform="translate(-551.188 -343.284)" fill="#fff"/>
      </g>
      <g id="组_122" data-name="组 122" transform="translate(82.913 0.514)">
        <path id="路径_352" data-name="路径 352" d="M619.77,361.21a15.147,15.147,0,0,1-3.534,2.3,11.857,11.857,0,0,1-4.716,1.347,2.5,2.5,0,0,1-2.224-.9,3.022,3.022,0,0,1-.632-1.736,77.447,77.447,0,0,1,1.284-16.19c.087-.2.175-.462.464-.548.26,0,.462.29.49.493l-.8,6.359a55.959,55.959,0,0,0-.43,9.888,1.757,1.757,0,0,0,.979,1.506,3.673,3.673,0,0,0,2.487-.08,14,14,0,0,0,3.184-1.148,21.736,21.736,0,0,0,4.489-3c.145-.058.377.087.318.261a3.7,3.7,0,0,1-.667.837C620.233,360.835,619.972,361.037,619.77,361.21Z" transform="translate(-607.623 -344.511)" fill="#fff"/>
        <path id="路径_353" data-name="路径 353" d="M610.213,364.769a3.413,3.413,0,0,1-2.756-1.281,3.972,3.972,0,0,1-.837-2.258,79.155,79.155,0,0,1,1.3-16.442l.02-.111.045-.1a1.71,1.71,0,0,1,1.082-1.1l.137-.04h.142a1.535,1.535,0,0,1,1.452,1.332l.018.128L610,351.385a55.186,55.186,0,0,0-.426,9.7.8.8,0,0,0,.429.7,3.015,3.015,0,0,0,1.8-.14,13.227,13.227,0,0,0,3-1.077,20.889,20.889,0,0,0,4.316-2.883l.116-.095.14-.056a1.228,1.228,0,0,1,1.291.263,1.151,1.151,0,0,1,.31,1.214l-.069.157a4.648,4.648,0,0,1-.834,1.059c-.2.2-.405.37-.586.519l-.176.148a16.1,16.1,0,0,1-3.721,2.425,12.87,12.87,0,0,1-5.087,1.446C610.41,364.766,610.311,364.769,610.213,364.769Z" transform="translate(-606.551 -343.437)" fill="#fff"/>
      </g>
      <g id="组_123" data-name="组 123" transform="translate(98.699 0.191)">
        <path id="路径_354" data-name="路径 354" d="M653.883,359.827a7.061,7.061,0,0,1-.064,2.458c-.087.116-.116.26-.2.375a.883.883,0,0,1-.376.346c-.174.115-.492-.088-.433-.29a6.117,6.117,0,0,0,.065-2.892c-.228-1.273-.688-2.517-.945-3.761-2.488.543-4.948,1.289-7.379,2.034-.758,2.138-1.37,4.3-1.954,6.559a.649.649,0,0,1-.521.057.9.9,0,0,1-.258-.9c.5-1.82,1.05-3.64,1.6-5.432a1.422,1.422,0,0,1-.347-.03.52.52,0,0,1-.346-.348.626.626,0,0,1,.349-.549l.434-.114c.116-.058.231-.087.319-.144a95.013,95.013,0,0,1,4.571-12.191c.174-.346.608-.172.78-.027a.648.648,0,0,1,.057.463l-.117.347c1.293,2.981,2.5,6.021,3.533,9.117.463-.086,1.331-.257,2.054-.371.145,0,.115.405.028.434a7.964,7.964,0,0,1-1.824.805C653.138,357.107,653.656,358.438,653.883,359.827Zm-8.956-2.943c2.228-.63,4.4-1.261,6.684-1.747a70.59,70.59,0,0,0-3.016-8.046A101.7,101.7,0,0,0,644.927,356.884Z" transform="translate(-640.807 -343.833)" fill="#fff"/>
        <path id="路径_355" data-name="路径 355" d="M641.239,364.64a2.38,2.38,0,0,1-.4-.04l-.307-.052-.22-.221a1.859,1.859,0,0,1-.506-1.844c.4-1.476.836-2.936,1.345-4.594a1.433,1.433,0,0,1-.432-.69l-.028-.133a1.576,1.576,0,0,1,.833-1.529l.11-.062.336-.088a93.979,93.979,0,0,1,4.478-11.871,1.336,1.336,0,0,1,.926-.728,1.674,1.674,0,0,1,1.361.374l.125.106.085.14a1.6,1.6,0,0,1,.175,1.157l-.028.109c1.241,2.881,2.274,5.525,3.142,8.048.4-.075.847-.156,1.25-.219l.154-.012a1.077,1.077,0,0,1,1.055.952,1.24,1.24,0,0,1-.563,1.312,7.765,7.765,0,0,1-1.162.579c.085.344.182.7.282,1.058a20.924,20.924,0,0,1,.524,2.2l0,.017a8.022,8.022,0,0,1-.073,2.792l-.044.216-.123.175a1.973,1.973,0,0,1-.181.332,1.866,1.866,0,0,1-.716.658,1.267,1.267,0,0,1-1.368-.107,1.2,1.2,0,0,1-.472-1.308,5.134,5.134,0,0,0,.042-2.449c-.115-.643-.295-1.282-.484-1.957-.075-.267-.151-.538-.223-.812-1.891.45-3.76,1-5.9,1.656-.75,2.183-1.336,4.346-1.768,6.017l-.082.315-.255.2A1.391,1.391,0,0,1,641.239,364.64Zm.442-1.642Zm5.84-14.51c-.779,1.912-1.477,3.879-2.157,5.883,1.309-.368,2.593-.716,3.921-1.026C648.718,351.6,648.134,350,647.521,348.488Z" transform="translate(-639.733 -342.759)" fill="#fff"/>
      </g>
      <g id="组_124" data-name="组 124" transform="translate(116.069 0.474)">
        <path id="路径_356" data-name="路径 356" d="M689.6,356.1a51,51,0,0,0-.715,8.441.46.46,0,0,1-.377.346.545.545,0,0,1-.606-.435,50.1,50.1,0,0,0-2.006-7.292,29.968,29.968,0,0,0-4.4-8.484,2.013,2.013,0,0,1-.375-.521c-1.8,4.159-2.11,11.156-1.716,15.466.028.26-.319.346-.463.23a1.021,1.021,0,0,1-.432-.637l-.171-.81a47.385,47.385,0,0,1,.547-10.176,19.14,19.14,0,0,1,2.242-6.183c.549-.028.663.7.547.984l-.261.433a1.4,1.4,0,0,1,.607.377c1.5,1.45,3.859,6.169,4.748,8.744.488,1.389.976,2.779,1.348,4.225a51.107,51.107,0,0,1,1.353-8.931,16.125,16.125,0,0,1,2.211-5,3.343,3.343,0,0,1,1.565-1.326.39.39,0,0,1,.114.549,8.981,8.981,0,0,0-1.8,2.8A25.224,25.224,0,0,0,689.6,356.1Z" transform="translate(-677.319 -344.505)" fill="#fff"/>
        <path id="路径_357" data-name="路径 357" d="M687.6,365.7l-.256-1a1.52,1.52,0,0,1-1.464-1.223,49.407,49.407,0,0,0-1.968-7.155,33.2,33.2,0,0,0-3.554-7.3,39.768,39.768,0,0,0-1.051,13.346,1.192,1.192,0,0,1-.63,1.181,1.3,1.3,0,0,1-1.313-.031,2,2,0,0,1-.847-1.162l-.028-.105-.193-.981a48.727,48.727,0,0,1,.563-10.387,20.38,20.38,0,0,1,2.373-6.517l.269-.433.509-.025a1.443,1.443,0,0,1,1.28.62,1.909,1.909,0,0,1,.3,1.414l.036.033c1.656,1.6,4,6.322,4.942,8.984a40,40,0,0,1,.89-4.5,17.064,17.064,0,0,1,2.352-5.3,4.222,4.222,0,0,1,2.11-1.709l.389-.105.349.2a1.362,1.362,0,0,1,.389,2l-.06.067a8.055,8.055,0,0,0-1.6,2.5,24.339,24.339,0,0,0-1.889,6.963v.006a49.846,49.846,0,0,0-.7,8.28v.14l-.039.135a1.442,1.442,0,0,1-1.083,1.025Zm-10.234-3.158c0,.008,0,.016,0,.024C677.365,362.562,677.363,362.554,677.363,362.546Z" transform="translate(-676.245 -343.353)" fill="#fff"/>
      </g>
      <g id="组_125" data-name="组 125" transform="translate(134.342 0.543)">
        <path id="路径_358" data-name="路径 358" d="M725.615,362.165a18.805,18.805,0,0,1-5.791,2.906c-.608.114-1.533.227-1.936-.5a11.029,11.029,0,0,0,1.534-.314,7.507,7.507,0,0,1-.516-2l-.312-2.227a39.523,39.523,0,0,1-.33-6.94,30.586,30.586,0,0,1,1.088-6.851c.087-.26.233-.578.435-.664a11.544,11.544,0,0,1,3.323.9,18.27,18.27,0,0,1,3.84,2.266,9.558,9.558,0,0,1,1.961,2.087,6.4,6.4,0,0,1,1.063,2.778,8.478,8.478,0,0,1-.559,3.931A12.415,12.415,0,0,1,725.615,362.165Zm.062-13.069a13.652,13.652,0,0,0-2.657-1.424c-.954-.378-1.907-.728-2.715-.99a25.161,25.161,0,0,0-.94,5.81,44.761,44.761,0,0,0,.867,11.4,19.566,19.566,0,0,0,4.111-2.071,14.742,14.742,0,0,0,2.84-2.682,8.166,8.166,0,0,0,1.6-3.206,7.277,7.277,0,0,0-.05-3.152A9.006,9.006,0,0,0,725.677,349.1Z" transform="translate(-716.35 -344.591)" fill="#fff"/>
        <path id="路径_359" data-name="路径 359" d="M717.381,365.029a2.149,2.149,0,0,1-2.038-1.073l-.687-1.232,1.4-.205c.142-.021.279-.042.412-.065a9.4,9.4,0,0,1-.219-1.164l-.31-2.211a40.047,40.047,0,0,1-.338-7.116,31.657,31.657,0,0,1,1.126-7.081,1.92,1.92,0,0,1,.99-1.289l.223-.095.241.02a12.611,12.611,0,0,1,3.643.988,19.288,19.288,0,0,1,4.041,2.388,10.536,10.536,0,0,1,2.168,2.313,7.389,7.389,0,0,1,1.219,3.209,9.4,9.4,0,0,1-.63,4.419,13.311,13.311,0,0,1-4.09,5,19.606,19.606,0,0,1-6.1,3.074l-.113.028A4.944,4.944,0,0,1,717.381,365.029Zm1.9-18.182a26.53,26.53,0,0,0-.635,4.61,43.279,43.279,0,0,0,.625,9.977,13.972,13.972,0,0,0,2.792-1.487,13.6,13.6,0,0,0,2.66-2.5,7.133,7.133,0,0,0,1.418-2.82,6.331,6.331,0,0,0-.026-2.631,8.048,8.048,0,0,0-2.706-3.205,12.441,12.441,0,0,0-2.462-1.313C720.369,347.248,719.8,347.035,719.278,346.847Z" transform="translate(-714.656 -343.499)" fill="#fff"/>
      </g>
    </g>
  </g>
</svg>
