<svg id="组_260" data-name="组 260" xmlns="http://www.w3.org/2000/svg" width="22.603" height="28" viewBox="0 0 22.603 28">
  <g id="路径_99" data-name="路径 99" transform="translate(0)">
    <path id="路径_984" data-name="路径 984" d="M997.385,449.974l-3.986-6.38a11.033,11.033,0,0,0,3.722-6.089A11.214,11.214,0,0,0,988.8,424l-.136-.032a11.215,11.215,0,0,0-13.5,8.32c-.011.046-.021.091-.032.137a11.215,11.215,0,0,0,8.321,13.5l.137.032a11.037,11.037,0,0,0,7.1-.676l3.986,6.38Zm-19.114-16.82a7.982,7.982,0,0,1,9.514-6.076l.154.035a8.246,8.246,0,0,1,4.6,2.919,7.884,7.884,0,0,1,1.441,6.749,7.982,7.982,0,0,1-9.513,6.076l-.155-.035a7.982,7.982,0,0,1-6.076-9.513C978.247,433.256,978.26,433.205,978.271,433.154Z" transform="translate(-974.824 -423.666)" fill="#043f98"/>
  </g>
  <g id="路径_279" data-name="路径 279" transform="translate(7.674 4.613)">
    <path id="路径_985" data-name="路径 985" d="M991.484,433.575a.854.854,0,0,1-.778-.5c-1.6-3.506-5.565-1.986-5.732-1.921a.855.855,0,0,1-.63-1.589c1.944-.769,6.1-1.173,7.915,2.8a.855.855,0,0,1-.776,1.21Z" transform="translate(-983.806 -429.065)" fill="#043f98"/>
  </g>
  <g id="椭圆_4" data-name="椭圆 4" transform="translate(16.132 9.684)">
    <circle id="椭圆_53" data-name="椭圆 53" cx="0.854" cy="0.854" r="0.854" fill="#043f98"/>
  </g>
</svg>
