<svg xmlns="http://www.w3.org/2000/svg" viewBox="0 0 40.08 40.08"><defs><style>.cls-1{fill:#043f98;fill-rule:evenodd;}</style></defs><g id="圖層_2" data-name="圖層 2"><g id="圖層_1-2" data-name="圖層 1"><path id="Path_3" data-name="Path 3" class="cls-1" d="M20,3.6a61,61,0,0,1,8,.22,10.19,10.19,0,0,1,3.78.67A7.83,7.83,0,0,1,35.6,8.26,10.38,10.38,0,0,1,36.26,12c0,2,.23,2.67.23,8a61,61,0,0,1-.23,8,10.38,10.38,0,0,1-.66,3.78,7.89,7.89,0,0,1-3.78,3.78,10.38,10.38,0,0,1-3.78.66c-2,0-2.67.23-8,.23a61,61,0,0,1-8-.23,10.38,10.38,0,0,1-3.78-.66,7.83,7.83,0,0,1-3.77-3.78A10.19,10.19,0,0,1,3.82,28c0-2-.22-2.67-.22-8a61,61,0,0,1,.22-8,10.19,10.19,0,0,1,.67-3.78A7.93,7.93,0,0,1,6,6,3.74,3.74,0,0,1,8.26,4.49,10.19,10.19,0,0,1,12,3.82a61,61,0,0,1,8-.22M20,0a66.33,66.33,0,0,0-8.22.22,13.83,13.83,0,0,0-4.89.89A8.83,8.83,0,0,0,3.37,3.37,8.83,8.83,0,0,0,1.15,6.93a10.15,10.15,0,0,0-.89,4.89A66.33,66.33,0,0,0,0,20a66.33,66.33,0,0,0,.22,8.22,13.83,13.83,0,0,0,.89,4.89,8.83,8.83,0,0,0,2.22,3.56,8.72,8.72,0,0,0,3.56,2.22,13.83,13.83,0,0,0,4.89.89A64.44,64.44,0,0,0,20,40a64.44,64.44,0,0,0,8.22-.22,13.83,13.83,0,0,0,4.89-.89,9.27,9.27,0,0,0,5.78-5.78,13.83,13.83,0,0,0,.89-4.89c0-2.22.22-2.89.22-8.22a64.44,64.44,0,0,0-.22-8.22,13.83,13.83,0,0,0-.89-4.89,8.72,8.72,0,0,0-2.22-3.56,8.83,8.83,0,0,0-3.56-2.22A13.83,13.83,0,0,0,28.26.26,66.33,66.33,0,0,0,20,0m0,9.78A10.06,10.06,0,0,0,9.82,19.71V20A10.22,10.22,0,1,0,20,9.82h0m0,16.89a6.55,6.55,0,0,1-6.67-6.43V20a6.57,6.57,0,0,1,6.43-6.67H20a6.56,6.56,0,0,1,6.67,6.43V20a6.55,6.55,0,0,1-6.43,6.67H20M30.71,6.93a2.45,2.45,0,1,0,2.44,2.44,2.45,2.45,0,0,0-2.44-2.44"/></g></g></svg>