<svg xmlns="http://www.w3.org/2000/svg" viewBox="0 0 392.97 83.05"><defs><style>.cls-1{fill-rule:evenodd;}</style></defs><g id="圖層_2" data-name="圖層 2"><g id="圖層_1-2" data-name="圖層 1"><g id="Group_4245" data-name="Group 4245"><g id="Group_4199" data-name="Group 4199"><g id="Group_4010" data-name="Group 4010"><path id="Path_3810" data-name="Path 3810" class="cls-1" d="M108,73.37c0-.08-.07,0-.15,0a.26.26,0,0,0,0-.28c.07-.06.12-.13.23-.1-.2-.34-.28-.73-.42-1-.1.07-.16,0-.25,0,.38-.32-.18-.63,0-.94-.07-.18-.34-.11-.43-.27.07-.58,1.08-.24.77.28a3.34,3.34,0,0,1,.47,2.07c.23.16.08.37.12.65-.07.07-.11.07-.23.07C108.11,73.66,107.83,73.52,108,73.37Z"/></g><g id="Group_4011" data-name="Group 4011"><path id="Path_3811" data-name="Path 3811" class="cls-1" d="M108.1,73.26c0-.09-.06,0-.15,0a.24.24,0,0,0,0-.27c.07-.06.12-.14.23-.1-.2-.34-.28-.74-.42-1-.1.06-.16,0-.25-.06.38-.32-.18-.63,0-.94-.07-.18-.33-.11-.43-.27.07-.58,1.08-.23.77.28a3.36,3.36,0,0,1,.47,2.08c.23.15.08.36.13.64-.08.08-.12.08-.24.07C108.23,73.54,108,73.41,108.1,73.26Z"/></g><g id="Group_4012" data-name="Group 4012"><path id="Path_3812" data-name="Path 3812" class="cls-1" d="M108.23,73.14c0-.09-.07,0-.15,0a.26.26,0,0,0,0-.27c.06-.06.11-.14.23-.1-.2-.34-.29-.74-.43-1-.09.06-.16,0-.25-.05.39-.32-.17-.64,0-.95-.08-.18-.34-.11-.43-.26.07-.59,1.07-.24.77.27a3.29,3.29,0,0,1,.46,2.08c.24.15.09.36.13.65-.07.07-.11.07-.23.06C108.36,73.42,108.08,73.28,108.23,73.14Z"/></g><g id="Group_4013" data-name="Group 4013"><path id="Path_3813" data-name="Path 3813" class="cls-1" d="M108.35,73c0-.08-.06,0-.15,0a.24.24,0,0,0,0-.27c.07-.06.12-.13.23-.1-.2-.34-.28-.73-.42-1-.1.06-.16,0-.25-.06.38-.32-.18-.63,0-.94-.07-.18-.33-.11-.43-.27.07-.58,1.08-.24.77.28a3.36,3.36,0,0,1,.47,2.08c.23.15.08.36.13.64-.08.08-.12.07-.24.07C108.49,73.31,108.21,73.17,108.35,73Z"/></g><g id="Group_4014" data-name="Group 4014"><path id="Path_3814" data-name="Path 3814" class="cls-1" d="M108.48,72.9c0-.08-.06,0-.14,0a.28.28,0,0,0,0-.28c.06-.06.11-.13.22-.09-.2-.34-.28-.74-.42-1-.09.06-.16,0-.25,0,.39-.32-.18-.64,0-1-.08-.18-.34-.11-.44-.26.07-.59,1.08-.24.77.27a3.31,3.31,0,0,1,.47,2.08c.23.15.09.36.13.65-.07.07-.11.07-.23.06C108.62,73.19,108.33,73.05,108.48,72.9Z"/></g><g id="Group_4015" data-name="Group 4015"><path id="Path_3815" data-name="Path 3815" class="cls-1" d="M108.61,72.79c0-.09-.06,0-.15,0a.24.24,0,0,0,0-.27c.07-.06.12-.14.23-.1-.2-.34-.28-.74-.42-1-.1.06-.16,0-.25,0,.38-.32-.18-.63,0-.94-.08-.18-.34-.11-.44-.27.07-.58,1.08-.24.77.28a3.34,3.34,0,0,1,.47,2.07c.23.16.08.37.13.65a.28.28,0,0,1-.24.07C108.75,73.07,108.46,72.93,108.61,72.79Z"/></g><g id="Group_4016" data-name="Group 4016"><path id="Path_3816" data-name="Path 3816" class="cls-1" d="M108.74,72.67c0-.08-.07,0-.15,0a.24.24,0,0,0,0-.27c.07-.06.12-.14.23-.1-.2-.34-.28-.74-.42-1-.1.06-.17,0-.25,0,.38-.32-.18-.64,0-1-.07-.18-.34-.11-.43-.26.07-.59,1.08-.24.77.27a3.36,3.36,0,0,1,.47,2.08c.23.15.08.36.12.65-.07.07-.11.07-.23.06C108.88,73,108.59,72.81,108.74,72.67Z"/></g><g id="Group_4017" data-name="Group 4017"><path id="Path_3817" data-name="Path 3817" class="cls-1" d="M108.87,72.55c0-.08-.07,0-.15,0a.24.24,0,0,0,0-.27c.07-.06.11-.13.23-.09-.2-.34-.29-.74-.43-1-.09.06-.16,0-.25-.06.39-.32-.17-.63,0-.94-.08-.18-.34-.11-.43-.27.07-.58,1.07-.24.77.28a3.29,3.29,0,0,1,.46,2.08c.24.15.09.36.13.64-.07.08-.11.07-.23.07C109,72.84,108.72,72.7,108.87,72.55Z"/></g><g id="Group_4018" data-name="Group 4018"><path id="Path_3818" data-name="Path 3818" class="cls-1" d="M109,72.43c0-.08-.07,0-.15,0a.26.26,0,0,0,0-.27c.06-.07.11-.14.23-.1-.2-.35-.29-.74-.43-1-.09.06-.16,0-.25,0,.39-.32-.17-.63,0-1-.08-.18-.34-.11-.43-.26.07-.59,1.07-.24.76.27a3.29,3.29,0,0,1,.47,2.08c.23.15.09.36.13.65-.07.07-.11.07-.23.06C109.13,72.72,108.85,72.58,109,72.43Z"/></g><g id="Group_4019" data-name="Group 4019"><path id="Path_3819" data-name="Path 3819" class="cls-1" d="M109.13,72.32c0-.09-.07.05-.15,0a.26.26,0,0,0,0-.27c.06-.06.11-.14.23-.1-.2-.34-.29-.73-.43-1-.09.06-.16,0-.25,0,.39-.32-.18-.63,0-.94-.08-.18-.34-.11-.43-.27.07-.58,1.07-.24.76.28a3.28,3.28,0,0,1,.47,2.07c.23.16.09.37.13.65-.07.07-.11.07-.23.07C109.26,72.6,109,72.46,109.13,72.32Z"/></g><g id="Group_4020" data-name="Group 4020"><path id="Path_3820" data-name="Path 3820" class="cls-1" d="M109.25,72.2c0-.08-.06,0-.14,0a.26.26,0,0,0,0-.27c.06-.06.11-.14.22-.1-.2-.34-.28-.74-.42-1-.09.06-.16,0-.25-.06.39-.32-.18-.63,0-.94-.08-.18-.34-.11-.44-.27.07-.58,1.08-.24.77.28a3.29,3.29,0,0,1,.47,2.08c.23.15.08.36.13.64-.08.08-.11.07-.23.07C109.39,72.48,109.1,72.34,109.25,72.2Z"/></g><g id="Group_4021" data-name="Group 4021"><path id="Path_3821" data-name="Path 3821" class="cls-1" d="M109.38,72.08c0-.08-.06,0-.15,0a.24.24,0,0,0,0-.27c.07-.06.12-.13.23-.1-.2-.34-.28-.73-.42-1-.1.06-.16,0-.25,0,.38-.32-.18-.63,0-.94-.07-.18-.34-.11-.43-.27.07-.58,1.08-.24.77.28a3.34,3.34,0,0,1,.47,2.07c.23.16.08.37.13.65a.28.28,0,0,1-.24.07C109.52,72.37,109.23,72.23,109.38,72.08Z"/></g><g id="Group_4022" data-name="Group 4022"><path id="Path_3822" data-name="Path 3822" class="cls-1" d="M109.51,72c0-.08-.07.05-.15,0a.24.24,0,0,0,0-.27c.07-.06.12-.13.23-.1-.2-.34-.28-.73-.43-1-.09.06-.16,0-.25,0,.39-.32-.17-.63,0-.94-.08-.18-.34-.11-.43-.27.07-.58,1.07-.24.77.28a3.27,3.27,0,0,1,.46,2.07c.24.16.09.37.13.65-.07.07-.11.07-.23.07C109.64,72.25,109.36,72.11,109.51,72Z"/></g><g id="Group_4023" data-name="Group 4023"><path id="Path_3823" data-name="Path 3823" class="cls-1" d="M109.64,71.85c0-.08-.07.05-.15,0a.26.26,0,0,0,0-.27c.06-.06.11-.14.23-.1-.2-.34-.29-.74-.43-1-.09.06-.16,0-.25-.06.39-.32-.18-.63,0-.94-.08-.18-.34-.11-.43-.27.07-.58,1.07-.23.76.28a3.23,3.23,0,0,1,.47,2.08c.24.15.09.36.13.65-.07.07-.11.07-.23.06C109.77,72.13,109.49,72,109.64,71.85Z"/></g><g id="Group_4024" data-name="Group 4024"><path id="Path_3824" data-name="Path 3824" class="cls-1" d="M109.77,71.73c0-.08-.07,0-.15,0a.26.26,0,0,0,0-.27c.06-.06.11-.14.23-.1-.2-.34-.29-.74-.43-1-.09.07-.16,0-.25,0,.39-.32-.18-.63,0-.94-.08-.18-.34-.11-.43-.27.07-.58,1.07-.24.76.28a3.29,3.29,0,0,1,.47,2.08c.23.15.09.36.13.64-.07.07-.11.07-.23.07C109.9,72,109.62,71.88,109.77,71.73Z"/></g><g id="Group_4025" data-name="Group 4025"><path id="Path_3825" data-name="Path 3825" class="cls-1" d="M109.9,71.61c0-.08-.07,0-.15,0a.28.28,0,0,0,0-.28c.06-.06.11-.13.23-.09-.2-.34-.29-.74-.43-1-.09.06-.16,0-.25,0,.39-.33-.18-.64,0-1-.08-.18-.34-.11-.43-.27.07-.58,1.07-.23.76.28a3.29,3.29,0,0,1,.47,2.08c.23.15.09.36.13.65-.07.07-.11.07-.23.06C110,71.9,109.75,71.76,109.9,71.61Z"/></g><g id="Group_4026" data-name="Group 4026"><path id="Path_3826" data-name="Path 3826" class="cls-1" d="M110,71.49c0-.08-.06.05-.14,0a.28.28,0,0,0,0-.28c.06-.06.11-.13.22-.1-.2-.34-.28-.73-.42-1-.09.06-.16,0-.25-.05.39-.32-.18-.64,0-.95-.08-.18-.34-.11-.44-.26.07-.59,1.08-.24.77.27a3.29,3.29,0,0,1,.47,2.08c.23.15.09.36.13.65a.24.24,0,0,1-.23.06C110.16,71.78,109.87,71.64,110,71.49Z"/></g><g id="Group_4027" data-name="Group 4027"><path id="Path_3827" data-name="Path 3827" class="cls-1" d="M110.15,71.38c0-.08-.07.05-.15,0a.24.24,0,0,0,0-.27c.07-.06.12-.14.23-.1-.2-.34-.28-.74-.42-1-.1.06-.16,0-.25,0,.38-.33-.18-.64,0-1-.08-.18-.34-.11-.44-.27.07-.58,1.08-.23.77.28a3.36,3.36,0,0,1,.47,2.08c.23.15.08.36.13.65-.08.07-.12.07-.24.06S110,71.52,110.15,71.38Z"/></g><g id="Group_4028" data-name="Group 4028"><path id="Path_3828" data-name="Path 3828" class="cls-1" d="M110.28,71.26c0-.08-.07,0-.15,0a.24.24,0,0,0,0-.27c.07-.06.11-.14.23-.1-.2-.34-.29-.74-.43-1-.09.06-.16,0-.25-.06.39-.32-.17-.63,0-.94-.08-.18-.34-.11-.43-.27.07-.58,1.07-.24.77.28a3.29,3.29,0,0,1,.46,2.08c.24.15.09.36.13.64-.07.07-.11.07-.23.07C110.41,71.55,110.13,71.4,110.28,71.26Z"/></g><g id="Group_4029" data-name="Group 4029"><path id="Path_3829" data-name="Path 3829" class="cls-1" d="M110.41,71.14c0-.08-.07,0-.15,0a.26.26,0,0,0,0-.28c.07-.06.12-.13.23-.1-.2-.34-.29-.73-.43-1-.09.06-.16,0-.25,0,.39-.32-.17-.64,0-1-.08-.18-.34-.11-.43-.27.07-.58,1.07-.23.77.28a3.29,3.29,0,0,1,.46,2.08c.24.15.09.36.13.65-.07.07-.11.07-.23.06C110.54,71.43,110.26,71.29,110.41,71.14Z"/></g><g id="Group_4030" data-name="Group 4030"><path id="Path_3830" data-name="Path 3830" class="cls-1" d="M110.53,71c0-.08-.06,0-.14,0a.26.26,0,0,0,0-.27c.07-.07.12-.14.23-.1-.2-.35-.28-.74-.42-1-.1.06-.16,0-.25-.05.38-.32-.18-.64,0-.95-.08-.18-.34-.11-.44-.26.07-.59,1.08-.24.77.27a3.36,3.36,0,0,1,.47,2.08c.23.15.08.36.13.65-.08.07-.12.07-.24.06C110.67,71.31,110.39,71.17,110.53,71Z"/></g><g id="Group_4031" data-name="Group 4031"><path id="Path_3831" data-name="Path 3831" class="cls-1" d="M110.67,70.91c0-.08-.07,0-.15,0a.26.26,0,0,0,0-.27c.06-.06.11-.14.22-.1-.2-.34-.28-.74-.42-1-.09.06-.16,0-.25,0,.39-.32-.18-.64,0-1-.08-.18-.34-.11-.44-.27.07-.58,1.08-.23.77.28a3.29,3.29,0,0,1,.47,2.08c.23.15.09.36.13.65-.07.07-.11.07-.23.06C110.8,71.19,110.52,71.05,110.67,70.91Z"/></g><g id="Group_4032" data-name="Group 4032"><path id="Path_3832" data-name="Path 3832" class="cls-1" d="M110.79,70.79c0-.08-.06,0-.14,0a.26.26,0,0,0,0-.27c.06-.06.11-.14.22-.1-.2-.34-.28-.74-.42-1-.09.06-.16,0-.25-.06.39-.32-.18-.63,0-.94-.08-.18-.34-.11-.44-.27.07-.58,1.08-.24.77.28a3.29,3.29,0,0,1,.47,2.08c.23.15.09.36.13.64-.07.07-.11.07-.23.07C110.93,71.08,110.64,70.94,110.79,70.79Z"/></g><g id="Group_4033" data-name="Group 4033"><path id="Path_3833" data-name="Path 3833" class="cls-1" d="M110.92,70.67c0-.08-.06,0-.15,0a.24.24,0,0,0,0-.27c.07-.07.12-.14.23-.1-.2-.35-.28-.74-.42-1-.1.06-.16,0-.25-.06.38-.32-.18-.63,0-.94-.08-.18-.34-.11-.44-.27.07-.58,1.08-.24.77.28a3.34,3.34,0,0,1,.47,2.07c.23.16.08.37.13.65a.28.28,0,0,1-.24.07C111.06,71,110.77,70.82,110.92,70.67Z"/></g><g id="Group_4034" data-name="Group 4034"><path id="Path_3834" data-name="Path 3834" class="cls-1" d="M111.05,70.56c0-.09-.07,0-.15,0a.24.24,0,0,0,0-.27c.07-.06.12-.14.23-.1-.2-.34-.29-.74-.43-1-.09.06-.16,0-.25,0,.39-.32-.17-.63,0-1-.08-.18-.34-.11-.43-.26.07-.59,1.07-.24.77.27a3.39,3.39,0,0,1,.47,2.08c.23.16.08.36.12.65-.07.07-.11.07-.23.06C111.18,70.84,110.9,70.7,111.05,70.56Z"/></g><g id="Group_4035" data-name="Group 4035"><path id="Path_3835" data-name="Path 3835" class="cls-1" d="M111.18,70.44c0-.08-.07,0-.15,0a.24.24,0,0,0,0-.27c.07-.06.11-.13.23-.1-.2-.34-.29-.73-.43-1-.09.06-.16,0-.25-.06.39-.32-.17-.63,0-.94-.08-.18-.34-.11-.43-.27.07-.58,1.07-.24.77.28a3.29,3.29,0,0,1,.46,2.08c.24.15.09.36.13.64-.07.08-.11.07-.23.07C111.31,70.72,111,70.58,111.18,70.44Z"/></g><g id="Group_4036" data-name="Group 4036"><path id="Path_3836" data-name="Path 3836" class="cls-1" d="M111.31,70.32c0-.08-.07.05-.15,0a.26.26,0,0,0,0-.27c.06-.06.11-.13.23-.1-.2-.34-.29-.73-.43-1-.09.06-.16,0-.25-.06.39-.32-.17-.63,0-.94-.08-.18-.34-.11-.43-.27.07-.58,1.07-.23.76.28a3.29,3.29,0,0,1,.47,2.08c.23.15.09.36.13.64-.07.08-.11.07-.23.07C111.44,70.61,111.16,70.47,111.31,70.32Z"/></g><g id="Group_4037" data-name="Group 4037"><path id="Path_3837" data-name="Path 3837" class="cls-1" d="M111.44,70.21c0-.09-.07,0-.15,0a.26.26,0,0,0,0-.27c.06-.06.11-.14.22-.1-.2-.35-.28-.74-.42-1-.09.06-.16,0-.25-.06.39-.32-.18-.63,0-.94-.08-.18-.34-.11-.44-.27.07-.58,1.08-.24.77.28a3.29,3.29,0,0,1,.47,2.08c.23.15.09.36.13.64-.07.08-.11.08-.23.07C111.57,70.49,111.29,70.35,111.44,70.21Z"/></g><g id="Group_4038" data-name="Group 4038"><path id="Path_3838" data-name="Path 3838" class="cls-1" d="M111.56,70.09c0-.09-.06,0-.14,0a.24.24,0,0,0,0-.27c.07-.06.12-.14.23-.1-.2-.35-.28-.74-.42-1-.1.06-.16,0-.25-.06.39-.32-.18-.63,0-.94-.08-.18-.34-.11-.44-.27.07-.58,1.08-.24.77.28a3.29,3.29,0,0,1,.47,2.08c.23.15.08.36.13.64-.08.08-.12.07-.23.07C111.7,70.37,111.41,70.23,111.56,70.09Z"/></g><g id="Group_4039" data-name="Group 4039"><path id="Path_3839" data-name="Path 3839" class="cls-1" d="M111.69,70c0-.08-.07.05-.15,0a.24.24,0,0,0,0-.27c.07-.07.12-.14.23-.1-.2-.35-.28-.74-.42-1-.1.06-.16,0-.25-.06.38-.32-.18-.63,0-.94-.08-.18-.34-.11-.44-.27.07-.58,1.08-.23.77.28a3.36,3.36,0,0,1,.47,2.08c.23.15.08.36.13.64-.08.08-.12.07-.24.07C111.83,70.26,111.54,70.12,111.69,70Z"/></g><g id="Group_4040" data-name="Group 4040"><path id="Path_3840" data-name="Path 3840" class="cls-1" d="M111.82,69.85c0-.08-.07.05-.15,0a.24.24,0,0,0,0-.27c.07-.06.11-.14.23-.1-.2-.34-.29-.74-.43-1-.09.07-.16,0-.25,0,.39-.32-.17-.63,0-.94-.08-.18-.34-.11-.43-.27.07-.58,1.07-.24.77.28a3.29,3.29,0,0,1,.46,2.08c.24.15.09.36.13.64-.07.07-.11.07-.23.07C112,70.14,111.67,70,111.82,69.85Z"/></g><g id="Group_4041" data-name="Group 4041"><path id="Path_3841" data-name="Path 3841" class="cls-1" d="M112,69.73c0-.08-.07,0-.15,0a.26.26,0,0,0,0-.28c.07-.06.11-.13.23-.1-.2-.34-.29-.73-.43-1-.09.06-.16,0-.25,0,.39-.33-.17-.64,0-1-.08-.18-.34-.11-.43-.27.07-.58,1.07-.23.77.28a3.29,3.29,0,0,1,.46,2.08c.24.15.09.36.13.65-.07.07-.11.07-.23.06C112.08,70,111.8,69.87,112,69.73Z"/></g><g id="Group_4042" data-name="Group 4042"><path id="Path_3842" data-name="Path 3842" class="cls-1" d="M112.08,69.62c0-.09-.07,0-.15,0a.26.26,0,0,0,0-.27c.06-.06.11-.14.22-.1-.2-.34-.28-.74-.42-1-.09.07-.16,0-.25,0,.39-.32-.18-.63,0-.94-.08-.18-.34-.11-.44-.27.07-.58,1.08-.24.77.28a3.28,3.28,0,0,1,.47,2.07c.23.16.09.37.13.65-.07.07-.11.07-.23.07C112.21,69.9,111.93,69.76,112.08,69.62Z"/></g><g id="Group_4043" data-name="Group 4043"><path id="Path_3843" data-name="Path 3843" class="cls-1" d="M112.2,69.5c0-.09-.06,0-.14,0a.26.26,0,0,0,0-.27c.07-.06.12-.14.23-.1-.2-.34-.28-.73-.42-1-.1.06-.16,0-.25-.05.39-.32-.18-.63,0-.94-.08-.18-.34-.11-.44-.27.07-.58,1.08-.24.77.27a3.39,3.39,0,0,1,.47,2.08c.23.16.08.37.13.65a.28.28,0,0,1-.24.07C112.34,69.78,112.05,69.64,112.2,69.5Z"/></g><g id="Group_4044" data-name="Group 4044"><path id="Path_3844" data-name="Path 3844" class="cls-1" d="M112.33,69.38c0-.09-.07.05-.15,0a.24.24,0,0,0,0-.27c.06-.06.11-.14.23-.1-.2-.34-.29-.74-.43-1-.09.06-.16,0-.25,0,.39-.32-.17-.63,0-.94-.08-.18-.34-.11-.43-.27.07-.58,1.07-.24.76.28a3.22,3.22,0,0,1,.47,2.07c.23.16.09.37.13.65-.07.07-.11.07-.23.07C112.46,69.66,112.18,69.52,112.33,69.38Z"/></g><g id="Group_4045" data-name="Group 4045"><path id="Path_3845" data-name="Path 3845" class="cls-1" d="M112.45,69.25c0-.08-.06,0-.15,0a.26.26,0,0,0,0-.28c.07-.06.12-.13.23-.1-.2-.34-.28-.73-.42-1-.1.06-.16,0-.25,0,.38-.32-.18-.64,0-1-.07-.18-.34-.11-.43-.27.07-.58,1.08-.23.77.28a3.36,3.36,0,0,1,.47,2.08c.23.15.08.36.13.65-.08.07-.12.07-.24.06C112.58,69.54,112.3,69.4,112.45,69.25Z"/></g><g id="Group_4046" data-name="Group 4046"><path id="Path_3846" data-name="Path 3846" class="cls-1" d="M112.58,69.13c0-.08-.07.05-.15,0a.24.24,0,0,0,0-.27c.07-.06.11-.13.23-.1-.2-.34-.29-.73-.43-1-.09.06-.16,0-.25-.06.39-.32-.17-.63,0-.94-.08-.18-.34-.11-.43-.27.07-.58,1.07-.24.76.28a3.23,3.23,0,0,1,.47,2.08c.23.15.09.36.13.64-.07.08-.11.08-.23.07C112.71,69.42,112.43,69.28,112.58,69.13Z"/></g><g id="Group_4047" data-name="Group 4047"><path id="Path_3847" data-name="Path 3847" class="cls-1" d="M112.7,69c0-.08-.07,0-.15,0a.24.24,0,0,0,0-.27c.07-.06.12-.13.23-.1-.2-.34-.28-.73-.42-1-.1.06-.16,0-.25,0,.38-.32-.18-.63,0-1-.08-.17-.34-.1-.44-.26.07-.59,1.08-.24.77.27a3.39,3.39,0,0,1,.47,2.08c.23.16.08.37.13.65-.08.07-.12.07-.24.06S112.55,69.16,112.7,69Z"/></g><g id="Group_4048" data-name="Group 4048"><path id="Path_3848" data-name="Path 3848" class="cls-1" d="M112.82,68.89c0-.08-.06,0-.15,0a.24.24,0,0,0,0-.27c.07-.06.12-.13.23-.1-.2-.34-.28-.73-.42-1-.1.06-.16,0-.25-.06.38-.32-.18-.63,0-.94-.07-.18-.33-.11-.43-.27.07-.58,1.08-.23.77.28a3.36,3.36,0,0,1,.47,2.08c.23.15.08.36.13.64-.08.08-.12.07-.24.07C113,69.18,112.68,69,112.82,68.89Z"/></g><g id="Group_4049" data-name="Group 4049"><path id="Path_3849" data-name="Path 3849" class="cls-1" d="M113,68.76c0-.08-.07,0-.15,0a.24.24,0,0,0,0-.27c.07-.07.12-.14.23-.1-.2-.35-.28-.74-.42-1-.1.06-.17,0-.25-.06.38-.32-.18-.63,0-.94-.07-.18-.34-.11-.43-.27.07-.58,1.08-.24.77.28a3.36,3.36,0,0,1,.47,2.08c.23.15.08.36.13.64a.28.28,0,0,1-.24.07C113.08,69.05,112.8,68.91,113,68.76Z"/></g><g id="Group_4050" data-name="Group 4050"><path id="Path_3850" data-name="Path 3850" class="cls-1" d="M113.07,68.65c0-.09-.06,0-.14,0a.26.26,0,0,0,0-.27c.06-.06.11-.14.22-.1-.2-.34-.28-.74-.42-1-.1.06-.16,0-.25-.06.39-.32-.18-.63,0-.94-.08-.18-.34-.11-.44-.27.07-.58,1.08-.23.77.28a3.29,3.29,0,0,1,.47,2.08c.23.15.08.36.13.64a.22.22,0,0,1-.23.07C113.21,68.93,112.92,68.79,113.07,68.65Z"/></g><g id="Group_4051" data-name="Group 4051"><path id="Path_3851" data-name="Path 3851" class="cls-1" d="M113.2,68.52c0-.08-.07,0-.15,0a.24.24,0,0,0,0-.27c.07-.07.12-.14.23-.1-.2-.35-.29-.74-.43-1-.09.06-.16,0-.25-.05.39-.32-.17-.63,0-.95-.08-.18-.34-.11-.43-.26.07-.59,1.07-.24.77.27a3.3,3.3,0,0,1,.46,2.08c.24.15.09.36.13.65-.07.07-.11.07-.23.06C113.33,68.81,113.05,68.67,113.2,68.52Z"/></g><g id="Group_4052" data-name="Group 4052"><path id="Path_3852" data-name="Path 3852" class="cls-1" d="M113.32,68.4c0-.08-.06,0-.14,0a.28.28,0,0,0,0-.28c.07-.06.12-.13.23-.1-.2-.34-.28-.73-.42-1-.1.07-.16,0-.25,0,.38-.32-.18-.63,0-.94-.08-.18-.34-.11-.44-.27.07-.58,1.08-.24.77.28a3.36,3.36,0,0,1,.47,2.08c.23.15.08.36.13.64-.08.08-.12.07-.24.07C113.46,68.69,113.17,68.55,113.32,68.4Z"/></g><g id="Group_4053" data-name="Group 4053"><path id="Path_3853" data-name="Path 3853" class="cls-1" d="M113.45,68.28c0-.08-.07,0-.15,0a.28.28,0,0,0,0-.28c.07-.06.11-.13.23-.1-.2-.34-.29-.73-.43-1-.09.07-.16,0-.25-.05.39-.32-.17-.63,0-.94-.08-.18-.34-.11-.43-.27.07-.58,1.07-.24.77.28a3.27,3.27,0,0,1,.46,2.07c.24.16.09.37.13.65-.07.07-.11.07-.23.07C113.58,68.57,113.3,68.43,113.45,68.28Z"/></g><g id="Group_4054" data-name="Group 4054"><path id="Path_3854" data-name="Path 3854" class="cls-1" d="M113.57,68.16c0-.08-.06,0-.15,0a.26.26,0,0,0,0-.28c.07-.06.12-.13.23-.1-.2-.34-.28-.73-.42-1-.1.07-.16,0-.25,0,.38-.32-.18-.63,0-.94-.07-.18-.34-.11-.43-.27.07-.58,1.08-.24.77.28a3.36,3.36,0,0,1,.47,2.08c.23.15.08.36.13.64-.08.08-.12.07-.24.07C113.71,68.45,113.42,68.31,113.57,68.16Z"/></g><g id="Group_4055" data-name="Group 4055"><path id="Path_3855" data-name="Path 3855" class="cls-1" d="M113.7,68c0-.08-.07,0-.15,0a.26.26,0,0,0,0-.27c.06-.06.11-.14.23-.1-.2-.34-.29-.73-.43-1-.09.06-.16,0-.25-.06.39-.32-.18-.63,0-.94-.08-.18-.34-.11-.43-.27.07-.58,1.07-.24.76.28a3.29,3.29,0,0,1,.47,2.08c.23.15.09.36.13.64-.07.07-.11.07-.23.07C113.83,68.33,113.55,68.19,113.7,68Z"/></g><g id="Group_4056" data-name="Group 4056"><path id="Path_3856" data-name="Path 3856" class="cls-1" d="M113.8,67.9c0-.08-.07,0-.15,0a.24.24,0,0,0,0-.27c.07-.06.12-.14.23-.1-.2-.34-.28-.74-.42-1-.1.06-.17,0-.25-.06.38-.32-.18-.63,0-.94-.08-.18-.34-.11-.43-.27.07-.58,1.07-.24.77.28a3.29,3.29,0,0,1,.46,2.08c.24.15.09.36.13.64-.07.07-.11.07-.23.07C113.93,68.19,113.65,68.05,113.8,67.9Z"/></g><g id="Group_4057" data-name="Group 4057"><path id="Path_3857" data-name="Path 3857" class="cls-1" d="M113.9,67.76c0-.09-.07,0-.15,0a.24.24,0,0,0,0-.27c.07-.06.12-.14.23-.1-.2-.34-.28-.74-.42-1-.1.06-.17,0-.25,0,.38-.32-.18-.63,0-.94-.08-.18-.34-.11-.43-.27.07-.58,1.07-.24.77.28a3.34,3.34,0,0,1,.47,2.07c.23.16.08.37.12.65-.07.07-.11.07-.23.07C114,68,113.75,67.9,113.9,67.76Z"/></g><g id="Group_4058" data-name="Group 4058"><path id="Path_3858" data-name="Path 3858" class="cls-1" d="M114,67.62c0-.09-.07,0-.15,0a.24.24,0,0,0,0-.27c.07-.06.12-.14.23-.1-.2-.35-.28-.74-.42-1-.1.06-.17,0-.25,0,.38-.32-.18-.64,0-1-.07-.18-.34-.11-.43-.26.07-.59,1.08-.24.77.27a3.39,3.39,0,0,1,.47,2.08c.23.16.08.36.12.65-.07.07-.11.07-.23.06C114.13,67.9,113.85,67.76,114,67.62Z"/></g><g id="Group_4059" data-name="Group 4059"><path id="Path_3859" data-name="Path 3859" class="cls-1" d="M114.1,67.47c0-.08-.07,0-.15,0a.26.26,0,0,0,0-.28c.07-.06.12-.13.23-.1-.2-.34-.28-.73-.43-1-.09.06-.16,0-.25,0,.39-.33-.17-.64,0-1-.08-.18-.34-.11-.43-.27.07-.58,1.07-.23.77.28a3.36,3.36,0,0,1,.47,2.08c.23.15.08.36.12.64-.07.08-.11.08-.23.07C114.23,67.76,114,67.62,114.1,67.47Z"/></g><g id="Group_4060" data-name="Group 4060"><path id="Path_3860" data-name="Path 3860" class="cls-1" d="M114.2,67.33c0-.08-.07,0-.15,0a.24.24,0,0,0,0-.27c.07-.06.12-.14.23-.1-.2-.34-.29-.73-.43-1-.09.06-.16,0-.25-.06.39-.32-.17-.63,0-.94-.08-.18-.34-.11-.43-.27.07-.58,1.07-.24.77.28a3.29,3.29,0,0,1,.46,2.08c.24.15.09.36.13.64-.07.07-.11.07-.23.07C114.33,67.62,114.05,67.48,114.2,67.33Z"/></g><g id="Group_4061" data-name="Group 4061"><path id="Path_3861" data-name="Path 3861" class="cls-1" d="M114.3,67.19c0-.09-.07,0-.15,0a.24.24,0,0,0,0-.27c.07-.06.12-.14.23-.1-.2-.34-.29-.74-.43-1-.09.06-.16,0-.25,0,.39-.32-.17-.63,0-.94-.08-.18-.34-.11-.43-.27.07-.58,1.07-.24.77.28a3.27,3.27,0,0,1,.46,2.07c.24.16.09.37.13.65-.07.07-.11.07-.23.07C114.43,67.47,114.15,67.33,114.3,67.19Z"/></g><g id="Group_4062" data-name="Group 4062"><path id="Path_3862" data-name="Path 3862" class="cls-1" d="M114.4,67c0-.08-.07,0-.15,0a.28.28,0,0,0,0-.28c.06-.06.11-.13.23-.1-.2-.34-.29-.73-.43-1-.09.07-.16,0-.25,0,.39-.32-.18-.63,0-.94-.08-.18-.34-.11-.43-.27.07-.58,1.07-.24.76.28a3.22,3.22,0,0,1,.47,2.07c.24.16.09.37.13.65-.07.07-.11.07-.23.07C114.53,67.33,114.25,67.19,114.4,67Z"/></g><g id="Group_4063" data-name="Group 4063"><path id="Path_3863" data-name="Path 3863" class="cls-1" d="M114.5,66.9c0-.08-.07,0-.15,0a.26.26,0,0,0,0-.28c.06-.06.11-.13.23-.1-.2-.34-.29-.73-.43-1-.09.06-.16,0-.25,0,.39-.33-.17-.64,0-1-.08-.18-.34-.11-.43-.27.07-.58,1.07-.23.76.28a3.23,3.23,0,0,1,.47,2.08c.23.15.09.36.13.64-.07.08-.11.08-.23.07C114.63,67.19,114.35,67.05,114.5,66.9Z"/></g><g id="Group_4064" data-name="Group 4064"><path id="Path_3864" data-name="Path 3864" class="cls-1" d="M114.6,66.76c0-.08-.07,0-.15,0a.24.24,0,0,0,0-.27c.07-.06.11-.14.23-.1-.2-.34-.29-.73-.43-1-.09.06-.16,0-.25-.06.39-.32-.17-.63,0-.94-.08-.18-.34-.11-.43-.27.07-.58,1.07-.24.77.28a3.29,3.29,0,0,1,.46,2.08c.24.15.09.36.13.64-.07.08-.11.07-.23.07C114.73,67.05,114.45,66.91,114.6,66.76Z"/></g><g id="Group_4065" data-name="Group 4065"><path id="Path_3865" data-name="Path 3865" class="cls-1" d="M114.7,66.62c0-.08-.07,0-.15,0a.24.24,0,0,0,0-.27c.06-.06.11-.14.23-.1-.2-.34-.29-.74-.43-1-.09.06-.16,0-.25,0,.39-.32-.17-.63,0-.94-.08-.18-.34-.11-.43-.27.07-.58,1.07-.24.76.28a3.28,3.28,0,0,1,.47,2.07c.23.16.09.37.13.65-.07.07-.11.07-.23.07C114.83,66.9,114.55,66.76,114.7,66.62Z"/></g><g id="Group_4066" data-name="Group 4066"><path id="Path_3866" data-name="Path 3866" class="cls-1" d="M114.8,66.47c0-.08-.07,0-.15,0a.26.26,0,0,0,0-.27c.06-.06.11-.14.23-.1-.2-.35-.29-.74-.43-1-.09.06-.16,0-.25-.06.39-.32-.18-.63,0-.94-.08-.18-.34-.11-.43-.27.07-.58,1.07-.23.76.28a3.29,3.29,0,0,1,.47,2.08c.23.15.09.36.13.64-.07.08-.11.08-.23.07C114.93,66.76,114.65,66.62,114.8,66.47Z"/></g><g id="Group_4067" data-name="Group 4067"><path id="Path_3867" data-name="Path 3867" class="cls-1" d="M114.89,66.33c0-.08-.06,0-.14,0a.26.26,0,0,0,0-.27c.07-.06.12-.13.23-.1-.2-.34-.28-.73-.42-1-.1.06-.16,0-.25-.06.39-.32-.18-.63,0-.94-.08-.18-.34-.11-.44-.27.07-.58,1.08-.23.77.28a3.29,3.29,0,0,1,.47,2.08c.23.15.08.36.13.64a.22.22,0,0,1-.23.07C115,66.62,114.75,66.48,114.89,66.33Z"/></g><g id="Group_4068" data-name="Group 4068"><path id="Path_3868" data-name="Path 3868" class="cls-1" d="M115,66.17c0-.08-.06,0-.14,0a.26.26,0,0,0,0-.27c.06-.07.11-.14.22-.1-.2-.35-.28-.74-.42-1-.1.06-.16,0-.25,0,.39-.32-.18-.63,0-1-.08-.18-.34-.11-.44-.26.07-.59,1.08-.24.77.27a3.32,3.32,0,0,1,.47,2.08c.23.16.08.36.13.65-.08.07-.11.07-.23.06C115.1,66.46,114.81,66.32,115,66.17Z"/></g><g id="Group_4069" data-name="Group 4069"><path id="Path_3869" data-name="Path 3869" class="cls-1" d="M115,66c0-.08-.06,0-.15,0a.24.24,0,0,0,0-.27c.07-.06.12-.14.23-.1-.2-.34-.28-.74-.42-1-.1.07-.16,0-.25,0,.38-.32-.18-.63,0-.94-.08-.18-.34-.11-.44-.27.07-.58,1.08-.24.77.28a3.36,3.36,0,0,1,.47,2.08c.23.15.08.36.13.64a.28.28,0,0,1-.24.07C115.14,66.29,114.85,66.15,115,66Z"/></g><g id="Group_4070" data-name="Group 4070"><path id="Path_3870" data-name="Path 3870" class="cls-1" d="M115,65.84c0-.09-.06,0-.15,0a.24.24,0,0,0,0-.27c.07-.06.12-.14.23-.1-.2-.34-.28-.73-.42-1-.1.06-.16,0-.25,0,.38-.32-.18-.63,0-.95-.08-.17-.34-.1-.44-.26.07-.59,1.08-.24.77.27a3.39,3.39,0,0,1,.47,2.08c.23.16.08.36.13.65-.08.07-.12.07-.24.06C115.18,66.12,114.89,66,115,65.84Z"/></g><g id="Group_4071" data-name="Group 4071"><path id="Path_3871" data-name="Path 3871" class="cls-1" d="M115.08,65.66c0-.08-.07,0-.15,0a.26.26,0,0,0,0-.28c.07-.06.12-.13.23-.1-.2-.34-.28-.73-.42-1-.1.06-.17,0-.25,0,.38-.32-.18-.64,0-.95-.07-.18-.34-.11-.43-.26.07-.59,1.08-.24.77.27a3.37,3.37,0,0,1,.47,2.08c.23.15.08.36.12.65-.07.07-.11.07-.23.06C115.21,66,114.93,65.81,115.08,65.66Z"/></g><g id="Group_4072" data-name="Group 4072"><path id="Path_3872" data-name="Path 3872" class="cls-1" d="M115.12,65.5c0-.08-.07,0-.15,0a.24.24,0,0,0,0-.27c.07-.06.11-.14.23-.1-.2-.34-.29-.73-.43-1-.09.06-.16,0-.25-.05.39-.32-.17-.64,0-.95-.08-.18-.34-.11-.43-.26.07-.59,1.07-.24.77.27a3.3,3.3,0,0,1,.46,2.08c.24.15.09.36.13.65-.07.07-.11.07-.23.06C115.25,65.78,115,65.64,115.12,65.5Z"/></g><g id="Group_4073" data-name="Group 4073"><path id="Path_3873" data-name="Path 3873" class="cls-1" d="M115.16,65.32c0-.08-.07.05-.15,0a.24.24,0,0,0,0-.27c.07-.06.12-.14.23-.1-.2-.35-.29-.74-.43-1-.09.06-.16,0-.25,0,.39-.32-.17-.63,0-1-.08-.17-.34-.1-.43-.26.07-.59,1.07-.24.77.27a3.32,3.32,0,0,1,.46,2.08c.24.15.09.37.13.65-.07.07-.11.07-.23.06C115.29,65.61,115,65.47,115.16,65.32Z"/></g><g id="Group_4074" data-name="Group 4074"><path id="Path_3874" data-name="Path 3874" class="cls-1" d="M115.2,65.16c0-.09-.07,0-.15,0a.26.26,0,0,0,0-.27c.06-.06.11-.14.23-.1-.2-.35-.29-.74-.43-1-.09.06-.16,0-.25-.05.39-.32-.18-.63,0-.94-.08-.18-.34-.11-.43-.27.07-.58,1.07-.24.76.27a3.32,3.32,0,0,1,.47,2.08c.23.16.09.37.13.65-.07.07-.11.07-.23.07C115.33,65.44,115.05,65.3,115.2,65.16Z"/></g><g id="Group_4075" data-name="Group 4075"><path id="Path_3875" data-name="Path 3875" class="cls-1" d="M115.24,65c0-.08-.07.05-.15,0a.26.26,0,0,0,0-.27c.06-.06.11-.14.22-.1-.2-.34-.28-.73-.42-1-.09.06-.16,0-.25-.06.39-.32-.18-.63,0-.94-.08-.18-.34-.11-.44-.27.07-.58,1.08-.24.77.28a3.29,3.29,0,0,1,.47,2.08c.23.15.09.36.13.64-.07.08-.11.07-.23.07C115.37,65.27,115.09,65.13,115.24,65Z"/></g><g id="Group_4076" data-name="Group 4076"><path id="Path_3876" data-name="Path 3876" class="cls-1" d="M115.27,64.82c0-.09-.06.05-.14,0a.29.29,0,0,0,0-.27c.06-.06.11-.14.22-.1-.2-.34-.28-.74-.42-1-.09.06-.16,0-.25,0,.39-.33-.18-.64,0-1-.08-.18-.34-.11-.44-.27.07-.58,1.08-.23.77.28a3.29,3.29,0,0,1,.47,2.08c.23.15.09.36.13.65-.07.07-.11.07-.23.06C115.41,65.1,115.12,65,115.27,64.82Z"/></g><g id="Group_4077" data-name="Group 4077"><path id="Path_3877" data-name="Path 3877" class="cls-1" d="M115.31,64.65c0-.08-.07,0-.15,0a.24.24,0,0,0,0-.27c.07-.06.12-.14.23-.1-.2-.34-.28-.74-.42-1-.1.06-.16,0-.25,0,.38-.32-.18-.64,0-1-.07-.18-.34-.11-.43-.26.07-.59,1.08-.24.77.27a3.39,3.39,0,0,1,.47,2.08c.23.15.08.36.12.65-.07.07-.11.07-.23.06C115.45,64.93,115.16,64.79,115.31,64.65Z"/></g><g id="Group_4078" data-name="Group 4078"><path id="Path_3878" data-name="Path 3878" class="cls-1" d="M115.35,64.48c0-.08-.07,0-.15,0a.24.24,0,0,0,0-.27c.07-.06.12-.14.23-.1-.2-.34-.28-.73-.42-1-.1.06-.16,0-.25-.05.38-.32-.18-.63,0-.95-.07-.18-.33-.11-.43-.26.07-.59,1.08-.24.77.27a3.39,3.39,0,0,1,.47,2.08c.23.16.08.37.12.65-.07.07-.11.07-.23.06C115.49,64.76,115.2,64.62,115.35,64.48Z"/></g><g id="Group_4079" data-name="Group 4079"><path id="Path_3879" data-name="Path 3879" class="cls-1" d="M115.39,64.31c0-.08-.07,0-.15,0a.24.24,0,0,0,0-.27c.07-.06.12-.14.23-.1-.2-.34-.29-.74-.43-1-.09.06-.16,0-.25-.05.39-.32-.17-.63,0-.95-.08-.17-.34-.11-.43-.26.07-.58,1.07-.24.77.27a3.39,3.39,0,0,1,.47,2.08c.23.16.08.37.12.65-.07.07-.11.07-.23.07C115.52,64.6,115.24,64.45,115.39,64.31Z"/></g><g id="Group_4080" data-name="Group 4080"><path id="Path_3880" data-name="Path 3880" class="cls-1" d="M115.41,64.14c0-.08-.06,0-.14,0a.26.26,0,0,0,0-.27c.06-.06.11-.14.22-.1-.2-.34-.28-.74-.42-1-.09.07-.16,0-.25,0,.39-.32-.18-.63,0-.94-.08-.18-.34-.11-.44-.27.07-.58,1.08-.24.77.28a3.29,3.29,0,0,1,.47,2.08c.23.15.09.36.13.64-.07.07-.11.07-.23.07C115.55,64.42,115.26,64.28,115.41,64.14Z"/></g><g id="Group_4081" data-name="Group 4081"><path id="Path_3881" data-name="Path 3881" class="cls-1" d="M115.36,64c0-.08-.07,0-.15,0a.24.24,0,0,0,0-.27c.07-.06.11-.13.23-.1-.2-.34-.29-.73-.43-1-.09.06-.16,0-.25,0,.39-.32-.17-.63,0-.94-.08-.18-.34-.11-.43-.27.07-.58,1.07-.24.77.27a3.32,3.32,0,0,1,.46,2.08c.24.16.09.37.13.65-.07.07-.11.07-.23.07C115.49,64.26,115.21,64.12,115.36,64Z"/></g><g id="Group_4082" data-name="Group 4082"><path id="Path_3882" data-name="Path 3882" class="cls-1" d="M115.3,63.81c0-.08-.06,0-.14,0a.29.29,0,0,0,0-.27c.06-.06.11-.14.22-.1-.2-.34-.28-.73-.42-1-.1.06-.16,0-.25-.05.39-.32-.18-.63,0-.94-.08-.18-.34-.11-.44-.27.07-.58,1.08-.24.77.28a3.29,3.29,0,0,1,.47,2.08c.23.15.08.36.13.64-.08.08-.12.07-.23.07C115.44,64.09,115.15,64,115.3,63.81Z"/></g><g id="Group_4083" data-name="Group 4083"><path id="Path_3883" data-name="Path 3883" class="cls-1" d="M115.25,63.64c0-.08-.07,0-.15,0a.24.24,0,0,0,0-.27c.07-.06.11-.14.23-.1-.2-.35-.29-.74-.43-1-.09.06-.16,0-.25,0,.39-.32-.17-.63,0-1-.08-.17-.34-.11-.43-.26.07-.59,1.07-.24.77.27a3.32,3.32,0,0,1,.46,2.08c.23.15.09.36.13.65-.07.07-.11.07-.23.06C115.38,63.93,115.1,63.79,115.25,63.64Z"/></g><g id="Group_4084" data-name="Group 4084"><path id="Path_3884" data-name="Path 3884" class="cls-1" d="M115.19,63.48c0-.09-.06.05-.14,0a.26.26,0,0,0,0-.27c.07-.06.12-.14.23-.1-.2-.34-.28-.74-.42-1-.1.06-.16,0-.25-.05.38-.32-.18-.63,0-.94-.08-.18-.34-.11-.44-.27.07-.58,1.08-.24.77.28a3.34,3.34,0,0,1,.47,2.07c.23.16.08.37.13.65a.28.28,0,0,1-.24.07C115.33,63.76,115,63.62,115.19,63.48Z"/></g><g id="Group_4085" data-name="Group 4085"><path id="Path_3885" data-name="Path 3885" class="cls-1" d="M115.14,63.31c0-.08-.07,0-.15,0a.26.26,0,0,0,0-.27c.06-.06.11-.13.23-.1-.2-.34-.29-.73-.43-1-.09.06-.16,0-.25,0,.39-.33-.18-.64,0-1-.08-.18-.34-.11-.43-.27.07-.58,1.07-.23.76.28a3.29,3.29,0,0,1,.47,2.08c.23.15.09.36.13.65-.07.07-.11.07-.23.06C115.27,63.6,115,63.46,115.14,63.31Z"/></g><g id="Group_4086" data-name="Group 4086"><path id="Path_3886" data-name="Path 3886" class="cls-1" d="M115.08,63.15c0-.08-.06.05-.15,0a.24.24,0,0,0,0-.27c.07-.06.12-.14.23-.1-.2-.34-.28-.74-.42-1-.1.06-.16,0-.25,0,.38-.32-.18-.64,0-1-.07-.18-.34-.11-.43-.26.07-.59,1.08-.24.77.27a3.37,3.37,0,0,1,.47,2.08c.23.15.08.36.13.65-.08.07-.12.07-.24.06C115.22,63.44,114.93,63.29,115.08,63.15Z"/></g><g id="Group_4087" data-name="Group 4087"><path id="Path_3887" data-name="Path 3887" class="cls-1" d="M115,63c0-.08-.07.05-.15,0a.26.26,0,0,0,0-.27c.06-.06.11-.13.23-.1-.2-.34-.29-.73-.43-1-.09.06-.16,0-.25,0,.39-.33-.18-.64,0-1-.08-.18-.34-.11-.43-.27.07-.58,1.07-.23.76.28a3.29,3.29,0,0,1,.47,2.08c.23.15.09.36.13.64-.07.08-.11.08-.23.07C115.16,63.27,114.88,63.13,115,63Z"/></g><g id="Group_4088" data-name="Group 4088"><path id="Path_3888" data-name="Path 3888" class="cls-1" d="M115,62.82c0-.08-.06,0-.15,0a.24.24,0,0,0,0-.27c.07-.06.12-.14.23-.1-.2-.34-.28-.74-.42-1-.1.06-.16,0-.25,0,.38-.32-.18-.64,0-1-.08-.18-.34-.11-.44-.26.07-.59,1.08-.24.77.27a3.36,3.36,0,0,1,.47,2.08c.23.15.08.36.13.65-.08.07-.12.07-.24.06C115.11,63.1,114.82,63,115,62.82Z"/></g><g id="Group_4089" data-name="Group 4089"><path id="Path_3889" data-name="Path 3889" class="cls-1" d="M114.92,62.65c0-.08-.07.05-.15,0a.28.28,0,0,0,0-.28c.06-.06.11-.13.23-.1-.2-.34-.29-.73-.43-1-.09.06-.16,0-.25-.05.39-.32-.18-.64,0-.95-.08-.18-.34-.11-.44-.27.07-.58,1.08-.23.77.28a3.29,3.29,0,0,1,.47,2.08c.23.15.09.36.13.65-.07.07-.11.07-.23.06C115.05,62.94,114.77,62.8,114.92,62.65Z"/></g><g id="Group_4090" data-name="Group 4090"><path id="Path_3890" data-name="Path 3890" class="cls-1" d="M114.86,62.49c0-.08-.07,0-.15,0a.24.24,0,0,0,0-.27c.07-.06.12-.14.23-.1-.2-.34-.28-.74-.42-1-.1.06-.16,0-.25,0,.38-.32-.18-.64,0-1-.07-.18-.34-.11-.43-.27.07-.58,1.08-.23.77.28a3.36,3.36,0,0,1,.47,2.08c.23.15.08.36.13.65-.08.07-.12.07-.24.06S114.71,62.64,114.86,62.49Z"/></g><g id="Group_4091" data-name="Group 4091"><path id="Path_3891" data-name="Path 3891" class="cls-1" d="M114.81,62.32c0-.08-.07,0-.15,0a.26.26,0,0,0,0-.27c.06-.06.11-.14.23-.1-.2-.35-.29-.74-.43-1-.09.06-.16,0-.25-.06.39-.32-.18-.63,0-.94-.08-.18-.34-.11-.44-.27.07-.58,1.08-.24.77.28a3.29,3.29,0,0,1,.47,2.08c.23.15.09.36.13.64-.07.07-.11.07-.23.07C114.94,62.61,114.65,62.47,114.81,62.32Z"/></g><g id="Group_4092" data-name="Group 4092"><path id="Path_3892" data-name="Path 3892" class="cls-1" d="M114.74,62.17c0-.08-.07,0-.15,0a.26.26,0,0,0,0-.27c.06-.06.11-.14.23-.1-.2-.34-.29-.74-.43-1-.09.07-.16,0-.25,0,.39-.32-.17-.63,0-.94-.08-.18-.34-.11-.43-.27.07-.58,1.07-.24.76.28a3.29,3.29,0,0,1,.47,2.08c.23.15.09.36.13.64-.07.08-.11.07-.23.07C114.87,62.45,114.59,62.31,114.74,62.17Z"/></g><g id="Group_4093" data-name="Group 4093"><path id="Path_3893" data-name="Path 3893" class="cls-1" d="M114.59,62.07c0-.08-.07,0-.15,0a.26.26,0,0,0,0-.28c.07-.06.12-.13.23-.1-.2-.34-.29-.73-.43-1-.09.06-.16,0-.25,0,.39-.33-.17-.64,0-1-.08-.18-.34-.11-.43-.27.07-.58,1.07-.23.77.28a3.29,3.29,0,0,1,.46,2.08c.24.15.09.36.13.64-.07.08-.11.08-.23.07C114.72,62.36,114.44,62.22,114.59,62.07Z"/></g><g id="Group_4094" data-name="Group 4094"><path id="Path_3894" data-name="Path 3894" class="cls-1" d="M114.44,62c0-.09-.06.05-.14,0a.26.26,0,0,0,0-.27c.06-.06.11-.14.22-.1-.2-.34-.28-.74-.42-1-.09.06-.16,0-.25-.05.39-.32-.18-.63,0-.94-.08-.18-.34-.11-.44-.27.07-.58,1.08-.24.77.28a3.28,3.28,0,0,1,.47,2.07c.23.16.09.37.13.65-.08.07-.11.07-.23.07C114.58,62.26,114.29,62.12,114.44,62Z"/></g><g id="Group_4095" data-name="Group 4095"><path id="Path_3895" data-name="Path 3895" class="cls-1" d="M114.3,61.88c0-.08-.07,0-.15,0a.24.24,0,0,0,0-.27c.07-.06.12-.13.23-.1-.2-.34-.29-.73-.43-1-.09.06-.16,0-.25-.06.39-.32-.17-.63,0-.94-.08-.18-.34-.11-.43-.27.07-.58,1.07-.23.77.28a3.29,3.29,0,0,1,.46,2.08c.24.15.09.36.13.64-.07.08-.11.08-.23.07C114.43,62.17,114.14,62,114.3,61.88Z"/></g><g id="Group_4096" data-name="Group 4096"><path id="Path_3896" data-name="Path 3896" class="cls-1" d="M114.15,61.79c0-.09-.06.05-.15,0a.24.24,0,0,0,0-.27c.07-.06.12-.14.23-.1-.2-.34-.28-.74-.42-1-.1.06-.16,0-.25,0,.39-.32-.18-.63,0-.94-.08-.18-.34-.11-.44-.27.07-.58,1.08-.24.77.28a3.28,3.28,0,0,1,.47,2.07c.23.16.08.37.13.65a.27.27,0,0,1-.23.07C114.29,62.07,114,61.93,114.15,61.79Z"/></g><g id="Group_4097" data-name="Group 4097"><path id="Path_3897" data-name="Path 3897" class="cls-1" d="M114,61.69c0-.08-.07.05-.15,0a.28.28,0,0,0,0-.28c.06-.06.11-.13.23-.1-.2-.34-.29-.73-.43-1-.09.07-.16,0-.25-.05.39-.32-.18-.63,0-.94-.08-.18-.34-.11-.43-.27.07-.58,1.07-.24.76.28a3.28,3.28,0,0,1,.47,2.07c.23.16.09.37.13.65-.07.07-.11.07-.23.07C114.14,62,113.85,61.84,114,61.69Z"/></g><g id="Group_4098" data-name="Group 4098"><path id="Path_3898" data-name="Path 3898" class="cls-1" d="M113.86,61.6c0-.08-.07,0-.15,0a.24.24,0,0,0,0-.27c.07-.06.12-.14.23-.1-.2-.34-.29-.74-.43-1-.09.07-.16,0-.25,0,.39-.32-.17-.63,0-.94-.08-.18-.34-.11-.43-.27.07-.58,1.07-.24.77.28a3.27,3.27,0,0,1,.46,2.07c.24.16.09.37.13.65-.07.07-.11.07-.23.07C114,61.88,113.71,61.74,113.86,61.6Z"/></g><g id="Group_4099" data-name="Group 4099"><path id="Path_3899" data-name="Path 3899" class="cls-1" d="M113.71,61.5c0-.08-.06,0-.14,0a.26.26,0,0,0,0-.27c.06-.07.11-.14.22-.1-.2-.35-.28-.74-.42-1-.1.06-.16,0-.25-.06.39-.32-.18-.63,0-.94-.08-.18-.34-.11-.44-.27.07-.58,1.08-.24.77.28a3.34,3.34,0,0,1,.47,2.07c.23.16.08.37.13.65a.27.27,0,0,1-.23.07C113.85,61.79,113.57,61.65,113.71,61.5Z"/></g><g id="Group_4100" data-name="Group 4100"><path id="Path_3900" data-name="Path 3900" class="cls-1" d="M113.57,61.41c0-.08-.07.05-.15,0a.24.24,0,0,0,0-.27c.07-.06.11-.14.23-.1-.2-.34-.29-.74-.43-1-.09.06-.16,0-.25-.05.39-.32-.17-.63,0-.95-.08-.18-.34-.11-.43-.26.07-.59,1.07-.24.77.27a3.3,3.3,0,0,1,.46,2.08c.23.15.09.36.13.65-.07.07-.11.07-.23.06S113.42,61.56,113.57,61.41Z"/></g><g id="Group_4101" data-name="Group 4101"><path id="Path_3901" data-name="Path 3901" class="cls-1" d="M113.42,61.31c0-.08-.07,0-.14,0a.24.24,0,0,0,0-.27c.07-.06.12-.13.23-.1-.2-.34-.28-.73-.42-1-.1.06-.16,0-.25,0,.39-.32-.18-.64,0-1-.08-.18-.34-.11-.44-.27.07-.58,1.08-.23.77.28a3.36,3.36,0,0,1,.47,2.08c.23.15.08.36.13.65-.08.07-.12.07-.24.06C113.56,61.6,113.28,61.46,113.42,61.31Z"/></g><g id="Group_4102" data-name="Group 4102"><path id="Path_3902" data-name="Path 3902" class="cls-1" d="M113.26,61.29c0-.09-.07,0-.15,0a.26.26,0,0,0,0-.27c.06-.06.11-.14.22-.1-.2-.35-.28-.74-.42-1-.09.06-.16,0-.25-.06.39-.32-.18-.63,0-.94-.08-.18-.34-.11-.44-.27.07-.58,1.08-.24.77.28a3.29,3.29,0,0,1,.47,2.08c.23.15.08.36.13.64-.08.07-.11.07-.23.07C113.39,61.57,113.11,61.43,113.26,61.29Z"/></g><g id="Group_4103" data-name="Group 4103"><path id="Path_3903" data-name="Path 3903" class="cls-1" d="M113.08,61.28c0-.08-.07,0-.15,0a.26.26,0,0,0,0-.27c.06-.06.11-.14.22-.1-.2-.34-.28-.74-.42-1-.09.06-.16,0-.25-.06.39-.32-.18-.63,0-.94-.08-.18-.34-.11-.44-.27.07-.58,1.08-.24.77.28a3.29,3.29,0,0,1,.47,2.08c.23.15.08.36.13.64-.08.08-.11.08-.23.07C113.21,61.57,112.93,61.43,113.08,61.28Z"/></g><g id="Group_4104" data-name="Group 4104"><path id="Path_3904" data-name="Path 3904" class="cls-1" d="M112.91,61.28c0-.08-.07,0-.15,0a.26.26,0,0,0,0-.27c.06-.07.11-.14.23-.1-.2-.35-.29-.74-.43-1-.09.06-.16,0-.25,0,.39-.32-.18-.63,0-1-.08-.18-.34-.11-.43-.26.07-.59,1.07-.24.76.27a3.32,3.32,0,0,1,.47,2.08c.23.15.09.36.13.65-.07.07-.11.07-.23.06C113,61.57,112.76,61.43,112.91,61.28Z"/></g><g id="Group_4105" data-name="Group 4105"><path id="Path_3905" data-name="Path 3905" class="cls-1" d="M112.73,61.28c0-.09-.06,0-.15,0a.24.24,0,0,0,0-.27c.07-.06.12-.14.23-.1-.2-.34-.28-.74-.42-1-.1.06-.16,0-.25,0,.38-.32-.18-.63,0-.94-.08-.18-.34-.11-.44-.27.07-.58,1.08-.24.77.28A3.34,3.34,0,0,1,113,61c.23.16.08.37.13.65a.28.28,0,0,1-.24.07C112.87,61.56,112.59,61.42,112.73,61.28Z"/></g><g id="Group_4106" data-name="Group 4106"><path id="Path_3906" data-name="Path 3906" class="cls-1" d="M112.56,61.27c0-.08-.07,0-.15,0a.24.24,0,0,0,0-.27c.07-.07.12-.14.23-.1-.2-.35-.29-.74-.43-1-.09.06-.16,0-.25,0,.39-.32-.17-.64,0-1-.08-.18-.34-.11-.43-.26.07-.59,1.07-.24.77.27a3.29,3.29,0,0,1,.46,2.08c.24.15.09.36.13.65-.07.07-.11.07-.23.06C112.69,61.56,112.41,61.42,112.56,61.27Z"/></g><g id="Group_4107" data-name="Group 4107"><path id="Path_3907" data-name="Path 3907" class="cls-1" d="M112.39,61.27c0-.08-.07,0-.15,0a.26.26,0,0,0,0-.27c.06-.06.11-.13.22-.09-.2-.35-.28-.74-.42-1-.1.06-.16,0-.25-.06.39-.32-.18-.63,0-.94-.08-.18-.34-.11-.44-.27.07-.58,1.08-.24.77.28a3.29,3.29,0,0,1,.47,2.08c.23.15.08.36.13.64-.08.08-.11.07-.23.07C112.52,61.56,112.24,61.42,112.39,61.27Z"/></g><g id="Group_4108" data-name="Group 4108"><path id="Path_3908" data-name="Path 3908" class="cls-1" d="M112.21,61.27c0-.08-.07,0-.15,0a.24.24,0,0,0,0-.27c.07-.06.12-.14.23-.1-.2-.34-.28-.73-.42-1-.1.06-.17,0-.25-.06.38-.32-.18-.63,0-.94-.08-.18-.34-.11-.43-.27.07-.58,1.07-.24.77.28a3.29,3.29,0,0,1,.46,2.08c.24.15.09.36.13.64-.07.07-.11.07-.23.07C112.34,61.55,112.06,61.41,112.21,61.27Z"/></g><g id="Group_4109" data-name="Group 4109"><path id="Path_3909" data-name="Path 3909" class="cls-1" d="M112,61.26c0-.08-.07.05-.15,0a.26.26,0,0,0,0-.27c.06-.06.11-.14.23-.1-.2-.35-.29-.74-.43-1-.09.06-.16,0-.25-.05.39-.32-.18-.63,0-.95-.08-.17-.34-.11-.43-.26.07-.58,1.07-.24.76.27a3.32,3.32,0,0,1,.47,2.08c.23.16.09.37.13.65-.07.07-.11.07-.23.06C112.17,61.55,111.89,61.41,112,61.26Z"/></g><g id="Group_4110" data-name="Group 4110"><path id="Path_3910" data-name="Path 3910" class="cls-1" d="M111.86,61.26c0-.08-.06.05-.14,0a.28.28,0,0,0,0-.28c.07-.06.12-.13.23-.1-.2-.34-.28-.73-.42-1-.1.06-.16,0-.25-.05.39-.32-.18-.64,0-.95-.08-.18-.34-.11-.44-.27.07-.58,1.08-.23.77.28A3.29,3.29,0,0,1,112.1,61c.23.15.08.36.13.65a.24.24,0,0,1-.23.06C112,61.55,111.71,61.41,111.86,61.26Z"/></g><g id="Group_4111" data-name="Group 4111"><path id="Path_3911" data-name="Path 3911" class="cls-1" d="M111.69,61.28c0-.08-.06,0-.14,0a.26.26,0,0,0,0-.27c.07-.06.12-.14.23-.1-.2-.34-.28-.74-.42-1-.1.06-.16,0-.25,0,.38-.33-.18-.64,0-1-.08-.18-.34-.11-.44-.27.07-.58,1.08-.23.77.28a3.36,3.36,0,0,1,.47,2.08c.23.15.08.36.13.65-.08.07-.12.07-.24.06C111.83,61.56,111.54,61.42,111.69,61.28Z"/></g><g id="Group_4112" data-name="Group 4112"><path id="Path_3912" data-name="Path 3912" class="cls-1" d="M111.54,61.37c0-.08-.06.05-.14,0a.26.26,0,0,0,0-.27c.07-.06.12-.14.23-.1-.2-.34-.28-.74-.42-1-.1.06-.16,0-.25-.05.38-.33-.18-.64,0-.95-.07-.18-.33-.11-.43-.27.07-.58,1.08-.23.77.28a3.36,3.36,0,0,1,.47,2.08c.23.15.08.36.13.64-.08.08-.12.08-.24.07C111.68,61.65,111.39,61.51,111.54,61.37Z"/></g><g id="Group_4113" data-name="Group 4113"><path id="Path_3913" data-name="Path 3913" class="cls-1" d="M111.39,61.46c0-.09-.06,0-.14,0a.26.26,0,0,0,0-.27c.06-.06.11-.14.22-.1-.2-.34-.28-.74-.42-1-.09.07-.16,0-.25,0,.39-.32-.18-.63,0-.94-.08-.18-.34-.11-.44-.27.07-.58,1.08-.24.77.28a3.29,3.29,0,0,1,.47,2.08c.23.15.09.36.13.64-.08.07-.11.07-.23.07C111.53,61.74,111.24,61.6,111.39,61.46Z"/></g><g id="Group_4114" data-name="Group 4114"><path id="Path_3914" data-name="Path 3914" class="cls-1" d="M111.25,61.55c0-.09-.07.05-.15,0a.26.26,0,0,0,0-.27c.06-.06.11-.14.22-.1-.2-.34-.28-.74-.42-1-.09.07-.16,0-.25-.05.39-.32-.18-.63,0-.94-.08-.18-.34-.11-.44-.27.07-.58,1.08-.24.77.28a3.29,3.29,0,0,1,.47,2.08c.23.15.09.36.13.64-.07.07-.11.07-.23.07C111.38,61.83,111.09,61.69,111.25,61.55Z"/></g><g id="Group_4115" data-name="Group 4115"><path id="Path_3915" data-name="Path 3915" class="cls-1" d="M111.1,61.64c0-.09-.07,0-.15,0a.26.26,0,0,0,0-.27c.06-.06.11-.14.23-.1-.2-.34-.29-.74-.43-1-.09.06-.16,0-.25,0,.39-.32-.18-.63,0-.94-.08-.18-.34-.11-.43-.27.07-.58,1.07-.24.76.27a3.32,3.32,0,0,1,.47,2.08c.23.16.09.37.13.65-.07.07-.11.07-.23.06C111.23,61.92,111,61.78,111.1,61.64Z"/></g><g id="Group_4116" data-name="Group 4116"><path id="Path_3916" data-name="Path 3916" class="cls-1" d="M111,61.73c0-.09-.07.05-.15,0a.26.26,0,0,0,0-.27c.06-.06.11-.14.23-.1-.2-.34-.29-.74-.43-1-.09.06-.16,0-.25-.05.39-.33-.18-.64,0-.95-.08-.18-.34-.11-.43-.27.07-.58,1.07-.23.76.28a3.29,3.29,0,0,1,.47,2.08c.23.15.09.36.13.65-.07.07-.11.07-.23.06C111.08,62,110.8,61.87,111,61.73Z"/></g><g id="Group_4117" data-name="Group 4117"><path id="Path_3917" data-name="Path 3917" class="cls-1" d="M110.8,61.82c0-.09-.07,0-.15,0a.24.24,0,0,0,0-.27c.07-.06.11-.14.23-.1-.2-.34-.29-.74-.43-1-.09.06-.16,0-.25,0,.39-.32-.17-.63,0-.94-.08-.18-.34-.12-.43-.27.07-.58,1.07-.24.77.27a3.32,3.32,0,0,1,.46,2.08c.24.16.09.37.13.65-.07.07-.11.07-.23.06C110.93,62.1,110.65,62,110.8,61.82Z"/></g><g id="Group_4118" data-name="Group 4118"><path id="Path_3918" data-name="Path 3918" class="cls-1" d="M110.65,61.91c0-.09-.07.05-.15,0a.24.24,0,0,0,0-.27c.07-.06.12-.14.23-.1-.2-.34-.29-.73-.43-1-.09.06-.16,0-.25-.05.39-.32-.17-.63,0-.94-.08-.18-.34-.11-.43-.27.07-.58,1.07-.24.77.27a3.32,3.32,0,0,1,.46,2.08c.24.16.09.37.13.65-.07.07-.11.07-.23.07C110.78,62.19,110.5,62.05,110.65,61.91Z"/></g><g id="Group_4119" data-name="Group 4119"><path id="Path_3919" data-name="Path 3919" class="cls-1" d="M110.5,62c0-.08-.07,0-.15,0a.26.26,0,0,0,0-.27c.06-.06.11-.14.23-.1-.2-.34-.29-.74-.43-1-.09.06-.16,0-.25,0,.39-.33-.18-.64,0-1-.08-.18-.34-.11-.43-.27.07-.58,1.07-.23.76.28a3.29,3.29,0,0,1,.47,2.08c.23.15.09.36.13.65-.07.07-.11.07-.23.06C110.63,62.28,110.35,62.14,110.5,62Z"/></g><g id="Group_4120" data-name="Group 4120"><path id="Path_3920" data-name="Path 3920" class="cls-1" d="M110.36,62.09c0-.08-.07,0-.15,0a.26.26,0,0,0,0-.27c.06-.06.11-.14.22-.1-.2-.34-.28-.74-.42-1-.09.06-.16,0-.25-.05.39-.32-.18-.63,0-.94-.08-.18-.34-.11-.44-.27.07-.58,1.08-.24.77.28a3.28,3.28,0,0,1,.47,2.07c.23.16.09.37.13.65-.07.07-.11.07-.23.07C110.49,62.37,110.2,62.23,110.36,62.09Z"/></g><g id="Group_4121" data-name="Group 4121"><path id="Path_3921" data-name="Path 3921" class="cls-1" d="M110.44,62.16c0-.08-.07.05-.15,0a.26.26,0,0,0,0-.28c.07-.06.12-.13.23-.1-.2-.34-.29-.73-.43-1-.09.06-.16,0-.25,0,.39-.33-.17-.64,0-1-.08-.18-.34-.11-.43-.27.07-.58,1.07-.23.77.28a3.29,3.29,0,0,1,.46,2.08c.24.15.09.36.13.65-.07.07-.11.07-.23.06C110.57,62.45,110.29,62.31,110.44,62.16Z"/></g><g id="Group_4122" data-name="Group 4122"><path id="Path_3922" data-name="Path 3922" class="cls-1" d="M110.6,62.23c0-.08-.06.05-.15,0a.24.24,0,0,0,0-.27c.07-.06.12-.14.23-.1-.2-.35-.28-.74-.42-1-.1.06-.16,0-.25,0,.38-.32-.18-.64,0-1-.08-.18-.34-.11-.44-.26.07-.59,1.08-.24.77.27a3.39,3.39,0,0,1,.47,2.08c.23.16.08.37.13.65-.08.07-.12.07-.24.06C110.74,62.52,110.45,62.38,110.6,62.23Z"/></g><g id="Group_4123" data-name="Group 4123"><path id="Path_3923" data-name="Path 3923" class="cls-1" d="M110.76,62.3c0-.08-.06.05-.15,0a.24.24,0,0,0,0-.27c.07-.06.12-.13.23-.1-.2-.34-.28-.73-.42-1-.1.06-.16,0-.25-.05.38-.32-.18-.63,0-.94-.07-.18-.33-.11-.43-.27.07-.58,1.08-.24.77.28A3.34,3.34,0,0,1,111,62c.23.16.08.37.12.65-.07.07-.11.07-.23.07C110.9,62.59,110.61,62.45,110.76,62.3Z"/></g><g id="Group_4124" data-name="Group 4124"><path id="Path_3924" data-name="Path 3924" class="cls-1" d="M110.92,62.37c0-.08-.06.05-.14,0a.29.29,0,0,0,0-.27c.06-.06.11-.14.22-.1-.2-.34-.28-.74-.42-1-.1.07-.16,0-.25-.05.39-.32-.18-.63,0-.94-.08-.18-.34-.11-.44-.27.07-.58,1.08-.24.77.28a3.28,3.28,0,0,1,.47,2.07c.23.16.08.37.13.65a.27.27,0,0,1-.23.07C111.06,62.66,110.77,62.51,110.92,62.37Z"/></g><g id="Group_4125" data-name="Group 4125"><path id="Path_3925" data-name="Path 3925" class="cls-1" d="M111.08,62.43c0-.08-.06,0-.14,0a.26.26,0,0,0,0-.27c.06-.06.11-.14.22-.1-.2-.35-.28-.74-.42-1-.09.06-.16,0-.25-.05.39-.32-.18-.64,0-.95-.08-.18-.34-.11-.44-.26.07-.59,1.08-.24.77.27a3.31,3.31,0,0,1,.47,2.08c.23.15.09.36.13.65-.07.07-.11.07-.23.06C111.22,62.72,110.93,62.58,111.08,62.43Z"/></g><g id="Group_4126" data-name="Group 4126"><path id="Path_3926" data-name="Path 3926" class="cls-1" d="M111.24,62.5c0-.08-.06,0-.14,0a.26.26,0,0,0,0-.27c.07-.06.12-.13.23-.1-.2-.34-.28-.73-.42-1-.1.06-.16,0-.25,0,.39-.32-.18-.63,0-.94-.08-.18-.34-.11-.44-.27.07-.58,1.08-.24.77.27a3.32,3.32,0,0,1,.47,2.08c.23.16.08.37.13.65a.24.24,0,0,1-.23.06C111.38,62.79,111.09,62.64,111.24,62.5Z"/></g><g id="Group_4127" data-name="Group 4127"><path id="Path_3927" data-name="Path 3927" class="cls-1" d="M111.4,62.57c0-.09-.06,0-.14,0a.26.26,0,0,0,0-.27c.06-.06.11-.14.22-.1-.2-.34-.28-.74-.42-1-.09.06-.16,0-.25,0,.39-.32-.18-.63,0-.94-.08-.18-.34-.11-.44-.27.07-.58,1.08-.24.77.28a3.28,3.28,0,0,1,.47,2.07c.23.16.09.37.13.65-.07.07-.11.07-.23.07C111.54,62.85,111.25,62.71,111.4,62.57Z"/></g><g id="Group_4128" data-name="Group 4128"><path id="Path_3928" data-name="Path 3928" class="cls-1" d="M111.57,62.64c0-.09-.07,0-.15,0a.26.26,0,0,0,0-.27c.06-.06.11-.14.23-.1-.2-.35-.29-.74-.43-1-.09.06-.16,0-.25-.06.39-.32-.18-.63,0-.94-.08-.18-.34-.11-.44-.27.07-.58,1.08-.23.77.28a3.29,3.29,0,0,1,.47,2.08c.23.15.09.36.13.64-.07.08-.11.08-.23.07C111.7,62.92,111.42,62.78,111.57,62.64Z"/></g><g id="Group_4129" data-name="Group 4129"><path id="Path_3929" data-name="Path 3929" class="cls-1" d="M111.73,62.7c0-.08-.07,0-.15,0a.26.26,0,0,0,0-.27c.06-.06.11-.13.22-.1-.2-.34-.28-.73-.42-1-.09.06-.16,0-.25,0,.39-.33-.18-.64,0-1-.08-.18-.34-.11-.44-.26.07-.59,1.08-.24.77.27a3.29,3.29,0,0,1,.47,2.08c.23.15.08.36.13.65a.24.24,0,0,1-.23.06C111.86,63,111.58,62.85,111.73,62.7Z"/></g><g id="Group_4130" data-name="Group 4130"><path id="Path_3930" data-name="Path 3930" class="cls-1" d="M111.89,62.77c0-.08-.07,0-.15,0a.26.26,0,0,0,0-.27c.06-.07.11-.14.22-.11-.2-.34-.28-.73-.42-1-.09.06-.16,0-.25,0,.39-.32-.18-.64,0-1-.08-.18-.34-.11-.44-.26.07-.59,1.08-.24.77.27a3.31,3.31,0,0,1,.47,2.08c.23.15.08.36.13.65-.08.07-.12.07-.24.06C112,63.06,111.74,62.91,111.89,62.77Z"/></g><g id="Group_4131" data-name="Group 4131"><path id="Path_3931" data-name="Path 3931" class="cls-1" d="M112.05,62.84c0-.09-.07,0-.15,0a.26.26,0,0,0,0-.27c.06-.06.11-.14.23-.1-.2-.34-.29-.74-.43-1-.09.06-.16,0-.25-.05.39-.32-.18-.63,0-.94-.08-.18-.34-.11-.43-.27.07-.58,1.07-.24.76.28a3.28,3.28,0,0,1,.47,2.07c.23.16.09.37.13.65-.07.07-.11.07-.23.07C112.18,63.12,111.89,63,112.05,62.84Z"/></g><g id="Group_4132" data-name="Group 4132"><path id="Path_3932" data-name="Path 3932" class="cls-1" d="M112.21,62.9c0-.08-.07.05-.15,0a.26.26,0,0,0,0-.27c.06-.06.11-.13.23-.1-.2-.34-.29-.73-.43-1-.09.06-.16,0-.25,0,.39-.32-.18-.63,0-.94-.08-.18-.34-.11-.43-.27.07-.58,1.07-.24.76.27a3.32,3.32,0,0,1,.47,2.08c.23.16.09.37.13.65-.07.07-.11.07-.23.06C112.34,63.19,112.06,63.05,112.21,62.9Z"/></g><g id="Group_4133" data-name="Group 4133"><path id="Path_3933" data-name="Path 3933" class="cls-1" d="M112.37,63c0-.08-.07.05-.15,0a.26.26,0,0,0,0-.27c.06-.06.11-.13.23-.1-.2-.34-.29-.73-.43-1-.09.06-.16,0-.25-.05.39-.33-.17-.64,0-.95-.08-.18-.34-.11-.43-.27.07-.58,1.07-.23.76.28a3.29,3.29,0,0,1,.47,2.08c.23.15.09.36.13.65-.07.07-.11.07-.23.06C112.5,63.26,112.22,63.12,112.37,63Z"/></g><g id="Group_4134" data-name="Group 4134"><path id="Path_3934" data-name="Path 3934" class="cls-1" d="M112.53,63c0-.08-.07.05-.15,0a.24.24,0,0,0,0-.27c.07-.06.11-.14.23-.1-.2-.34-.29-.74-.43-1-.09.06-.16,0-.25-.06.39-.32-.17-.63,0-.94-.08-.18-.34-.11-.43-.27.07-.58,1.07-.24.76.28a3.23,3.23,0,0,1,.47,2.08c.24.15.09.36.13.64-.07.07-.11.07-.23.07C112.66,63.32,112.38,63.18,112.53,63Z"/></g><g id="Group_4135" data-name="Group 4135"><path id="Path_3935" data-name="Path 3935" class="cls-1" d="M112.69,63.11c0-.09-.07,0-.15,0a.24.24,0,0,0,0-.27c.07-.06.11-.14.23-.1-.2-.35-.29-.74-.43-1-.09.06-.16,0-.25,0,.39-.32-.17-.63,0-1-.08-.17-.34-.11-.43-.26.07-.58,1.07-.24.77.27a3.32,3.32,0,0,1,.46,2.08c.24.16.09.37.13.65-.07.07-.11.07-.23.07C112.82,63.39,112.54,63.25,112.69,63.11Z"/></g><g id="Group_4136" data-name="Group 4136"><path id="Path_3936" data-name="Path 3936" class="cls-1" d="M112.86,63.14c0-.08-.07,0-.15,0a.26.26,0,0,0,0-.27c.06-.07.11-.14.23-.1-.2-.35-.29-.74-.43-1-.09.06-.16,0-.25,0,.39-.32-.18-.63,0-1-.08-.18-.34-.11-.43-.26.07-.59,1.07-.24.76.27a3.32,3.32,0,0,1,.47,2.08c.23.15.09.36.13.65-.07.07-.11.07-.23.06C113,63.43,112.71,63.29,112.86,63.14Z"/></g><g id="Group_4137" data-name="Group 4137"><path id="Path_3937" data-name="Path 3937" class="cls-1" d="M113,63.16c0-.09-.07.05-.15,0a.24.24,0,0,0,0-.27c.07-.06.12-.14.23-.1-.2-.34-.28-.74-.43-1-.09.07-.16,0-.25-.05.39-.32-.17-.63,0-.94-.08-.18-.34-.11-.43-.27.07-.58,1.07-.24.77.28a3.29,3.29,0,0,1,.46,2.08c.24.15.09.36.13.64-.07.07-.11.07-.23.07C113.17,63.44,112.88,63.3,113,63.16Z"/></g><g id="Group_4138" data-name="Group 4138"><path id="Path_3938" data-name="Path 3938" class="cls-1" d="M113.2,63.17c0-.08-.06,0-.14,0a.26.26,0,0,0,0-.27c.06-.06.11-.14.22-.1-.2-.34-.28-.74-.42-1-.09.07-.16,0-.25,0,.39-.32-.18-.63,0-.94-.08-.18-.34-.11-.44-.27.07-.58,1.08-.24.77.28a3.29,3.29,0,0,1,.47,2.08c.23.15.09.36.13.64-.08.08-.11.07-.23.07C113.34,63.46,113.05,63.32,113.2,63.17Z"/></g><g id="Group_4139" data-name="Group 4139"><path id="Path_3939" data-name="Path 3939" class="cls-1" d="M113.38,63.19c0-.09-.07,0-.15,0a.26.26,0,0,0,0-.27c.06-.06.11-.14.23-.1-.2-.34-.29-.74-.43-1-.09.06-.16,0-.25-.06.39-.32-.18-.63,0-.94-.08-.18-.34-.11-.43-.27.07-.58,1.07-.24.76.28a3.29,3.29,0,0,1,.47,2.08c.23.15.09.36.13.64-.07.08-.11.07-.23.07C113.51,63.47,113.23,63.33,113.38,63.19Z"/></g><g id="Group_4140" data-name="Group 4140"><path id="Path_3940" data-name="Path 3940" class="cls-1" d="M113.55,63.2c0-.08-.07,0-.14,0a.26.26,0,0,0,0-.27c.07-.06.12-.14.23-.1-.2-.34-.28-.73-.42-1-.1.06-.16,0-.25-.05.38-.32-.18-.63,0-.95-.07-.18-.33-.1-.43-.26.07-.59,1.08-.24.77.27a3.39,3.39,0,0,1,.47,2.08c.23.16.08.36.12.65-.07.07-.11.07-.23.06S113.4,63.35,113.55,63.2Z"/></g><g id="Group_4141" data-name="Group 4141"><path id="Path_3941" data-name="Path 3941" class="cls-1" d="M113.72,63.21c0-.08-.06,0-.14,0a.26.26,0,0,0,0-.28c.07-.06.12-.13.23-.1-.2-.34-.28-.73-.42-1-.1.06-.16,0-.25,0,.39-.32-.18-.64,0-1-.08-.18-.34-.11-.44-.26.07-.59,1.08-.24.77.27A3.29,3.29,0,0,1,114,63c.23.15.08.36.13.65a.24.24,0,0,1-.23.06C113.86,63.5,113.57,63.36,113.72,63.21Z"/></g><g id="Group_4142" data-name="Group 4142"><path id="Path_3942" data-name="Path 3942" class="cls-1" d="M113.9,63.23c0-.09-.07.05-.15,0a.26.26,0,0,0,0-.27c.06-.06.11-.14.23-.1-.2-.34-.29-.74-.43-1-.09.06-.16,0-.25-.05.39-.32-.18-.63,0-.94-.08-.18-.34-.11-.44-.27.07-.58,1.08-.24.77.27a3.32,3.32,0,0,1,.47,2.08c.23.16.09.37.13.65-.07.07-.11.07-.23.06C114,63.51,113.75,63.37,113.9,63.23Z"/></g><g id="Group_4143" data-name="Group 4143"><path id="Path_3943" data-name="Path 3943" class="cls-1" d="M114.07,63.24c0-.08-.07,0-.15,0a.24.24,0,0,0,0-.27c.07-.06.12-.13.23-.1-.2-.34-.29-.73-.43-1-.09.06-.16,0-.25,0,.39-.32-.17-.63,0-.94-.08-.18-.34-.11-.43-.27.07-.58,1.07-.24.77.27a3.39,3.39,0,0,1,.47,2.08c.23.16.08.37.12.65-.07.07-.11.07-.23.07C114.2,63.53,113.92,63.39,114.07,63.24Z"/></g><g id="Group_4144" data-name="Group 4144"><path id="Path_3944" data-name="Path 3944" class="cls-1" d="M114.24,63.26c0-.09-.06.05-.14,0a.26.26,0,0,0,0-.27c.06-.06.11-.14.22-.1-.2-.34-.28-.74-.42-1-.09.06-.16,0-.25-.06.39-.32-.18-.63,0-.94-.08-.18-.34-.11-.44-.27.07-.58,1.08-.23.77.28a3.29,3.29,0,0,1,.47,2.08c.23.15.09.36.13.64-.08.08-.11.07-.23.07C114.38,63.54,114.09,63.4,114.24,63.26Z"/></g><g id="Group_4145" data-name="Group 4145"><path id="Path_3945" data-name="Path 3945" class="cls-1" d="M114.42,63.27c0-.08-.07,0-.15,0a.26.26,0,0,0,0-.27c.06-.06.11-.14.22-.1-.2-.34-.28-.74-.42-1-.09.07-.16,0-.25-.05.39-.32-.18-.63,0-.94-.08-.18-.34-.11-.44-.27.07-.58,1.08-.24.77.28a3.29,3.29,0,0,1,.47,2.08c.23.15.09.36.13.64-.07.07-.11.07-.23.07C114.55,63.56,114.27,63.42,114.42,63.27Z"/></g><g id="Group_4146" data-name="Group 4146"><path id="Path_3946" data-name="Path 3946" class="cls-1" d="M114.59,63.28c0-.08-.07,0-.15,0a.24.24,0,0,0,0-.27c.07-.07.12-.14.23-.1-.2-.35-.28-.74-.42-1-.1.06-.17,0-.25-.06.38-.32-.18-.63,0-.94-.08-.18-.34-.11-.43-.27.07-.58,1.07-.24.77.28a3.34,3.34,0,0,1,.47,2.07c.23.16.08.37.12.65-.07.07-.11.07-.23.07C114.72,63.57,114.44,63.43,114.59,63.28Z"/></g><g id="Group_4147" data-name="Group 4147"><path id="Path_3947" data-name="Path 3947" class="cls-1" d="M114.76,63.3c0-.09-.06.05-.14,0a.26.26,0,0,0,0-.27c.06-.06.11-.14.22-.1-.2-.35-.28-.74-.42-1-.09.06-.16,0-.25-.05.39-.32-.18-.63,0-.94-.08-.18-.34-.11-.44-.27.07-.58,1.08-.24.77.28A3.28,3.28,0,0,1,115,63c.23.16.09.37.13.65-.08.07-.11.07-.23.07C114.9,63.58,114.61,63.44,114.76,63.3Z"/></g><g id="Group_4148" data-name="Group 4148"><path id="Path_3948" data-name="Path 3948" class="cls-1" d="M114.94,63.31c0-.08-.07,0-.15,0a.26.26,0,0,0,0-.27c.06-.06.11-.13.23-.1-.2-.34-.29-.73-.43-1-.09.06-.16,0-.25,0,.39-.33-.18-.64,0-1-.08-.18-.34-.11-.43-.27.07-.58,1.07-.23.76.28a3.29,3.29,0,0,1,.47,2.08c.23.15.09.36.13.65-.07.07-.11.07-.23.06C115.07,63.6,114.79,63.46,114.94,63.31Z"/></g><g id="Group_4149" data-name="Group 4149"><path id="Path_3949" data-name="Path 3949" class="cls-1" d="M115.11,63.32c0-.08-.07,0-.15,0a.26.26,0,0,0,0-.28c.07-.06.12-.13.23-.1-.2-.34-.28-.73-.42-1-.1.06-.17,0-.25,0,.38-.32-.18-.64,0-1-.07-.18-.34-.11-.43-.27.07-.58,1.08-.23.77.28a3.36,3.36,0,0,1,.47,2.08c.23.15.08.36.12.65-.07.07-.11.07-.23.06C115.24,63.61,115,63.47,115.11,63.32Z"/></g><g id="Group_4150" data-name="Group 4150"><path id="Path_3950" data-name="Path 3950" class="cls-1" d="M115.28,63.34c0-.08-.06,0-.14,0a.26.26,0,0,0,0-.27c.06-.06.11-.14.22-.1-.2-.34-.28-.73-.42-1-.1.06-.16,0-.25-.05.39-.32-.18-.64,0-.95-.08-.18-.34-.11-.44-.26.07-.59,1.08-.24.77.27a3.32,3.32,0,0,1,.47,2.08c.23.16.08.37.13.65-.08.07-.12.07-.24.06S115.13,63.48,115.28,63.34Z"/></g><g id="Group_4151" data-name="Group 4151"><path id="Path_3951" data-name="Path 3951" class="cls-1" d="M115.46,63.33c0-.08-.07.05-.15,0a.26.26,0,0,0,0-.27c.06-.06.11-.13.22-.1-.2-.34-.28-.73-.42-1-.09.06-.16,0-.25-.06.39-.32-.18-.63,0-.94-.08-.18-.34-.11-.44-.27.07-.58,1.08-.24.77.28a3.29,3.29,0,0,1,.47,2.08c.23.15.09.36.13.64-.07.08-.11.07-.23.07C115.59,63.62,115.31,63.48,115.46,63.33Z"/></g><g id="Group_4152" data-name="Group 4152"><path id="Path_3952" data-name="Path 3952" class="cls-1" d="M115.62,63.27c0-.08-.07,0-.15,0a.24.24,0,0,0,0-.27c.07-.06.12-.13.23-.1-.2-.34-.28-.73-.42-1-.1.06-.17,0-.25-.05.38-.32-.18-.63,0-.94-.08-.18-.34-.11-.43-.27.07-.58,1.07-.24.77.28a3.27,3.27,0,0,1,.46,2.07c.24.16.09.37.13.65-.07.07-.11.07-.23.07C115.75,63.56,115.47,63.42,115.62,63.27Z"/></g><g id="Group_4153" data-name="Group 4153"><path id="Path_3953" data-name="Path 3953" class="cls-1" d="M115.78,63.22c0-.09-.06,0-.14,0a.26.26,0,0,0,0-.27c.06-.06.11-.14.22-.1-.2-.34-.28-.73-.42-1-.09.06-.16,0-.25,0,.39-.32-.18-.63,0-1-.08-.17-.34-.1-.44-.26.07-.58,1.08-.24.77.27A3.32,3.32,0,0,1,116,63c.23.16.09.37.13.65a.24.24,0,0,1-.23.06C115.92,63.5,115.63,63.36,115.78,63.22Z"/></g><g id="Group_4154" data-name="Group 4154"><path id="Path_3954" data-name="Path 3954" class="cls-1" d="M116,63.16c0-.09-.06.05-.15,0a.24.24,0,0,0,0-.27c.07-.06.12-.14.23-.1-.2-.34-.28-.74-.42-1-.1.06-.16,0-.25-.05.38-.32-.18-.63,0-.94-.08-.18-.34-.11-.44-.27.07-.58,1.08-.24.77.28a3.34,3.34,0,0,1,.47,2.07c.23.16.08.37.13.65a.28.28,0,0,1-.24.07C116.08,63.44,115.8,63.3,116,63.16Z"/></g><g id="Group_4155" data-name="Group 4155"><path id="Path_3955" data-name="Path 3955" class="cls-1" d="M116.11,63.1c0-.08-.06,0-.15,0a.24.24,0,0,0,0-.27c.07-.06.12-.14.23-.1-.2-.34-.28-.73-.42-1-.1.06-.16,0-.25-.06.38-.32-.18-.63,0-.94-.07-.18-.34-.11-.43-.27.07-.58,1.08-.24.77.28a3.36,3.36,0,0,1,.47,2.08c.23.15.08.36.13.64-.08.08-.12.07-.24.07C116.25,63.39,116,63.24,116.11,63.1Z"/></g><g id="Group_4156" data-name="Group 4156"><path id="Path_3956" data-name="Path 3956" class="cls-1" d="M116.14,62.93c0-.08-.06,0-.14,0a.26.26,0,0,0,0-.27c.06-.06.11-.13.22-.1-.2-.34-.28-.73-.42-1-.09.06-.16,0-.25,0,.39-.32-.18-.63,0-.94-.08-.18-.34-.11-.44-.27.07-.58,1.08-.24.77.28a3.28,3.28,0,0,1,.47,2.07c.23.16.09.37.13.65-.08.07-.11.07-.23.07C116.28,63.22,116,63.08,116.14,62.93Z"/></g><g id="Group_4157" data-name="Group 4157"><path id="Path_3957" data-name="Path 3957" class="cls-1" d="M116.16,62.76c0-.08-.07.05-.15,0a.26.26,0,0,0,0-.27c.06-.06.11-.13.23-.1-.2-.34-.29-.73-.43-1-.09.06-.16,0-.25-.06.39-.32-.17-.63,0-.94-.08-.18-.34-.11-.43-.27.07-.58,1.07-.23.76.28a3.23,3.23,0,0,1,.47,2.08c.23.15.09.36.13.64-.07.08-.11.08-.23.07C116.29,63.05,116,62.91,116.16,62.76Z"/></g><g id="Group_4158" data-name="Group 4158"><path id="Path_3958" data-name="Path 3958" class="cls-1" d="M116.17,62.59c0-.08-.07,0-.15,0a.24.24,0,0,0,0-.27c.07-.06.12-.14.23-.1-.2-.34-.28-.74-.42-1-.1.06-.16,0-.25-.05.38-.32-.18-.63,0-.94-.07-.18-.33-.11-.43-.27.07-.58,1.08-.24.77.28a3.34,3.34,0,0,1,.47,2.07c.23.16.08.37.13.65a.28.28,0,0,1-.24.07C116.31,62.87,116,62.73,116.17,62.59Z"/></g><g id="Group_4159" data-name="Group 4159"><path id="Path_3959" data-name="Path 3959" class="cls-1" d="M116.19,62.41c0-.08-.07.05-.15,0a.26.26,0,0,0,0-.27c.06-.07.11-.14.22-.1-.2-.35-.28-.74-.42-1-.09.06-.16,0-.25-.06.39-.32-.18-.63,0-.94-.08-.18-.34-.11-.44-.27.07-.58,1.08-.24.77.28a3.29,3.29,0,0,1,.47,2.08c.23.15.09.36.13.64-.07.07-.11.07-.23.07C116.32,62.7,116,62.56,116.19,62.41Z"/></g><g id="Group_4160" data-name="Group 4160"><path id="Path_3960" data-name="Path 3960" class="cls-1" d="M116.16,62.25c0-.08-.07,0-.15,0a.24.24,0,0,0,0-.27c.07-.07.12-.14.23-.11-.2-.34-.29-.73-.43-1-.09.07-.16,0-.25,0,.39-.32-.17-.63,0-.94-.08-.18-.34-.11-.43-.27.07-.58,1.07-.24.77.28a3.29,3.29,0,0,1,.46,2.08c.24.15.09.36.13.64-.07.07-.11.07-.23.07C116.29,62.54,116,62.4,116.16,62.25Z"/></g><g id="Group_4161" data-name="Group 4161"><path id="Path_3961" data-name="Path 3961" class="cls-1" d="M116,62.12c0-.08-.06.05-.14,0a.26.26,0,0,0,0-.27c.06-.06.11-.13.22-.1-.2-.34-.28-.73-.42-1-.1.06-.16,0-.25-.05.39-.32-.18-.63,0-.95-.08-.18-.34-.1-.44-.26.07-.58,1.08-.24.77.27a3.32,3.32,0,0,1,.47,2.08c.23.16.08.37.13.65-.08.07-.11.07-.23.06C116.18,62.41,115.89,62.27,116,62.12Z"/></g><g id="Group_4162" data-name="Group 4162"><path id="Path_3962" data-name="Path 3962" class="cls-1" d="M115.93,62c0-.08-.07,0-.15,0a.24.24,0,0,0,0-.27c.07-.06.12-.14.23-.1-.2-.34-.28-.73-.42-1-.1.06-.17,0-.25,0,.38-.32-.18-.64,0-1-.08-.18-.34-.1-.43-.26.07-.59,1.08-.24.77.27a3.37,3.37,0,0,1,.47,2.08c.23.15.08.36.13.65-.08.07-.12.07-.24.06S115.78,62.13,115.93,62Z"/></g><g id="Group_4163" data-name="Group 4163"><path id="Path_3963" data-name="Path 3963" class="cls-1" d="M115.82,61.86c0-.09-.07,0-.15,0a.26.26,0,0,0,0-.27c.06-.06.11-.14.23-.1-.2-.34-.29-.74-.43-1-.09.06-.16,0-.25,0,.39-.32-.18-.63,0-.94-.08-.18-.34-.11-.43-.27.07-.58,1.07-.24.76.27a3.32,3.32,0,0,1,.47,2.08c.23.16.09.37.13.65-.07.07-.11.07-.23.06C116,62.14,115.67,62,115.82,61.86Z"/></g><g id="Group_4164" data-name="Group 4164"><path id="Path_3964" data-name="Path 3964" class="cls-1" d="M115.7,61.73c0-.09-.07,0-.15,0a.24.24,0,0,0,0-.27c.07-.06.12-.14.23-.1-.2-.35-.28-.74-.42-1-.1.06-.16,0-.25-.05.38-.32-.18-.63,0-.95-.07-.17-.34-.11-.43-.26.07-.59,1.08-.24.77.27a3.39,3.39,0,0,1,.47,2.08c.23.16.08.37.12.65-.07.07-.11.07-.23.06C115.84,62,115.55,61.87,115.7,61.73Z"/></g><g id="Group_4165" data-name="Group 4165"><path id="Path_3965" data-name="Path 3965" class="cls-1" d="M115.59,61.6c0-.09-.07,0-.15,0a.26.26,0,0,0,0-.27c.07-.06.11-.14.23-.1-.2-.34-.29-.74-.43-1-.09.06-.16,0-.25-.06.39-.32-.17-.63,0-.94-.08-.18-.34-.11-.43-.27.07-.58,1.07-.23.76.28a3.23,3.23,0,0,1,.47,2.08c.23.15.09.36.13.64-.07.08-.11.08-.23.07C115.72,61.88,115.44,61.74,115.59,61.6Z"/></g><g id="Group_4166" data-name="Group 4166"><path id="Path_3966" data-name="Path 3966" class="cls-1" d="M115.44,61.5c0-.08-.06,0-.14,0a.26.26,0,0,0,0-.27c.06-.06.11-.14.22-.1-.2-.34-.28-.73-.42-1-.09.06-.16,0-.25,0,.39-.32-.18-.63,0-1-.08-.17-.34-.1-.44-.26.07-.59,1.08-.24.77.27a3.32,3.32,0,0,1,.47,2.08c.23.16.08.37.13.65-.08.07-.11.07-.23.06C115.58,61.79,115.29,61.64,115.44,61.5Z"/></g><g id="Group_4167" data-name="Group 4167"><path id="Path_3967" data-name="Path 3967" class="cls-1" d="M115.29,61.41c0-.08-.07.05-.15,0a.24.24,0,0,0,0-.27c.07-.07.12-.14.23-.1-.2-.35-.28-.74-.42-1-.1.06-.16,0-.25,0,.38-.32-.18-.64,0-1-.07-.18-.34-.11-.43-.26.07-.59,1.08-.24.77.27a3.39,3.39,0,0,1,.47,2.08c.23.15.08.36.12.65-.07.07-.11.07-.23.06C115.42,61.7,115.14,61.56,115.29,61.41Z"/></g><g id="Group_4168" data-name="Group 4168"><path id="Path_3968" data-name="Path 3968" class="cls-1" d="M115.14,61.33c0-.08-.07.05-.15,0a.24.24,0,0,0,0-.27c.07-.06.11-.14.23-.1-.2-.34-.29-.73-.43-1-.09.06-.16,0-.25,0,.39-.32-.17-.64,0-1-.08-.18-.34-.1-.43-.26.07-.59,1.07-.24.77.27a3.32,3.32,0,0,1,.46,2.08c.24.16.09.36.13.65-.07.07-.11.07-.23.06C115.27,61.62,115,61.48,115.14,61.33Z"/></g><g id="Group_4169" data-name="Group 4169"><path id="Path_3969" data-name="Path 3969" class="cls-1" d="M115,61.24c0-.08-.07,0-.15,0a.26.26,0,0,0,0-.27c.06-.06.11-.13.23-.1-.2-.34-.29-.73-.43-1-.09.06-.16,0-.25,0,.39-.33-.18-.64,0-1-.08-.18-.34-.11-.43-.27.07-.58,1.07-.23.76.28a3.29,3.29,0,0,1,.47,2.08c.23.15.09.36.13.65-.07.07-.11.07-.23.06C115.12,61.53,114.84,61.39,115,61.24Z"/></g><g id="Group_4170" data-name="Group 4170"><path id="Path_3970" data-name="Path 3970" class="cls-1" d="M114.83,61.16c0-.08-.06.05-.14,0a.26.26,0,0,0,0-.27c.06-.06.11-.13.22-.09-.2-.35-.28-.74-.42-1-.1.06-.16,0-.25,0,.39-.32-.18-.63,0-1-.08-.17-.34-.1-.44-.26.07-.58,1.08-.24.77.27a3.39,3.39,0,0,1,.47,2.08c.23.15.08.37.13.65-.08.07-.12.07-.24.06C115,61.45,114.68,61.31,114.83,61.16Z"/></g><g id="Group_4171" data-name="Group 4171"><path id="Path_3971" data-name="Path 3971" class="cls-1" d="M114.68,61.08c0-.09-.06.05-.15,0a.24.24,0,0,0,0-.27c.07-.06.12-.14.23-.1-.2-.34-.28-.74-.42-1-.1.07-.16,0-.25,0,.38-.32-.18-.63,0-.94-.08-.18-.34-.11-.44-.27.07-.58,1.08-.24.77.28a3.36,3.36,0,0,1,.47,2.08c.23.15.08.36.13.64-.08.08-.12.07-.24.07C114.82,61.36,114.53,61.22,114.68,61.08Z"/></g><g id="Group_4172" data-name="Group 4172"><path id="Path_3972" data-name="Path 3972" class="cls-1" d="M114.53,61c0-.08-.07,0-.15,0a.26.26,0,0,0,0-.28c.07-.06.12-.13.23-.1-.2-.34-.28-.73-.42-1-.1.06-.17,0-.25,0,.38-.32-.18-.64,0-1-.08-.18-.34-.11-.43-.26.07-.59,1.08-.24.77.27a3.36,3.36,0,0,1,.47,2.08c.23.15.08.36.12.65-.07.07-.11.07-.23.06C114.66,61.28,114.38,61.14,114.53,61Z"/></g><g id="Group_4173" data-name="Group 4173"><path id="Path_3973" data-name="Path 3973" class="cls-1" d="M114.38,60.91c0-.08-.07.05-.15,0a.26.26,0,0,0,0-.27c.06-.06.11-.14.23-.1-.2-.34-.29-.74-.43-1-.09.06-.16,0-.25-.06.39-.32-.18-.63,0-.94-.08-.18-.34-.11-.43-.27.07-.58,1.07-.24.76.28a3.29,3.29,0,0,1,.47,2.08c.23.15.09.36.13.64-.07.07-.11.07-.23.07C114.51,61.2,114.23,61.05,114.38,60.91Z"/></g><g id="Group_4174" data-name="Group 4174"><path id="Path_3974" data-name="Path 3974" class="cls-1" d="M114.22,60.85c0-.08-.07,0-.15,0a.26.26,0,0,0,0-.27c.06-.06.11-.14.22-.1-.2-.34-.28-.74-.42-1-.09.06-.16,0-.25,0,.39-.33-.18-.64,0-1-.08-.18-.34-.11-.44-.27.07-.58,1.08-.23.77.28a3.29,3.29,0,0,1,.47,2.08c.23.15.09.36.13.65-.07.07-.11.07-.23.06C114.35,61.13,114.07,61,114.22,60.85Z"/></g><g id="Group_4175" data-name="Group 4175"><path id="Path_3975" data-name="Path 3975" class="cls-1" d="M114.05,60.82c0-.08-.07,0-.15,0a.26.26,0,0,0,0-.27c.06-.06.11-.14.22-.1-.2-.34-.28-.74-.42-1-.09.06-.16,0-.25,0,.39-.33-.18-.64,0-1-.08-.18-.34-.11-.44-.27.07-.58,1.08-.23.77.28a3.31,3.31,0,0,1,.47,2.08c.23.15.09.36.13.65-.07.07-.11.07-.23.06C114.18,61.1,113.9,61,114.05,60.82Z"/></g><g id="Group_4176" data-name="Group 4176"><path id="Path_3976" data-name="Path 3976" class="cls-1" d="M113.87,60.79c0-.09-.06.05-.14,0a.26.26,0,0,0,0-.27c.07-.06.12-.14.23-.1-.2-.34-.28-.74-.42-1-.1.06-.16,0-.25-.06.39-.32-.18-.63,0-.94-.08-.18-.34-.11-.44-.27.07-.58,1.08-.23.77.28a3.29,3.29,0,0,1,.47,2.08c.23.15.08.36.13.64a.22.22,0,0,1-.23.07C114,61.07,113.72,60.93,113.87,60.79Z"/></g><g id="Group_4177" data-name="Group 4177"><path id="Path_3977" data-name="Path 3977" class="cls-1" d="M113.7,60.76c0-.09-.06,0-.14,0a.26.26,0,0,0,0-.27c.07-.06.12-.14.23-.1-.2-.34-.28-.73-.42-1-.1.06-.16,0-.25,0,.38-.32-.18-.63,0-1-.08-.18-.34-.11-.44-.26.07-.59,1.08-.24.77.27a3.37,3.37,0,0,1,.47,2.08c.23.15.08.36.13.65-.08.07-.12.07-.24.06C113.84,61,113.55,60.9,113.7,60.76Z"/></g><g id="Group_4178" data-name="Group 4178"><path id="Path_3978" data-name="Path 3978" class="cls-1" d="M113.53,60.73c0-.09-.07,0-.15,0a.24.24,0,0,0,0-.27c.07-.06.12-.14.23-.1-.2-.35-.28-.74-.42-1-.1.06-.16,0-.25-.06.38-.32-.18-.63,0-.94-.07-.18-.34-.11-.43-.27.07-.58,1.08-.24.77.28a3.36,3.36,0,0,1,.47,2.08c.23.15.08.36.13.64-.08.08-.12.07-.24.07C113.66,61,113.38,60.87,113.53,60.73Z"/></g><g id="Group_4179" data-name="Group 4179"><path id="Path_3979" data-name="Path 3979" class="cls-1" d="M113.36,60.69c0-.08-.07.05-.15,0a.24.24,0,0,0,0-.27c.07-.06.12-.14.23-.1-.2-.35-.28-.74-.43-1-.09.06-.16,0-.25-.05.39-.32-.17-.64,0-.95-.08-.18-.34-.11-.43-.26.07-.59,1.07-.24.77.27a3.32,3.32,0,0,1,.46,2.08c.24.15.09.36.13.65-.07.07-.11.07-.23.06C113.49,61,113.21,60.84,113.36,60.69Z"/></g><g id="Group_4180" data-name="Group 4180"><path id="Path_3980" data-name="Path 3980" class="cls-1" d="M113.19,60.66c0-.08-.07.05-.15,0a.28.28,0,0,0,0-.28c.06-.06.11-.13.23-.1-.2-.34-.29-.73-.43-1-.09.07-.16,0-.25-.05.39-.32-.18-.63,0-.94-.08-.18-.34-.11-.43-.27.07-.58,1.07-.24.76.28a3.28,3.28,0,0,1,.47,2.07c.23.16.09.37.13.65-.07.07-.11.07-.23.07C113.32,61,113,60.81,113.19,60.66Z"/></g><g id="Group_4181" data-name="Group 4181"><path id="Path_3981" data-name="Path 3981" class="cls-1" d="M113,60.63c0-.08-.07,0-.15,0a.24.24,0,0,0,0-.27c.06-.07.11-.14.23-.1-.2-.35-.29-.74-.43-1-.09.06-.16,0-.25,0,.39-.32-.17-.64,0-1-.08-.18-.34-.11-.43-.27.07-.58,1.07-.23.77.28a3.29,3.29,0,0,1,.46,2.08c.24.15.09.36.13.65-.07.07-.11.07-.23.06C113.15,60.92,112.87,60.78,113,60.63Z"/></g><g id="Group_4182" data-name="Group 4182"><path id="Path_3982" data-name="Path 3982" class="cls-1" d="M112.85,60.62c0-.08-.07.05-.15,0a.26.26,0,0,0,0-.27c.06-.06.11-.13.23-.1-.2-.34-.29-.73-.43-1-.09.06-.16,0-.25-.05.39-.33-.18-.64,0-.95-.08-.18-.34-.11-.44-.27.07-.58,1.08-.23.77.28a3.29,3.29,0,0,1,.47,2.08c.23.15.08.36.13.64a.22.22,0,0,1-.23.07C113,60.91,112.7,60.77,112.85,60.62Z"/></g><g id="Group_4183" data-name="Group 4183"><path id="Path_3983" data-name="Path 3983" class="cls-1" d="M112.68,60.68c0-.08-.07,0-.15,0a.24.24,0,0,0,0-.27c.07-.06.12-.14.23-.09-.2-.35-.28-.74-.42-1-.1.06-.16,0-.25-.06.38-.32-.18-.63,0-.94-.07-.18-.34-.11-.43-.27.07-.58,1.08-.24.77.28a3.36,3.36,0,0,1,.47,2.08c.23.15.08.36.13.64a.28.28,0,0,1-.24.07C112.81,61,112.53,60.83,112.68,60.68Z"/></g><g id="Group_4184" data-name="Group 4184"><path id="Path_3984" data-name="Path 3984" class="cls-1" d="M112.52,60.73c0-.08-.07.05-.15,0a.28.28,0,0,0,0-.28c.06-.06.11-.13.23-.1-.2-.34-.29-.73-.43-1-.09.06-.16,0-.25,0,.39-.32-.17-.64,0-1-.08-.18-.34-.11-.43-.26.07-.59,1.07-.24.76.27a3.29,3.29,0,0,1,.47,2.08c.23.15.09.36.13.65-.07.07-.11.07-.23.06C112.65,61,112.36,60.88,112.52,60.73Z"/></g><g id="Group_4185" data-name="Group 4185"><path id="Path_3985" data-name="Path 3985" class="cls-1" d="M112.35,60.8c0-.09-.07,0-.15,0a.24.24,0,0,0,0-.27c.07-.06.12-.14.23-.1-.2-.35-.28-.74-.42-1-.1.06-.16,0-.25-.06.38-.32-.18-.63,0-.94-.07-.18-.34-.11-.43-.27.07-.58,1.08-.23.77.28a3.36,3.36,0,0,1,.47,2.08c.23.15.08.36.13.65-.08.07-.12.07-.24.06C112.49,61.08,112.2,60.94,112.35,60.8Z"/></g><g id="Group_4186" data-name="Group 4186"><path id="Path_3986" data-name="Path 3986" class="cls-1" d="M112.19,60.85c0-.08-.07,0-.15,0a.24.24,0,0,0,0-.27c.07-.06.11-.13.23-.1-.2-.34-.29-.73-.43-1-.09.06-.16,0-.25-.06.39-.32-.17-.63,0-.94-.08-.18-.34-.11-.43-.27.07-.58,1.07-.24.77.28a3.29,3.29,0,0,1,.46,2.08c.24.15.09.36.13.64-.07.08-.11.07-.23.07C112.32,61.14,112,61,112.19,60.85Z"/></g><g id="Group_4187" data-name="Group 4187"><path id="Path_3987" data-name="Path 3987" class="cls-1" d="M112,60.91c0-.08-.07.05-.15,0a.26.26,0,0,0,0-.27c.06-.06.11-.14.23-.1-.2-.34-.29-.74-.43-1-.09.06-.16,0-.25-.05.39-.32-.18-.63,0-.94-.08-.18-.34-.11-.43-.27.07-.58,1.07-.24.76.28a3.28,3.28,0,0,1,.47,2.07c.23.16.09.37.13.65-.07.07-.11.07-.23.07C112.16,61.19,111.87,61.05,112,60.91Z"/></g><g id="Group_4188" data-name="Group 4188"><path id="Path_3988" data-name="Path 3988" class="cls-1" d="M111.86,61c0-.08-.07,0-.15,0a.26.26,0,0,0,0-.28c.07-.06.12-.13.23-.1-.2-.34-.28-.73-.42-1-.1.07-.17,0-.25,0,.38-.32-.18-.63,0-.94-.07-.18-.34-.11-.43-.27.07-.58,1.08-.24.77.28a3.34,3.34,0,0,1,.47,2.07c.23.16.08.37.13.65a.28.28,0,0,1-.24.07C112,61.25,111.71,61.11,111.86,61Z"/></g><g id="Group_4189" data-name="Group 4189"><path id="Path_3989" data-name="Path 3989" class="cls-1" d="M111.7,61c0-.08-.07,0-.15,0a.26.26,0,0,0,0-.27c.06-.06.11-.13.22-.09-.2-.34-.28-.74-.42-1-.09.06-.16,0-.25-.06.39-.32-.18-.63,0-.94-.08-.18-.34-.11-.44-.27.07-.58,1.08-.23.77.28a3.29,3.29,0,0,1,.47,2.08c.23.15.09.36.13.65-.07.07-.11.07-.23.06C111.83,61.31,111.55,61.17,111.7,61Z"/></g><g id="Group_4190" data-name="Group 4190"><path id="Path_3990" data-name="Path 3990" class="cls-1" d="M111.53,61.08c0-.09-.07.05-.15,0a.24.24,0,0,0,0-.27c.07-.06.12-.14.23-.1-.2-.34-.28-.74-.42-1-.1.07-.17,0-.25,0,.38-.32-.18-.63,0-.94-.07-.18-.34-.11-.43-.27.07-.58,1.08-.24.77.28a3.34,3.34,0,0,1,.47,2.07c.23.16.08.37.12.65-.07.07-.11.07-.23.07C111.66,61.36,111.38,61.22,111.53,61.08Z"/></g><g id="Group_4191" data-name="Group 4191"><path id="Path_3991" data-name="Path 3991" class="cls-1" d="M111.43,61.22c0-.08-.07.05-.15,0a.24.24,0,0,0,0-.27c.07-.06.11-.13.23-.1-.2-.34-.29-.73-.43-1-.09.06-.16,0-.25-.06.39-.32-.17-.63,0-.94-.08-.18-.34-.11-.43-.27.07-.58,1.07-.24.77.28a3.29,3.29,0,0,1,.46,2.08c.24.15.09.36.13.64-.07.08-.11.07-.23.07C111.56,61.51,111.28,61.37,111.43,61.22Z"/></g><g id="Group_4192" data-name="Group 4192"><path id="Path_3992" data-name="Path 3992" class="cls-1" d="M111.33,61.36c0-.08-.07,0-.15,0a.24.24,0,0,0,0-.27c.07-.07.12-.14.23-.1-.2-.35-.29-.74-.43-1-.09.06-.16,0-.25-.06.39-.32-.17-.63,0-.94-.08-.18-.34-.11-.43-.27.07-.58,1.07-.24.77.28a3.29,3.29,0,0,1,.46,2.08c.24.15.09.36.13.64-.07.08-.11.08-.23.07C111.46,61.65,111.18,61.51,111.33,61.36Z"/></g><g id="Group_4193" data-name="Group 4193"><path id="Path_3993" data-name="Path 3993" class="cls-1" d="M111.23,61.51c0-.09-.07.05-.15,0a.24.24,0,0,0,0-.27c.07-.06.12-.14.23-.1-.2-.34-.28-.74-.42-1-.1.06-.16,0-.25,0,.38-.32-.18-.63,0-.94-.07-.18-.34-.11-.43-.27.07-.58,1.08-.24.77.28a3.34,3.34,0,0,1,.47,2.07c.23.16.08.37.13.65a.28.28,0,0,1-.24.07C111.36,61.79,111.08,61.65,111.23,61.51Z"/></g><g id="Group_4194" data-name="Group 4194"><path id="Path_3994" data-name="Path 3994" class="cls-1" d="M111.13,61.65c0-.08-.06.05-.14,0a.26.26,0,0,0,0-.27c.07-.06.12-.14.23-.1-.2-.34-.28-.73-.42-1-.1.06-.16,0-.25-.06.39-.32-.18-.63,0-.94-.08-.18-.34-.11-.44-.27.07-.58,1.08-.24.77.28a3.36,3.36,0,0,1,.47,2.08c.23.15.08.36.13.64-.08.08-.12.07-.24.07C111.27,61.93,111,61.8,111.13,61.65Z"/></g><g id="Group_4195" data-name="Group 4195"><path id="Path_3995" data-name="Path 3995" class="cls-1" d="M111,61.8c0-.09-.06,0-.15,0a.24.24,0,0,0,0-.27c.07-.06.12-.14.23-.1-.2-.35-.28-.74-.42-1-.1.06-.16,0-.25-.05.38-.32-.18-.64,0-.95-.07-.18-.33-.11-.43-.26.07-.59,1.08-.24.77.27a3.37,3.37,0,0,1,.47,2.08c.23.15.08.36.13.65-.08.07-.12.07-.24.06C111.16,62.08,110.88,61.94,111,61.8Z"/></g><g id="Group_4196" data-name="Group 4196"><path id="Path_3996" data-name="Path 3996" class="cls-1" d="M110.93,61.94c0-.08-.06.05-.14,0a.26.26,0,0,0,0-.27c.07-.06.12-.14.23-.1-.2-.34-.28-.74-.42-1-.1.07-.16,0-.25-.05.39-.32-.18-.63,0-.94-.08-.18-.34-.11-.44-.27.07-.58,1.08-.24.77.28a3.28,3.28,0,0,1,.47,2.07c.23.16.08.37.13.65a.27.27,0,0,1-.23.07C111.07,62.22,110.79,62.08,110.93,61.94Z"/></g><g id="Group_4197" data-name="Group 4197"><path id="Path_3997" data-name="Path 3997" class="cls-1" d="M110.84,62.08c0-.08-.07.05-.15,0a.26.26,0,0,0,0-.27c.06-.06.11-.14.23-.1-.2-.34-.29-.73-.43-1-.09.06-.16,0-.25,0,.39-.32-.18-.63,0-1-.08-.18-.34-.11-.43-.26.07-.59,1.07-.24.76.27a3.32,3.32,0,0,1,.47,2.08c.23.15.09.37.13.65-.07.07-.11.07-.23.06C111,62.37,110.69,62.23,110.84,62.08Z"/></g><g id="Group_4198" data-name="Group 4198"><path id="Path_3998" data-name="Path 3998" class="cls-1" d="M110.74,62.22c0-.08-.07.05-.15,0a.24.24,0,0,0,0-.27c.07-.07.11-.14.23-.1-.2-.35-.29-.74-.43-1-.09.06-.16,0-.25-.05.39-.32-.17-.64,0-.95-.08-.18-.34-.11-.43-.26.07-.59,1.07-.24.77.27A3.32,3.32,0,0,1,111,62c.24.15.09.36.13.65-.07.07-.11.07-.23.06C110.87,62.51,110.59,62.37,110.74,62.22Z"/></g></g><g id="Group_4240" data-name="Group 4240"><path id="Path_4074" data-name="Path 4074" d="M256.28,33.21c1.27,3.27.9,6.82,1,10.3.07,4,.05,7.9.3,11.85,0,.4.1,2.33.76,2.4s.62-2.19.63-2.44c.13-5-.13-10-.23-15,0-2.27,0-4.57-.23-6.84-.17-1.75-.35-4.67-1.82-5.9-.61-.5-.74,1.63-.75,1.81a9.28,9.28,0,0,0,.37,3.85Z"/><path id="Path_4075" data-name="Path 4075" d="M262,20.23c2.78-.48,5.45-1.48,8.19-2.18,2.57-.65,5.17-1.18,7.78-1.62s5.61-.82,7.46,1.61c1.47,1.92,2.1,4.62,2.62,6.94a49.84,49.84,0,0,1,.78,15.12c-.21,2.63-.52,5.25-.87,7.86a15.89,15.89,0,0,1-.58,3.42,8.08,8.08,0,0,1-2.73,3.13c-.6.49-.81,3.93-.15,4.4,4.64,3.3,5.26-11.73,5.5-14a87,87,0,0,0,0-21.15,42.86,42.86,0,0,0-2.31-9.41c-1-2.54-2.45-4.71-5.36-5-3.23-.36-6.85.7-10,1.47a39.68,39.68,0,0,0-10.15,3.52c-1,.54-.94,6-.21,5.89Z"/><path id="Path_4076" data-name="Path 4076" d="M265.37,36.36c3.41,1.66,8,.6,11.05-1.5a5.23,5.23,0,0,0,2.18-4.36c.1-1.42.21-4.05-1.07-5-3.11-2.42-5,4.06-5.53,5.83a39.09,39.09,0,0,0-1.25,12.83c0,.3.16,2.3.75,2.08s.5-2.51.49-2.9a24.77,24.77,0,0,1,1.11-8.51,9.87,9.87,0,0,1,1.47-3.41c.78-.92,2.57-1.63,3.16-.06l-.36-2.39,0,.51.24-2.43c-.51,1.87-4,2.77-5.67,3.15-2.26.54-4.46.25-6.75.3-1,0-.77,5.45.15,5.9Z"/><path id="Path_4077" data-name="Path 4077" d="M271.66,43.63c-.44,1.82-.75,8.61,2.84,7.17,2.95-1.19,5.87-4.52,6.08-7.72.09-1.34.2-3.82-1-4.76s-3.39-.15-4.57.36c-1.4.61-3.07,1.62-3.65,3.08a6.36,6.36,0,0,0,.27,5c.25.39.46-.57.47-.59a6,6,0,0,0,.07-2.2l0-.52-.18,2.86c.52-1.48,2.57-2.48,3.94-2.9a8.52,8.52,0,0,1,2.06-.39,6.25,6.25,0,0,0,1,0c.56.18.71-.22.45-1.22.39-1.41.36-1.66-.08-.74a20.82,20.82,0,0,1-2.95,3.2,6,6,0,0,1-2.47,1.5,1.42,1.42,0,0,1-1-.11c-.71-.39-.31-.93-.4.26a5,5,0,0,0-.18-2.53c-.28-.47-.39-.51-.55.17Z"/><path id="Path_4078" data-name="Path 4078" d="M267.06,62.13c.47,1.19.31,1.54,1.46,1.8a10.84,10.84,0,0,0,2,.16,24.15,24.15,0,0,0,4.64-.51c3.18-.58,6.34-1.29,9.49-2l-.48-1v.07l.09-3.7c-.21,1.28-.59,3.06.11,4.23.31.52-.09-6.25-.07-6.24a4.59,4.59,0,0,0-1.37.24c-1,.18-2,.38-3.07.59-3.86.77-7.66,1.62-11.62,1.26l-.2.11c-.87,1.4-1.62,3.35-1,5Z"/><path id="Path_4079" data-name="Path 4079" d="M250.16,29.19a125.17,125.17,0,0,1-14,14.2l.42,5c2.26-2.79,5.4-5.67,8.93-6.67l-.43-.78a21.26,21.26,0,0,1,.46,6.51c0,.23.33,3.52.73,3,1.12-1.56.8-4.79.73-6.6a23.29,23.29,0,0,0-1.31-7.16.49.49,0,0,0-.31-.37c-3.54,2-6.65,3.8-9.22,7-.6.74-.4,2.36-.33,3.24,0,.27.23,2.26.75,1.81a83.43,83.43,0,0,0,13.94-14.9,4.73,4.73,0,0,0,.28-2.78c0-.2-.27-2-.65-1.57Z"/></g><path id="Path_4080" data-name="Path 4080" d="M187.56,46.52a55.51,55.51,0,0,0,8.82-.89c3-.38,5.88-.8,8.82-1.19s5.6-.75,8.39-1.14a60.83,60.83,0,0,0,9.26-1.8c1-.31,1.06-3.38-.17-3.45a56,56,0,0,0-8.87.56c-3,.34-5.9.75-8.83,1.15s-5.59.75-8.38,1.15a61.51,61.51,0,0,0-9.23,1.63c-1.12.35-1.2,3.94.19,4Z"/><g id="Group_4241" data-name="Group 4241"><path id="Path_4081" data-name="Path 4081" d="M310,25.73a56.81,56.81,0,0,1-4.37,6.61c-1.72,2.15-3.79,3.94-5.59,6l.55,6.47a21.68,21.68,0,0,1,4-3.12c.59-.35,1.67-1.21,2.42-.87.54.25.78,1.71.89,2.14.68,2.63-.45,5.69,1.07,8.1l.23.13c1.09-.68.92-2.82.9-3.95a8,8,0,0,0-.44-2.87.57.57,0,0,0-.37-.45c-.26.25-.33.13-.2-.36l.69,3.61c0,1,0,.89,0,0,0-.7,0-1.4,0-2.09,0-1.09-.09-2.17-.21-3.25a22.55,22.55,0,0,0-1.48-6.28c-.84-2-1.66-1.83-3.43-.72a32.46,32.46,0,0,0-4.69,3.55c-.72.65-.48,2.9-.44,3.7,0,.24.37,3.15.79,2.9,4.58-2.8,8.11-8.52,10.3-13.28a8.38,8.38,0,0,0,.19-4.07c0-.2-.5-2.51-.88-1.86Z"/><path id="Path_4082" data-name="Path 4082" d="M322.63,9.93c-.56,2.21-.7,4.52-1.17,6.75-.5,2.4-1.23,4.73-1.82,7.1L321,29.33c.21-1.87,3.85-3.21,5.32-3.93a23.53,23.53,0,0,1,6.57-2.19,15.73,15.73,0,0,1,6.41.17c1.45.36,2.41.77,2.8,2.26a9.81,9.81,0,0,1,.24,1.52c.05.33.08.66.11,1,.08.69,0,.55-.22-.42-.65.92-.57,5.14.45,5.81,2.45,1.61,1.24-7.8,1.06-9a23.08,23.08,0,0,0-1.35-6A4.52,4.52,0,0,0,338.75,16a18.75,18.75,0,0,0-11.29,1.44c-2.7,1.15-7.07,3.16-7.83,6.35a11.5,11.5,0,0,0,.1,4.92c.12.54.66,2.58,1.17,1.2a50.41,50.41,0,0,0,3-16.67,6.94,6.94,0,0,0-.48-3.12c-.2-.34-.53-1-.74-.18Z"/><path id="Path_4083" data-name="Path 4083" d="M330.28,31.13a58.63,58.63,0,0,1-.1,24l.61-.44-.11-.09c-.8-.62-.7,3.19-.69,3.35-.14-2.14,0,.08,0,.5.05.79.08,2.61.66,3.25.35.38.65.79.84-.06a74.9,74.9,0,0,0-.16-34.28c-.19-.76-.46-2.33-1.19-1.21s-.12,3.84.1,5Z"/><path id="Path_4084" data-name="Path 4084" d="M331,36.73c-1.56,1.1-2.7,3-4,4.36-1.54,1.59-3.3,2.93-4.88,4.47-.73.71-.3,3-.18,3.88.05.34.42,2.69,1,2.13a2.61,2.61,0,0,0,.75-1.28c.25-.61.32-4.72-.65-4.75a2,2,0,0,1-.76-.11l.49,6.26a26.31,26.31,0,0,0,4.61-4.15,22,22,0,0,0,4.21-5.43,5.93,5.93,0,0,0,.2-3c0-.2-.44-2.57-.77-2.34Z"/><path id="Path_4085" data-name="Path 4085" d="M336.75,44.69c2.6.79,5.74.11,8.47.4a43.62,43.62,0,0,1,8.37,1.85,93.13,93.13,0,0,1,16.54,7.3c.17.18.32.17.46,0l.58-.54c.93-.88.27-4.6-.28-5.61-.92-1.71-1.58-2-3.26-2.82q-2.13-1.07-4.31-2a88.86,88.86,0,0,0-9.2-3.51A43.43,43.43,0,0,0,345,37.77c-2.94-.27-6.45-.42-8.87,1.49-.72.58-.38,5.15.59,5.44Z"/></g><g id="Group_4242" data-name="Group 4242"><path id="Path_4086" data-name="Path 4086" d="M136.52,5.83l-.32-1.1-.73,3.64A6,6,0,0,0,143,11a9.64,9.64,0,0,0,5.77-7c.08-.37,0-4.2-.43-4-.93.49-1.45,1.81-2.18,2.58a8.38,8.38,0,0,1-3.5,2.29A7.33,7.33,0,0,1,139,5a15.72,15.72,0,0,1-3.27-1.6c-.12-.05-1.16,4.7.1,5.3l.51.24c.4.19.3-2.87.23-3.14Z"/><path id="Path_4087" data-name="Path 4087" d="M125.87,26.5c4.72-1.1,9.48-2.05,14.26-2.88q3.54-.61,7.11-1.11c2.25-.32,5.12-.3,7-1.75.67-.53.57-4.18-.22-4.6-1.95-1-5.09-.12-7.2.22q-3.56.56-7.1,1.25c-4.68.9-9.31,2-13.92,3.24-1.15.31-.45,5.75.1,5.62Z"/><path id="Path_4088" data-name="Path 4088" d="M132,34.94c6.13-.46,12.9-2,17.86-5.74.5-.38.35-4.09-.19-4A71.12,71.12,0,0,0,141,27.8c-3,.92-6,1.6-9.07,2.25-.89.19-.59,4.94.09,4.89Z"/><path id="Path_4089" data-name="Path 4089" d="M141.69,25.21a55.52,55.52,0,0,1,1.23,7.46A42.24,42.24,0,0,1,142.5,40a5.8,5.8,0,0,0,.19,2.95c.31.56.46.6.65-.19a39.12,39.12,0,0,0,.77-10.9c-.18-3.39-.48-7.29-1.85-10.43-.36-.82-.61.31-.67.64a8.78,8.78,0,0,0,.1,3.19Z"/><path id="Path_4090" data-name="Path 4090" d="M122.62,47.43a21,21,0,0,0,6-.33q3-.37,6-.85,6.15-1,12.2-2.45,5.88-1.44,11.67-3.26c4-1.25,7.91-2.53,11.22-5,.52-.4.5-4.44-.21-4.42-3.9.11-7.72,1.86-11.45,3s-7.74,2.32-11.67,3.28-7.67,1.75-11.54,2.46q-3,.54-6,1c-2.07.3-4.4.37-6.35,1.12-.9.35-.85,5.3.1,5.47Z"/><path id="Path_4091" data-name="Path 4091" d="M143.85,43c-3.06,4.67-6,9.41-9,14.13l-4.39,7c-.56.9-3.4,6.54-4.4,6.21L126.6,74l0-.31-.28,1.06.2-.2c.76,0,.43-3.68,0-4.1l-.17-.18-.12-.08c-1.27.33-1.12,5.45.41,5.37,1.07-.05,2.18-2.83,2.66-3.6l2.86-4.6c4-6.49,8.08-13,12-19.54a5.61,5.61,0,0,0,.32-3.06c0-.19-.37-2.22-.7-1.72Z"/><path id="Path_4092" data-name="Path 4092" d="M145.39,62.72l3.6-1.14,1.8-.6a9.45,9.45,0,0,0,1.75-.49c.58-.41.54-.69.11.22a7.13,7.13,0,0,1-.89,1.41,12.11,12.11,0,0,1-2.44,2.3c-.66.48-.44,4.3-.18,4.21,3.66-1.36,4.81-5.55,4.93-9.11,0-1,.26-3.86-1.37-3.7a13.78,13.78,0,0,0-3.39,1.44c-1.22.52-2.42,1.07-3.63,1.61-.83.37-.51,3.92-.28,3.85Z"/><path id="Path_4093" data-name="Path 4093" d="M146.32,69.86c5.13.08,10.41-.81,15.5-1.39,2.52-.28,5-.61,7.53-1,2.33-.32,5.3-.27,7.32-1.56.58-.37.93-4,.18-4.28-1.21-.46-2.59-.07-3.86.1l-3.58.48c-2.5.32-5,.62-7.52.93-5,.6-10.22.78-15.2,1.7-.92.16-1.05,5-.36,5Z"/></g><path id="Path_4094" data-name="Path 4094" d="M385.74,61.56a5.83,5.83,0,0,1,4,.22,5.2,5.2,0,0,1,1,.62l-.07-1.16a14.61,14.61,0,0,1-1.6,2,4.44,4.44,0,0,1-3.79,1.68,2.4,2.4,0,0,1-2.13-2.65,2.33,2.33,0,0,1,.08-.38,4.61,4.61,0,0,0-.38-3.36c-.49-.69-1-.62-1.22.22a13.06,13.06,0,0,0,.92,9.37,3.58,3.58,0,0,0,3.28,2.33,5.7,5.7,0,0,0,4.41-2.38c2.43-2.75,3.31-5.77,2.26-8.86a5.35,5.35,0,0,0-7-2.8l-.2.1c-1.19.61-.16,5.21.45,5.06Z"/><g id="Group_4243" data-name="Group 4243"><path id="Path_4095" data-name="Path 4095" d="M.89,37.7C5,37.76,9.6,36,13.36,34.36a40.12,40.12,0,0,0,11-6.66c.77-.7.1-5.83-.31-5.65-3.76,1.66-7.33,3.68-11.17,5.21S4.66,29.59.73,31.15c-1.09.43-.89,6.53.16,6.55Z"/><path id="Path_4096" data-name="Path 4096" d="M16.85,20.18a157.25,157.25,0,0,1,2.49,24.88A84.65,84.65,0,0,1,19,56.43c-.43,3.51-2.46,6.19-6.16,6.51a9.62,9.62,0,0,1-4.65-.75c-1.36-.58-3.82-2.14-4.06-3.82q0,.85.45-.57a7.65,7.65,0,0,1,.78-1,13.85,13.85,0,0,1,1.4-1.36c1.44-1.28,3-2.45,4.52-3.62,6.23-4.75,12.91-8.86,19.39-13.26.74-.5.06-4.63-.24-4.51-7,2.88-13.33,7.19-19.34,11.77-2.68,2.05-6.2,4.2-7.6,7.4A14.56,14.56,0,0,0,3.39,63c1.94,5.7,11.1,9.1,14.91,3.26,1.68-2.58,1.94-5.91,2.13-8.9.25-4.1.32-8.21.25-12.31a155.13,155.13,0,0,0-3-28.1c-.18-.9-.42-.83-.77-.19-.45.82-.21,2.59-.06,3.44Z"/><path id="Path_4097" data-name="Path 4097" d="M36.59,21.49c2.72-.7,5.35-2.65,7.82-4A59.27,59.27,0,0,0,52,13.21c.62-.46.48-5.16-.27-5.08-2.73.28-5.72,1.77-8.15,3a28.14,28.14,0,0,0-7.3,4.63c-.61.6-.44,5.94.31,5.74Z"/><path id="Path_4098" data-name="Path 4098" d="M37.69,41.46c4.74-.22,9.45-2.38,12-6.54.41-.68.2-5.06-.39-4.63-3.68,2.68-7.06,4.88-11.75,5.18-1,.06-.78,6,.15,6Z"/><path id="Path_4099" data-name="Path 4099" d="M44.56,23.46c.6,7.26,1,14.53,1.24,21.81.11,3.56.17,7.11.18,10.67,0,1.76,0,3.53,0,5.3,0,1.5.3,3.18-1.26,4-.84.45-.8,5.46.13,5.49,3,.08,2.48-5.59,2.5-7.44q.08-7-.09-14Q46.9,35.64,45.63,22c0-.46-.09-2-.75-1.83s-.35,2.92-.32,3.26Z"/><path id="Path_4100" data-name="Path 4100" d="M41.49,39.79A106.44,106.44,0,0,1,36,49.08c-2,3.07-4.61,5.92-6.36,9.15-.34.62-.26,5,.38,4.51A15.22,15.22,0,0,0,33.29,59c1.12-1.53,2.17-3.11,3.19-4.71,2-3.1,3.77-6.3,5.43-9.58a6,6,0,0,0,.31-3.12c0-.19-.46-2.26-.73-1.75Z"/><path id="Path_4101" data-name="Path 4101" d="M61,32.77c2.47,3.22,6.73,5.14,10.72,3.78,3.82-1.29,6-4.91,6.56-8.74a9.47,9.47,0,0,0,0-3.48c-.06-.29-.49-1.67-.76-.66-1.88,7.08-11.53,9.2-16.29,3.73-.51-.59-.7,1.82-.7,2,0,1-.13,2.58.51,3.41Z"/><path id="Path_4102" data-name="Path 4102" d="M70.91,18c-.08,6.72-.31,13.43-1,20.12-.68,6.89-2.07,13.66-2.89,20.53a7.87,7.87,0,0,0,.17,3.24c.12.36.44,1.21.72.4A59.05,59.05,0,0,0,70,52.22c.55-3.67,1-7.35,1.35-11A170.41,170.41,0,0,0,72,18.7c0-.26-.06-2.56-.55-2.54s-.57,1.48-.58,1.88Z"/><path id="Path_4103" data-name="Path 4103" d="M70,43.31a36.27,36.27,0,0,0,4.6,4.59q2.11,2.06,4.14,4.23a117.17,117.17,0,0,1,8,9.6,150.5,150.5,0,0,1,12.8,20.9c.68,1.3,1-.8,1-1.31a10.48,10.48,0,0,0-.4-4.91,102.42,102.42,0,0,0-13-22.36,118.51,118.51,0,0,0-8-9.6Q77,42,74.65,39.75c-1.33-1.28-2.84-3.13-4.6-3.77-.92-.33-.6,6.55,0,7.33Z"/><path id="Path_4104" data-name="Path 4104" d="M42.85,40.06a4,4,0,0,0,1.62,2.54c.73.6,1.49,1.16,2.23,1.76,1.35,1.1,2.63,2.28,4,3.41a64,64,0,0,1,7.2,7.61c.48.58.9-1.6.94-1.79.17-.89.5-2.51,0-3.36-3.54-5.77-8.46-11.72-14.48-15l-.2.1-.63.52c-.81.67-.91,3.3-.62,4.24Z"/></g></g></g></g></svg>