<svg xmlns="http://www.w3.org/2000/svg" viewBox="0 0 614.56 206.9"><defs><style>.cls-1{fill:#a2ddf2;}</style></defs><g id="圖層_2" data-name="圖層 2"><g id="圖層_1-2" data-name="圖層 1"><g id="Group_4415" data-name="Group 4415"><path id="Path_4134" data-name="Path 4134" class="cls-1" d="M497.25,67.58c-12.54-2-25,.09-37.33,2.64A297.06,297.06,0,0,1,421.57,76c-26.11,1.92-52.32-.32-78.39-1.84-26.24-1.53-52.43-1.46-78.7-.84-26,.61-52.08,1.66-78-.42-25.08-2-50.34-5.72-75.51-3q-4.45.49-8.85,1.24c-1.9.33-1.1,3.22.8,2.9,24.82-4.24,50.1-1.18,75,1.08,12.5,1.13,25,1.9,37.54,1.94,13.1,0,26.19-.23,39.28-.54,26.28-.63,52.54-1.24,78.81.07,25.9,1.3,51.8,3.72,77.77,2.9a251.84,251.84,0,0,0,37.55-4c12.55-2.3,25-5.81,37.84-5.81a61.06,61.06,0,0,1,9.83.76c1.88.3,2.7-2.59.8-2.9Z"/><path id="Path_4135" data-name="Path 4135" class="cls-1" d="M496.68,177.21c-22.78-3.46-45.64-6.92-68.7-7.57a222.7,222.7,0,0,0-34.25,1.51c-11.34,1.44-22.35,4.44-33.61,6.29a77.67,77.67,0,0,1-17,1.13c-5.76-.33-11.35-1.78-17-2.83a191.73,191.73,0,0,0-34.17-2.83c-11.52,0-23,.51-34.54,1l-35.64,1.38L150.8,178l-8.82.34c-1.92.08-1.93,3.08,0,3l70.58-2.73c23.36-.9,46.72-2.13,70.09-2.61a238.61,238.61,0,0,1,34.23,1.35c11.4,1.41,22.34,4.91,33.93,4.2,11.23-.7,22.1-3.79,33.12-5.84a196.77,196.77,0,0,1,34.43-3.15c23.14-.21,46.14,2.85,69,6.26l8.54,1.29c1.89.29,2.7-2.6.8-2.89Z"/><path id="Path_4136" data-name="Path 4136" class="cls-1" d="M84.23,13.84,97.52,33.58c1.07,1.59,3.67.09,2.59-1.51L86.82,12.32C85.75,10.73,83.15,12.23,84.23,13.84Z"/><path id="Path_4137" data-name="Path 4137" class="cls-1" d="M35,5.37C39,7.09,42,10.15,44.85,13.26q5.32,5.7,10.62,11.4L76.66,47.41c1.31,1.42,3.43-.71,2.12-2.12L57.25,22.17,46.69,10.83c-3-3.17-6.12-6.3-10.16-8C34.78,2,33.25,4.6,35,5.37Z"/><path id="Path_4138" data-name="Path 4138" class="cls-1" d="M44.55,35.09,30.55,22c-1.41-1.32-3.54.8-2.12,2.12l14,13.05c1.41,1.32,3.54-.8,2.12-2.12Z"/><path id="Path_4139" data-name="Path 4139" class="cls-1" d="M69.58,60.09A229.39,229.39,0,0,1,51.24,42.2c-1.31-1.43-3.43.7-2.12,2.12A229.39,229.39,0,0,0,67.46,62.21C68.91,63.47,71,61.36,69.58,60.09Z"/><path id="Path_4140" data-name="Path 4140" class="cls-1" d="M57.93,68.18q-21.54-12.65-43.21-25L2.26,36A1.5,1.5,0,0,0,.74,38.63Q22.46,51,44,63.53q6.21,3.6,12.38,7.24a1.5,1.5,0,0,0,1.52-2.59Z"/><path id="Path_4141" data-name="Path 4141" class="cls-1" d="M524.76,7.62q-7.62,9.58-14.59,19.66c-1.1,1.59,1.5,3.1,2.59,1.52Q519.5,19,526.88,9.74a1.55,1.55,0,0,0,0-2.12,1.49,1.49,0,0,0-2.12,0Z"/><path id="Path_4142" data-name="Path 4142" class="cls-1" d="M581.47,20.43l-6.6,5.67a1.51,1.51,0,0,0,0,2.12,1.54,1.54,0,0,0,2.13,0l6.59-5.67a1.51,1.51,0,0,0,0-2.12A1.55,1.55,0,0,0,581.47,20.43Z"/><path id="Path_4143" data-name="Path 4143" class="cls-1" d="M564.35,36.47a123.34,123.34,0,0,0-16.21,11.89c-1.46,1.26.67,3.38,2.12,2.12a118.62,118.62,0,0,1,15.6-11.42c1.64-1,.14-3.6-1.51-2.59Z"/><path id="Path_4144" data-name="Path 4144" class="cls-1" d="M570,.37c-6,5-12.08,9.87-18.06,14.87a161.56,161.56,0,0,0-16.43,15.39c-1.29,1.43.82,3.56,2.12,2.13a160.45,160.45,0,0,1,16.43-15.39c6-5,12-9.93,18.06-14.88C573.63,1.26,571.5-.85,570,.37Z"/><path id="Path_4145" data-name="Path 4145" class="cls-1" d="M605.18,41a406.61,406.61,0,0,1-42.55,18.19c-1.8.65-1,3.55.8,2.89a414.08,414.08,0,0,0,43.26-18.49c1.73-.85.22-3.44-1.51-2.59Z"/><path id="Path_4146" data-name="Path 4146" class="cls-1" d="M574.65,118.43l-10.43-4.76c-.75-.35-1.52-.68-2.26-1s-1-.41-1-1.14c.12-1.45,1.3-3.14,1.92-4.41,2.63-5.4,5.52-10.82,9.83-15.08,2.09-2.06,4.79-4.36,7.92-4.18,2.94.17,5.65,2.4,7.47,4.56a12,12,0,0,1,3,7.51c0,2.81-1.6,5-3.64,6.83-2.44,2.14-5.3,3.75-7.74,5.9a22.85,22.85,0,0,0-6,7.95c-.75,1.73,1.55,3.21,2.59,1.52l.83-1.36c1-1.65-1.58-3.16-2.59-1.51l-.83,1.35,2.59,1.52a21.73,21.73,0,0,1,6.49-8.14c2.54-2.07,5.45-3.67,7.76-6a11.58,11.58,0,0,0,3.57-8.41,15.17,15.17,0,0,0-3.52-8.83,15.57,15.57,0,0,0-8.14-5.62c-3.69-.88-7.05.72-9.86,3-5.48,4.46-9.05,10.85-12.11,17.1-1.39,2.83-4.48,7.58-.56,9.78,2,1.13,4.29,2,6.41,2.94l6.8,3.11c1.74.8,3.27-1.79,1.51-2.59Z"/><path id="Path_4147" data-name="Path 4147" class="cls-1" d="M573.31,129.37a81.14,81.14,0,0,1-10.81-5.06,1.54,1.54,0,0,0-1.82.23,15,15,0,0,0-3.72,9,34.49,34.49,0,0,0,.27,10.73c.71,3.26,3.11,6.38,6.66,6.55,3.82.19,6.55-3,8-6.17a71.45,71.45,0,0,0,4.57-13.16c.46-1.87-2.43-2.67-2.9-.8A68.18,68.18,0,0,1,569.42,143a9.09,9.09,0,0,1-3.29,4.27,3.43,3.43,0,0,1-4.44-.53,8,8,0,0,1-1.83-5.18c-.11-1.8-.13-3.62-.07-5.43.1-3.35.6-6.91,3-9.43l-1.82.24a87.4,87.4,0,0,0,11.53,5.36c1.81.69,2.59-2.21.8-2.89Z"/><path id="Path_4148" data-name="Path 4148" class="cls-1" d="M589.08,144.5A41.82,41.82,0,0,1,592.56,125c1.19-2.62,2.77-5.13,5.5-6.34a9.73,9.73,0,0,1,7.6-.09,10,10,0,0,1,5.08,5.23,11.12,11.12,0,0,1,0,8.22,45.48,45.48,0,0,1-4.56,8.54q-2.68,4.35-5.69,8.47c-.16.22-.55,1-.82,1.05,0,0-.77-.39-.78-.4-.84-.4-1.66-.85-2.48-1.3-1.63-.89-3.23-1.85-4.79-2.86-1.18-.77-2.86-2.48-4.37-2.35s-2.52,2.22-1.17,3.28,3.64-.93,2.12-2.12l-.16-.13.43,1.06-1.06,1,.76.53,1.16.79c.77.51,1.56,1,2.35,1.5,1.59,1,3.21,1.89,4.86,2.75,1.41.73,3.09,1.76,4.65.82,1.4-.85,2.35-2.75,3.27-4.06q3.27-4.67,6.14-9.59c1.64-2.84,3.26-5.82,3.76-9.1a13.25,13.25,0,0,0-7.95-14.24,12.52,12.52,0,0,0-15.2,5.36c-4.16,6.78-5.6,15.59-5.17,23.42.11,1.92,3.11,1.93,3,0Z"/><path id="Path_4149" data-name="Path 4149" class="cls-1" d="M579.34,154.34c-5.44,2.23-11.05,5.2-15.38,9.23-2.19,2,.08,4.87,1.44,6.76a11,11,0,0,0,5.76,4.52c3.05.84,6.22-.17,9.1-1.17a73.1,73.1,0,0,0,8.61-3.65c2.16-1.08,4.88-2.32,5.72-4.79.92-2.68-1.05-5-2.87-6.78a21.22,21.22,0,0,0-7.88-4.72,7.1,7.1,0,0,0-4.07-.52A2.32,2.32,0,0,0,578,156l0,.1c.44,1.88,3.33,1.09,2.89-.8l-.16.43c-.27.37-.26.5,0,.38a3,3,0,0,0,.42,0,8,8,0,0,1,1.3.35,17.06,17.06,0,0,1,3,1.21,17.9,17.9,0,0,1,4.83,3.64,4.86,4.86,0,0,1,1.5,2.23,2.22,2.22,0,0,1-1.13,2,26.8,26.8,0,0,1-5.39,2.87A65.63,65.63,0,0,1,578.8,171c-2.15.73-4.58,1.58-6.85.95a7.66,7.66,0,0,1-4-3.14,25.65,25.65,0,0,1-1.48-2.34c-.09-.16-.55-1.17-.65-.58,0-.29,1-.83,1.25-1a53.56,53.56,0,0,1,13-7.62c1.76-.72,1-3.63-.8-2.89Z"/><path id="Path_4150" data-name="Path 4150" class="cls-1" d="M95.45,186.48l-9.94,6.65c-1.48,1-2.94,2.1-4.49,3-.76.44-1.27.67-2,.12s-1.28-1.11-1.91-1.66c-5-4.39-10-9.26-12.11-15.73-1.93-6-.67-12.73,4.76-16.41a12.47,12.47,0,0,1,9-1.93A14.34,14.34,0,0,1,87,165.32,37.82,37.82,0,0,1,96.67,186l2-1.62L97.54,184c-1.83-.59-3,2.19-1.1,2.79l1.17.38a1.52,1.52,0,0,0,2-.89,1.42,1.42,0,0,0,.08-.73,40.72,40.72,0,0,0-9.75-21.43c-2.54-2.87-5.48-5.25-9.25-6.22a15.6,15.6,0,0,0-10.65,1c-6.74,3.29-9.84,10.65-8.58,17.88,1.35,7.75,6.67,13.7,12.3,18.81.86.78,1.73,1.54,2.6,2.3a6.77,6.77,0,0,0,2.36,1.6c2.17.69,4.14-.92,5.83-2l12.83-8.58c1.6-1.07-.29-3.4-1.89-2.33Z"/><path id="Path_4151" data-name="Path 4151" class="cls-1" d="M103.34,190.81l-12.46,8.63a1.52,1.52,0,0,0-.2,2.13,1.48,1.48,0,0,0,.26.24,22.4,22.4,0,0,0,10.45,4.37,47.68,47.68,0,0,0,5.6.6,16.88,16.88,0,0,0,6.09-.4c3.46-1.1,6-5.3,3.41-8.51-1.27-1.56-3.33-2.42-5-3.4l-6.4-3.65c-1.66-.95-3.45,1.46-1.77,2.42,3.19,1.82,6.49,3.53,9.6,5.5,1.26.8,2.23,1.83,1.32,3.31s-2.51,1.72-4,1.81a36.87,36.87,0,0,1-9.19-.8,18.82,18.82,0,0,1-8.29-3.67l.06,2.38,12.46-8.63c1.59-1.1-.31-3.43-1.89-2.33Z"/><path id="Path_4152" data-name="Path 4152" class="cls-1" d="M104.1,167.93l2.25,7.1c.67,2.08,1.22,4.25,2.09,6.27a7.74,7.74,0,0,0,3.39,4,5.45,5.45,0,0,0,5.29-.33c3.88-2.33,4-7,3.85-11-.06-2.44-.21-4.9-.49-7.33-.24-2-.66-4.25-2.79-5.13s-4.23-.11-6.16.56a28.4,28.4,0,0,0-6.93,3.61c-1.58,1.11.31,3.44,1.89,2.34a24.89,24.89,0,0,1,4.71-2.61,12.51,12.51,0,0,1,4.36-1.26c1.78,0,1.79,1.52,2,3q.32,2.83.43,5.7c.12,2.93.69,7.25-1.9,9.34a2.61,2.61,0,0,1-3.24.32,6.78,6.78,0,0,1-2-3.34c-1.46-4.08-2.65-8.28-4-12.4a1.5,1.5,0,1,0-2.74,1.22Z"/><path id="Path_4153" data-name="Path 4153" class="cls-1" d="M115.08,146.05c-2.4,3-4.7,6.07-7.26,8.91-2.08,2.31-4.84,4.52-8.15,3.6-3-.82-5.66-3.23-7.7-5.43a27.85,27.85,0,0,1-5.13-7.95c-2.25-5.3-3.85-13.42,1.13-17.69,4.51-3.86,10.91-3.28,15.62-.1,6.58,4.45,9.43,12.2,11.65,19.48l.16-1.5-.07.12,1.39-.6-.18,0,1.19.88-.09-.15-.16,1.5-.12.14c1.81-.67.58-3.4-1.23-2.74a2.15,2.15,0,0,0-1.06.82,1.45,1.45,0,0,0-.16,1.5,1.81,1.81,0,0,0,1.46,1.06,1.46,1.46,0,0,0,1.38-.6c.51-.91.26-1.51,0-2.47s-.67-2.11-1-3.16a51.1,51.1,0,0,0-2.44-5.94,29.13,29.13,0,0,0-6.92-9.22c-5.24-4.53-12.87-6.41-19.13-2.78a12.36,12.36,0,0,0-6,7.87,22.94,22.94,0,0,0,.74,11.48c2.08,7.15,7,14,13.66,17.47,4,2.11,8.18,1.31,11.53-1.63a39.33,39.33,0,0,0,4.45-4.94l4.94-6.12c1.22-1.5-1.2-3.27-2.42-1.77Z"/><g id="Group_4414" data-name="Group 4414"><path id="Path_4154" data-name="Path 4154" class="cls-1" d="M26.41,108.29c-8-1.53-17.14,2.86-20.56,10.34-1.68,3.7-1.57,8.23-1,12.18a23.86,23.86,0,0,0,4.43,11.07,15.87,15.87,0,0,0,9.25,6c4,.85,8.58.41,11.9-2.11s4.43-6.82,4.53-10.88a18.5,18.5,0,0,0-.86-7,6.24,6.24,0,0,0-3.21-3.17c-3.24-1.66-8.41-2.63-11.6-.35a4,4,0,0,0-.94,5.54l.17.22c1.84,2.45,5.08,2.24,7.74,1.59l-1.19-.41a9.3,9.3,0,0,1,1.55,4.05c0,.24.05.48.07.72,0,.4-.11.49.16.22a7.08,7.08,0,0,1-2,1,10.63,10.63,0,0,1-5.16,1.15c-2.58-.2-4.41-2-5.5-4.25s-1.86-5.45-1.08-8c1.07-3.48,4.7-5.13,7.94-6,1-.29,2.07-.52,3.11-.72,1.31-.25,2.67-.47,3.3-1.8a8.61,8.61,0,0,0,.4-4.06c-.07-1.43-.23-2.86-.33-4.29-.12-1.61-2.59-1.12-2.48.48.1,1.37.27,2.74.32,4.11a16.14,16.14,0,0,1,0,1.84c-.08.93-.33,1-1.2,1.16a34.58,34.58,0,0,0-6.23,1.69c-4,1.54-7.24,4.51-7.59,9-.49,6.1,3.37,13.74,10.28,13.45a16.06,16.06,0,0,0,7.49-2.54c1.43-.88,1.16-2.48.91-3.94A12.15,12.15,0,0,0,27,129.63a1.23,1.23,0,0,0-1.18-.41c-1.74.43-4.61,1-5.53-1.09-.55-1.27.63-2,1.7-2.28a11.34,11.34,0,0,1,8.27,1.35,3.9,3.9,0,0,1,1.93,3,23.2,23.2,0,0,1,.21,6c-.23,3.2-1.43,6.45-4.35,8.11a13.11,13.11,0,0,1-9.79.86,13.82,13.82,0,0,1-7.35-5.34,21.41,21.41,0,0,1-3.47-9c-.54-3.3-.74-7.15.39-10.34,2.55-7.17,11.21-11.11,18.42-9.73,1.59.3,1.77-2.21.2-2.51Z"/><path id="Path_4155" data-name="Path 4155" class="cls-1" d="M40.92,114.37a8.63,8.63,0,0,1,6.37-2.24,10.06,10.06,0,0,1,6.06,2.6c2.85,2.45,5,6.08,4.53,10a10.21,10.21,0,0,1-8,8.53c-4.18.63-8.49-1.93-10.69-5.39a10.46,10.46,0,0,1,2-13.77,1.26,1.26,0,0,0,0-1.78,1.25,1.25,0,0,0-1.71-.12,12.91,12.91,0,0,0-3.52,14.94C38,132,43,135.74,48.4,135.81s10.11-4,11.58-8.94c1.41-4.75-.55-9.68-4-13.08a13.24,13.24,0,0,0-7.93-4.12,11.43,11.43,0,0,0-8.83,2.81c-1.26,1,.4,2.91,1.66,1.89Z"/><path id="Path_4156" data-name="Path 4156" class="cls-1" d="M44.18,120.58a6.58,6.58,0,0,1,.74-.17l.36,0,.18,0c-.07,0-.25,0-.08,0s.43,0,.65,0l.31,0c.09,0,.2.08-.09,0l.18,0a3.35,3.35,0,0,1,.53.19c.15.06.26.14,0,0l.28.16.43.31c.15.1-.19-.19,0,0l.22.23c.12.13.22.31.35.44s-.14-.24,0,0l.18.3c.08.15.14.31.21.47s0,.09,0,.13-.07-.28,0-.12l.09.3c0,.16.07.33.1.5l0,.28c0,.26,0-.3,0,0s0,.37,0,.55,0,.15,0,.23,0,.09,0,.13.08-.29,0-.09-.1.35-.17.52-.07.23-.1.24.16-.29.05-.11a.75.75,0,0,1-.07.12,4.5,4.5,0,0,1-.31.45c-.1.14.21-.2,0,0L48,126l-.23.18c-.21.17.19-.09,0,0s-.38.21-.58.3l-.19.07-.21.06a4.83,4.83,0,0,1-.76.13l-.14,0c-.17,0,.24,0,.06,0H45.6l-.35,0-.12,0c-.28,0,.24.08,0,0s-.4-.12-.6-.2l-.15-.07c-.16,0,.2.12.06,0s-.21-.12-.32-.19-.35-.26-.52-.39c.18.14.08.08,0,0a2.16,2.16,0,0,1-.25-.27l-.2-.25-.09-.13s.15.25.05.07a5.21,5.21,0,0,1-.3-.57c-.06-.13-.1-.25-.15-.38.1.26,0,.08,0-.06a5.85,5.85,0,0,1-.12-.71c0-.24,0,.08,0,.1a1,1,0,0,1,0-.24c0-.12,0-.24,0-.36s.1-.47,0-.12c0-.12.06-.24.1-.36s.08-.23.13-.35l.07-.15c-.06.13-.1.17,0,0s.14-.23.21-.33l.18-.23c-.12.13,0,0,.05,0s.11-.11.17-.17.22-.19.33-.28l.16-.12c.12-.09-.17.1,0,0l.47-.26a1.26,1.26,0,0,0-1.11-2.26,6.18,6.18,0,0,0-2.9,2.94,5.32,5.32,0,0,0-.27,3.43,6,6,0,0,0,5.06,4.51A5.67,5.67,0,0,0,51,126a6,6,0,0,0-.54-5.54,5.89,5.89,0,0,0-6.74-2.38,1.3,1.3,0,0,0-1,1.47,1.27,1.27,0,0,0,1.48,1Z"/><path id="Path_4157" data-name="Path 4157" class="cls-1" d="M63.4,105.25q1.17,6.89,2.32,13.77a1.26,1.26,0,0,0,1.13,1l2.8.33a3.16,3.16,0,0,0,2.41-.31,3,3,0,0,0,.89-2c.15-.9.27-1.8.37-2.71a57.32,57.32,0,0,0,.19-10.56c-.07-.91-.15-1.82-.26-2.72a3.34,3.34,0,0,0-.85-2.38c-1.1-.9-3-.38-4.18,0-2.37.83-6.37,4.08-3.89,6.81,1.09,1.2,3-.45,1.9-1.66-.51-.56.85-1.66,1.23-1.95a6.25,6.25,0,0,1,2.74-1.13,5.29,5.29,0,0,1,.8-.06l-.35-.21.06.5c.08.63.15,1.25.22,1.87.11,1.19.18,2.39.21,3.58a55.17,55.17,0,0,1-.27,7.16c-.07.63-.14,1.25-.23,1.87a5.42,5.42,0,0,1-.26,1.69c.21-.37,0-.24-.35-.29l-.88-.1-2.1-.24,1.14,1-2.31-13.77a1.26,1.26,0,0,0-2.48.47Z"/><path id="Path_4158" data-name="Path 4158" class="cls-1" d="M68,127.68a4.17,4.17,0,0,1,.46-.26,1.33,1.33,0,0,1,.24-.1s-.32.09-.08,0a3.1,3.1,0,0,1,.51-.11l.17,0c.14,0,.12,0-.08,0h.18a3.87,3.87,0,0,1,.48,0,.76.76,0,0,1,.21,0l-.15,0,.17,0a3.45,3.45,0,0,1,.42.14.94.94,0,0,1,.23.1c-.15-.08-.17-.09,0,0l.15.09c.06,0,.32.18.35.25l-.11-.1.12.12.18.19a.76.76,0,0,0,.11.14c.19.23-.13-.24,0,0l.23.46c.13.27-.07-.28,0,0l.06.25c0,.15,0,.29.07.43.05.3,0-.29,0,0v.26c0,.13,0,.44-.06.52l0-.14c0,.05,0,.11,0,.16a1.72,1.72,0,0,1-.07.21,1.25,1.25,0,0,1-.18.45l.07-.14a1.09,1.09,0,0,0-.08.15l-.1.15-.15.21c-.09.1-.07.09,0,0l-.12.12c-.1.1-.21.19-.33.29s.24-.13,0,0l-.23.12c-.08,0-.31.19-.4.17l.15,0-.17,0-.25.06-.26,0c-.3.05.29,0,0,0h-.44l-.26,0-.08,0c-.14,0-.12,0,.06,0-.1,0-.41-.13-.5-.16a1.22,1.22,0,0,1-.24-.1c.15.16.13.07,0,0l-.39-.27c-.24-.17.18.2,0,0l-.12-.13a1.63,1.63,0,0,1-.17-.2l-.1-.14c.1.15.11.17,0,.05a4,4,0,0,1-.23-.46l0-.08c0-.14,0-.11,0,.07,0,0-.06-.21-.07-.25a1.62,1.62,0,0,1-.09-.6v0c0-.1,0-.2,0-.3a1,1,0,0,1,0-.26.57.57,0,0,1,0-.18c0,.17,0,.2,0,.11s.11-.36.18-.54c0,0,.13-.27,0-.09s.08-.12.1-.16l.15-.21.1-.14c-.11.14-.13.15,0,0a1.26,1.26,0,0,0-1.66-1.89,5.15,5.15,0,0,0-1,5.52,4.8,4.8,0,0,0,4.51,2.9,5.28,5.28,0,0,0,2.9-.9,4.69,4.69,0,0,0,1.66-2.22A5,5,0,0,0,73,126.08a5.1,5.1,0,0,0-6.07-.65A1.26,1.26,0,1,0,68,127.69Z"/></g></g></g></g></svg>