<svg xmlns="http://www.w3.org/2000/svg" viewBox="0 0 40 40"><defs><style>.cls-1{fill:#043f98;}.cls-2{fill:#fff;}</style></defs><g id="圖層_2" data-name="圖層 2"><g id="圖層_1-2" data-name="圖層 1"><circle class="cls-1" cx="20" cy="20" r="20"/><g id="组_118" data-name="组 118"><path id="路径_344" data-name="路径 344" class="cls-2" d="M26.34,27.05a2.93,2.93,0,0,1-4.14.24l-.2-.2a16.7,16.7,0,0,1-2.55-3.19c-.7-1.11-1.3-2.24-1.92-3.42-.1,0-.15.15-.18.25A36.81,36.81,0,0,1,15,27.65c-.2.28-.35.55-.71.63s-.77-.18-1.05-.48l-.25-.28a13.62,13.62,0,0,1-1.36-6.73,20.39,20.39,0,0,1,.84-5.37.37.37,0,0,1,.48-.22.88.88,0,0,1,.45.4.26.26,0,0,1,0,.35l-.1.12c-.05,0-.07.05-.07.08a19.37,19.37,0,0,0-.72,4.54,13.85,13.85,0,0,0,1,5.87,1.86,1.86,0,0,0,.6.81c.2-.05.33-.4.45-.58A40.78,40.78,0,0,0,16.9,20a.93.93,0,0,1,.53-.42.67.67,0,0,1,.6.2,27,27,0,0,0,4.23,6.44c1.5,1.61,3,1.31,4-.5A8.33,8.33,0,0,0,27.08,23a39.24,39.24,0,0,0,.59-5.3,43.49,43.49,0,0,0-.19-5.47.67.67,0,0,1,.28-.55.38.38,0,0,1,.4.33,50.58,50.58,0,0,1,.26,5.64,35.28,35.28,0,0,1-.82,7A6.08,6.08,0,0,1,26.34,27.05Z"/><path id="路径_345" data-name="路径 345" class="cls-2" d="M14,29.15a2,2,0,0,1-1.46-.79L12.25,28l-.05-.09a14.27,14.27,0,0,1-1.46-7.15,21.23,21.23,0,0,1,.87-5.59,1.17,1.17,0,0,1,.54-.68,1.31,1.31,0,0,1,1-.12l.1,0a1.65,1.65,0,0,1,.83.73A1.1,1.1,0,0,1,14,16.46l-.09.11a19.47,19.47,0,0,0-.63,4.15A13.36,13.36,0,0,0,14,25.77a41.72,41.72,0,0,0,2.07-6l.06-.16a1.74,1.74,0,0,1,1-.84l.17,0a1.54,1.54,0,0,1,1.34.49l.07.08.05.09a26.13,26.13,0,0,0,4.08,6.24,2,2,0,0,0,1.45.78,1.94,1.94,0,0,0,1.24-1.11,7.47,7.47,0,0,0,.69-2.45,39.43,39.43,0,0,0,.58-5.19,41.69,41.69,0,0,0-.19-5.36v-.18A1.48,1.48,0,0,1,27.33,11l.2-.13h.25A1.22,1.22,0,0,1,29,11.92a50.37,50.37,0,0,1,.27,5.76,37.13,37.13,0,0,1-.84,7.13A7.14,7.14,0,0,1,27,27.62h0a3.72,3.72,0,0,1-2.67,1.24,3.9,3.9,0,0,1-2.87-1.17,17.3,17.3,0,0,1-2.68-3.35q-.54-.86-1-1.74a33.47,33.47,0,0,1-2,5.41l-.15.22a1.85,1.85,0,0,1-1.11.86A2.1,2.1,0,0,1,14,29.15Z"/></g></g></g></svg>