<svg xmlns="http://www.w3.org/2000/svg" viewBox="0 0 14.29 10"><defs><style>.cls-1{fill:#afafaf;}</style></defs><g id="圖層_2" data-name="圖層 2"><g id="圖層_1-2" data-name="圖層 1"><path id="users-solid" class="cls-1" d="M2.14,4.29A1.43,1.43,0,1,0,.71,2.86,1.43,1.43,0,0,0,2.14,4.29Zm10,0a1.43,1.43,0,1,0-1.43-1.43A1.43,1.43,0,0,0,12.14,4.29Zm.72.71H11.43a1.42,1.42,0,0,0-1,.42A3.24,3.24,0,0,1,12.1,7.86h1.47a.72.72,0,0,0,.72-.72h0V6.43A1.43,1.43,0,0,0,12.86,5ZM7.14,5a2.5,2.5,0,1,0-2.5-2.5A2.5,2.5,0,0,0,7.14,5Zm1.72.71H8.67a3.43,3.43,0,0,1-3.06,0H5.43A2.58,2.58,0,0,0,2.86,8.28v.65A1.07,1.07,0,0,0,3.93,10h6.43a1.07,1.07,0,0,0,1.07-1.07V8.29A2.58,2.58,0,0,0,8.86,5.71Zm-5-.3a1.43,1.43,0,0,0-1-.41H1.43A1.43,1.43,0,0,0,0,6.43v.71a.71.71,0,0,0,.71.72H2.18A3.27,3.27,0,0,1,3.86,5.42Z"/></g></g></svg>