<svg xmlns="http://www.w3.org/2000/svg" viewBox="0 0 1392.96 991.2"><defs><style>.cls-1{fill:#fff;stroke:#fff;stroke-width:2px;}</style></defs><g id="圖層_2" data-name="圖層 2"><g id="圖層_1-2" data-name="圖層 1"><g id="Group_4408" data-name="Group 4408"><g id="Group_4407" data-name="Group 4407"><path id="Path_4118" data-name="Path 4118" class="cls-1" d="M1044.21,12c-86.94,0-131.15-2.54-173.89-5S783.4,2,696.47,2,565.37,4.54,522.63,7s-86.95,5-173.9,5S217.58,9.46,174.84,7,87.92,2,1,2V1C88,1,132.15,3.54,174.89,6s86.92,5,173.84,5S479.84,8.46,522.57,6s86.95-5,173.9-5,131.15,2.54,173.9,5,86.92,5,173.84,5,131.11-2.54,173.85-5S1305,1,1392,1V2C1305,2,1260.85,4.54,1218.12,7S1131.16,12,1044.21,12Z"/><path id="Path_4119" data-name="Path 4119" class="cls-1" d="M1021.71,56c-85.08,0-128.33-2.54-170.15-5s-85-5-170.09-5-128.28,2.54-170.09,5-85.07,5-170.15,5-128.32-2.54-170.14-5S86.05,46,1,46V45c85.07,0,128.32,2.54,170.15,5s85,5,170.08,5,128.28-2.54,170.09-5,85.07-5,170.15-5,128.32,2.54,170.15,5,85,5,170.09,5S1150,52.46,1191.8,50s85.07-5,170.14-5v1c-85,0-128.28,2.54-170.09,5S1106.78,56,1021.71,56Z"/><path id="Path_4120" data-name="Path 4120" class="cls-1" d="M1044.21,83c-86.94,0-131.15-2.54-173.89-5s-86.92-5-173.85-5-131.1,2.54-173.84,5-86.95,5-173.9,5-131.15-2.54-173.89-5S87.92,73,1,73V72c87,0,131.15,2.54,173.89,5s86.92,5,173.84,5,131.11-2.54,173.84-5,86.95-5,173.9-5,131.15,2.54,173.9,5,86.92,5,173.84,5,131.11-2.54,173.85-5S1305,72,1392,72v1c-86.92,0-131.11,2.54-173.84,5S1131.16,83,1044.21,83Z"/><path id="Path_4121" data-name="Path 4121" class="cls-1" d="M1021.71,207.64c-85.08,0-128.33-2.54-170.15-5s-85-5-170.09-5-128.28,2.54-170.09,5-85.07,5-170.15,5-128.32-2.54-170.14-5-85-5-170.09-5v-1c85.07,0,128.32,2.54,170.15,5s85,5,170.08,5,128.28-2.54,170.09-5,85.07-5,170.15-5,128.32,2.54,170.15,5,85,5,170.09,5,128.27-2.54,170.09-5,85.07-5,170.14-5v1c-85,0-128.28,2.54-170.09,5S1106.78,207.64,1021.71,207.64Z"/><path id="Path_4122" data-name="Path 4122" class="cls-1" d="M1044.21,282.49c-86.94,0-131.15-2.54-173.89-5s-86.92-5-173.85-5-131.1,2.55-173.84,5-86.95,5-173.9,5-131.15-2.54-173.89-5-86.92-5-173.84-5v-1c87,0,131.15,2.55,173.89,5s86.92,5,173.84,5,131.11-2.54,173.84-5,86.95-5,173.9-5,131.15,2.55,173.9,5,86.92,5,173.84,5,131.11-2.54,173.85-5,86.94-5,173.9-5v1c-86.92,0-131.11,2.55-173.84,5S1131.16,282.49,1044.21,282.49Z"/><path id="Path_4123" data-name="Path 4123" class="cls-1" d="M1021.71,357.35c-85.08,0-128.33-2.54-170.15-5s-85-5-170.09-5-128.28,2.54-170.09,5-85.07,5-170.15,5-128.32-2.54-170.14-5-85-5-170.09-5v-1c85.07,0,128.32,2.54,170.15,5s85,5,170.08,5,128.28-2.54,170.09-5,85.07-5,170.15-5,128.32,2.54,170.15,5,85,5,170.09,5,128.27-2.54,170.09-5,85.07-5,170.14-5v1c-85,0-128.28,2.54-170.09,5S1106.78,357.35,1021.71,357.35Z"/><path id="Path_4124" data-name="Path 4124" class="cls-1" d="M1044.21,403.28c-86.94,0-131.15-2.54-173.89-5s-86.92-5-173.85-5-131.1,2.54-173.84,5-86.95,5-173.9,5-131.15-2.54-173.89-5-86.92-5-173.84-5v-1c87,0,131.15,2.54,173.89,5s86.92,5,173.84,5,131.11-2.54,173.84-5,86.95-5,173.9-5,131.15,2.54,173.9,5,86.92,5,173.84,5,131.11-2.54,173.85-5,86.94-5,173.9-5v1c-86.92,0-131.11,2.54-173.84,5S1131.16,403.28,1044.21,403.28Z"/><path id="Path_4125" data-name="Path 4125" class="cls-1" d="M1021.71,478.13c-85.08,0-128.33-2.54-170.15-5s-85-5-170.09-5-128.28,2.54-170.09,5-85.07,5-170.15,5-128.32-2.54-170.14-5-85-5-170.09-5v-1c85.07,0,128.32,2.54,170.15,5s85,5,170.08,5,128.28-2.54,170.09-5,85.07-5,170.15-5,128.32,2.54,170.15,5,85,5,170.09,5,128.27-2.54,170.09-5,85.07-5,170.14-5v1c-85,0-128.28,2.54-170.09,5S1106.78,478.13,1021.71,478.13Z"/><path id="Path_4126" data-name="Path 4126" class="cls-1" d="M1044.21,524.07c-86.94,0-131.15-2.55-173.89-5s-86.92-5-173.85-5-131.1,2.54-173.84,5-86.95,5-173.9,5-131.15-2.55-173.89-5-86.92-5-173.84-5v-1c87,0,131.15,2.54,173.89,5s86.92,5,173.84,5,131.11-2.55,173.84-5,86.95-5,173.9-5,131.15,2.54,173.9,5,86.92,5,173.84,5,131.11-2.55,173.85-5,86.94-5,173.9-5v1c-86.92,0-131.11,2.54-173.84,5S1131.16,524.07,1044.21,524.07Z"/><path id="Path_4127" data-name="Path 4127" class="cls-1" d="M1021.71,598.92c-85.08,0-128.33-2.54-170.15-5s-85-5-170.09-5-128.28,2.54-170.09,5-85.07,5-170.15,5-128.32-2.54-170.14-5-85-5-170.09-5v-1c85.07,0,128.32,2.54,170.15,5s85,5,170.08,5,128.28-2.54,170.09-5,85.07-5,170.15-5,128.32,2.54,170.15,5,85,5,170.09,5,128.27-2.54,170.09-5,85.07-5,170.14-5v1c-85,0-128.28,2.54-170.09,5S1106.78,598.92,1021.71,598.92Z"/><path id="Path_4128" data-name="Path 4128" class="cls-1" d="M1044.21,644.85c-86.94,0-131.15-2.54-173.89-5s-86.92-5-173.85-5-131.1,2.54-173.84,5-86.95,5-173.9,5-131.15-2.54-173.89-5-86.92-5-173.84-5v-1c87,0,131.15,2.55,173.89,5s86.92,5,173.84,5,131.11-2.54,173.84-5,86.95-5,173.9-5,131.15,2.55,173.9,5,86.92,5,173.84,5,131.11-2.54,173.85-5,86.94-5,173.9-5v1c-86.92,0-131.11,2.54-173.84,5S1131.16,644.85,1044.21,644.85Z"/><path id="Path_4129" data-name="Path 4129" class="cls-1" d="M1021.71,719.71c-85.08,0-128.33-2.55-170.15-5s-85-5-170.09-5-128.28,2.54-170.09,5-85.07,5-170.15,5-128.32-2.55-170.14-5-85-5-170.09-5v-1c85.07,0,128.32,2.54,170.15,5s85,5,170.08,5,128.28-2.54,170.09-5,85.07-5,170.15-5,128.32,2.54,170.15,5,85,5,170.09,5,128.27-2.54,170.09-5,85.07-5,170.14-5v1c-85,0-128.28,2.54-170.09,5S1106.78,719.71,1021.71,719.71Z"/><path id="Path_4130" data-name="Path 4130" class="cls-1" d="M1044.21,794.56c-86.94,0-131.15-2.54-173.89-5s-86.92-5-173.85-5-131.1,2.54-173.84,5-86.95,5-173.9,5-131.15-2.54-173.89-5-86.92-5-173.84-5v-1c87,0,131.15,2.54,173.89,5s86.92,5,173.84,5,131.11-2.54,173.84-5,86.95-5,173.9-5,131.15,2.54,173.9,5,86.92,5,173.84,5,131.11-2.54,173.85-5,86.94-5,173.9-5v1c-86.92,0-131.11,2.54-173.84,5S1131.16,794.56,1044.21,794.56Z"/><path id="Path_4131" data-name="Path 4131" class="cls-1" d="M1021.71,919.2c-85.08,0-128.33-2.54-170.15-5s-85-5-170.09-5-128.28,2.54-170.09,5-85.07,5-170.15,5-128.32-2.54-170.14-5-85-5-170.09-5v-1c85.07,0,128.32,2.54,170.15,5s85,5,170.08,5,128.28-2.54,170.09-5,85.07-5,170.15-5,128.32,2.54,170.15,5,85,5,170.09,5,128.27-2.54,170.09-5,85.07-5,170.14-5v1c-85,0-128.28,2.54-170.09,5S1106.78,919.2,1021.71,919.2Z"/><path id="Path_4132" data-name="Path 4132" class="cls-1" d="M1044.21,946.2c-86.94,0-131.15-2.54-173.89-5s-86.92-5-173.85-5-131.1,2.54-173.84,5-86.95,5-173.9,5-131.15-2.54-173.89-5-86.92-5-173.84-5v-1c87,0,131.15,2.54,173.89,5s86.92,5,173.84,5,131.11-2.54,173.84-5,86.95-5,173.9-5,131.15,2.54,173.9,5,86.92,5,173.84,5,131.11-2.54,173.85-5,86.94-5,173.9-5v1c-86.92,0-131.11,2.54-173.84,5S1131.16,946.2,1044.21,946.2Z"/><path id="Path_4133" data-name="Path 4133" class="cls-1" d="M1021.71,990.2c-85.08,0-128.33-2.54-170.15-5s-85-5-170.09-5-128.28,2.54-170.09,5-85.07,5-170.15,5-128.32-2.54-170.14-5-85-5-170.09-5v-1c85.07,0,128.32,2.54,170.15,5s85,5,170.08,5,128.28-2.54,170.09-5,85.07-5,170.15-5,128.32,2.54,170.15,5,85,5,170.09,5,128.27-2.54,170.09-5,85.07-5,170.14-5v1c-85,0-128.28,2.54-170.09,5S1106.78,990.2,1021.71,990.2Z"/></g></g></g></g></svg>