<svg xmlns="http://www.w3.org/2000/svg" viewBox="0 0 359.84 72.42"><g id="圖層_2" data-name="圖層 2"><g id="圖層_1-2" data-name="圖層 1"><g id="Group_4545" data-name="Group 4545"><path id="Path_4167" data-name="Path 4167" d="M130.29,65.22h0s0,0,.07-.06Z"/><path id="Path_4168" data-name="Path 4168" d="M126.59,71.62l0-.14,0-.07A.2.2,0,0,0,126.59,71.62Z"/><path id="Path_4169" data-name="Path 4169" d="M129,62.35l.14.09-.14-.15Z"/><path id="Path_4170" data-name="Path 4170" d="M132.45,58.08l0,0,0,0Z"/><path id="Path_4171" data-name="Path 4171" d="M131,57.7h.11Z"/><path id="Path_4172" data-name="Path 4172" d="M129.32,66.06l-.95-.18.88.23.07,0Z"/><path id="Path_4173" data-name="Path 4173" d="M128.69,61.81l0-.12,0,0A.15.15,0,0,0,128.69,61.81Z"/><path id="Path_4175" data-name="Path 4175" d="M130.23,57.81h0l.13-.05Z"/><path id="Path_4176" data-name="Path 4176" d="M134.61,62.42c0-.13,0-.28-.06-.47v0a.33.33,0,0,0,0-.14.21.21,0,0,0,0-.06s0-.05,0,0a1.64,1.64,0,0,0,0-.44,2.38,2.38,0,0,0,0-.46,2.84,2.84,0,0,0-.24-.85.41.41,0,0,0,0-.29l0,.1a.52.52,0,0,0-.19-.46l.06.07-.16-.18.06.07a1,1,0,0,0-.15-.19l.06.07a1.46,1.46,0,0,0-.16-.19l.06.07a.9.9,0,0,0-.15-.19l.06.08a.55.55,0,0,0-.3-.28l.07,0a1.53,1.53,0,0,0-.25-.16l.08,0-.13-.07a1.37,1.37,0,0,0-.2-.13l.07,0a1.71,1.71,0,0,0-.23-.13l.08,0-.11-.06-.2-.12.08,0a1,1,0,0,0-.17-.1l-.26-.13.09,0a.71.71,0,0,0-.4-.13h.1l-.24,0,.1,0-.27-.05.11,0-.23-.05.1,0a1.36,1.36,0,0,0-.29-.06l.11,0-.21,0,.11,0-.26-.05-.26,0h.12a.73.73,0,0,0-.56.08l.17-.06a1.07,1.07,0,0,0-.27.09l-.19.06.17,0a.94.94,0,0,0-.32.11l.17-.07a1.32,1.32,0,0,0-.3.1l.16-.05-.13,0a.63.63,0,0,0-.3.1.65.65,0,0,0-.54.4.53.53,0,0,0-.16.2.64.64,0,0,0-.22.14l-.1.06a.9.9,0,0,0-.24.12.7.7,0,0,0-.38.53v.18l.06.07a.6.6,0,0,0,.08.08.64.64,0,0,0,.21.19v.06a2,2,0,0,0,.1.26l-.28.3.3.24.07,0v0a.91.91,0,0,0,.16.11l.15.34,0,.29,0,.09a.06.06,0,0,1,0-.07l.05.12-.07,0,.07.19-.08-.07a.62.62,0,0,0,.15.35s0,0,0,0l.07.08v0l.19.2,0,0,.12.13h0l0,.06h.09l.06.06h.08l0,0h.09l.06.06h.08l.06.06h.08l.06.06h.07l.06.06h.09l.05.06h.08l.06.06h.08l.06.06h.09l.05.06h.09l.05,0h.08l.06.07h.09l.05.06h.08l.06.06.11,0,0,0,.12,0,0,0,.13,0,0,0,.13,0v0a.56.56,0,0,0-.05.08l.06-.08h0l-.1.15a.39.39,0,0,0-.12.19l.05-.08-.12.2.05-.07a1.06,1.06,0,0,0-.12.2l0-.06a.36.36,0,0,0-.11.16v0l-.06.07a1,1,0,0,0-.12.17l.05-.07a.94.94,0,0,0-.09.12.57.57,0,0,0-.11.11.32.32,0,0,0-.12.11l.06-.07-.17.16.07-.06a.4.4,0,0,0-.18.16l-.12.1.08-.07a.49.49,0,0,0-.2.18l.08-.07a.33.33,0,0,0-.18.17l-.11.09a.74.74,0,0,0-.13.12l.09-.08a.39.39,0,0,0-.2.18l.09-.08a.39.39,0,0,0-.2.18.43.43,0,0,0-.12.11l.09-.09a.49.49,0,0,0-.2.18l-.12.1.1-.09-.11.09a.55.55,0,0,0-.17.14l-.11.09h0l0,.05h0l-.05.06a.52.52,0,0,0-.11.1.54.54,0,0,0-.15.15l-.12.1.11-.1a.49.49,0,0,0-.18.14.67.67,0,0,0-.15.14h0a.4.4,0,0,0-.19.15.75.75,0,0,0-.16.15h0a3.15,3.15,0,0,0-.3.24.54.54,0,0,0-.15.15h0a.79.79,0,0,0-.22.19l.13-.11a.43.43,0,0,0-.2.15.32.32,0,0,0-.12.11.41.41,0,0,0-.16.16l0,0s0,0-.05,0a.52.52,0,0,0-.24.2.51.51,0,0,0-.24.22l-.09.07a.58.58,0,0,0-.26.23l-.08.06a.66.66,0,0,0-.37.51v.13l.06.1a.64.64,0,0,0,.24.22h0v.11a1.83,1.83,0,0,0,.08.25l-.3.3.32.27a.71.71,0,0,0,.22.13c0,.12.08.25.14.39l0,.28,0,.08a.36.36,0,0,0,0,.23.85.85,0,0,0,.11.26c.07.07,0,.12,0-.06l.41.44h.21a.67.67,0,0,0,.31-.17l0,0,.09-.07,0,0,.09-.07,0,0,.09-.07v0a.28.28,0,0,0,.11-.08l0,0,.09-.08,0,0,.08-.07v0a.39.39,0,0,0,.1-.08l0,0a.39.39,0,0,0,.1-.08l0,0,.1-.08v0a.39.39,0,0,0,.1-.08l0,0h0a.27.27,0,0,0,.08-.07l0,0L129,71l0,0a.34.34,0,0,0,.09-.08l0,0a.39.39,0,0,0,.1-.08l0,0a.39.39,0,0,0,.1-.08l0,0,.09-.07,0,0s.06,0,.09-.07l0,0h0a.24.24,0,0,0,.09-.08h0a.39.39,0,0,0,.1-.08l0,0a.27.27,0,0,0,.08-.07l0,0a.31.31,0,0,0,.09-.07l0,0a.39.39,0,0,0,.1-.08l0,0a.27.27,0,0,0,.08-.07l0,0,.09-.08,0,0,.09-.07,0,0a.34.34,0,0,0,.09-.08l0,0a.31.31,0,0,0,.09-.07l0,0a.27.27,0,0,0,.08-.07l0,0,.09-.07,0,0,.09-.07,0,0,.09-.07,0,0,.09-.08,0,0,.08-.07,0,0a.27.27,0,0,0,.08-.07l0,0a.46.46,0,0,0,.07-.07l0,0a.27.27,0,0,0,.08-.07l0,0,.06-.06,0-.06.06,0,.05-.07.06,0,0-.06.05,0,0-.06a.1.1,0,0,0,.05,0l.07-.08,0,0,0,0,.07-.06,0-.07.06,0,.05-.07.05,0,.11-.15h0l.09-.07v-.05l.08-.08v0l.08-.08v0l.09-.07v-.06l.08-.07v0l.08-.07v-.07l.08-.07v0l.09-.07v0l.08-.07v0l.08-.07v-.06l.08-.07v-.06l.09-.08v-.08l.06-.06v-.11l0,0v-.13l0,0v-.12l0,0v-.12l0,0v-.12l0,0V65l0,0v-.12l0,0v-.13l0,0v-.12l0,0v-.12l0,0v-.12l0,0v-.13l0,0,0-.12a.68.68,0,0,1,0-.2.77.77,0,0,0-.06-.3h0l.08,0a.47.47,0,0,0,.15-.06,2.31,2.31,0,0,0,.33-.16l0-.07V63l0,0V62.8h0v-.15h0v-.15l0,0Zm-5.53-.89h0ZM132,63.2v0h0Zm.31-.71h0Zm-.76-.06Zm.46.77h0Zm-.17,0,0,0,0,0v0Zm-5.14,7-.11,0a.19.19,0,0,1,.1,0,.13.13,0,0,1,0,.06Zm.39,1.6,0,0-.07.09Zm1.88-10.52.09-.06-.09.06Zm.33,1.25a.11.11,0,0,1,0-.08l.13.14Zm.15.06a.09.09,0,0,1,0-.07l.12.13Zm.15,0a.06.06,0,0,1,0-.06l.11.12Zm.14,0a.06.06,0,0,1,0-.06l.12.12Zm.15.07a.09.09,0,0,1,0-.07l.1.12Zm.14.05a.06.06,0,0,1,0-.06l.11.11Zm.14,0a0,0,0,0,1,0,0l.11.11Zm.14.06v-.06l.1.1Zm.15.06a0,0,0,0,1,0,0l.09.1Zm.15.05a0,0,0,0,1,0-.05l.1.1Zm.14.06a0,0,0,0,1,0-.05l.09.09Zm.15,0a0,0,0,0,1,0,0l.08.09Zm.14.06v0l.08.08Zm.16,0s0,0,0,0l.07.06Zm.48,0v0l.05.05Zm-2.54-4.88a.64.64,0,0,0-.1.13h0Zm-.51.5-.15.09.15-.09Zm.53,3.61a.09.09,0,0,1,0-.07l.13.13Zm2.19.75v0l.05,0Zm.17,0v0l.05,0Zm-2.14,2.9.28.06,0,0s0,0-.05,0l-.27-.07Zm-2.46,2.15h0l-.12.1Zm-.44.38-.13.11a0,0,0,0,0,0,0Zm.31,3.28-.06-.09v-.06l.06.16Z"/><path id="Path_4177" data-name="Path 4177" d="M350.35,56.9l0,0v0Z"/><path id="Path_4178" data-name="Path 4178" d="M359.42,49a4.89,4.89,0,0,0-2-2.29,4.71,4.71,0,0,0-3-.67,5.37,5.37,0,0,0-.8.15l-.38.13-.2.07a1.25,1.25,0,0,0-.24.16,1.65,1.65,0,0,0-.41.86,4.73,4.73,0,0,0-.07.83,8.53,8.53,0,0,0,.19,1.6,5.53,5.53,0,0,0,.24.79,2.93,2.93,0,0,0,.19.4.92.92,0,0,0,.17.22.53.53,0,0,0,.54.18h.11a4.93,4.93,0,0,1,1.71-.21,4.53,4.53,0,0,1,1.49.33l-.65.83,0,0a3.58,3.58,0,0,1-2,1.36,3.4,3.4,0,0,1-1.23.08,1.93,1.93,0,0,1-1.05-.56,2,2,0,0,1-.51-1.07,3.16,3.16,0,0,1,.16-1.22,4.18,4.18,0,0,0-.36-2.67h0a1.21,1.21,0,0,0-.6-.52.68.68,0,0,0-.54.08.92.92,0,0,0-.3.35,2.78,2.78,0,0,0-.23.65c-.06.2-.1.41-.15.62a11.31,11.31,0,0,0-.25,2.53,11.86,11.86,0,0,0,1.17,4.93,3.6,3.6,0,0,0,1.46,1.78,3.38,3.38,0,0,0,2.26.48,5.19,5.19,0,0,0,3.66-2.27l0,0a9.68,9.68,0,0,0,1.95-3.78A7.37,7.37,0,0,0,359.42,49Z"/><path id="Path_4179" data-name="Path 4179" d="M175.83,50.52a24.36,24.36,0,0,0-5.08-2.34,18.94,18.94,0,0,0-5.43-1l-.51-9a33.45,33.45,0,0,0,4.08-2.39,22.28,22.28,0,0,0,1.9-1.46c.31-.26.61-.53.9-.8l.21-.21.11-.1a.58.58,0,0,0,.11-.18,2,2,0,0,0,.14-.64,2.25,2.25,0,0,0-.19-1.28.49.49,0,0,0-.37-.25,1.39,1.39,0,0,0-.35,0l-.59.13a15.45,15.45,0,0,0-2.3.75,38.65,38.65,0,0,0-4,1.94L164,29.63a56.67,56.67,0,0,0,10-4.67l0,0a1.42,1.42,0,0,0,.68-1,4.32,4.32,0,0,0-.14-2.08,2.08,2.08,0,0,0-.25-.52.88.88,0,0,0-.63-.42.87.87,0,0,0-.42.07l-.23.11-.43.22-.85.44-1.71.86c-2.16,1.08-4.35,2.11-6.55,3.09l-.06-.11a16.88,16.88,0,0,0,2.3-6.28,13.56,13.56,0,0,0-.67-6.62A21.06,21.06,0,0,0,167.79,11l.36-.27a1.25,1.25,0,0,0,.19-.15,1,1,0,0,0,.2-.25,3.09,3.09,0,0,0,.33-.94,5.4,5.4,0,0,0,.06-1.88,1.91,1.91,0,0,0-.41-1,.85.85,0,0,0-.59-.28.86.86,0,0,0-.28,0l-.23,0a13.66,13.66,0,0,0-1.77.39,24.94,24.94,0,0,0-3,1.08,2.54,2.54,0,0,0,0-.29,1.41,1.41,0,0,0-.31-.72c-.31-.3-.62-.6-.94-.88-.63-.57-1.29-1.12-2-1.65S158,3.19,157.31,2.71a7.08,7.08,0,0,0-1.14-.64,4.29,4.29,0,0,0-.63-.23.79.79,0,0,0-.82.11,1.22,1.22,0,0,0-.34.7,5,5,0,0,0,0,.67,8.18,8.18,0,0,0,.12,1.31c0,.21.09.43.15.64a1.81,1.81,0,0,0,.33.63,8.19,8.19,0,0,0,.89,1,10.32,10.32,0,0,0,4.06,2.24c-1.71.83-3.4,1.69-5.14,2.49a6.1,6.1,0,0,0-2.53,1.88,2.18,2.18,0,0,0-.33,1.59,5.23,5.23,0,0,0,.6,1.47,3.15,3.15,0,0,0,.45.69.72.72,0,0,0,.41.24,1,1,0,0,0,.43-.1c.5-.17,1-.35,1.47-.54,1-.38,1.91-.8,2.86-1.22l5.51-2.46a9.65,9.65,0,0,1,.53,4.09A12.34,12.34,0,0,1,163,21.4a19.28,19.28,0,0,1-5.37,6.69,50,50,0,0,0-4.91,1.57,13.55,13.55,0,0,0-2.33,1.21,9.25,9.25,0,0,0-1,.82,5.22,5.22,0,0,0-.48.46c-.07.09-.14.15-.23.26a1.19,1.19,0,0,0-.17.38,3.77,3.77,0,0,0-.07,1.38,1.28,1.28,0,0,0,.3.74.65.65,0,0,0,.5.18l.33-.05a17.14,17.14,0,0,0,2.55-.59,19.48,19.48,0,0,0,4.7-2.23l4.92-1.72.31,4.43C159.73,36,157.35,37,155,38l-3.65,1.45-1.84.72-.91.35a1,1,0,0,0-.31.15A.87.87,0,0,0,148,41a2,2,0,0,0-.19.6,4.05,4.05,0,0,0,0,1.1,1.89,1.89,0,0,0,.51,1.16l.27.12a.81.81,0,0,0,.31,0l.24-.06.48-.12,1-.25c1.27-.34,2.54-.69,3.81-1.06,2.07-.61,4.13-1.3,6.15-2.08-2.13,2.92-5,5.42-7,8.59a58.89,58.89,0,0,0-3.34,5.34c-.5.93-.95,1.88-1.36,2.86-.1.24-.19.5-.29.74a1.66,1.66,0,0,0-.11.49,3.17,3.17,0,0,0,0,.43,7.14,7.14,0,0,0,.16,1.66,1.92,1.92,0,0,0,.4.91.94.94,0,0,0,.34.25.82.82,0,0,0,.49,0,1.55,1.55,0,0,0,.5-.38c.33-.42.65-.84,1-1.27.6-.88,1.15-1.78,1.66-2.7l.09-.18v0c0,.22,0,.43,0,.64a1.77,1.77,0,0,0,.19.68l.36.5a20.09,20.09,0,0,0,1.6,1.84,10,10,0,0,0,4.06,2.67,3.9,3.9,0,0,0,2.46,0,3.62,3.62,0,0,0,1.87-1.6A12.16,12.16,0,0,0,165,57.2c.2-1.57.23-3.15.3-4.72,1.2.16,2.4.34,3.59.48s2.42.45,3.63.72l1.82.38.91.17a3.55,3.55,0,0,0,.47.06.51.51,0,0,0,.45-.2,2.9,2.9,0,0,0,.3-1.83A2.77,2.77,0,0,0,175.83,50.52Zm-19.91,1.27a34.68,34.68,0,0,1,3.58-5,41,41,0,0,0,2.9-3.9l.21,4.23a11,11,0,0,0-1.68.45l-.25.1a.94.94,0,0,0-.33.23,1.42,1.42,0,0,0-.33.6,3.78,3.78,0,0,0,.13,2.23,1.49,1.49,0,0,0,.37.55l.18.12.13,0,.25.09,1.68.6a8.76,8.76,0,0,1-.8,4.27,2.87,2.87,0,0,1-1.69,1.3,5.22,5.22,0,0,1-2.26.1,11.11,11.11,0,0,1-2.26-.61c-.37-.14-.73-.3-1.1-.46l-.53-.25a2.64,2.64,0,0,0-.29-.14.49.49,0,0,0-.34,0c.82-1.52,1.59-3.05,2.43-4.52Z"/><path id="Path_4180" data-name="Path 4180" d="M196.42,26.23a5.36,5.36,0,0,0-2.68.72,19.94,19.94,0,0,0-2.36,1.49c-.75.55-1.52,1-2.29,1.57l-2,1.36a17.62,17.62,0,0,0,.75-7.66,3.52,3.52,0,0,0-1-1.92,2.42,2.42,0,0,0-1-.52,2.11,2.11,0,0,0-1.14.1,7.4,7.4,0,0,0-1.81,1c-.54.39-1.09.74-1.65,1.12l-3.32,2.24-.84.56-.41.28-.1.07-.15.14a1,1,0,0,0-.21.31,3.58,3.58,0,0,0-.06,2.24,1.89,1.89,0,0,0,.28.57.91.91,0,0,0,.37.28,1.53,1.53,0,0,0,.3,0l.24-.08c.34-.2.58-.37.88-.55l1.69-1.06,3.37-2.15c.54-.32,1.15-.6,1.54-.32a1.35,1.35,0,0,1,.48.63,1.79,1.79,0,0,1,0,.83,15.64,15.64,0,0,1-.6,1.87c-.25.62-.42,1.29-.64,1.9-.86,2.5-2.13,4.86-3.2,7.32a21.57,21.57,0,0,0-1.32,3.82,5.91,5.91,0,0,0,0,1,2.57,2.57,0,0,0,.3,1,.57.57,0,0,0,.54.29,1.34,1.34,0,0,0,.5-.23,4.18,4.18,0,0,0,.81-.63,11,11,0,0,0,2.22-3.37c.55-1.2,1-2.45,1.44-3.69l2.78-1.81,1.41-.93c.39-.24.77-.51,1.17-.74a10.86,10.86,0,0,1,.52,4l0,2.24c0,.75,0,1.48,0,2.23a63.71,63.71,0,0,1-.82,8.83c-.49,2.92-1.23,5.8-2,8.67l-1.13,4.33-.13.54a2.27,2.27,0,0,0-.05.35c0,.11,0,.23,0,.33a6,6,0,0,0,.15,1.19,3.21,3.21,0,0,0,.48,1.22l.15.17a1.1,1.1,0,0,0,.26.15.87.87,0,0,0,.36,0,.79.79,0,0,0,.29-.11,1.49,1.49,0,0,0,.52-.59c2.81-5.42,3.95-11.42,4.46-17.37a73.74,73.74,0,0,0-.57-17.81,14.06,14.06,0,0,0,3.1-2.2,5.58,5.58,0,0,0,.64-.73,2.26,2.26,0,0,0,.24-.95,2.69,2.69,0,0,0-.06-1C197,26.63,196.8,26.26,196.42,26.23Z"/><path id="Path_4181" data-name="Path 4181" d="M216.06,12.18a2.71,2.71,0,0,0,1,1.07,15.31,15.31,0,0,0,2.51,1l1.21.54a2.85,2.85,0,0,0,1.37.29,1.49,1.49,0,0,0,.77-.24,1.45,1.45,0,0,0,.51-.68,2.85,2.85,0,0,0,.13-1.45,4.47,4.47,0,0,0-.43-1.34,3,3,0,0,0-.93-1A11.9,11.9,0,0,0,219.84,9a4.73,4.73,0,0,0-2.68-.79,2,2,0,0,0-.77.34,1.68,1.68,0,0,0-.53.68,2.9,2.9,0,0,0-.2,1.51A4,4,0,0,0,216.06,12.18Z"/><path id="Path_4182" data-name="Path 4182" d="M252.24,19.11l.34-.28.17-.14a1.45,1.45,0,0,0,.21-.22,2.44,2.44,0,0,0,.31-1,3.5,3.5,0,0,0,0-1A1.33,1.33,0,0,0,253,16a.8.8,0,0,0-.73-.29c-.29.05-.59.08-.87.15a15.32,15.32,0,0,0-3.3,1.13,46.25,46.25,0,0,0-5.08,2.9,12.8,12.8,0,0,1,2.49-3A21.73,21.73,0,0,1,249.7,14a9.06,9.06,0,0,1,4.7-1.4,2.43,2.43,0,0,1,1.89,1.3l.25.56.14.6a7.27,7.27,0,0,1,.16,1.23,14.24,14.24,0,0,1-.64,4.94,7.7,7.7,0,0,1-1,2.25c-.46.69-1,1.34-1.46,2.1a4.38,4.38,0,0,0-.55,2.6,4.53,4.53,0,0,0,.35,1.31,1.15,1.15,0,0,0,.55.62.61.61,0,0,0,.3,0,1.06,1.06,0,0,0,.19-.06l.33-.12a4.76,4.76,0,0,0,2-1.77,11.3,11.3,0,0,0,1.21-2.31,25.24,25.24,0,0,0,1.55-10.11,16.14,16.14,0,0,0-.94-5.1,6.27,6.27,0,0,0-1.43-2.3,2.65,2.65,0,0,0-.56-.44,3.28,3.28,0,0,0-.64-.34,3.55,3.55,0,0,0-.69-.19,3.25,3.25,0,0,0-.69-.08,7.44,7.44,0,0,0-2.65.39,14.08,14.08,0,0,0-2.41,1,25.57,25.57,0,0,0-4.31,2.82,15.12,15.12,0,0,0-3.52,3.79,15.79,15.79,0,0,0-1.69,3.6L239,15.06a7.87,7.87,0,0,0-1-2.46,2.71,2.71,0,0,0-1-.93,1.48,1.48,0,0,0-.31-.15,1.06,1.06,0,0,0-.35-.09.7.7,0,0,0-.69.32,2.46,2.46,0,0,0-.32,1.32,5.28,5.28,0,0,0,.13,1.32,2.87,2.87,0,0,0,.23.64,4.14,4.14,0,0,0,.44.5,5,5,0,0,1,.65,1.09,27.9,27.9,0,0,1,1.24,5c.29,1.23.56,2.47.87,3.7.16.61.32,1.23.5,1.83.1.3.18.61.3.91a1.42,1.42,0,0,0,.57.82.46.46,0,0,0,.52-.14,1.12,1.12,0,0,0,.3-.41,3.55,3.55,0,0,0,.34-.91,4.48,4.48,0,0,0,.16-1c0-.32,0-.64,0-1a9.66,9.66,0,0,1,.18-2.46,3,3,0,0,0,.23.52.78.78,0,0,0,.54.32,1.13,1.13,0,0,0,.32,0l.2-.08.8-.3c1.07-.41,2.14-.82,3.18-1.3a29.65,29.65,0,0,0,3.07-1.58c.5-.3,1-.61,1.46-1C251.79,19.47,252,19.28,252.24,19.11Z"/><path id="Path_4183" data-name="Path 4183" d="M249.45,26.44c-.09-.47-.21-.94-.34-1.4a2,2,0,0,0-.3-.67.71.71,0,0,0-.29-.25.4.4,0,0,0-.38.05,15.38,15.38,0,0,0-2,1.45c-.32.26-.63.54-.94.83a1.89,1.89,0,0,0-.41,1.21,5,5,0,0,0,.08,1.28,1.57,1.57,0,0,0,.25.63.45.45,0,0,0,.42.19l.2-.1.12-.1a15,15,0,0,1,1.66-1.11,26.29,26.29,0,0,1-2.09,7.38c-.7,1.76-1.5,3.49-2.27,5.23a.36.36,0,0,1,0-.11,5.86,5.86,0,0,0-.31-2.56,3.24,3.24,0,0,0-1.5-1.47,5.48,5.48,0,0,0-2.07-.47c-1.42-.07-2.83.13-4.23.12a25.35,25.35,0,0,1-4.16-.55c-1.32-.27-2.62-.59-3.93-.9A71.44,71.44,0,0,0,227.4,25c-.05-1.72-.16-3.44-.35-5.16,0-.43-.1-.85-.16-1.28l-.09-.65a5.63,5.63,0,0,0-.17-.68,5.3,5.3,0,0,0-.28-.65,1.41,1.41,0,0,0-.6-.63.78.78,0,0,0-.58,0,1.47,1.47,0,0,0-.39.21l-.51.37a32.13,32.13,0,0,1-4.42,2.5l-2.33,1.08-1.18.53a2.59,2.59,0,0,0-.33.17.82.82,0,0,0-.29.37,2.18,2.18,0,0,0-.18.71,3,3,0,0,0,.19,1.4.85.85,0,0,0,.67.57l.67,0a14,14,0,0,0,2.58-.39,28.2,28.2,0,0,0,4.66-1.61l.08,6a1.63,1.63,0,0,0-.17-.2.33.33,0,0,0-.36,0,.8.8,0,0,0-.2.21l-.25.39-1,1.57-2,3.14c-.66,1-1.31,2.1-2,3.12s-1.41,2-2.08,3.08c-.33.52-.65,1.06-.94,1.61-.15.28-.29.56-.42.85l-.19.43-.09.22a1.36,1.36,0,0,0-.06.29,6.56,6.56,0,0,0,.1,1.93,1.81,1.81,0,0,0,.2.52.61.61,0,0,0,.31.26.52.52,0,0,0,.44,0,.78.78,0,0,0,.15-.1L216,45l.18-.16c.13-.1.23-.22.35-.33,1.7-1.75,2.69-3.94,3.9-5.92l.09.06.4.24c.27.15.54.31.82.45.46.24.94.45,1.41.65a38.27,38.27,0,0,1-1,5.09,9.17,9.17,0,0,1-2.53,4.58,10.43,10.43,0,0,1-4.8,2.16l-.66.14L214,52l-.15.05a.94.94,0,0,0-.26.14,1.27,1.27,0,0,0-.35.38,3.12,3.12,0,0,0-.41,1.55,3.94,3.94,0,0,0,.22,1.56,1.39,1.39,0,0,0,.63.76l.14.07.09,0,.17,0,.35.09A7,7,0,0,0,220.1,56a10.13,10.13,0,0,0,3.56-4.47,27.38,27.38,0,0,0,1.7-5.36c.39-1.73.61-3.46.89-5.19a47.34,47.34,0,0,0,9.92,1.17l5.14.11H242a1.17,1.17,0,0,0,.66-.11l.08-.09c-.2.46-.39.91-.58,1.37-.52,1.29-1,2.55-1.61,3.8s-1.24,2.46-1.9,3.66c-1.36,2.4-2.82,4.73-4.28,7.08l0,.08,0,.06a3.74,3.74,0,0,0-.3,1.4,5.83,5.83,0,0,0,.14,1.5,2.23,2.23,0,0,0,.3.75.85.85,0,0,0,.4.35.78.78,0,0,0,.34,0,1.23,1.23,0,0,0,.26-.12c.4-.31.79-.6,1.15-.93a19.6,19.6,0,0,0,3.58-4.62,65.57,65.57,0,0,0,4.58-10.61c1.28-3.58,3-7,4-10.78a21.76,21.76,0,0,0,.91-5.72,14.05,14.05,0,0,0-.05-1.45A11.56,11.56,0,0,0,249.45,26.44Zm-25.51,6.12c0,.63.12,1.31.22,2.15L223,34.22a3.21,3.21,0,0,0,.22-.54,5,5,0,0,1,.37-1,5.63,5.63,0,0,1,.37-.62C223.93,32.23,223.93,32.39,223.94,32.56Z"/><path id="Path_4184" data-name="Path 4184" d="M272.54,40.46c-.11-.24-.32-.56-.66-.5l-6.55,1.45c-2.19.45-4.36,1.05-6.5,1.47a7.84,7.84,0,0,1-3.2,0,4.62,4.62,0,0,1-2.6-1.79,8.08,8.08,0,0,1-.81-1.43l-.17-.38c-.07-.13-.07-.29-.3-.43a.31.31,0,0,0-.34.12.67.67,0,0,0-.13.21,3.52,3.52,0,0,0-.15.42,3.58,3.58,0,0,0-.08.43,1.42,1.42,0,0,0,0,.46c0,.28.06.56.1.84a12.13,12.13,0,0,0,.36,1.67,6.4,6.4,0,0,0,1.73,3,5.51,5.51,0,0,0,3.24,1.38c2.38.23,4.59-.54,6.73-1.05s4.32-1.18,6.45-1.86l1.6-.5c.27-.08.53-.15.81-.25a1.09,1.09,0,0,0,.59-.73,4.23,4.23,0,0,0,.11-1.7A3.54,3.54,0,0,0,272.54,40.46Z"/><path id="Path_4185" data-name="Path 4185" d="M297.09,8.93c1-.51,2.47-1.31,2.92.05a3.51,3.51,0,0,1,.12,1.76,7.29,7.29,0,0,1-.46,1.78c-.22.57-.48,1.14-.75,1.7l-.21.41a1.16,1.16,0,0,0-.15.5,4,4,0,0,0,.06,1,1.28,1.28,0,0,0,.2.5.4.4,0,0,0,.36.17.58.58,0,0,0,.3-.18,7.36,7.36,0,0,0,.62-.74,12.74,12.74,0,0,0,1-1.6,13.86,13.86,0,0,0,1.31-3.58,6.92,6.92,0,0,0-.13-3.88,4.08,4.08,0,0,0-1.18-1.68,3.5,3.5,0,0,0-1.95-.76,5.63,5.63,0,0,0-2,.27,8.63,8.63,0,0,0-1.79.77,28.12,28.12,0,0,0-5.28,4c0-2,0-4,0-5.92A11.22,11.22,0,0,0,290,1.72a2.19,2.19,0,0,0-.85-1.54,1,1,0,0,0-.9-.13,1.09,1.09,0,0,0-.36.81,3.71,3.71,0,0,0,0,.88,1.06,1.06,0,0,0,.43.76c.2.16.22.54.26.82s0,.62,0,.93c0,.62,0,1.24-.08,1.86-.1,1.24-.24,2.48-.4,3.71L288,11.67a6.48,6.48,0,0,0-.08,1,6.25,6.25,0,0,0,.1,1,2.14,2.14,0,0,0,.4,1l.18.15a.89.89,0,0,0,.28.07.86.86,0,0,0,.27-.05l.17-.1c.17-.13.25-.21.38-.32l1.41-1.21c.94-.8,1.9-1.58,2.9-2.29A24.27,24.27,0,0,1,297.09,8.93Z"/><path id="Path_4186" data-name="Path 4186" d="M289.8,63.79c.25-3.63.39-7.31.44-11s.12-7.32,0-11-.32-7.33-.53-11c-.13-1.82-.24-3.65-.4-5.48a2.52,2.52,0,0,0-.16-.71.67.67,0,0,0-.63-.53.92.92,0,0,0-.65.48,2.41,2.41,0,0,0-.29.68,6.71,6.71,0,0,0-.11,1.41l0,1.37c-.18,7.33,0,14.66.06,22q0,5.48,0,11v2.75a5.84,5.84,0,0,0,.49,2.79,2.85,2.85,0,0,0,.43.6,2.16,2.16,0,0,0,.27.25.51.51,0,0,0,.45.17,1.16,1.16,0,0,0,.63-.48,2.06,2.06,0,0,0,.41-.6,2.71,2.71,0,0,0,.13-1.41A2.94,2.94,0,0,0,289.8,63.79Z"/><path id="Path_4187" data-name="Path 4187" d="M336.57,28.35a1.32,1.32,0,0,0-.3-.44.53.53,0,0,0-.52-.15c-4.4,1.2-8.73,2.69-13,4.21-2.15.74-4.3,1.53-6.47,2.23l-6.22,2,0-8.23a36.28,36.28,0,0,0-.14-4.3,10.37,10.37,0,0,0-1.24-4.2,4.83,4.83,0,0,0-3.71-2.4,8.06,8.06,0,0,0-4.35.75,24.76,24.76,0,0,0-6.95,5.1l-.76.77-.37.39a1,1,0,0,0-.21.32,1.39,1.39,0,0,0-.1.33,4.16,4.16,0,0,0-.05,1.17,2.8,2.8,0,0,0,.32,1.17.48.48,0,0,0,.12.16.58.58,0,0,0,.19.16.65.65,0,0,0,.56,0,1.34,1.34,0,0,0,.28-.18l.22-.15.87-.62c.58-.41,1.16-.82,1.75-1.21a25.39,25.39,0,0,1,3.65-2.1,8.32,8.32,0,0,1,4-.89,4.59,4.59,0,0,1,1,.19,2.29,2.29,0,0,1,.82.5,4.52,4.52,0,0,1,1,1.72,15.27,15.27,0,0,1,.63,4.14,78.47,78.47,0,0,1-.39,8.4,72,72,0,0,0-8.27,3.31,26.65,26.65,0,0,0,.82-6.42,11.17,11.17,0,0,0,2-1.38,6.32,6.32,0,0,0,.86-.93,2.45,2.45,0,0,0,.38-1.26,2.8,2.8,0,0,0-.17-1.31.73.73,0,0,0-.63-.46,2.81,2.81,0,0,0-.65.05,7.53,7.53,0,0,0-2.1.8L299,27.71a10.3,10.3,0,0,0-.25-1.1,1.42,1.42,0,0,0-.33-.57.8.8,0,0,0-.25-.11.58.58,0,0,0-.26.06.87.87,0,0,0-.27.27,3.44,3.44,0,0,0-.4,1.11,3.6,3.6,0,0,0-.08,1.18l.33,2c-1.05.46-2.14.85-3.23,1.28-.57.23-1.14.47-1.7.74a2.64,2.64,0,0,0-.44.23,1.15,1.15,0,0,0-.37.5,3.1,3.1,0,0,0-.18,1,3,3,0,0,0,.11,1,1.64,1.64,0,0,0,.22.51.8.8,0,0,0,.55.38,8.3,8.3,0,0,0,1.93-.08,15.8,15.8,0,0,0,3.1-.77,20.77,20.77,0,0,1-1.22,5.09c-.17.45-.36.9-.56,1.33l-.31.66c-.06.12-.11.25-.16.37a2.13,2.13,0,0,0-.1.42,6.26,6.26,0,0,0-.08,1.56,4.29,4.29,0,0,0,.12.8,1.78,1.78,0,0,0,.45.83.9.9,0,0,0,.55.25,1.76,1.76,0,0,0,.46,0l.74-.1c.49-.07,1-.16,1.47-.26,1-.2,1.93-.43,2.88-.7,1.69-.49,3.35-1.07,5-1.69-.16,4.74-.37,9.48-.45,14.22,0,2.48-.06,5,0,7.44l0,1.86a5,5,0,0,0,.32,2,1.39,1.39,0,0,0,1,.87,1.27,1.27,0,0,0,1.21-.58,3.19,3.19,0,0,0,.51-2.06v0q.41-6.34.59-12.71c.13-4.18.21-8.36.2-12.53,2.54-1,5-2.06,7.62-3l7.84-3c2.62-1,5.24-2,7.88-2.88l2-.68a1.94,1.94,0,0,0,.95-.47,2.18,2.18,0,0,0,.46-1,5.7,5.7,0,0,0,.06-2.1A3.72,3.72,0,0,0,336.57,28.35Z"/><path id="Path_4188" data-name="Path 4188" d="M77.3,24.59c.16.3.31.6.48.9a1.12,1.12,0,0,0,.36.39.53.53,0,0,0,.53,0c2.34-1.2,4.65-2.46,7-3.61a57.53,57.53,0,0,1,7.27-3,25.75,25.75,0,0,1,3.77-1A36,36,0,0,1,100.6,18a29.71,29.71,0,0,1,3.89.16,8.52,8.52,0,0,1,3.58,1,1.33,1.33,0,0,1,.64,1.33,2.56,2.56,0,0,1-.29.8l-.12.23a2.81,2.81,0,0,0-.1.31,3.08,3.08,0,0,0-.08.53,3,3,0,0,0,.06,1.11.71.71,0,0,0,.8.62l.13,0,.26-.07a3.4,3.4,0,0,0,1.81-1.13,4.85,4.85,0,0,0,.7-4,6.59,6.59,0,0,0-.69-1.92,6.25,6.25,0,0,0-1.28-1.57,11.83,11.83,0,0,0-7.34-2.77,22.92,22.92,0,0,0-7.49,1.08,4.78,4.78,0,0,0,.25-1.54c0-.57,0-1.14-.08-1.71a9.41,9.41,0,0,0,2.16-1.32,6.16,6.16,0,0,0,1-1,4.39,4.39,0,0,0,.4-.56c.06-.1.11-.2.16-.3a1.32,1.32,0,0,0,.13-.38,2.88,2.88,0,0,0,0-.72,1.23,1.23,0,0,0-.29-.76.66.66,0,0,0-.46-.21H98a3.24,3.24,0,0,0-.7.16,9.2,9.2,0,0,0-1.84,1l.2-2.69,0-.42a2,2,0,0,0,0-.49,3.86,3.86,0,0,0-.23-.87,2.71,2.71,0,0,0-.46-.83,1.21,1.21,0,0,0-.24-.21.64.64,0,0,0-.45-.09.73.73,0,0,0-.39.22,1.78,1.78,0,0,0-.17.27A8.87,8.87,0,0,0,93.28,3c-.09.54-.18,1.09-.25,1.64-.14,1-.24,2-.31,3a18.13,18.13,0,0,1-3.34.83c-.61.09-1.22.16-1.84.19h-.23a1.45,1.45,0,0,0-.41.1,1.18,1.18,0,0,0-.5.58,2.77,2.77,0,0,0-.22,1.1,3.86,3.86,0,0,0,.12,1.07,1.87,1.87,0,0,0,.27.57,1,1,0,0,0,.78.42c.66,0,1.29-.09,1.93-.17a23.21,23.21,0,0,0,3.2-.63,7.68,7.68,0,0,0,.09,1.17A3.88,3.88,0,0,0,93,14.1c-1.1.41-2.2.82-3.29,1.26-1.26.54-2.49,1.13-3.71,1.75S83.56,18.36,82.36,19c-.61.35-1.15.76-1.72,1.09a2.55,2.55,0,0,1-1.74.44,2.16,2.16,0,0,1-1.34-1.17,11.36,11.36,0,0,1-.77-1.84,5,5,0,0,0-.43-1c-.07-.08-.1-.16-.24-.22a.35.35,0,0,0-.38,0,1.22,1.22,0,0,0-.36.48A5.14,5.14,0,0,0,75,18.89a3.94,3.94,0,0,0,.29,1l.35,1q.38,1,.78,1.89C76.7,23.36,77,24,77.3,24.59Z"/><path id="Path_4189" data-name="Path 4189" d="M97.76,53.63c-.25-4.75-.51-9.49-.88-14.23l.76-.18A9.08,9.08,0,0,0,102,36.6c.3-.27.66-.64,1-.54a1.72,1.72,0,0,1,.59,1,7,7,0,0,0,.8,2.48.72.72,0,0,0,.71.28,1.2,1.2,0,0,0,.6-.44,3.13,3.13,0,0,0,.54-1.24,5.58,5.58,0,0,0-.18-2.63,7.08,7.08,0,0,0-1-2.46,3.25,3.25,0,0,0-2.33-1.44h-.09a.8.8,0,0,0-.52.27,2.71,2.71,0,0,0-.24.35,5.12,5.12,0,0,1-.39.56,5.87,5.87,0,0,1-1,1A7,7,0,0,1,98.1,35a7.9,7.9,0,0,1-2.73.36A12.67,12.67,0,0,1,94,35.23a4,4,0,0,1-1.23-.37c-.06,0-.2-.3-.19-.32a1.58,1.58,0,0,1,.29-.34c.19-.22.31-.43.45-.6s.29-.37.44-.54a22.42,22.42,0,0,1,2.08-1.94l1.1-.95.28-.24a1.85,1.85,0,0,0,.14-.14.64.64,0,0,0,.14-.22,2.91,2.91,0,0,0,.2-.77,3.64,3.64,0,0,0-.07-1.54.85.85,0,0,0-.26-.41.61.61,0,0,0-.27-.12,1.15,1.15,0,0,0-.26,0,5.12,5.12,0,0,1-.68.14,11.75,11.75,0,0,1-2.84.08,4.9,4.9,0,0,1-2.62-.86A1.21,1.21,0,0,1,90.28,25a3.25,3.25,0,0,1,.6-1.24,2.42,2.42,0,0,0,.18-1.5,2,2,0,0,0-.22-.75.42.42,0,0,0-.43-.23.68.68,0,0,0-.37.25,8.39,8.39,0,0,0-1.64,2.43A5.13,5.13,0,0,0,88,26.83a4.41,4.41,0,0,0,1.46,2.58,5,5,0,0,0,2.29,1A9.85,9.85,0,0,0,90,32.85a4.58,4.58,0,0,0-.35,3.53,5.06,5.06,0,0,0,.9,1.58,4.51,4.51,0,0,0,1.4,1.17,6.71,6.71,0,0,0,3,.76c-.1,1.4-.16,2.79-.2,4.19a1.67,1.67,0,0,0-.08-.2.54.54,0,0,0-.36-.33c-.19,0-.33.09-.45.19-2.07,2.22-4.24,4.34-6.31,6.58a60.07,60.07,0,0,0-5.65,7.16c-.84,1.27-1.66,2.55-2.41,3.88s-1.5,2.64-2.23,4l-.52,1a4.45,4.45,0,0,0-.25.54,3.76,3.76,0,0,0-.1.6,7.54,7.54,0,0,0,.19,2.32,2.31,2.31,0,0,0,.25.58.72.72,0,0,0,.67.38.93.93,0,0,0,.36-.14l.26-.22.4-.4.8-.82a1.09,1.09,0,0,0,.23-.25,1.21,1.21,0,0,0,.15-.33,3,3,0,0,0,.12-.52c1.4-2,2.68-4.18,4-6.26s2.73-4.14,4.2-6.15l4.39-6c.74-1,1.49-2,2.25-3,0,0,0,0,0-.06,0,1.29,0,2.57,0,3.86.06,3.65.26,7.3.51,10.94a3.61,3.61,0,0,0,.25,1.92,2.89,2.89,0,0,0,.59.88,1.32,1.32,0,0,0,.51.33.94.94,0,0,0,.36.08.72.72,0,0,0,.38-.07,1.39,1.39,0,0,0,.74-1,2.19,2.19,0,0,0,.09-.5,2.63,2.63,0,0,0,0-.49c0-.65,0-1.21-.06-1.81Q98,57.19,97.76,53.63Z"/><path id="Path_4190" data-name="Path 4190" d="M118.15,54.64c-.16-.21-.33-.42-.51-.62-.69-.81-1.43-1.58-2.2-2.32a37.52,37.52,0,0,0-4.93-4.05,14.61,14.61,0,0,0-5.9-2.55,4.26,4.26,0,0,0-3.16.67,4.83,4.83,0,0,0-1.62,2.7,3.75,3.75,0,0,0,0,1.6,1,1,0,0,0,.17.38.48.48,0,0,0,.41.19l.79-.08a6.14,6.14,0,0,1,3,.14,30.56,30.56,0,0,1,5.45,3,54.13,54.13,0,0,1,5.12,3.66c.83.65,1.65,1.31,2.5,2a2.25,2.25,0,0,0,.36.24.53.53,0,0,0,.53-.06,1.41,1.41,0,0,0,.41-.79,6.81,6.81,0,0,0,.17-1.62,5.69,5.69,0,0,0-.19-1.65A2.67,2.67,0,0,0,118.15,54.64Z"/><path id="Path_4191" data-name="Path 4191" d="M156,24c.53.5,1.15.85,1.65,1.32a1.48,1.48,0,0,0,.45.3,1.07,1.07,0,0,0,.56,0,.68.68,0,0,0,.29-.11,1,1,0,0,0,.23-.23,2.61,2.61,0,0,0,.26-.53,2.94,2.94,0,0,0-.06-2.22A5.18,5.18,0,0,0,157.86,21a10.07,10.07,0,0,1-1.3-1.61,1.82,1.82,0,0,0-.38-.45.72.72,0,0,0-.84,0,1.85,1.85,0,0,0-.69,1.08,3.89,3.89,0,0,0,0,2.29,4.24,4.24,0,0,0,.57,1A5,5,0,0,0,156,24Z"/><path id="Path_4192" data-name="Path 4192" d="M26.63,34.54l0,0,0,0a28.61,28.61,0,0,0,3.72-4.5c1.1-1.59,2.31-3.06,3.53-4.57l1-1.27c0,.05,0,.09-.05.13a3.48,3.48,0,0,0-.19.95,2.81,2.81,0,0,0,.09,1,1.13,1.13,0,0,0,.76.85,13.88,13.88,0,0,0,3.8.4,32.12,32.12,0,0,0,3.79-.45c1.25-.2,2.49-.4,3.75-.71a1.34,1.34,0,0,0,.76-.85,2.94,2.94,0,0,0,.2-1,3.43,3.43,0,0,0-.14-1.06,1.34,1.34,0,0,0-.89-.93A19,19,0,0,0,43,22.14a17.46,17.46,0,0,0-3.8.45c-1.24.29-2.45.69-3.66,1a.81.81,0,0,0-.18.1c.73-1,1.44-1.93,2.12-2.95a5,5,0,0,0,.26-1.48,9.15,9.15,0,0,0,0-1.48,4.12,4.12,0,0,0-.36-1.47A.88.88,0,0,0,37,16a.64.64,0,0,0-.5-.1,2.17,2.17,0,0,0-.71.4,22.72,22.72,0,0,0-4.29,4c-1.26,1.49-2.5,3-3.66,4.55A26.17,26.17,0,0,0,24.91,30a2.45,2.45,0,0,0-.22.79,5,5,0,0,0,0,.77A9.38,9.38,0,0,0,24.89,33a5.08,5.08,0,0,0,.54,1.4,1,1,0,0,0,.62.5A.62.62,0,0,0,26.63,34.54Z"/><path id="Path_4193" data-name="Path 4193" d="M48.22,36.41a2.54,2.54,0,0,0,.41-1.33,2.7,2.7,0,0,0-.18-1.38.48.48,0,0,0-.29-.25.93.93,0,0,0-.37,0l-.67.15L45.78,34c-1.72.44-3.42.94-5.11,1.48L40.45,33a6.56,6.56,0,0,0-.19-1.34,1.43,1.43,0,0,0-.43-.65.72.72,0,0,0-.89,0,1.8,1.8,0,0,0-.54,1.39l0,1.31-.07,2.39L32.36,38.2,29.3,39.31l-1.54.53L27,40.1a1.86,1.86,0,0,0-.47.23,1.48,1.48,0,0,0-.35.4,3.68,3.68,0,0,0-.49,1.72,5.3,5.3,0,0,0,.16,1.73,2.26,2.26,0,0,0,.42.85,1.89,1.89,0,0,0,.2.2l.28.13a1.23,1.23,0,0,0,.54,0c.54-.09,1.08-.19,1.61-.31a52.47,52.47,0,0,0,5.79-1.53c-1.32,1.85-2.66,3.68-4,5.54l-2.09,3c-.34.51-.68,1-1,1.55-.16.27-.32.53-.46.8a3.42,3.42,0,0,0-.21.43.94.94,0,0,0-.11.37.46.46,0,0,0-.27.15.84.84,0,0,0-.16.38,2.24,2.24,0,0,0,0,.73,3.4,3.4,0,0,0,.17.7,2.12,2.12,0,0,0,.37.61.63.63,0,0,0,.45.27h.06a3.9,3.9,0,0,0,1.93-1.54,19,19,0,0,0,1.33-2l1.18-2.08c.38-.67.85-1.33,1.27-2l2.61-4,1.3-2,.65-1,.33-.5.16-.25a.42.42,0,0,1,0-.1,73.56,73.56,0,0,1-.53,11A13.49,13.49,0,0,1,37,56.31c-.35.84-.92,1.58-1.63,1.46a.71.71,0,0,1-.28-.06,1,1,0,0,1-.28-.1l-.33-.17a.73.73,0,0,0-.84.15,1.64,1.64,0,0,0-.36.95,4.38,4.38,0,0,0,0,.81,3.87,3.87,0,0,0,.12.82,2.09,2.09,0,0,0,.08.23,1.27,1.27,0,0,0,.18.27l.27.27a4.69,4.69,0,0,0,1.28,1,2.28,2.28,0,0,0,.81.27,2.22,2.22,0,0,0,.89,0,3,3,0,0,0,1.46-.86,6.93,6.93,0,0,0,1.54-2.68,12.52,12.52,0,0,0,.64-3c.1-1,.19-1.95.27-2.93A106.23,106.23,0,0,0,41,41.06,34.1,34.1,0,0,0,48.22,36.41Z"/><path id="Path_4194" data-name="Path 4194" d="M26.94,57.82h0Z"/><path id="Path_4195" data-name="Path 4195" d="M62.86,63.62a2.11,2.11,0,0,0-.16-.3l-.27-.39-.55-.78c-.36-.52-.73-1-1.11-1.54-.77-1-1.53-2-2.36-3-1.62-1.94-3.35-3.8-5.1-5.62S50,48.16,48.12,46.44a10.39,10.39,0,0,0-3.28-2.1l-.48-.14-.26-.07a.85.85,0,0,0-.42,0,.9.9,0,0,0-.54.57,2.66,2.66,0,0,0-.12.56,6.76,6.76,0,0,0,.18,2,4.13,4.13,0,0,0,.15.5,2.09,2.09,0,0,0,.3.47c.19.26.39.51.6.76.41.5.85,1,1.3,1.41.9.9,1.86,1.73,2.81,2.57a47.26,47.26,0,0,1,5.46,5.22c1.68,1.89,3.35,3.78,5,5.7.81,1,1.6,2,2.36,3a1.59,1.59,0,0,0,.47.46,1,1,0,0,0,.27.09.83.83,0,0,0,.35,0,.86.86,0,0,0,.36-.32A2.62,2.62,0,0,0,63,66a5.76,5.76,0,0,0,0-2.07Z"/><path id="Path_4196" data-name="Path 4196" d="M25.22,20.42a2.89,2.89,0,0,0,.4,1.2.46.46,0,0,0,.63.09h0a1.46,1.46,0,0,0,.42-.5A3.26,3.26,0,0,0,27,20a7.58,7.58,0,0,0,0-1.26,6.26,6.26,0,0,1,2.14-4.26,15.53,15.53,0,0,1,4.05-2.76,17.64,17.64,0,0,1,4.62-1.57,10.21,10.21,0,0,1,4.79.25,6.76,6.76,0,0,1,3.68,3,11.32,11.32,0,0,1,1.32,4.72c.09.83.12,1.67.19,2.5,0,.42.06.83.12,1.26A1.53,1.53,0,0,0,48.65,23a.51.51,0,0,0,.42,0,.64.64,0,0,0,.31-.25,1.9,1.9,0,0,0,.27-.64l.24-1.25a17.62,17.62,0,0,0,.24-2.52,18.74,18.74,0,0,0-.49-5.06,13.59,13.59,0,0,0-2.1-4.67,9.55,9.55,0,0,0-4-3.27,10.84,10.84,0,0,0-1.25-.43L41,4.69a17.35,17.35,0,0,0-2.6,0,16.42,16.42,0,0,0-5,1.33,14.49,14.49,0,0,0-7,6.68c0-.06-.1-.12-.15-.18a.65.65,0,0,0-.36-.18.49.49,0,0,0-.4.21,2.72,2.72,0,0,0-.29,1.15c-.09.74-.13,1.49-.16,2.23s0,1.49,0,2.23S25.16,19.68,25.22,20.42Z"/><path id="Path_4197" data-name="Path 4197" d="M24,38.1a.66.66,0,0,0-.62-.32,40.93,40.93,0,0,0-4.93.84c-1.57.38-3.12.81-4.65,1.31l-.41-4.39A31.64,31.64,0,0,0,18,33.45,20.43,20.43,0,0,0,20.25,32a1.61,1.61,0,0,0,.28-.24,1.29,1.29,0,0,0,.25-.36,4,4,0,0,0,.24-.69,6.35,6.35,0,0,0,.18-1.37,4.75,4.75,0,0,0-.12-1.41,1.74,1.74,0,0,0-.36-.75,1.54,1.54,0,0,0-.19-.17,1,1,0,0,0-.77-.14,20.37,20.37,0,0,0-2.56.76c-1.53.55-3,1.21-4.49,1.8l-.45-2.6L12,25.28a2.35,2.35,0,0,0-.31-.81.8.8,0,0,0-.44-.35.68.68,0,0,0-.6.12,2,2,0,0,0-.51,1.65l.14,1.54.27,2.93q-2.88.93-5.82,1.7l-1.5.37-.75.18a3.11,3.11,0,0,0-.79.23,2.17,2.17,0,0,0-.81,1.4,6,6,0,0,0-.12,1.58A5.19,5.19,0,0,0,1,37.39a1.82,1.82,0,0,0,.43.72.79.79,0,0,0,.4.24,1,1,0,0,0,.45,0c1-.17,2-.36,3.06-.56,1.93-.39,3.84-.86,5.73-1.43l.46,4.2A35.94,35.94,0,0,0,6.41,43a17.9,17.9,0,0,0-4.66,3.82,8,8,0,0,0-1.7,5.85,8.25,8.25,0,0,0,2.83,5.4c.39.35.82.62,1.23.93a12.94,12.94,0,0,0,1.38.72,6,6,0,0,0,3.13.43,5.43,5.43,0,0,0,2.84-1.36,8,8,0,0,0,1.88-2.46A13.78,13.78,0,0,0,14.8,50.5a33.7,33.7,0,0,0-.35-5.76c2.8-.89,5.59-1.81,8.4-2.67l.32,0a.81.81,0,0,0,.38,0,.92.92,0,0,0,.46-.58,5,5,0,0,0,.26-1.37,6.54,6.54,0,0,0-.06-1.4A1.72,1.72,0,0,0,24,38.1ZM11.46,52.57A4.7,4.7,0,0,1,9.6,55.39a4.47,4.47,0,0,1-3.55,0,8.1,8.1,0,0,1-1.86-1,3.88,3.88,0,0,1-.76-.7.91.91,0,0,1-.19-.38,2.56,2.56,0,0,1,0-.47,4.77,4.77,0,0,1,.56-1.88,7.33,7.33,0,0,1,1.13-1.67A10.93,10.93,0,0,1,8.44,47c1.19-.52,2.41-.94,3.63-1.35a25.61,25.61,0,0,1-.61,6.93Z"/></g></g></g></svg>