<svg xmlns="http://www.w3.org/2000/svg" viewBox="0 0 25.02 25"><defs><style>.cls-1{fill:#043f98;}</style></defs><g id="圖層_2" data-name="圖層 2"><g id="圖層_1-2" data-name="圖層 1"><path id="Path_110" data-name="Path 110" class="cls-1" d="M14.53,17.86l2.68-2.46a.81.81,0,0,1,.67-.22l.44.22,6.25,2.9c.45.22.45.45.45.89-.23,1.79-.67,3.13-1.79,4A6.37,6.37,0,0,1,18.54,25a13.64,13.64,0,0,1-6.25-1.56A29.32,29.32,0,0,1,6,19,37.23,37.23,0,0,1,2.7,14.06,30.61,30.61,0,0,1,.46,9.15,13.76,13.76,0,0,1,0,4.91,5.83,5.83,0,0,1,1.58,1.56C2.47.67,3.81.22,5.82,0a1.15,1.15,0,0,1,.9.45L10.06,6.7a.78.78,0,0,0,.23.45.84.84,0,0,1-.23.67l-2.9,2.67a1,1,0,0,0,0,1.12,21.76,21.76,0,0,0,2.68,3.57,22.53,22.53,0,0,0,3.57,2.9C13.86,18.3,14.3,18.3,14.53,17.86Z"/></g></g></svg>