<svg xmlns="http://www.w3.org/2000/svg" viewBox="0 0 20.18 25.01"><defs><style>.cls-1{fill:#fff;}</style></defs><g id="圖層_2" data-name="圖層 2"><g id="圖層_1-2" data-name="圖層 1"><g id="组_260" data-name="组 260"><g id="路径_99" data-name="路径 99"><path id="Path_984" data-name="Path 984" class="cls-1" d="M20.14,23.49l-3.56-5.7a9.86,9.86,0,0,0,3.33-5.43A10,10,0,0,0,12.48.3l-.12,0A10,10,0,0,0,.3,7.7h0l0,.12A10,10,0,0,0,7.7,19.88l.12,0a9.9,9.9,0,0,0,6.35-.6L17.73,25ZM3.07,8.48a7.13,7.13,0,0,1,8.5-5.43l.14,0a7.36,7.36,0,0,1,4.1,2.61,7,7,0,0,1,1.29,6,7.12,7.12,0,0,1-8.49,5.43h0l-.13,0A7.13,7.13,0,0,1,3,8.61H3A.31.31,0,0,0,3.07,8.48Z"/></g><g id="路径_279" data-name="路径 279"><path id="Path_985" data-name="Path 985" class="cls-1" d="M13.71,8.15a.77.77,0,0,1-.7-.44C11.58,4.57,8,5.93,7.89,6a.76.76,0,0,1-1-.43.77.77,0,0,1,.43-1c1.74-.69,5.45-1.05,7.07,2.5a.76.76,0,0,1-.38,1,.67.67,0,0,1-.31.07Z"/></g><g id="椭圆_4" data-name="椭圆 4"><circle id="Ellipse_53" data-name="Ellipse 53" class="cls-1" cx="15.16" cy="9.41" r="0.76"/></g></g></g></g></svg>