<svg xmlns="http://www.w3.org/2000/svg" viewBox="0 0 462.09 204.89"><defs><style>.cls-1{fill:#043f98;}</style></defs><g id="圖層_2" data-name="圖層 2"><g id="圖層_1-2" data-name="圖層 1"><path class="cls-1" d="M323.49,8.81h0A109.19,109.19,0,0,1,340.44,5c1.62-.22,1.31-5.24-.12-5a109.16,109.16,0,0,0-16.95,3.76C321.72,4.28,322.28,9.18,323.49,8.81Z"/><path class="cls-1" d="M22.7,59.72c-.34-.19-.63,0-.84.27a27.73,27.73,0,0,1-7.44,6.85q-.11-13.89.45-27.75c0-.71.1-2.8-.84-3.08s-1.28,1.09-1.31,1.79h0q-.65,15-.49,30.07a12.64,12.64,0,0,1-2.82.69c-2.24.28-6.73.4-7.18-2.51-.33-2.09.28-4.24-.18-6.4-.2-.93-.76-1.45-1.53-.87S0,61.45.21,62.24h0c.6,2.83-.86,5.62.68,8.41,1.36,2.48,4.31,3,6.93,3.06a13.55,13.55,0,0,0,5-.94.69.69,0,0,0,.62.34c.45,0,.71-.48.85-1a27.68,27.68,0,0,0,8.38-7.26c1.39,1,2.31,2.45,3.51,3.63,1.49,1.45,2-3.37,1-4.38C25.64,62.63,24.57,60.78,22.7,59.72Z"/><path class="cls-1" d="M32.75,53.05a1.33,1.33,0,0,0,0-.19.65.65,0,0,0,.23-.06h0l12.63-5.74c1.34-.61.85-5.55-.7-4.84L32.23,48a1.19,1.19,0,0,0-.56.71c-.55-2.47-1-5-1.34-7.47a14.87,14.87,0,0,0,10.46-3.05c1.24-1,.46-5.74-.7-4.85a13.79,13.79,0,0,1-10.21,2.84H29.8c-.12-1.51-.2-3-.24-4.54a37,37,0,0,1,12.37-7.92c1.34-.53.93-5.48-.7-4.84a36.9,36.9,0,0,0-11.65,7.26c.06-1.82.15-3.65.32-5.47.21-2.22-1.83-4.7-2.15-1.29h0a101,101,0,0,0,3.17,36.29c.24.9.72,1.47,1.52.87S33,53.81,32.75,53.05Z"/><path class="cls-1" d="M82,47.17l-.09.17a4.5,4.5,0,0,0-.31,3.45c.17.49,1,2,1.53.87A57.82,57.82,0,0,0,85.81,46c2.43-.7,4.86-1.39,7.3-2,1.65-.45,1.14-5.38-.12-5-1.74.47-3.47,1-5.2,1.45a56,56,0,0,0,2.27-16C90,21,90,16.67,87.47,14a9.07,9.07,0,0,0-9.62-1.8c-1.35.57-.89,5.52.7,4.84h0a8.15,8.15,0,0,1,7.3.86C88.64,19.86,88,25,87.76,28a48.91,48.91,0,0,1-3.07,13.31q-7.27,2.12-14.47,4.47a48.06,48.06,0,0,0,1.87-4.88c.78-2.45,2-6,.5-8.49s-6.24.21-8.35.9c-1.51.5-3.79,1.78-5.35,1.75-2.2,0-1.16-3.64-1.09-5.37.06-1.36.15-2.72.23-4.08l5.9-1c1.62-.27,1.27-5.27-.13-5l-5.43.91c.11-1.45.21-2.91.34-4.36.06-.7.08-2.81-.84-3.08s-1.25,1.09-1.31,1.79h0q-.25,3-.47,6l-4.52.75c-1.62.27-1.27,5.27.13,5L55.77,26c0,.43-.05.86-.07,1.28-.15,3.17-.81,6.93,0,10,.75,2.91,2.45,3.08,5.06,2.24,2.07-.67,4.14-1.38,6.22-2.07.86-.28,1.72-.59,2.59-.86,1.22-.38.9-.63,1.11,0,.39,1.15-1.7,4.83-2.22,6-.72,1.57-1.53,3.1-2.38,4.61Q49.22,52.88,32.86,60c-1.35.58-.88,5.53.7,4.84h0q14.14-6.14,28.7-11.25c-1,1.65-2.08,3.28-3.14,4.91Q52.37,68.76,44.69,78.39c-.89,1.11,0,5.91,1.21,4.32q7.83-9.85,14.73-20.38c2.22-3.39,4.49-6.85,6.51-10.43Q74.52,49.4,82,47.17Z"/><polygon class="cls-1" points="51.69 26.66 51.69 26.66 51.69 26.66 51.69 26.66"/><path class="cls-1" d="M76.07,57.64c-1.44-.73-1.85,4.17-.46,4.87h0A43.91,43.91,0,0,1,88,71.74c1.4,1.49,2-3.32,1-4.37A45.86,45.86,0,0,0,76.07,57.64Z"/><path class="cls-1" d="M104.88,52.07h0a66.58,66.58,0,0,0,13.91-8.77,44.41,44.41,0,0,0-.42,22.61c.21.92.75,1.46,1.53.87s.49-2.68.3-3.46a35.52,35.52,0,0,1,3.35-24.52c.35-.67,0-5.29-1.18-4.18a66.38,66.38,0,0,1-18.19,12.61C102.84,47.86,103.35,52.8,104.88,52.07Z"/><path class="cls-1" d="M140.13,19.39c5.3,1.61,11.51-4.35,16-6.54,2.27-1.13,5.64-2.62,8.21-1.5,1.89.82,1.45,2.41,1,4.1a39.46,39.46,0,0,1-5.39,11.44c-.77,1.18.15,6,1.22,4.32,3.68-5.59,9.45-15.78,5.82-22.57-2.26-4.23-7.78-2.45-11.19-.83-2.8,1.33-5.35,3.09-8,4.6a15,15,0,0,1-5.18,2.16c-.78.1-4.46-.41-2.74-1,1.35-.49,1-5.45-.7-4.84h0C134.66,10.29,136.07,18.15,140.13,19.39Z"/><path class="cls-1" d="M151.59,23.85c-.08-.69-.46-2.08-1.4-1.72s-.77,2.46-.69,3.11h0a143,143,0,0,1,.87,23.22l-.47,0c-1.44-.12-1.51,4.91.12,5h.05c-.2,2.51-.45,5-.78,7.53-.28,2.24,1.72,4.68,2.16,1.29.37-2.88.65-5.76.86-8.65l28.34,2.18c1.44.11,1.51-4.92-.13-5L152.6,48.63A154.39,154.39,0,0,0,151.59,23.85Z"/><path class="cls-1" d="M134.21,64.28a51.79,51.79,0,0,0,8.82-14,4.5,4.5,0,0,0-.09-3.56c-.5-.8-1.13-1-1.56,0h0A48.9,48.9,0,0,1,133,60C132.05,61,132.83,65.83,134.21,64.28Z"/><path class="cls-1" d="M214.5,56.35c.6-.87.28-2.66-.09-3.56A46.34,46.34,0,0,1,211,31c.06-.7.08-2.81-.84-3.08s-1.25,1.09-1.31,1.79h0a56.67,56.67,0,0,0,4.11,26.69C213.39,57.45,214,57,214.5,56.35Z"/><path class="cls-1" d="M249.75,11.06c-10.17.21-20.75,2.82-30.49,5.59-1.64.47-1.12,5.39.13,5h0a161.85,161.85,0,0,1,26.52-5.26c5.73-.63,12.34-.47,14.1,6.18a25.93,25.93,0,0,1,.4,8.29c-.3,4.53-.59,9.06-.8,13.59-.43,9.39-.78,18.79-1.85,28.13-.25,2.24,1.77,4.69,2.16,1.29,1.21-10.68,1.49-21.43,2-32.16.37-7.25,1.88-15.2-.28-22.31C260,13.79,255.6,10.94,249.75,11.06Z"/><path class="cls-1" d="M240.26,23.78a67,67,0,0,1-14.83,6.1c-1.65.45-1.13,5.38.12,5h0A69.77,69.77,0,0,0,241,28.63C242.29,27.89,241.68,23,240.26,23.78Z"/><path class="cls-1" d="M236.14,61a12.91,12.91,0,0,0,3.55-8.37c.13-2.09.1-5.92-2.11-7-3.76-1.93-6.75,3-8.63,7.64l0-6.77c0-.6-.22-2.57-1.16-2.5s-1,1.92-1,2.55h0l.06,14.2c0,1.52,1.41,3.8,2.08,1.23.88-3.41,2.22-7.53,4.73-10.11,1.2-1.23,3.49-2.46,3.86-.11.28,1.8-1.38,3.8-2.53,5C233.94,57.7,234.67,62.52,236.14,61Z"/><path class="cls-1" d="M243.86,58.56q-6.75,2.69-13.71,4.76c-1.65.49-1.1,5.4.12,5h0q7.26-2.16,14.29-5C245.9,62.87,245.48,57.91,243.86,58.56Z"/><path class="cls-1" d="M292,20.39a21.06,21.06,0,0,0,5.71-7.13,4.5,4.5,0,0,0-.09-3.56c-.47-.92-1.11-.85-1.55,0h0a17.53,17.53,0,0,1-4.77,5.81c-.84.67-.84,2.16-.69,3.12C290.67,19.1,291.18,21.05,292,20.39Z"/><path class="cls-1" d="M287.38,38.66h0A25.17,25.17,0,0,0,294,32.39c.94-1.24,1.83-2.51,2.78-3.74.48-.61,2.83-3.95,3.58-3.79,1.4.3.67,10,.65,11.42l-.14,12.3c0,3,2.17,2.94,2.2,0,.06-5.22.13-10.44.18-15.66A66,66,0,0,0,303,25.7c-.16-1.56-.2-3.92-1.22-5.22-2-2.55-5.35,2.67-6.51,4.18-2.62,3.4-4.86,6.83-8.58,9.16C285.38,34.64,286.05,39.5,287.38,38.66Z"/><path class="cls-1" d="M339.69,11.12c-2-.68-5.6.58-7.58.89l-8.17,1.31c-1.63.26-1.29,5.26.12,5l12.26-2c2.28-.37,3.43-.5,4.69,1.73a15.85,15.85,0,0,1,1.32,3.66,32.68,32.68,0,0,1,.07,16.29,18.84,18.84,0,0,1-3.08,6.81c-2,2.63-5,4-7.91,5.35a146.24,146.24,0,0,1-22.58,8.06c-1.65.45-1.14,5.38.12,5,9-2.43,18.44-5.39,26.63-9.94,5.84-3.24,8.33-9.44,9.39-15.76a42.82,42.82,0,0,0-1.2-19.8C343.08,15.73,342,11.93,339.69,11.12Z"/><polygon class="cls-1" points="324.06 18.36 324.06 18.36 324.06 18.36 324.06 18.36"/><path class="cls-1" d="M117.29,128.75c1.34-.65.82-5.59-.7-4.85a127,127,0,0,1-18.71,7.3c-1.65.5-1.1,5.41.12,5.05h0A131.35,131.35,0,0,0,117.29,128.75Z"/><path class="cls-1" d="M112.69,191a31.45,31.45,0,0,1-7.46,6.54l.07-24.36a64.36,64.36,0,0,0,15.13-4.79c.7-.32.9-1.83.71-3.1.28.9.72,1.41,1.2.7a30.55,30.55,0,0,0,4.4-23.6c-.33-1.48-.66-3.31-2.11-4.09-1.68-.9-4.44-.49-6.26-.4a40.92,40.92,0,0,0-14.27,3.5c-1.35.59-.88,5.55.7,4.86h0a39.21,39.21,0,0,1,10-2.93c2-.3,8.29-1.56,9.81.29.67.82.63,3.25.68,4.28a21.83,21.83,0,0,1-.32,4.64,23.76,23.76,0,0,1-3.81,9.12,4.7,4.7,0,0,0-.18,2.83c-.25-.74-.66-1.21-1.22-.95a61.11,61.11,0,0,1-14.4,4.56l0-7.37c.08,1.45.63,2.85,1.37,2.36h0a68.92,68.92,0,0,1,14.56-7.37c1.35-.49,1-5.46-.7-4.85A68.77,68.77,0,0,0,106,158.21a2.27,2.27,0,0,0-.67,1.68l0-7.94c0-3-2.19-2.95-2.2.05h0L103,198.68s0,.07,0,.1c-.82.43-1.65.84-2.51,1.2-1.36.57-.9,5.52.7,4.85h0a33,33,0,0,0,12.69-9.51C114.82,194.21,114,189.4,112.69,191Z"/><path class="cls-1" d="M214.72,131.14A54.87,54.87,0,0,0,227,134.78c1.33.23,1.55-4.76-.12-5.05a52,52,0,0,1-11.7-3.47C213.65,125.61,213.32,130.55,214.72,131.14Z"/><polygon class="cls-1" points="349.81 140.17 349.81 140.17 349.81 140.17 349.81 140.17"/><path class="cls-1" d="M364.74,131.29a33.6,33.6,0,0,1-15.05,3.83c-1.55,0-1.44,5.08.12,5a35.07,35.07,0,0,0,15.63-4C366.78,135.44,366.21,130.52,364.74,131.29Z"/><path class="cls-1" d="M402.67,119.36c1.33-.75.72-5.65-.7-4.85q-9.87,5.53-20.16,10.25h0c-.08-.7-.47-2.09-1.4-1.73-.76.29-.78,1.84-.73,2.71l-.57.27c-1.35.6-.86,5.55.7,4.85l.32-.15A203.76,203.76,0,0,1,378.84,176c-.31,2.25,1.69,4.68,2.16,1.29a214.51,214.51,0,0,0,1.27-47.51Q392.68,125,402.67,119.36Z"/><polygon class="cls-1" points="72.27 155.46 72.27 155.46 72.26 155.46 72.27 155.46"/><path class="cls-1" d="M72.27,155.46a48.34,48.34,0,0,0,16.44-3c1.35-.5,1-5.47-.7-4.86a46.42,46.42,0,0,1-15.87,2.85C70.61,150.43,70.69,155.47,72.27,155.46Z"/><path class="cls-1" d="M87.91,164.46c1.3-.85.61-5.7-.7-4.85A77.44,77.44,0,0,1,72.54,167c-1.35.51-.94,5.48.71,4.85h0A77.44,77.44,0,0,0,87.91,164.46Z"/><path class="cls-1" d="M94.16,167.67h0a259.17,259.17,0,0,1-20.21,18c-1.23,1-.42,5.75.7,4.85a259.32,259.32,0,0,0,20.22-18C96,171.41,95.09,166.75,94.16,167.67Z"/><path class="cls-1" d="M190,194.77c-13-2-26.05-4-39.07-6.05-7.29-1.17-14.67-2.23-21.9-3.87a67,67,0,0,0,4.8-4.88c1-1.06.17-5.88-1.22-4.33h0a64.29,64.29,0,0,1-8.52,8,84.69,84.69,0,0,1-10.78-3.71c-1.53-.66-1.86,4.28-.46,4.88h0c11.75,5,24.53,6.78,37.06,8.8,13.39,2.16,26.8,4.2,40.22,6.23C191.44,200,191.63,195,190,194.77Z"/><path class="cls-1" d="M180.18,155.49c-.52.82-.83.89-.93.2-.53-.46-.83-2.3-1.07-3-1.11-3.07-2.42,1-1.84,2.6h0a25.85,25.85,0,0,0,2.32,5.7.73.73,0,0,0,.56.33c1.55-.11,2.36-1.74,3.21-2.89,1.19-1.59,2.33-3.24,3.67-4.71a8.38,8.38,0,0,1,2.2-2q1-1.11.66.18c-.23.59-.48,1.17-.77,1.74-1,2.14-2.19,4.22-3.28,6.33-.36.68-.55,4.5.88,4.29a7.82,7.82,0,0,0,2.36-.74c.86-.42.95-2.56.52-3.88a21.94,21.94,0,0,0,2.52-6.38c.3-1.61.56-6.27-1.47-7.11s-4.91,3.3-5.93,4.57-1.89,2.51-2.83,3.76Q180.59,155,180.18,155.49Z"/><path class="cls-1" d="M191.09,162.7h0l-3,1.2c-.91.36-1.49.55-1.86,1.52-.74,1.93-.34,4.59.06,6.54.12.63.44,2.18,1.4,1.73s.83-2.42.69-3.12a11.38,11.38,0,0,1-.24-1.44.45.45,0,0,0,0-.11,7.48,7.48,0,0,1,1.31-.53l2.34-.94C193.15,167,192.72,162,191.09,162.7Z"/><path class="cls-1" d="M211.33,175.7c-1.62,6.42-11.94,5.44-16.76,4.74-5.07-.73-17.61-2.67-18.25-9.33-.07-.7-.47-2.09-1.4-1.73s-.75,2.46-.69,3.12h0c.89,9.34,12.2,11.69,19.83,12.9,7,1.11,17.09,1.33,19.23-7.2C213.7,176.58,212.12,172.53,211.33,175.7Z"/><path class="cls-1" d="M223.19,147.73h0a101.39,101.39,0,0,0-4,22.12c0,.7-.08,2.81.85,3.08s1.26-1.09,1.31-1.8a95.93,95.93,0,0,1,3.83-20.91C225.64,148.62,224.13,144.6,223.19,147.73Z"/><path class="cls-1" d="M246.44,167.56c-4-1.62-8-3-12.09-4.26q-.66-9-1.82-18a3.77,3.77,0,0,0-.4-1.28,87.37,87.37,0,0,0,14-5.72c1.35-.69.78-5.62-.7-4.86a85.65,85.65,0,0,1-34.82,9.35c-1.57.08-1.41,5.12.13,5h0c1.88-.09,3.75-.26,5.61-.47l-2.93,8.1a4.58,4.58,0,0,0,.09,3.56c.44.8,1.18,1,1.55,0l3.8-10.48a4.45,4.45,0,0,0,.29-1.52,87.46,87.46,0,0,0,11.34-2.48,6.88,6.88,0,0,0-.07,2.18h0q1,8,1.64,16c-.84-.24-1.67-.48-2.52-.7-1.2-.31-1.56,4.61.13,5h0c.92.24,1.83.51,2.74.76q.72,12,.46,24.11c0,.6.22,2.58,1.16,2.5s1-1.91,1-2.55q.24-11.7-.4-23.4c3.83,1.17,7.6,2.5,11.31,4C247.53,173.08,247.84,168.14,246.44,167.56Z"/><path class="cls-1" d="M274.59,143.72a57.5,57.5,0,0,0,23.14-6.24c1.35-.69.79-5.61-.7-4.85a56.07,56.07,0,0,1-22.57,6.05C272.9,138.76,273.06,143.81,274.59,143.72Z"/><path class="cls-1" d="M306.16,154c1.35-.53.93-5.5-.7-4.85a103.15,103.15,0,0,1-12,3.92,42.46,42.46,0,0,0,1.24-7.52c.05-.71.08-2.82-.85-3.09s-1.26,1.09-1.31,1.8h0a42.53,42.53,0,0,1-1.84,9.48c-.66.15-1.32.32-2,.46-4.58,1-11.61,3.17-15.89.49-1.27-.8-1.8,4-.46,4.88h0c4.55,2.85,11.47.73,16.36-.3-3.27,8.15-7.77,16-10.08,24.4-.45,1.61,1.1,5.65,2,2.5,2.64-9.62,7.87-18.31,11.19-27.62A106.42,106.42,0,0,0,306.16,154Z"/><path class="cls-1" d="M330.39,169.87c-12.61-2.86-25.27-5.67-38.24-6.2-1.48-.06-1.49,5,.13,5.05,13,.53,25.63,3.34,38.24,6.2C331.77,175.2,332.08,170.26,330.39,169.87Z"/><path class="cls-1" d="M369.12,151.84c1.32-.8.67-5.68-.7-4.85a30.93,30.93,0,0,1-13.52,4.42c-1.59.14-1.37,5.18.13,5.05h0A32.4,32.4,0,0,0,369.12,151.84Z"/><path class="cls-1" d="M371.53,156.78a126.06,126.06,0,0,1-13.47,19.8c-.91,1.09-.09,5.91,1.22,4.33h0a126.06,126.06,0,0,0,13.47-19.8,4.44,4.44,0,0,0,.31-3.46C372.89,157.15,372.12,155.71,371.53,156.78Z"/><path class="cls-1" d="M394.61,147.41l-.18-.08a21.32,21.32,0,0,1,1.59-3.21c1.35-2.78,2.85-5.47,4.46-8.11.59-1,.32-6-1.22-4.33h0c-1.78,1.94-4.6,2.56-6.95,3.53-1.35.55-.91,5.51.7,4.85h0c.66-.27,1.33-.52,2-.77-.7,1.39-1.37,2.8-2,4.23-.9,2.2-1.67,5-.54,7.26s3.79,1.74,5.89,1.36c4.7-.84,9.32-2.12,14-3.1,1.65-.34,1.23-5.32-.12-5-2.88.6-5.73,1.3-8.6,2-2.52.58-5.3,1.49-7.89,1.49A5.32,5.32,0,0,1,394.61,147.41Z"/><path class="cls-1" d="M460.88,163.61c-15.42,2-30.89,4.45-45.95,8.38-3.65.95-7.34,1.81-11,2.83-2.58.73-5.11,2.23-7.82,2.42-3.73.24-2-2.48-1.56-4.85.06-.39.11-.79.17-1.19a11.32,11.32,0,0,0,5.83-3.37c1-1,.2-5.87-1.22-4.33a9,9,0,0,1-4,2.5c.13-1.46.24-2.91.31-4.37.06-.7.08-2.81-.85-3.08s-1.25,1.09-1.31,1.8h0c-.18,2.06-.3,4.13-.51,6.19a37,37,0,0,1-5.55.23c-1.51,0-1.46,5,.13,5.05h0a43.24,43.24,0,0,0,4.58-.16c0,.11-.05.22-.07.34-.6,2.36-1.14,5-.36,7.38s2.85,3.23,5.3,2.8c3.5-.6,6.89-2.24,10.34-3.12A450.68,450.68,0,0,1,461,168.66C462.62,168.45,462.33,163.42,460.88,163.61Z"/></g></g></svg>