<svg xmlns="http://www.w3.org/2000/svg" viewBox="0 0 29.09 25"><defs><style>.cls-1{fill:#043f98;}</style></defs><g id="圖層_2" data-name="圖層 2"><g id="圖層_1-2" data-name="圖層 1"><g id="Group_891" data-name="Group 891"><path id="Path_450" data-name="Path 450" class="cls-1" d="M28.64,3.94A2.06,2.06,0,0,0,27,3.18H4.87l-.2-1.42A2.05,2.05,0,0,0,2.65,0H.91a.91.91,0,0,0,0,1.82H2.65a.22.22,0,0,1,.22.2l.31,2.19h0L5,17H5l.36,2.65a2.05,2.05,0,0,0,2,1.76h1a2.61,2.61,0,0,0-.16.91,2.73,2.73,0,0,0,5.46,0,2.86,2.86,0,0,0-.16-.91h4.86a2.61,2.61,0,0,0-.16.91,2.73,2.73,0,0,0,5.46,0,2.86,2.86,0,0,0-.16-.91h2a.91.91,0,0,0,0-1.81H7.35a.23.23,0,0,1-.22-.2L6.9,17.72H24.8a2,2,0,0,0,2-1.61L29,5.65a2,2,0,0,0-.41-1.71ZM27.26,6.09l-1.82,9.09a.92.92,0,0,1-.89.73l-.18,0a.92.92,0,0,1-.72-1.07h0l1.81-9.09A.91.91,0,0,1,26.54,5h0a.92.92,0,0,1,.72,1.07Z"/></g></g></g></svg>