<svg xmlns="http://www.w3.org/2000/svg" viewBox="0 0 596.74 224.99"><defs><style>.cls-1{fill:#a2ddf2;}</style></defs><g id="圖層_2" data-name="圖層 2"><g id="圖層_1-2" data-name="圖層 1"><g id="Group_4399" data-name="Group 4399"><path id="Path_4082" data-name="Path 4082" class="cls-1" d="M526.09,95.06c-14.24-2.3-28.42.1-42.39,3-14.43,3-28.84,5.53-43.55,6.61-29.65,2.19-59.43-.36-89-2.08-29.8-1.74-59.54-1.66-89.38-1-29.53.7-59.14,1.88-88.62-.48-28.49-2.29-57.18-6.49-85.76-3.36q-5.06.55-10,1.41c-2.16.37-1.24,3.66.91,3.29,28.19-4.81,56.89-1.33,85.12,1.23,14.2,1.28,28.37,2.16,42.64,2.2,14.87.06,29.74-.26,44.61-.61,29.84-.71,59.67-1.41,89.5.08,29.42,1.47,58.83,4.23,88.32,3.3a286.58,286.58,0,0,0,42.64-4.6c14.25-2.62,28.39-6.6,43-6.6a70.64,70.64,0,0,1,11.16.86c2.14.35,3.07-2.93.9-3.28Z"/><path id="Path_4083" data-name="Path 4083" class="cls-1" d="M525.45,219.94c-29.09-4-58.27-7.93-87.65-8.67a314.6,314.6,0,0,0-43.94,1.78c-14.29,1.65-28.24,5.06-42.45,7.16a110.05,110.05,0,0,1-21.76,1.3c-7.35-.38-14.51-2-21.75-3.24a271.38,271.38,0,0,0-44-3.25c-29.81-.07-59.67,1.66-89.46,2.69l-90,3.13-11.25.39c-2.19.08-2.2,3.48,0,3.41l90-3.13c29.87-1,59.75-2.45,89.64-3A335.21,335.21,0,0,1,297,220.14c14.12,1.62,27.79,5.5,42.11,4.75s28.15-4.26,42.18-6.64a280,280,0,0,1,44.22-3.67c33.22-.29,66.24,4.17,99.08,8.65,2.14.29,3.07-3,.9-3.29Z"/><path id="Path_4084" data-name="Path 4084" class="cls-1" d="M72.39,5.31A115.84,115.84,0,0,1,89.3,28.25c1.08,1.91,4,.19,3-1.72A119.55,119.55,0,0,0,74.79,2.9c-1.51-1.6-3.91.81-2.41,2.41Z"/><path id="Path_4085" data-name="Path 4085" class="cls-1" d="M95.65,37.29l15.09,22.42c1.22,1.8,4.17.1,2.94-1.72L98.59,35.57C97.37,33.76,94.42,35.46,95.65,37.29Z"/><path id="Path_4086" data-name="Path 4086" class="cls-1" d="M39.76,27.58c4.49,1.94,7.88,5.43,11.17,9L63,49.48,87.05,75.33c1.5,1.6,3.9-.81,2.41-2.41L65,46.66,53,33.78c-3.37-3.6-7-7.16-11.54-9.14-2-.87-3.73,2.07-1.72,2.94Z"/><path id="Path_4087" data-name="Path 4087" class="cls-1" d="M50.58,61.45,34.68,46.63c-1.6-1.5-4,.91-2.41,2.4l15.9,14.83c1.6,1.49,4-.91,2.41-2.41Z"/><path id="Path_4088" data-name="Path 4088" class="cls-1" d="M79,89.9A259.39,259.39,0,0,1,58.18,69.59c-1.48-1.62-3.89.8-2.41,2.41A259.39,259.39,0,0,0,76.61,92.31c1.64,1.44,4.06-1,2.41-2.4Z"/><path id="Path_4089" data-name="Path 4089" class="cls-1" d="M65.78,99.09Q41.33,84.73,16.7,70.65L2.55,62.59C.64,61.5-1.08,64.45.83,65.53Q25.51,79.53,50,93.81q7,4.09,14.06,8.22a1.7,1.7,0,0,0,1.72-2.94Z"/><path id="Path_4090" data-name="Path 4090" class="cls-1" d="M522.77.83q-4.69,6.14-8.9,12.63a1.71,1.71,0,0,0,3,1.72q4.2-6.5,8.9-12.63a1.72,1.72,0,0,0-.61-2.33A1.76,1.76,0,0,0,522.77.83Z"/><path id="Path_4091" data-name="Path 4091" class="cls-1" d="M502.82,30.12Q494.17,41,486.26,52.46C485,54.27,488,56,489.2,54.18q7.65-11.08,16-21.65a1.75,1.75,0,0,0,0-2.41,1.71,1.71,0,0,0-2.41,0Z"/><path id="Path_4092" data-name="Path 4092" class="cls-1" d="M567.23,44.79l-7.49,6.44a1.71,1.71,0,0,0,0,2.41,1.75,1.75,0,0,0,2.41,0l7.49-6.44a1.71,1.71,0,0,0,0-2.41A1.75,1.75,0,0,0,567.23,44.79Z"/><path id="Path_4093" data-name="Path 4093" class="cls-1" d="M547.78,63.06a140.45,140.45,0,0,0-18.4,13.5c-1.66,1.44.76,3.84,2.41,2.41A133.77,133.77,0,0,1,549.5,66c1.87-1.15.16-4.1-1.71-3Z"/><path id="Path_4094" data-name="Path 4094" class="cls-1" d="M554.22,21.89c-6.84,5.63-13.71,11.22-20.5,16.9a181.5,181.5,0,0,0-18.67,17.48c-1.46,1.62.94,4,2.41,2.41A182.43,182.43,0,0,1,536.12,41.2c6.8-5.68,13.67-11.27,20.51-16.9C558.33,22.91,555.91,20.51,554.22,21.89Z"/><path id="Path_4095" data-name="Path 4095" class="cls-1" d="M594.15,68.26a464.35,464.35,0,0,1-48.32,20.66c-2,.74-1.16,4,.91,3.28a468.24,468.24,0,0,0,49.13-21c2-1,.25-3.91-1.71-2.94Z"/><g id="Group_4395" data-name="Group 4395"><g id="Group_4394" data-name="Group 4394"><path id="Path_4096" data-name="Path 4096" class="cls-1" d="M548.23,190.6c-1.9-8.54-6.77-19.31,0-26.65,5.89-6.34,15.37-6.67,21.12.14,5.9,7,3.35,16.07-5,19.32-6.12,2.36-12.64,2.6-18.49,5.77-2,1.09-1.13,6.4,1.07,5.17,8.77-4.88,22.05-3.51,27.44-13.41,3.83-7,1.9-16.63-3.43-22.34-7.3-7.81-18.23-6.84-24.95,1.08-8.28,9.78-3.19,21-.22,32,.68,2.51,2.93,1,2.47-1.11Z"/><path id="Path_4097" data-name="Path 4097" class="cls-1" d="M551,174.24c-1.57,4.2,4.49,8.57,8.2,7.08,4.24-1.71,6.12-7.12,4.91-11.31-1.17-4-6.46-6.54-10.26-4.55-4.8,2.51-4.83,9-2.21,13a1.46,1.46,0,0,0,2,.53,1.39,1.39,0,0,0,.56-.59,3.73,3.73,0,0,0-.1-3.89c-3.44-5.18,7.32-7.09,7.43-2a5.09,5.09,0,0,1-3.53,4.54c-2.94.84-4.21-2-6.19-3.22-.35-.23-.66,0-.8.34Z"/></g></g><g id="Group_4397" data-name="Group 4397"><g id="Group_4396" data-name="Group 4396"><path id="Path_4098" data-name="Path 4098" class="cls-1" d="M52.23,197.76c-6-2.77-12-5.44-17.93-8.23C28.83,187,24,184.08,21.63,178.28c-5.37-12.91,1.16-26.19,15.11-28.39,9.63-1.53,21.78,3.63,24.06,14,1.46,6.6-1.92,13.24-4.6,19.08-2.59,5.63-4.94,11.14-5.83,17.31-.42,2.85,3,4.89,3.45,1.35,2.09-15,16.47-29.44,8.15-45C56.33,146,42.8,141.44,31.7,145.18c-13.22,4.45-17.92,18-14.66,30.88,1.61,6.34,4.6,11.41,10.25,14.85,7.46,4.54,16.31,7.35,24.35,10.67,1.75.72,2.07-3.13.59-3.82Z"/><path id="Path_4099" data-name="Path 4099" class="cls-1" d="M36.63,180.6c3.94,4.69,12,.93,13.32-4.29,1.41-5.49-1.24-12.21-6.56-14.59-5.76-2.57-12.46,2.58-13.3,8.35a11,11,0,0,0,9.15,12.59c.38.05.76.1,1.14.12,2.37.18,2.35-5.35-.13-5.5-3.57-.23-8.08-3-6.71-7.23,1.22-3.73,6.52-5.52,9.76-3.61,2.83,1.66,5.25,5.77,3.58,9-1.77,3.45-6.7,3.15-9.88,3.58-.63.09-.73,1.14-.38,1.56Z"/></g></g></g></g></g></svg>