<svg xmlns="http://www.w3.org/2000/svg" viewBox="0 0 40 40"><defs><style>.cls-1{fill:#043f98;}</style></defs><g id="圖層_2" data-name="圖層 2"><g id="圖層_1-2" data-name="圖層 1"><path id="Subtraction_9" data-name="Subtraction 9" class="cls-1" d="M40,40H0V0H40ZM29.55,13.56V25.4H37v-2H31.92V20.25h4.16v-2H31.92V15.53h4.9v-2Zm-10,3h.08l1.2,2.54,3.42,6.34h2.4V13.56H24.38v4.72a36.49,36.49,0,0,0,.28,3.84l0,.3h-.08l-1.18-2.56L20,13.56H17.57V25.4h2.24V20.65c0-1.07-.11-2.19-.21-3.28,0-.29-.06-.57-.08-.85Zm-7.23-3V25.4h2.37V13.56Zm-9.23,0V25.4h7.17v-2H5.43V13.56Z"/></g></g></svg>