<svg xmlns="http://www.w3.org/2000/svg" viewBox="0 0 20.31 25"><defs><style>.cls-1{fill:#043f98;}</style></defs><g id="圖層_2" data-name="圖層 2"><g id="圖層_1-2" data-name="圖層 1"><g id="Group_894" data-name="Group 894"><path id="Path_737" data-name="Path 737" class="cls-1" d="M18.36,3.13h-4.3V2.34A2.34,2.34,0,0,0,11.72,0H8.59A2.34,2.34,0,0,0,6.25,2.34h0v.79H2A2,2,0,0,0,0,5.08V6.64a.78.78,0,0,0,.78.78H19.53a.78.78,0,0,0,.78-.78V5.08A2,2,0,0,0,18.36,3.13ZM7.81,2.34a.78.78,0,0,1,.78-.78h3.13a.78.78,0,0,1,.78.78v.79H7.81Z"/><path id="Path_738" data-name="Path 738" class="cls-1" d="M1.48,9a.25.25,0,0,0-.24.25h0l.64,13.53A2.34,2.34,0,0,0,4.22,25H16.09a2.34,2.34,0,0,0,2.34-2.23l.64-13.53A.25.25,0,0,0,18.84,9H1.48Zm11.8,2a.79.79,0,0,1,1.57,0V21.09a.8.8,0,0,1-.79.78.78.78,0,0,1-.78-.78Zm-3.9,0a.78.78,0,0,1,1.56,0V21.09a.78.78,0,1,1-1.56,0Zm-3.91,0a.78.78,0,0,1,1.56,0V21.09a.78.78,0,0,1-1.56,0Z"/></g></g></g></svg>