<svg xmlns="http://www.w3.org/2000/svg" width="12.538" height="14.329" viewBox="0 0 12.538 14.329">
    <path id="calendar-alt-regular" fill="#afafaf" d="M4.142 8.06h-1.12a.337.337 0 0 1-.336-.336V6.6a.337.337 0 0 1 .336-.336h1.12a.337.337 0 0 1 .336.336v1.124a.337.337 0 0 1-.336.336zm3.022-.336V6.6a.337.337 0 0 0-.336-.336H5.709a.337.337 0 0 0-.336.336v1.124a.337.337 0 0 0 .336.336h1.119a.337.337 0 0 0 .336-.336zm2.687 0V6.6a.337.337 0 0 0-.336-.336H8.4a.337.337 0 0 0-.34.336v1.124a.337.337 0 0 0 .34.336h1.115a.337.337 0 0 0 .336-.336zm-2.687 2.687v-1.12a.337.337 0 0 0-.336-.336H5.709a.337.337 0 0 0-.336.336v1.119a.337.337 0 0 0 .336.336h1.119a.337.337 0 0 0 .336-.335zm-2.687 0v-1.12a.337.337 0 0 0-.336-.336H3.022a.337.337 0 0 0-.336.336v1.119a.337.337 0 0 0 .336.336h1.12a.337.337 0 0 0 .336-.335zm5.373 0v-1.12a.337.337 0 0 0-.336-.336H8.4a.337.337 0 0 0-.336.336v1.119a.337.337 0 0 0 .336.336h1.115a.337.337 0 0 0 .336-.335zm2.687-7.276v9.851a1.344 1.344 0 0 1-1.343 1.343H1.343A1.344 1.344 0 0 1 0 12.985V3.134a1.344 1.344 0 0 1 1.343-1.343h1.344V.336A.337.337 0 0 1 3.022 0h1.12a.337.337 0 0 1 .336.336v1.455H8.06V.336A.337.337 0 0 1 8.4 0h1.115a.337.337 0 0 1 .336.336v1.455h1.343a1.344 1.344 0 0 1 1.344 1.343zm-1.343 9.683v-8.34H1.343v8.34a.168.168 0 0 0 .168.168h9.515a.168.168 0 0 0 .168-.169z"/>
</svg>
