<svg xmlns="http://www.w3.org/2000/svg" viewBox="0 0 467.35 168.18"><defs><style>.cls-1{fill:#fff;stroke:#fff;stroke-width:2px;}</style></defs><g id="圖層_2" data-name="圖層 2"><g id="圖層_1-2" data-name="圖層 1"><path class="cls-1" d="M266,8.22h0a89.29,89.29,0,0,1,13.89-3.09C281.25,5,281,.84,279.82,1a89.29,89.29,0,0,0-13.89,3.09C264.58,4.5,265,8.52,266,8.22Z"/><path class="cls-1" d="M19.6,49.93c-.28-.16-.52,0-.69.22a22.63,22.63,0,0,1-6.1,5.61c-.06-7.58,0-15.16.37-22.73,0-.59.08-2.3-.69-2.53s-1.05.89-1.08,1.47Q10.9,44.29,11,56.61a10.31,10.31,0,0,1-2.3.56c-1.84.23-5.51.33-5.88-2.06-.27-1.71.22-3.47-.15-5.24-.16-.76-.63-1.19-1.25-.71S1,51.34,1.17,52h0c.49,2.32-.7,4.6.56,6.88,1.12,2,3.53,2.5,5.68,2.51a10.9,10.9,0,0,0,4.06-.77.57.57,0,0,0,.51.28c.37,0,.58-.39.7-.81a22.66,22.66,0,0,0,6.86-5.95,23.91,23.91,0,0,1,2.88,3c1.22,1.18,1.67-2.77.82-3.59C22,52.32,21.13,50.8,19.6,49.93Z"/><path class="cls-1" d="M27.83,44.47a1.24,1.24,0,0,1,0-.16.61.61,0,0,0,.18-.05h0l10.35-4.7c1.1-.5.7-4.55-.58-4l-10.35,4.7a1,1,0,0,0-.45.58q-.68-3-1.1-6.12a12.13,12.13,0,0,0,8.57-2.5c1-.78.38-4.7-.58-4a11.29,11.29,0,0,1-8.35,2.32h-.07c-.1-1.24-.16-2.48-.2-3.72a30.23,30.23,0,0,1,10.14-6.49c1.1-.43.76-4.49-.58-4a30.22,30.22,0,0,0-9.54,5.95c.05-1.49.12-3,.26-4.48.18-1.82-1.5-3.85-1.76-1.05h0a82.61,82.61,0,0,0,2.59,29.73c.2.74.6,1.2,1.25.71S28,45.09,27.83,44.47Z"/><path class="cls-1" d="M77.18,32.92l-4.29,1.2A46.1,46.1,0,0,0,74.78,21c0-2.84,0-6.35-2.13-8.56A7.42,7.42,0,0,0,64.77,11c-1.1.47-.73,4.52.58,4h0a6.65,6.65,0,0,1,6,.71c2.28,1.62,1.73,5.82,1.55,8.28a39.91,39.91,0,0,1-2.52,10.91q-5.94,1.72-11.84,3.66a38.8,38.8,0,0,0,1.54-4c.63-2,1.62-4.93.4-7s-5.11.17-6.84.74c-1.24.41-3.1,1.46-4.39,1.44-1.8,0-1-3-.89-4.4,0-1.12.13-2.24.19-3.35l4.83-.81c1.33-.22,1-4.32-.1-4.13l-4.45.75c.09-1.19.17-2.38.28-3.56,0-.58.06-2.3-.69-2.53s-1,.9-1.07,1.47h0c-.15,1.65-.28,3.3-.39,4.94l-3.7.62c-1.33.23-1.05,4.32.1,4.13h0l3.35-.56-.06,1c-.13,2.6-.67,5.67,0,8.23.61,2.39,2,2.52,4.14,1.83,1.7-.55,3.4-1.12,5.1-1.69.7-.23,1.41-.48,2.12-.7,1-.31.74-.51.91,0,.32.94-1.4,3.95-1.82,4.89-.59,1.28-1.25,2.53-1.94,3.76q-13.82,4.7-27.21,10.49c-1.1.48-.73,4.53.57,4h0q11.6-5,23.52-9.22c-.84,1.35-1.7,2.7-2.58,4q-5.52,8.43-11.82,16.32c-.72.91,0,4.84,1,3.54Q45,60.7,50.68,52.07c1.81-2.78,3.67-5.62,5.33-8.55q6-2,12.15-3.87a.83.83,0,0,1-.07.13,3.71,3.71,0,0,0-.25,2.83c.14.4.78,1.59,1.25.71a43.9,43.9,0,0,0,2.18-4.6q3-.86,6-1.67C78.63,36.68,78.22,32.64,77.18,32.92Z"/><path class="cls-1" d="M63.32,48.22c-1.18-.59-1.51,3.42-.38,4a36.14,36.14,0,0,1,10.17,7.57c1.14,1.22,1.63-2.72.82-3.59A37.82,37.82,0,0,0,63.32,48.22Z"/><path class="cls-1" d="M102.22,32.79c.28-.55,0-4.34-1-3.43A54.5,54.5,0,0,1,86.35,39.7c-1.1.51-.68,4.56.58,4h0a54,54,0,0,0,11.39-7.19A36.47,36.47,0,0,0,98,55c.18.76.62,1.2,1.25.71s.4-2.19.26-2.83A29,29,0,0,1,102.22,32.79Z"/><path class="cls-1" d="M115.8,16.88c4.34,1.33,9.43-3.56,13.07-5.36,1.86-.92,4.62-2.14,6.72-1.23,1.55.68,1.19,2,.84,3.36A32.62,32.62,0,0,1,132,23c-.64,1,.12,4.87,1,3.54,3-4.59,7.74-12.93,4.77-18.49-1.86-3.47-6.38-2-9.18-.68-2.29,1.08-4.38,2.53-6.59,3.76a12.46,12.46,0,0,1-4.23,1.78c-.64.07-3.66-.35-2.25-.86,1.1-.4.79-4.46-.57-4h0C111.32,9.43,112.47,15.87,115.8,16.88Z"/><path class="cls-1" d="M111,53.66a42.35,42.35,0,0,0,7.23-11.47,3.66,3.66,0,0,0-.08-2.92c-.4-.66-.92-.79-1.27,0h0A40.09,40.09,0,0,1,110,50.12C109.19,51,109.83,54.94,111,53.66Z"/><path class="cls-1" d="M149,46.73c1.18.09,1.23-4-.1-4.13L126,40.85a126.35,126.35,0,0,0-.82-20.3c-.07-.57-.38-1.71-1.15-1.42s-.63,2-.56,2.56h0a118.66,118.66,0,0,1,.72,19l-.39,0c-1.19-.1-1.24,4,.1,4.12h0c-.17,2.06-.37,4.12-.64,6.17-.24,1.84,1.4,3.84,1.77,1.06.3-2.36.53-4.73.7-7.09Z"/><path class="cls-1" d="M176.74,47.17a3.7,3.7,0,0,0-.08-2.92,37.93,37.93,0,0,1-2.81-17.86c.05-.58.07-2.3-.69-2.53s-1,.9-1.07,1.47h0a46.36,46.36,0,0,0,3.37,21.87C175.82,48.07,176.35,47.73,176.74,47.17Z"/><path class="cls-1" d="M180.74,18.77h0a132.85,132.85,0,0,1,21.73-4.31c4.69-.52,10.11-.38,11.55,5.06a21,21,0,0,1,.33,6.8c-.25,3.71-.48,7.42-.65,11.13-.36,7.7-.65,15.39-1.52,23-.21,1.83,1.45,3.84,1.77,1.06,1-8.76,1.22-17.56,1.67-26.35.3-5.94,1.54-12.45-.23-18.28-1.4-4.63-5-7-9.77-6.87-8.34.17-17,2.31-25,4.58C179.29,15,179.72,19.06,180.74,18.77Z"/><path class="cls-1" d="M197.84,20.49a54.81,54.81,0,0,1-12.15,5c-1.35.37-.93,4.41.1,4.12h0a56.62,56.62,0,0,0,12.63-5.15C199.51,23.85,199,19.84,197.84,20.49Z"/><path class="cls-1" d="M186.79,50.74c0,1.25,1.16,3.11,1.7,1,.73-2.79,1.83-6.17,3.88-8.28,1-1,2.86-2,3.16-.09.24,1.47-1.12,3.11-2.07,4.08s-.21,4.77,1,3.54a10.56,10.56,0,0,0,2.91-6.86c.11-1.71.08-4.85-1.73-5.78-3.08-1.58-5.53,2.47-7.07,6.27l0-5.56c0-.49-.17-2.11-.95-2s-.85,1.56-.85,2.08h0Z"/><path class="cls-1" d="M189.65,57h0q5.94-1.77,11.7-4.06c1.1-.44.75-4.5-.58-4q-5.53,2.21-11.23,3.9C188.2,53.28,188.65,57.3,189.65,57Z"/><path class="cls-1" d="M240.23,17.71a17.38,17.38,0,0,0,4.69-5.84A3.66,3.66,0,0,0,244.84,9c-.38-.76-.91-.7-1.27,0h0a14.3,14.3,0,0,1-3.91,4.76,2.87,2.87,0,0,0-.57,2.55C239.14,16.65,239.56,18.25,240.23,17.71Z"/><path class="cls-1" d="M236.45,32.67h0a20.56,20.56,0,0,0,5.38-5.14c.77-1,1.5-2.06,2.28-3.06.39-.5,2.32-3.24,2.93-3.1,1.15.24.55,8.16.54,9.35l-.12,10.07c0,2.46,1.78,2.41,1.8,0,.05-4.28.11-8.55.15-12.83a52.25,52.25,0,0,0-.18-5.87c-.13-1.28-.15-3.21-1-4.28-1.63-2.09-4.38,2.19-5.33,3.43-2.15,2.79-4,5.59-7,7.5C234.8,29.38,235.35,33.36,236.45,32.67Z"/><path class="cls-1" d="M279.3,10.11c-1.61-.56-4.59.47-6.21.73l-6.7,1.08c-1.33.21-1.05,4.31.1,4.12h0l10-1.61c1.87-.3,2.82-.4,3.85,1.42a13.45,13.45,0,0,1,1.08,3,26.83,26.83,0,0,1,.06,13.35A15.35,15.35,0,0,1,279,37.78c-1.65,2.16-4.07,3.28-6.48,4.38A119.14,119.14,0,0,1,254,48.77c-1.35.36-.93,4.41.1,4.13,7.38-2,15.11-4.42,21.82-8.15,4.78-2.66,6.82-7.73,7.68-12.91a34.93,34.93,0,0,0-1-16.22C282.08,13.89,281.21,10.77,279.3,10.11Z"/><path class="cls-1" d="M144.44,91.72A117.74,117.74,0,0,1,127,98.52c-1.53.46-1,5,.12,4.7h0a121.7,121.7,0,0,0,18-7C146.35,95.63,145.86,91,144.44,91.72Z"/><path class="cls-1" d="M140.81,154.22a29.47,29.47,0,0,1-6.95,6.09l.07-22.7A59.71,59.71,0,0,0,148,133.15c.65-.3.84-1.7.66-2.87.26.83.67,1.3,1.12.64a28.45,28.45,0,0,0,4.1-22c-.3-1.39-.62-3.09-2-3.81-1.56-.84-4.13-.47-5.84-.38A38,38,0,0,0,132.8,108c-1.26.55-.82,5.16.66,4.52h0a36.74,36.74,0,0,1,9.27-2.74c1.88-.28,7.73-1.45,9.15.28.63.76.59,3,.63,4a19.6,19.6,0,0,1-.3,4.32,22.06,22.06,0,0,1-3.55,8.5,4.39,4.39,0,0,0-.17,2.61c-.23-.67-.62-1.1-1.13-.87a57,57,0,0,1-13.42,4.25l0-6.83c.09,1.34.6,2.62,1.28,2.16a63.93,63.93,0,0,1,13.58-6.87c1.25-.45.9-5.08-.66-4.52a63.85,63.85,0,0,0-13.57,6.87,2.08,2.08,0,0,0-.63,1.55l0-7.39c0-2.79-2.05-2.75-2.06.05h0l-.13,43.49s0,.06,0,.1c-.77.4-1.54.78-2.34,1.11-1.26.53-.84,5.15.65,4.52A30.74,30.74,0,0,0,142,158.25C142.79,157.23,142,152.74,140.81,154.22Z"/><path class="cls-1" d="M235.87,98.47h0a51.28,51.28,0,0,0,11.45,3.39c1.23.21,1.44-4.44-.12-4.7a48.81,48.81,0,0,1-10.9-3.24C234.87,93.31,234.57,97.91,235.87,98.47Z"/><path class="cls-1" d="M376.3,103.13c1.25-.66.72-5.24-.66-4.52a31.29,31.29,0,0,1-14,3.57c-1.44,0-1.35,4.73.11,4.7h0A32.77,32.77,0,0,0,376.3,103.13Z"/><path class="cls-1" d="M411,87.49c1.24-.7.67-5.26-.66-4.52q-9.19,5.16-18.78,9.56h0c-.07-.65-.44-1.94-1.3-1.61-.71.27-.73,1.71-.68,2.53l-.54.25c-1.26.56-.81,5.17.66,4.52l.29-.14a189.88,189.88,0,0,1-1.19,42.15c-.3,2.09,1.57,4.36,2,1.2A200.47,200.47,0,0,0,392,97.15Q401.67,92.71,411,87.49Z"/><path class="cls-1" d="M103.14,121.13h0a45.09,45.09,0,0,0,15.33-2.83c1.25-.46.89-5.09-.66-4.52A43.62,43.62,0,0,1,103,116.43C101.6,116.44,101.67,121.14,103.14,121.13Z"/><path class="cls-1" d="M117.07,125a71.63,71.63,0,0,1-13.67,6.92c-1.26.48-.88,5.1.66,4.52h0a71.25,71.25,0,0,0,13.66-6.92C118.94,128.72,118.29,124.19,117.07,125Z"/><path class="cls-1" d="M123.54,132.5h0a241.12,241.12,0,0,1-18.83,16.75c-1.15.92-.4,5.36.66,4.52A243,243,0,0,0,124.2,137C125.25,136,124.41,131.65,123.54,132.5Z"/><path class="cls-1" d="M212.8,157.75c-12.14-1.84-24.28-3.69-36.4-5.63-6.79-1.09-13.67-2.08-20.4-3.61a61.93,61.93,0,0,0,4.47-4.55c.88-1,.15-5.48-1.14-4h0a60.07,60.07,0,0,1-7.94,7.43,78.32,78.32,0,0,1-10-3.46c-1.44-.61-1.74,4-.44,4.55h0c11,4.69,22.86,6.32,34.54,8.2,12.48,2,25,3.91,37.47,5.81C214.18,162.64,214.36,158,212.8,157.75Z"/><path class="cls-1" d="M211.15,119.42c-1,2-2,3.93-3.06,5.89-.33.64-.5,4.2.83,4a7.08,7.08,0,0,0,2.19-.69c.8-.39.89-2.38.49-3.61a20.74,20.74,0,0,0,2.35-5.94c.28-1.5.52-5.84-1.37-6.62s-4.58,3.08-5.53,4.26-1.76,2.33-2.64,3.5c-.23.32-.47.63-.72,1-.49.76-.78.83-.87.18-.49-.43-.77-2.14-1-2.76-1-2.87-2.25.93-1.71,2.41h0a24.26,24.26,0,0,0,2.16,5.31.7.7,0,0,0,.53.31c1.43-.1,2.19-1.63,3-2.7a55.27,55.27,0,0,1,3.41-4.38,7.88,7.88,0,0,1,2.05-1.9c.61-.7.82-.64.61.16A13.85,13.85,0,0,1,211.15,119.42Z"/><path class="cls-1" d="M214.52,132.39c1.26-.51.85-5.13-.66-4.52h0L211.08,129c-.85.34-1.39.52-1.74,1.42-.69,1.79-.31,4.27.06,6.1.11.57.41,2,1.3,1.61s.77-2.26.64-2.91c-.09-.45-.17-.89-.22-1.34v-.1a6.71,6.71,0,0,1,1.21-.5Z"/><path class="cls-1" d="M232.71,140c-1.51,6-11.12,5.07-15.61,4.42-4.73-.69-16.41-2.49-17-8.7-.06-.65-.44-1.94-1.3-1.61s-.7,2.29-.65,2.91h0c.83,8.7,11.37,10.89,18.48,12,6.55,1,15.91,1.24,17.91-6.7C234.92,140.81,233.45,137,232.71,140Z"/><path class="cls-1" d="M243.76,113.93h0A94.93,94.93,0,0,0,240,134.54c0,.66-.08,2.62.79,2.87s1.18-1,1.22-1.67a89.53,89.53,0,0,1,3.58-19.48C246.05,114.75,244.64,111,243.76,113.93Z"/><path class="cls-1" d="M265.42,132.4q-5.52-2.27-11.26-4-.6-8.42-1.7-16.8a3.37,3.37,0,0,0-.36-1.19,80.79,80.79,0,0,0,13.06-5.33c1.25-.65.73-5.23-.66-4.52a79.66,79.66,0,0,1-32.44,8.7c-1.46.08-1.31,4.78.12,4.7h0c1.75-.09,3.49-.24,5.22-.44l-2.74,7.55a4.39,4.39,0,0,0,.08,3.32c.42.74,1.11.92,1.46,0l3.54-9.76a4.11,4.11,0,0,0,.27-1.42,81.26,81.26,0,0,0,10.57-2.3,6.42,6.42,0,0,0-.06,2h0c.65,4.95,1.15,9.92,1.53,14.9-.78-.22-1.56-.45-2.35-.65-1.13-.29-1.46,4.3.11,4.7h0c.86.22,1.71.47,2.56.71q.66,11.22.42,22.46c0,.56.21,2.4,1.08,2.33s1-1.78,1-2.38q.24-10.91-.36-21.79,5.34,1.62,10.52,3.74C266.44,137.55,266.73,132.94,265.42,132.4Z"/><path class="cls-1" d="M291.66,110.19h0a53.75,53.75,0,0,0,21.57-5.82c1.25-.64.73-5.23-.66-4.52a52.43,52.43,0,0,1-21,5.64C290.08,105.56,290.23,110.26,291.66,110.19Z"/><path class="cls-1" d="M321.07,119.78c1.26-.5.87-5.12-.66-4.52a95.38,95.38,0,0,1-11.18,3.65,39.45,39.45,0,0,0,1.15-7c.05-.66.08-2.62-.79-2.88s-1.17,1-1.22,1.68h0a39.3,39.3,0,0,1-1.72,8.84c-.61.14-1.22.29-1.83.42-4.27.9-10.81,3-14.8.46-1.19-.75-1.69,3.76-.43,4.55h0c4.24,2.65,10.68.68,15.24-.28-3.05,7.59-7.24,14.88-9.39,22.73-.41,1.5,1,5.26,1.83,2.32,2.46-9,7.33-17.05,10.42-25.72A100.06,100.06,0,0,0,321.07,119.78Z"/><path class="cls-1" d="M343.65,134.56c-11.76-2.67-23.55-5.29-35.63-5.78-1.39-.06-1.39,4.64.11,4.7,12.08.49,23.88,3.11,35.63,5.78C344.93,139.52,345.21,134.91,343.65,134.56Z"/><path class="cls-1" d="M379.73,117.76c1.23-.75.62-5.29-.66-4.52a28.74,28.74,0,0,1-12.59,4.11c-1.48.14-1.28,4.83.11,4.7h0A30.51,30.51,0,0,0,379.73,117.76Z"/><path class="cls-1" d="M382,122.35a117.2,117.2,0,0,1-12.56,18.45c-.84,1-.08,5.5,1.14,4h0a116.77,116.77,0,0,0,12.55-18.46,4.15,4.15,0,0,0,.29-3.22C383.24,122.69,382.52,121.36,382,122.35Z"/><path class="cls-1" d="M403.47,113.62l-.16-.07a18.92,18.92,0,0,1,1.48-3c1.26-2.59,2.66-5.1,4.15-7.56h0c.55-.91.3-5.59-1.13-4h0c-1.65,1.81-4.28,2.4-6.48,3.29-1.26.52-.85,5.14.66,4.52h0l1.86-.72c-.65,1.3-1.28,2.61-1.86,3.94-.84,2-1.55,4.65-.5,6.76S405,118.39,407,118c4.38-.79,8.68-2,13-2.9,1.53-.32,1.14-5-.12-4.7-2.68.57-5.34,1.22-8,1.83-2.34.54-4.93,1.39-7.36,1.4A5.28,5.28,0,0,1,403.47,113.62Z"/><path class="cls-1" d="M465.21,128.73c-14.36,1.87-28.78,4.14-42.81,7.8-3.4.88-6.83,1.69-10.21,2.64-2.41.68-4.77,2.08-7.29,2.24-3.47.24-1.89-2.3-1.46-4.51.06-.37.11-.74.16-1.1a10.7,10.7,0,0,0,5.44-3.14c.89-1,.18-5.47-1.14-4a8.3,8.3,0,0,1-3.72,2.32c.12-1.35.23-2.71.29-4.06.06-.66.07-2.63-.79-2.88s-1.16,1-1.22,1.68h0c-.08,1.93-.25,3.85-.49,5.76a34.3,34.3,0,0,1-5.15.21c-1.41,0-1.37,4.69.11,4.7h0a40,40,0,0,0,4.26-.15l-.06.32c-.55,2.2-1.06,4.65-.33,6.87s2.66,3,4.94,2.62c3.25-.57,6.42-2.09,9.63-2.92a420,420,0,0,1,50-9.67C466.83,133.23,466.56,128.55,465.21,128.73Z"/></g></g></svg>