<svg xmlns="http://www.w3.org/2000/svg" viewBox="0 0 598.2 224.98"><defs><style>.cls-1{fill:#a2ddf2;}</style></defs><g id="圖層_2" data-name="圖層 2"><g id="圖層_1-2" data-name="圖層 1"><g id="Group_4405" data-name="Group 4405"><path id="Path_4100" data-name="Path 4100" class="cls-1" d="M535.79,95.74c-14.83-2-29.61.09-44.16,2.64a409.55,409.55,0,0,1-45.37,5.82c-30.89,1.92-61.9-.32-92.74-1.84-31-1.52-62-1.46-93.12-.84-30.76.62-61.61,1.66-92.32-.42-29.67-2-59.56-5.72-89.34-3-3.5.33-7,.74-10.47,1.25-2.25.32-1.29,3.21,1,2.89,29.37-4.24,59.26-1.17,88.68,1.08,14.79,1.13,29.55,1.9,44.41,2,15.49,0,31-.24,46.47-.55,31.09-.62,62.17-1.24,93.24.07,30.65,1.3,61.29,3.73,92,2.9a349.67,349.67,0,0,0,44.42-4c14.85-2.3,29.57-5.81,44.78-5.81a85.15,85.15,0,0,1,11.62.76c2.24.3,3.2-2.59.94-2.89Z"/><path id="Path_4101" data-name="Path 4101" class="cls-1" d="M535.22,220.54c-30.26-3.49-60.61-7-91.18-7.63a385.53,385.53,0,0,0-45.72,1.56c-14.86,1.45-29.38,4.46-44.16,6.31a135.91,135.91,0,0,1-22.63,1.14c-7.65-.33-15.1-1.8-22.63-2.86a333.91,333.91,0,0,0-45.8-2.85c-31-.07-62.07,1.46-93.06,2.37L76.4,221.33l-11.71.35c-2.27.06-2.28,3.06,0,3l93.64-2.76c31.08-.91,62.17-2.16,93.26-2.63a411.59,411.59,0,0,1,45.92,1.43c14.68,1.42,28.9,4.83,43.8,4.18s29.29-3.76,43.88-5.85a342.18,342.18,0,0,1,46-3.23c34.56-.25,68.91,3.67,103.08,7.61,2.23.26,3.2-2.63.94-2.89Z"/><path id="Path_4102" data-name="Path 4102" class="cls-1" d="M63.73,4.67a102.33,102.33,0,0,1,14.9,20.2,1.5,1.5,0,1,0,2.59-1.51A105.78,105.78,0,0,0,65.86,2.55c-1.34-1.4-3.45.72-2.13,2.12Z"/><path id="Path_4103" data-name="Path 4103" class="cls-1" d="M84.22,37.53,97.51,57.27c1.07,1.59,3.67.09,2.59-1.52L86.81,36C85.74,34.42,83.14,35.92,84.22,37.53Z"/><path id="Path_4104" data-name="Path 4104" class="cls-1" d="M35,24.27c4,1.72,6.93,4.79,9.83,7.89q5.32,5.7,10.62,11.4L76.65,66.31c1.31,1.42,3.43-.71,2.12-2.12L57.24,41.07,46.68,29.73c-3-3.16-6.12-6.3-10.16-8-1.75-.76-3.28,1.82-1.51,2.59Z"/><path id="Path_4105" data-name="Path 4105" class="cls-1" d="M44.54,60.11l-14-13.06c-1.41-1.31-3.54.8-2.12,2.12l14,13.06C43.83,63.54,46,61.43,44.54,60.11Z"/><path id="Path_4106" data-name="Path 4106" class="cls-1" d="M69.58,88.39A229.51,229.51,0,0,1,51.23,70.5c-1.31-1.43-3.43.7-2.12,2.12A229.39,229.39,0,0,0,67.45,90.51C68.9,91.77,71,89.66,69.58,88.39Z"/><path id="Path_4107" data-name="Path 4107" class="cls-1" d="M57.92,96.31q-21.54-12.65-43.21-25Q8.49,67.7,2.25,64.17A1.5,1.5,0,0,0,.73,66.76Q22.45,79.09,44,91.66q6.21,3.6,12.38,7.24a1.5,1.5,0,0,0,1.52-2.59Z"/><path id="Path_4108" data-name="Path 4108" class="cls-1" d="M533.07.73q-4.14,5.4-7.84,11.12a1.5,1.5,0,0,0,2.59,1.52q3.7-5.71,7.84-11.13a1.51,1.51,0,0,0-.54-2.05,1.54,1.54,0,0,0-2,.54Z"/><path id="Path_4109" data-name="Path 4109" class="cls-1" d="M515.5,26.52q-7.62,9.58-14.59,19.67c-1.1,1.59,1.5,3.09,2.59,1.51q6.75-9.75,14.12-19.06a1.55,1.55,0,0,0,0-2.12A1.51,1.51,0,0,0,515.5,26.52Z"/><path id="Path_4110" data-name="Path 4110" class="cls-1" d="M572.21,45l-6.59,5.67a1.51,1.51,0,0,0,0,2.12,1.53,1.53,0,0,0,2.12,0l6.59-5.67a1.51,1.51,0,0,0,0-2.12A1.53,1.53,0,0,0,572.21,45Z"/><path id="Path_4111" data-name="Path 4111" class="cls-1" d="M555.09,63.63a121.69,121.69,0,0,0-16.2,11.89c-1.47,1.26.66,3.38,2.12,2.12a118,118,0,0,1,15.6-11.42c1.64-1,.13-3.6-1.52-2.59Z"/><path id="Path_4112" data-name="Path 4112" class="cls-1" d="M560.76,19.27c-6,5-12.08,9.88-18.06,14.88a161.56,161.56,0,0,0-16.43,15.39c-1.29,1.43.82,3.56,2.12,2.12a161.56,161.56,0,0,1,16.43-15.39c6-5,12-9.92,18.06-14.87C564.37,20.17,562.24,18.06,560.76,19.27Z"/><path id="Path_4113" data-name="Path 4113" class="cls-1" d="M595.92,69.22a407.83,407.83,0,0,1-42.55,18.19c-1.8.65-1,3.55.8,2.89a414.24,414.24,0,0,0,43.27-18.49c1.73-.86.21-3.44-1.52-2.59Z"/><g id="Group_4403" data-name="Group 4403"><path id="Path_4114" data-name="Path 4114" class="cls-1" d="M9.3,182.54c2.82-12.91,14.2-21.56,27.63-18.67,12,2.57,20.52,15.65,15.64,27.45C48.24,201.77,36.66,206.8,26,203.85,16.25,201.16,7.16,193,10.11,182.12c.69-2.53-2-6.85-3.53-3-8.62,22.06,20.7,39.73,38.8,28.28,21.36-13.52,14.19-49.24-11.77-51.31C18.13,154.86,8,167,5.92,181.21,5.5,184,8.55,186,9.3,182.54Z"/><path id="Path_4115" data-name="Path 4115" class="cls-1" d="M26.63,170.37c.22,3.93,1.28,7.77,1.6,11.7.19,2.42-.29,5.56,1,7.7,1.09,1.75,2.91,2.27,4.8,2.73,3.19.77,6.37,1.63,9.6,2.2,2.73.49,2.8-6,.43-6.73a76.57,76.57,0,0,0-8.16-2c-.68-.13-1.4-.16-2.07-.35-1.28-.39-1-.18-1.38-1.06-.9-2.1-.7-5.43-1.17-7.72a28.24,28.24,0,0,0-2.25-7.52c-.93-1.77-2.53-.59-2.44,1.08Z"/></g><g id="Group_4404" data-name="Group 4404"><path id="Path_4116" data-name="Path 4116" class="cls-1" d="M530.86,171.61c2.71-8.72,9.55-14.34,19-13.65,9.81.71,18.3,10.79,14.41,20.61a17,17,0,0,1-20.12,9.83c-7.9-2.14-15.19-8.86-12.37-17.54.62-1.89-1.69-6.84-3.23-3.61-5.1,10.65,1.16,22.07,11.58,26.46a21.07,21.07,0,0,0,27.53-11.39c.09-.22.18-.44.26-.66,4.52-11.61-1-26.24-13.34-30.12-13.64-4.3-24.13,5.38-26.9,18.1-.47,2.14,2.28,5,3.22,2Z"/><path id="Path_4117" data-name="Path 4117" class="cls-1" d="M544.62,162.43c-.16,3,.44,6,.46,9,0,2.22-.6,4.9.62,6.92,1.78,3,7.82,4,10.81,4.72,3.31.78,3.64-5.53,1-6.62a47.5,47.5,0,0,0-5.8-1.93c-1.31-.36-2.16-.25-2.63-1.25-.67-1.42-.35-4.27-.58-5.88a20,20,0,0,0-1.48-6c-.94-1.94-2.36-.42-2.44,1.08Z"/></g></g></g></g></svg>