<svg xmlns="http://www.w3.org/2000/svg" viewBox="0 0 95.25 35.14"><defs><style>.cls-1,.cls-2{fill:#043f98;}.cls-2{stroke:#043f98;stroke-width:0.3px;}</style></defs><g id="圖層_2" data-name="圖層 2"><g id="圖層_1-2" data-name="圖層 1"><g id="Group_4469" data-name="Group 4469"><g id="Group_4468" data-name="Group 4468"><g id="Group_4248" data-name="Group 4248"><path id="Path_461" data-name="Path 461" class="cls-1" d="M3.67,12.25c-.14,3.15-.18,6.31-.14,9.46,0,.18.06.75.34.72s.3-.55.3-.73q-.07-4.54.12-9.08c0-.21,0-.81-.25-.89s-.36.31-.37.51Z"/><path id="Path_462" data-name="Path 462" class="cls-1" d="M.06,19.3c.17.82-.25,1.62.2,2.42a2.14,2.14,0,0,0,2,.89c1.88,0,3.29-1.34,4.4-2.71L6.42,20A6.3,6.3,0,0,1,7.55,21.1c.43.42.58-1,.29-1.26a7.38,7.38,0,0,0-1.29-1.27.18.18,0,0,0-.24.08,5.87,5.87,0,0,1-3.6,2.47c-.64.09-1.94.12-2.07-.72-.09-.6.08-1.22-.05-1.85-.06-.27-.22-.42-.44-.25s-.14.77-.09,1Z"/><path id="Path_463" data-name="Path 463" class="cls-1" d="M8.51,10.48A10.74,10.74,0,0,1,12.1,8.17c.39-.15.27-1.58-.2-1.4A10.74,10.74,0,0,0,8.31,9.08a1,1,0,0,0-.2.9c0,.1.18.71.4.5Z"/><path id="Path_464" data-name="Path 464" class="cls-1" d="M8,6.92A29,29,0,0,0,8.92,17.4c.07.26.21.42.44.25s.15-.78.09-1a26,26,0,0,1-.82-9.36c.06-.64-.53-1.35-.62-.37Z"/><path id="Path_465" data-name="Path 465" class="cls-1" d="M9.68,20a125.89,125.89,0,0,1,17.19-6c.48-.12.33-1.55,0-1.45A126.52,126.52,0,0,0,9.48,18.64c-.39.17-.25,1.6.2,1.4Z"/><path id="Path_466" data-name="Path 466" class="cls-1" d="M14.91,9l3.54-.59c.47-.08.37-1.52,0-1.45l-3.53.59c-.47.08-.37,1.52,0,1.45Z"/><path id="Path_467" data-name="Path 467" class="cls-1" d="M16.32,5.62c-.11,1.19-.19,2.38-.25,3.58a10.06,10.06,0,0,0,0,2.9c.22.84.71.89,1.46.65l1.8-.6.75-.25c.35-.11.26-.18.32,0,.11.34-.49,1.4-.64,1.73-.26.57-.56,1.12-.87,1.66-.58,1-1.19,2-1.82,2.93q-2,3-4.17,5.75c-.25.32,0,1.7.35,1.25q2.27-2.85,4.25-5.89a26,26,0,0,0,3.31-6.19A3.16,3.16,0,0,0,21,10.68c-.45-.75-1.8.06-2.41.26a5.93,5.93,0,0,1-1.54.51c-.64,0-.34-1-.31-1.55,0-1.31.14-2.61.26-3.92,0-.2,0-.81-.25-.89s-.36.32-.37.52Z"/><path id="Path_468" data-name="Path 468" class="cls-1" d="M22.67,6.25a2.35,2.35,0,0,1,2.11.24c.8.58.61,2,.55,2.92A14.3,14.3,0,0,1,23.64,15a1.29,1.29,0,0,0-.09,1c.05.14.27.56.44.25a16.26,16.26,0,0,0,2-7.86,4.37,4.37,0,0,0-.75-3,2.63,2.63,0,0,0-2.78-.52c-.39.17-.25,1.59.2,1.4Z"/><path id="Path_469" data-name="Path 469" class="cls-1" d="M21.82,19.38A12.8,12.8,0,0,1,25.4,22c.4.43.58-1,.29-1.26A13.22,13.22,0,0,0,22,18c-.41-.21-.53,1.21-.13,1.41Z"/><path id="Path_470" data-name="Path 470" class="cls-1" d="M8.66,13.22a4.3,4.3,0,0,0,3.11-.87c.36-.28.13-1.66-.2-1.4a4,4,0,0,1-3,.81c-.4,0-.44,1.4,0,1.46Z"/><path id="Path_471" data-name="Path 471" class="cls-1" d="M9.5,16.58l3.64-1.66c.39-.18.25-1.6-.2-1.4L9.3,15.18c-.39.17-.25,1.6.2,1.39Z"/><g id="Group_4240" data-name="Group 4240"><path id="Path_485" data-name="Path 485" class="cls-2" d="M38.41,6.1a27.91,27.91,0,0,0,4.45-1.55c.32-.13.24-1.26-.11-1.11A28.87,28.87,0,0,1,38.42,5C38.05,5.06,38.13,6.18,38.41,6.1Z"/><path id="Path_486" data-name="Path 486" class="cls-2" d="M38.6,21.74a7.48,7.48,0,0,0,3-2.06c.21-.24.06-1.35-.25-1a7.17,7.17,0,0,1-2.84,1.95c-.31.12-.24,1.26.12,1.11Z"/><path id="Path_490" data-name="Path 490" class="cls-2" d="M32.4,10.28a11.2,11.2,0,0,0,3.77-.56c.31-.11.26-1.24-.12-1.11a10.92,10.92,0,0,1-3.64.52C32.06,9.12,32,10.27,32.4,10.28Z"/><path id="Path_491" data-name="Path 491" class="cls-2" d="M32.49,14a17.48,17.48,0,0,0,3.4-1.57c.31-.18.19-1.3-.12-1.11a17.48,17.48,0,0,1-3.4,1.57c-.31.11-.26,1.24.13,1.11Z"/><path id="Path_492" data-name="Path 492" class="cls-2" d="M37.29,13.23a59.62,59.62,0,0,1-4.74,3.94c-.29.21-.15,1.3.12,1.1a61.09,61.09,0,0,0,4.74-3.94C37.68,14.09,37.51,13,37.29,13.23Z"/><path id="Path_493" data-name="Path 493" class="cls-2" d="M39.88,8.44a8.78,8.78,0,0,1,2.29-.59c.46-.06,1.9-.29,2.23.14a2.18,2.18,0,0,1,.13,1,5.19,5.19,0,0,1-.11,1,5.48,5.48,0,0,1-.94,2.05c-.19.26,0,1.36.24,1a7,7,0,0,0,1.19-5.34c-.07-.34-.13-.76-.45-1A3,3,0,0,0,43,6.64a9.21,9.21,0,0,0-3.28.69C39.45,7.45,39.52,8.58,39.88,8.44Z"/><path id="Path_494" data-name="Path 494" class="cls-2" d="M40.18,12.28a15.69,15.69,0,0,1,3.38-1.56c.31-.1.26-1.24-.12-1.11a15.47,15.47,0,0,0-3.38,1.56c-.3.19-.18,1.29.13,1.11Z"/><path id="Path_495" data-name="Path 495" class="cls-2" d="M39.68,14.58a14.29,14.29,0,0,0,3.58-1c.32-.13.24-1.26-.12-1.11a13.67,13.67,0,0,1-3.45.94C39.32,13.49,39.36,14.63,39.68,14.58Z"/><path id="Path_496" data-name="Path 496" class="cls-2" d="M39.46,9.73l-.4,10.63c0,.68.48.69.5,0L40,9.74c0-.68-.48-.69-.5,0Z"/><path id="Path_497" data-name="Path 497" class="cls-2" d="M46,15.35a14.89,14.89,0,0,1-2,1.77c-.29.21-.14,1.3.12,1.11a14.86,14.86,0,0,0,2.15-1.88c.23-.24.09-1.34-.24-1Z"/><path id="Path_498" data-name="Path 498" class="cls-2" d="M41.4,17.27a34.66,34.66,0,0,0,8.36,2.29c3,.6,6.07,1.17,9.11,1.74.31.06.39-1.07,0-1.15-3-.55-5.9-1.1-8.84-1.68a35.79,35.79,0,0,1-8.5-2.31C41.2,16,41.09,17.12,41.4,17.27Z"/></g><g id="Group_135" data-name="Group 135"><g id="Group_130" data-name="Group 130"><g id="Group_129" data-name="Group 129"><g id="Group_127" data-name="Group 127"><path id="Path_360" data-name="Path 360" class="cls-1" d="M64.15,6.07A5.57,5.57,0,0,0,64,8.57c0,.43,1.37.3,1.35-.13A5.56,5.56,0,0,0,64.85,6c-.1-.15-.64-.09-.7.07Z"/><path id="Path_361" data-name="Path 361" class="cls-1" d="M64.72,8.92h0c-.36,0-.74-.06-.77-.33A5.64,5.64,0,0,1,64.07,6h0c.05-.13.25-.19.42-.21h0c.1,0,.34,0,.42.13a5.56,5.56,0,0,1,.54,2.47C65.48,8.72,65.1,8.88,64.72,8.92ZM64.51,6a.48.48,0,0,0-.28.1h0a5.3,5.3,0,0,0-.11,2.47c0,.12.27.2.58.18h0c.33,0,.59-.17.58-.31A5.41,5.41,0,0,0,64.77,6s-.1,0-.26,0Z"/></g><g id="Group_128" data-name="Group 128"><path id="Path_362" data-name="Path 362" class="cls-1" d="M64.72,9h0c-.48,0-.8-.12-.83-.39A5.59,5.59,0,0,1,64,6h0c.08-.2.39-.24.48-.24h0c.11,0,.38,0,.48.15a5.84,5.84,0,0,1,.55,2.5C65.54,8.76,65.13,8.94,64.72,9Zm-.44-2.85a5.54,5.54,0,0,0-.11,2.43c0,.07.21.15.52.13h0c.32,0,.54-.15.54-.24a5.52,5.52,0,0,0-.51-2.37.61.61,0,0,0-.44,0Z"/><path id="Path_363" data-name="Path 363" class="cls-1" d="M64.73,9.06h0c-.52,0-.88-.14-.92-.46A5.76,5.76,0,0,1,63.93,6c.09-.24.43-.29.55-.3s.44,0,.56.2a5.71,5.71,0,0,1,.56,2.54C65.62,8.81,65.18,9,64.73,9.06Zm0-.08V8.89h0c.35,0,.73-.19.71-.45A5.7,5.7,0,0,0,64.89,6c-.07-.13-.32-.12-.39-.11h0c-.16,0-.36.07-.4.19A5.41,5.41,0,0,0,64,8.58c0,.23.31.35.74.31Zm0-.2h0c-.33,0-.6-.06-.61-.2a5.42,5.42,0,0,1,.11-2.47l0,0A.63.63,0,0,1,64.77,6l0,0a5.53,5.53,0,0,1,.52,2.41c0,.18-.3.3-.6.33Zm-.45-.24a.64.64,0,0,0,.43.06h0a.65.65,0,0,0,.45-.15,5.52,5.52,0,0,0-.48-2.3.83.83,0,0,0-.31,0,5.48,5.48,0,0,0-.09,2.35Z"/></g></g></g><g id="Group_134" data-name="Group 134"><g id="Group_133" data-name="Group 133"><g id="Group_131" data-name="Group 131"><path id="Path_364" data-name="Path 364" class="cls-1" d="M60.12,11.36c1-.36,1.92-.88,2.93-1.22a11.91,11.91,0,0,1,3.55-.6l-.5-.46c-2.1,2.27-4.19,4.57-6.43,6.71-.22.22.11.4.3.42a23.48,23.48,0,0,1,4.57.78,14.76,14.76,0,0,1,4,2.2c.36.25,1.75-.11,1.24-.47a15.51,15.51,0,0,0-4.3-2.3,25.3,25.3,0,0,0-4.88-.84l.3.42a93.22,93.22,0,0,0,6.49-6.7c.35-.41-.47-.47-.7-.46a15,15,0,0,0-4,.77,6.5,6.5,0,0,0-3,1.67c-.1.13.4.1.44.08Z"/><path id="Path_365" data-name="Path 365" class="cls-1" d="M69.1,19.35a.9.9,0,0,1-.58-.1,14.45,14.45,0,0,0-4-2.18,20.69,20.69,0,0,0-4.06-.72L60,16.29a.54.54,0,0,1-.44-.28.24.24,0,0,1,.09-.28C61.5,13.93,63.3,12,65,10.1l.37-.4a11.46,11.46,0,0,0-2.32.52,16.27,16.27,0,0,0-1.55.64c-.45.2-.91.41-1.38.58h0s-.45.07-.55-.07a.12.12,0,0,1,0-.15,6.46,6.46,0,0,1,3.06-1.7,15.11,15.11,0,0,1,4-.77s.71,0,.85.26c0,.07.05.18-.08.34-1.82,2.14-3.8,4.11-6,6.23a21.41,21.41,0,0,1,4.05.75,15.78,15.78,0,0,1,4.32,2.31.29.29,0,0,1,.15.25q0,.18-.3.3A2.11,2.11,0,0,1,69.1,19.35ZM65.66,9.68l-.5.54c-1.74,1.88-3.54,3.83-5.42,5.63-.07.06-.06.1-.05.11s.18.15.3.16l.48.06a21.09,21.09,0,0,1,4.1.72,15,15,0,0,1,4.06,2.21,1.36,1.36,0,0,0,1-.07c.14-.06.2-.13.2-.16s0-.06-.08-.1a15.56,15.56,0,0,0-4.27-2.29,21.76,21.76,0,0,0-4.16-.76l-.33.32-.07.07-.47-.66.47,0,.34,0a84.69,84.69,0,0,0,6.1-6.32s.08-.1.06-.15-.45-.17-.69-.16l-.62,0,.7.66h-.21c-.32,0-.63,0-.94.05Zm-4.84,6,.13.18.16-.15-.2,0Zm-1-4.4h.31c.46-.17.92-.38,1.36-.58s1-.46,1.56-.64a11.81,11.81,0,0,1,2.56-.55L66,9l0,0a15.38,15.38,0,0,0-3.35.71,6.53,6.53,0,0,0-2.94,1.6Zm6-1.79.56,0-.28-.26Z"/></g><g id="Group_132" data-name="Group 132"><path id="Path_366" data-name="Path 366" class="cls-1" d="M69.1,19.41a1,1,0,0,1-.61-.11,14.8,14.8,0,0,0-4-2.18,21.35,21.35,0,0,0-4-.72l-.48,0a.61.61,0,0,1-.49-.32.33.33,0,0,1,.1-.35C61.45,13.89,63.24,12,65,10.07l.27-.29a11.3,11.3,0,0,0-2.16.5,16.08,16.08,0,0,0-1.54.64c-.45.2-.91.41-1.38.58h0s-.49.09-.62-.09a.17.17,0,0,1,0-.22,6.52,6.52,0,0,1,3.08-1.72,15.33,15.33,0,0,1,4.07-.77s.74,0,.9.29a.35.35,0,0,1-.09.4c-1.8,2.12-3.76,4.06-5.92,6.15a21,21,0,0,1,3.94.73,16.2,16.2,0,0,1,4.34,2.32.36.36,0,0,1,.17.31c0,.14-.13.25-.34.35A2,2,0,0,1,69.1,19.41ZM61,16.17a19.27,19.27,0,0,1,3.62.68,14.84,14.84,0,0,1,4.08,2.22,1.25,1.25,0,0,0,.83,0c.22-.07.28-.14.28-.16a.11.11,0,0,0,0,0,15.3,15.3,0,0,0-4.25-2.28,21.48,21.48,0,0,0-4.12-.75l-.31.3Zm4.73-6.44-.49.54c-1.74,1.88-3.54,3.82-5.42,5.62l0,0a.37.37,0,0,0,.25.12l.48.06.41,0-.55-.77.6.07.31,0c2.07-2,3.94-3.83,5.66-5.81h-.3l-.91.05Zm-4.75,6,0,0h0Zm-1-4.52h.17c.46-.16.91-.37,1.35-.57s1-.46,1.58-.65a11.61,11.61,0,0,1,2.54-.54l.38-.41a15,15,0,0,0-3.18.69,6.76,6.76,0,0,0-2.84,1.49ZM66.25,9l.68.63.39-.45c.05-.06.05-.08.05-.09S67,9,66.74,9l-.49,0Zm-.27.4.26,0-.13-.12Z"/><path id="Path_367" data-name="Path 367" class="cls-1" d="M69.11,19.49h0a1.07,1.07,0,0,1-.66-.12,14.34,14.34,0,0,0-4-2.17,20.48,20.48,0,0,0-4-.71L60,16.43a.68.68,0,0,1-.56-.38.39.39,0,0,1,.13-.43c1.87-1.79,3.67-3.73,5.4-5.61L65,9.9a10.52,10.52,0,0,0-1.9.46A15.6,15.6,0,0,0,61.6,11c-.46.21-.93.42-1.4.59,0,0-.55.12-.72-.11a.27.27,0,0,1,0-.33,6.55,6.55,0,0,1,3.13-1.75,15.75,15.75,0,0,1,4.08-.78s.8,0,1,.34a.43.43,0,0,1-.1.5,82.43,82.43,0,0,1-5.79,6,21.08,21.08,0,0,1,3.77.72,16.2,16.2,0,0,1,4.36,2.33.46.46,0,0,1,.21.39q0,.25-.39.42A2,2,0,0,1,69.11,19.49ZM65.47,9.66l-.42.46C63.31,12,61.51,14,59.63,15.74a.25.25,0,0,0-.08.26.52.52,0,0,0,.42.26l.48.06a20.07,20.07,0,0,1,4.07.72,14.42,14.42,0,0,1,4,2.19.87.87,0,0,0,.55.09h0a2,2,0,0,0,.6-.15c.18-.08.28-.18.29-.28a.22.22,0,0,0-.07-.17l0,.17c0,.06-.12.15-.34.22a1.24,1.24,0,0,1-.91,0,14.75,14.75,0,0,0-4-2.2A18.68,18.68,0,0,0,61,16.26l-1-.12c-.12,0-.3-.1-.32-.2h0a.13.13,0,0,1,.06-.1l.48-.47-.05-.08.12,0c1.68-1.65,3.3-3.39,4.86-5.09l.52-.56h0c.3,0,.61-.05.92-.05h.15L66.1,9l-.51.54h0a11.54,11.54,0,0,0-2.53.55,16.27,16.27,0,0,0-1.55.64c-.45.2-.9.41-1.37.57a.71.71,0,0,1-.2,0h-.2l.13-.14a6.93,6.93,0,0,1,2.87-1.52,16,16,0,0,1,3.2-.7l.23,0h.1l.49,0c.18,0,.66,0,.72.18v0a.23.23,0,0,1-.07.15l-.28.33h0L67,9.73c-1.81,2.08-3.79,4-5.67,5.83l0,0-.77-.08.42.58.39-.37h0a22.49,22.49,0,0,1,4.14.75,15.67,15.67,0,0,1,4.28,2.3l.09-.08,0,0a15.72,15.72,0,0,0-4.31-2.31,20.84,20.84,0,0,0-3.92-.73l-.18,0,.13-.13q3.12-2.93,5.92-6.14A.28.28,0,0,0,67.55,9c-.11-.22-.64-.25-.82-.24a15.35,15.35,0,0,0-4,.76,6.47,6.47,0,0,0-3,1.7.09.09,0,0,0,0,.12c.07.1.4.07.52.05.46-.17.92-.37,1.37-.57a14.94,14.94,0,0,1,1.55-.65,12.41,12.41,0,0,1,2.17-.5ZM61.15,16.1a18.54,18.54,0,0,1,3.46.66A15.25,15.25,0,0,1,68.71,19a1.2,1.2,0,0,0,.75,0,1,1,0,0,0,.18-.08,15.31,15.31,0,0,0-4.2-2.24,21.61,21.61,0,0,0-4.07-.75Zm-1.29-.17L60,16l.7.07-.4-.55-.44.43Zm.62-.61.73.08C63,13.64,65,11.77,66.71,9.76H66.6c-.3,0-.58,0-.87.05l-.47.51c-1.54,1.67-3.13,3.38-4.77,5Zm5.23-6.17a15.65,15.65,0,0,0-2.94.67,7.52,7.52,0,0,0-2.6,1.28c.41-.16.83-.35,1.23-.53A16.89,16.89,0,0,1,63,9.92a11.54,11.54,0,0,1,2.53-.55Zm.74-.07.47.44.33-.38h0a1.26,1.26,0,0,0-.51-.07ZM61,15.88l-.09-.08-.11-.16.4,0Zm5.49-6.4h-.2l-.26,0h-.22l.34-.36Z"/></g></g></g></g><g id="Group_177" data-name="Group 177"><g id="Group_176" data-name="Group 176"><g id="Group_174" data-name="Group 174"><path id="Path_398" data-name="Path 398" class="cls-1" d="M84.31,16.93a13.23,13.23,0,0,0,.75,3.73c.1.31,1.07.15,1-.13-.34-1.23-.59-2.49-1-3.69-.07-.22-.77-.14-.76.1Z"/><path id="Path_399" data-name="Path 399" class="cls-1" d="M85.6,20.89c-.26,0-.54,0-.6-.21a13.75,13.75,0,0,1-.76-3.74c0-.14.14-.25.37-.28s.47,0,.53.16c.25.77.45,1.58.64,2.36.11.44.22.89.34,1.33,0,.14-.08.27-.32.34Zm-1.23-4a13.75,13.75,0,0,0,.75,3.7c0,.14.39.16.64.08s.25-.11.23-.17c-.12-.44-.23-.89-.34-1.33-.19-.78-.39-1.59-.64-2.36,0-.06-.18-.1-.38-.07s-.26.09-.26.15Z"/></g><g id="Group_175" data-name="Group 175"><path id="Path_400" data-name="Path 400" class="cls-1" d="M85.6,21.06c-.34,0-.68-.06-.77-.33a14.41,14.41,0,0,1-.76-3.79c0-.22.19-.4.51-.45s.63,0,.71.27c.26.78.46,1.59.65,2.38.11.44.22.89.34,1.32,0,.19,0,.43-.44.55Zm-.33-.49a.84.84,0,0,0,.54-.05c-.11-.42-.22-.85-.32-1.27-.19-.76-.38-1.55-.63-2.3a.58.58,0,0,0-.32,0,14.23,14.23,0,0,0,.73,3.59Z"/><path id="Path_401" data-name="Path 401" class="cls-1" d="M85.61,21.12h0c-.43.05-.75-.1-.84-.37A13.79,13.79,0,0,1,84,16.94c0-.26.21-.46.56-.52s.69,0,.79.32c.25.78.45,1.59.65,2.38v0c.1.43.21.87.33,1.3.05.2,0,.49-.49.62A1,1,0,0,1,85.61,21.12Zm0-.13a1,1,0,0,0,.24,0c.35-.1.43-.3.39-.46-.12-.42-.23-.87-.33-1.3v0c-.2-.79-.39-1.6-.65-2.38-.07-.22-.38-.27-.64-.23s-.46.2-.45.39a14,14,0,0,0,.76,3.77c.08.25.41.31.7.28Zm0-.34a.62.62,0,0,1-.33,0h0v0a13.79,13.79,0,0,1-.73-3.6v0h0a.63.63,0,0,1,.36,0h0v0c.24.76.44,1.55.63,2.31v0c.1.4.2.83.32,1.24v0l0,0a.9.9,0,0,1-.28.08Zm-.24-.13a.91.91,0,0,0,.4,0c-.11-.4-.21-.81-.3-1.19v0c-.18-.75-.37-1.52-.61-2.26a.65.65,0,0,0-.2,0,13.45,13.45,0,0,0,.71,3.49Z"/></g></g></g><g id="Group_181" data-name="Group 181"><g id="Group_180" data-name="Group 180"><g id="Group_178" data-name="Group 178"><path id="Path_402" data-name="Path 402" class="cls-1" d="M86,16c-.37.21-.57.11-.21.07a4,4,0,0,1,.48-.07c.63,0,1,.54,1.12,1.11a20.19,20.19,0,0,1,0,2.91c0,.14.48,0,.5-.11.12-1.2.75-2.82-.2-3.87a1.81,1.81,0,0,0-2.21-.26c-.49.26.25.36.5.22Z"/><path id="Path_403" data-name="Path 403" class="cls-1" d="M87.61,20.16h-.12c-.16,0-.19-.08-.2-.12a6.74,6.74,0,0,1,0-1.27,4.7,4.7,0,0,0,0-1.63c-.1-.4-.38-1.07-1.06-1.07a1.17,1.17,0,0,0-.26,0l-.1,0h0c-.14.06-.29.1-.34.05l0,0v0a.64.64,0,0,1-.18-.06.13.13,0,0,1-.08-.13c0-.07.07-.14.2-.21a1.89,1.89,0,0,1,2.29.27c.76.84.54,2,.35,3.08-.06.3-.11.58-.14.85C87.91,20.06,87.75,20.13,87.61,20.16ZM86,16l.21,0c.77,0,1.07.73,1.19,1.16a5,5,0,0,1,0,1.68,6.53,6.53,0,0,0,0,1.25.43.43,0,0,0,.25,0c.09,0,.12-.06.12-.07,0-.27.08-.56.13-.87.19-1,.4-2.17-.31-3a1.77,1.77,0,0,0-2.13-.24c-.12.06-.13.1-.13.1l.07,0a.86.86,0,0,0,.5,0h0v0Z"/></g><g id="Group_179" data-name="Group 179"><path id="Path_404" data-name="Path 404" class="cls-1" d="M87.64,20.33h-.15a.32.32,0,0,1-.36-.27,6.27,6.27,0,0,1,0-1.3,4.65,4.65,0,0,0,0-1.58c-.11-.43-.36-.94-.9-.94a.78.78,0,0,0-.22,0l-.09,0a.52.52,0,0,1-.5,0l-.05,0-.14-.05a.33.33,0,0,1-.16-.28c0-.21.22-.32.29-.36a2,2,0,0,1,2.49.31c.81.9.59,2.13.39,3.22,0,.3-.11.58-.13.84S87.85,20.29,87.64,20.33Zm-1.32-4.54c.59.05,1,.51,1.24,1.28a5.08,5.08,0,0,1,.06,1.74,7.38,7.38,0,0,0,0,1.05l0,0c0-.26.08-.52.13-.81.19-1,.39-2.09-.27-2.81a1.39,1.39,0,0,0-1.17-.43Z"/><path id="Path_405" data-name="Path 405" class="cls-1" d="M87.66,20.39h0l-.17,0a.4.4,0,0,1-.43-.34,7.19,7.19,0,0,1,0-1.31,4.75,4.75,0,0,0,0-1.55c-.11-.41-.34-.89-.83-.89a.64.64,0,0,0-.2,0l-.09,0a.59.59,0,0,1-.56,0l0,0A.44.44,0,0,1,85,16a.53.53,0,0,1,.33-.42,2.12,2.12,0,0,1,2.57.33c.83.92.6,2.17.4,3.27-.05.3-.1.58-.13.83A.56.56,0,0,1,87.66,20.39Zm-1.6-4.19.16,0c.46,0,.79.35,1,1a4.52,4.52,0,0,1,0,1.6,7.8,7.8,0,0,0,0,1.28.26.26,0,0,0,.3.21h.14c.17,0,.37-.14.4-.31a7.2,7.2,0,0,1,.13-.84c.2-1.08.42-2.29-.37-3.17a2,2,0,0,0-2.42-.3c-.06,0-.25.14-.25.3a.24.24,0,0,0,.13.22.31.31,0,0,0,.12.05h0l0,0c.1.09.31,0,.43,0l.09,0ZM87.52,20v-.09a9.21,9.21,0,0,1,0-1.05,5,5,0,0,0,0-1.72c-.2-.74-.63-1.19-1.19-1.24v-.13a1.45,1.45,0,0,1,1.23.46c.68.75.48,1.82.29,2.87,0,.27-.1.54-.13.8v0h0l-.07,0Zm-.62-4a1.94,1.94,0,0,1,.74,1.15,5.14,5.14,0,0,1,0,1.75l0,.47c0-.09,0-.17,0-.26.19-1,.38-2.06-.25-2.76a1.33,1.33,0,0,0-.55-.35Z"/></g></g></g><g id="Group_185" data-name="Group 185"><g id="Group_184" data-name="Group 184"><g id="Group_182" data-name="Group 182"><path id="Path_406" data-name="Path 406" class="cls-1" d="M85.81,18.58a2.89,2.89,0,0,0,.88,0c.1,0,.46-.09.4-.26s-.44-.11-.56-.09a2.76,2.76,0,0,0-.75.19C85.67,18.44,85.67,18.55,85.81,18.58Z"/><path id="Path_407" data-name="Path 407" class="cls-1" d="M86.7,18.61h0l-.2,0a2.05,2.05,0,0,1-.7,0h0a.16.16,0,0,1-.15-.14.18.18,0,0,1,.11-.18,1.72,1.72,0,0,1,.59-.16l.17,0c.36-.08.58,0,.64.12a.18.18,0,0,1,0,.16A.67.67,0,0,1,86.7,18.61Zm-.16-.12h.14a.58.58,0,0,0,.34-.14,0,0,0,0,0,0,0s-.08-.12-.48,0l-.18,0a1.8,1.8,0,0,0-.55.15s0,0,0,0a.08.08,0,0,0,0,0,2.09,2.09,0,0,0,.66,0Z"/></g><g id="Group_183" data-name="Group 183"><path id="Path_408" data-name="Path 408" class="cls-1" d="M86.4,18.81a2.29,2.29,0,0,1-.64,0h0a.35.35,0,0,1-.29-.28.36.36,0,0,1,.2-.35,1.8,1.8,0,0,1,.64-.18l.17,0c.45-.09.73,0,.82.22a.34.34,0,0,1,0,.31.84.84,0,0,1-.56.28l-.2,0Zm-.55-.46,0,.23Z"/><path id="Path_409" data-name="Path 409" class="cls-1" d="M86.72,18.84l-.2,0-.11,0a2.43,2.43,0,0,1-.66,0,.41.41,0,0,1-.34-.34.41.41,0,0,1,.23-.42,2.17,2.17,0,0,1,.66-.19l.17,0c.49-.1.79,0,.9.27a.41.41,0,0,1,0,.37A.84.84,0,0,1,86.72,18.84Zm-.14-.12h.13a.74.74,0,0,0,.51-.25.23.23,0,0,0,0-.24c-.08-.21-.33-.27-.75-.19l-.17,0a2,2,0,0,0-.62.17.29.29,0,0,0-.16.29.27.27,0,0,0,.24.22,1.57,1.57,0,0,0,.61,0l.19,0Zm-.71-.13-.13,0,.06-.28.14,0Z"/></g></g></g><g id="Group_189" data-name="Group 189"><g id="Group_188" data-name="Group 188"><g id="Group_186" data-name="Group 186"><path id="Path_410" data-name="Path 410" class="cls-1" d="M85.94,21.83a4.86,4.86,0,0,1,1.41-.25c.11,0,.33,0,.4-.12s0-.16-.08-.18a3.84,3.84,0,0,0-2.19.3c-.12.05-.25.15-.11.26s.43,0,.57,0Z"/><path id="Path_411" data-name="Path 411" class="cls-1" d="M85.69,22a.51.51,0,0,1-.36-.07.17.17,0,0,1-.08-.17c0-.1.12-.16.21-.2a3.85,3.85,0,0,1,2.22-.3.18.18,0,0,1,.16.1.19.19,0,0,1,0,.18c-.09.13-.33.14-.45.15a4.73,4.73,0,0,0-1.4.24h0A.9.9,0,0,1,85.69,22Zm1-.64a4.46,4.46,0,0,0-1.19.32c-.08,0-.13.08-.13.1s0,0,0,.05.35,0,.5,0a4.67,4.67,0,0,1,1.43-.25c.09,0,.3,0,.36-.1s0,0,0-.05,0,0,0,0a3.5,3.5,0,0,0-1,0Z"/></g><g id="Group_187" data-name="Group 187"><path id="Path_412" data-name="Path 412" class="cls-1" d="M85.7,22.13a.63.63,0,0,1-.48-.11.36.36,0,0,1-.14-.32.45.45,0,0,1,.32-.33,3.94,3.94,0,0,1,2.32-.32.36.36,0,0,1,.28.21.33.33,0,0,1-.06.33.69.69,0,0,1-.57.22,4.46,4.46,0,0,0-1.35.24h0A1.67,1.67,0,0,1,85.7,22.13Z"/><path id="Path_413" data-name="Path 413" class="cls-1" d="M85.72,22.19h0a.66.66,0,0,1-.53-.12.4.4,0,0,1-.16-.38.5.5,0,0,1,.35-.38A4.08,4.08,0,0,1,87.73,21a.39.39,0,0,1,.27.64.75.75,0,0,1-.63.25,4.27,4.27,0,0,0-1.32.24h0A1.65,1.65,0,0,1,85.72,22.19Zm0-.13A1.63,1.63,0,0,0,86,22h0a4.52,4.52,0,0,1,1.36-.24.72.72,0,0,0,.53-.19.29.29,0,0,0,0-.27.27.27,0,0,0-.23-.17,3.89,3.89,0,0,0-2.28.31.41.41,0,0,0-.28.28.3.3,0,0,0,.12.26.55.55,0,0,0,.43.09Z"/></g></g></g><path id="Path_4064" data-name="Path 4064" class="cls-1" d="M76.93,5.51a86.68,86.68,0,0,1,.83,19.11c0,.12-.1.89.42.95s.54-.75.54-.83a90.63,90.63,0,0,0-.9-20c0-.15-.2-.66-.63-.4s-.31.85-.26,1.19Z"/><path id="Path_4065" data-name="Path 4065" class="cls-1" d="M75.41,4.75A7.22,7.22,0,0,1,78.87,3.5a2.84,2.84,0,0,1,2.69,1.8,9.5,9.5,0,0,1,.57,1.54,4.47,4.47,0,0,1,.16.81c0,.1,0,0,0,0a1.82,1.82,0,0,1-.11.38A2.64,2.64,0,0,1,81,9.21c-.17.09-1.47.81-1.53.46l0,.87c0,.34,0,.19.12,0s.17-.23.26-.34l.5-.63c.35-.43.49-1,.86-1.45C82,7.33,83,6.25,83.86,5.51c.23-.2.18-.34.17-.61,0-.08-.06-.78-.24-.62a31.7,31.7,0,0,0-3.77,4,4.8,4.8,0,0,0-.67,1,3,3,0,0,0-.13,1.71c0,.28.16.64.51.63a1.74,1.74,0,0,0,.6-.23l.58-.28a3,3,0,0,0,1.51-1.63,6.31,6.31,0,0,0,.21-2.8A10,10,0,0,0,82,4.22,4.36,4.36,0,0,0,80.74,2.3C79.08,1,77,2.08,75.43,3c-.23.13-.2.67-.2.89,0,.06.07,1,.19.9Z"/><path id="Path_4066" data-name="Path 4066" class="cls-1" d="M90.05,0c0,.05-1.58,1.65-1.72,1.85A7.87,7.87,0,0,0,87.22,4a5.27,5.27,0,0,0,.3,4.47c.44.7,1.52.21,2.21-.05,1.58-.57,2.76-1.54,4.32-2.11-.1,0-.24-.53-.24-.58l0,.3s0-.1,0-.14V6l0,.68c0,.53,0,1.06,0,1.59,0,.9,0,1.8,0,2.71v.13c0,3.83-.08,7.66-.07,11.48,0,2.5.06,5,.1,7.48,0,.42-.1,5.23.47,5,.26-.09.57-1.05.59-1.3.51-8.35-.1-13.93,0-22.29a27.88,27.88,0,0,0-.23-4c-.1-.69-.23-1.38-.4-2.07-.12-.45-.15-1.45-1.14-1-.76.31-1.34.84-2.06,1.2a15,15,0,0,1-1.55.66,4.65,4.65,0,0,1-1.37.43c-.76,0-.59-.45-.63-.9L87.71,5c-.06,0,0,.09,0,0a16.87,16.87,0,0,1,1.88-2.42A2.27,2.27,0,0,0,90.05,0Z"/><path id="Path_4067" data-name="Path 4067" class="cls-1" d="M87.22,6.57A15.12,15.12,0,0,0,92.67,3c.21-.21.13-.83.11-1.1,0-.08-.09-.78-.25-.62C91,2.85,89.05,5,87,5.78c-.4.15.08.84.19.8Z"/></g><g id="Group_126" data-name="Group 126"><g id="Group_118" data-name="Group 118"><path id="Path_344" data-name="Path 344" class="cls-1" d="M29.48,34a.93.93,0,0,1-1.32.07L28.1,34a5.32,5.32,0,0,1-.82-1c-.22-.36-.41-.72-.61-1.09,0,0-.05,0-.06.07a11.43,11.43,0,0,1-.77,2.22.39.39,0,0,1-.22.2c-.15,0-.25-.06-.34-.15l-.08-.09A4.35,4.35,0,0,1,24.76,32,7.09,7.09,0,0,1,25,30.29a.13.13,0,0,1,.16-.07.25.25,0,0,1,.14.13.08.08,0,0,1,0,.11l0,0,0,0A5.93,5.93,0,0,0,25,32a4.31,4.31,0,0,0,.31,1.88.7.7,0,0,0,.19.26c.07,0,.1-.13.15-.19a13.56,13.56,0,0,0,.78-2.16.25.25,0,0,1,.16-.14.24.24,0,0,1,.2.07,8.52,8.52,0,0,0,1.35,2.06.72.72,0,0,0,1,.22.71.71,0,0,0,.3-.38,2.71,2.71,0,0,0,.25-.87,12.11,12.11,0,0,0,.19-1.7,12.8,12.8,0,0,0-.06-1.75.2.2,0,0,1,.09-.17.12.12,0,0,1,.13.1,15.49,15.49,0,0,1,.08,1.8,11.22,11.22,0,0,1-.26,2.23A2,2,0,0,1,29.48,34Z"/><path id="Path_345" data-name="Path 345" class="cls-1" d="M25.55,34.68a.68.68,0,0,1-.47-.25l-.1-.12,0,0A4.59,4.59,0,0,1,24.49,32a7.19,7.19,0,0,1,.28-1.79A.39.39,0,0,1,25,30a.47.47,0,0,1,.31,0l0,0a.51.51,0,0,1,.27.23.35.35,0,0,1,0,.42l0,0a6,6,0,0,0-.2,1.33,4.25,4.25,0,0,0,.23,1.62,13.11,13.11,0,0,0,.67-1.91l0-.05a.53.53,0,0,1,.32-.27l.06,0a.47.47,0,0,1,.42.16l0,0v0a8.46,8.46,0,0,0,1.31,2,.46.46,0,0,0,.86-.1,2.73,2.73,0,0,0,.22-.79A11.54,11.54,0,0,0,29.64,31a12.22,12.22,0,0,0-.06-1.71v-.06a.47.47,0,0,1,.22-.37l.06-.05h.08a.4.4,0,0,1,.4.35c.06.61.09,1.22.09,1.84a12.45,12.45,0,0,1-.27,2.28,2.36,2.36,0,0,1-.47.9h0a1.18,1.18,0,0,1-.85.4,1.22,1.22,0,0,1-.92-.38,5.53,5.53,0,0,1-.86-1.07l-.32-.55a12,12,0,0,1-.64,1.73l-.05.07a.61.61,0,0,1-.36.27Z"/></g><g id="Group_119" data-name="Group 119"><path id="Path_346" data-name="Path 346" class="cls-1" d="M34.66,33.17a1.73,1.73,0,0,1,0,.68s0,.07,0,.1a.24.24,0,0,1-.1.1c-.05,0-.14,0-.12-.08a1.8,1.8,0,0,0,0-.8c-.07-.35-.19-.7-.27-1-.69.15-1.37.35-2,.56-.21.59-.38,1.19-.55,1.82a.22.22,0,0,1-.14,0,.24.24,0,0,1-.07-.25c.14-.51.29-1,.44-1.51h-.1a.16.16,0,0,1-.1-.1.2.2,0,0,1,.1-.15l.12,0,.09,0a27.08,27.08,0,0,1,1.27-3.39c0-.1.17,0,.22,0a.19.19,0,0,1,0,.13l0,.1c.36.82.69,1.67,1,2.53a5.05,5.05,0,0,1,.57-.1s0,.11,0,.12a2.31,2.31,0,0,1-.51.22C34.46,32.41,34.6,32.78,34.66,33.17Zm-2.48-.82c.62-.17,1.22-.35,1.85-.48a20.08,20.08,0,0,0-.83-2.24,27,27,0,0,0-1,2.72Z"/><path id="Path_347" data-name="Path 347" class="cls-1" d="M31.45,34.8h-.2l-.06-.07a.53.53,0,0,1-.14-.51l.38-1.27a.39.39,0,0,1-.12-.19v0a.41.41,0,0,1,.23-.42l0,0,.09,0a26.17,26.17,0,0,1,1.25-3.29.36.36,0,0,1,.25-.2.43.43,0,0,1,.38.1l0,0,0,0a.44.44,0,0,1,0,.32v0c.34.8.63,1.53.87,2.23l.35-.06h0a.31.31,0,0,1,.3.26.36.36,0,0,1-.16.37l-.32.16c0,.1,0,.19.08.29a6.21,6.21,0,0,1,.14.62h0a2.22,2.22,0,0,1,0,.77V34l0,0,0,.09a.49.49,0,0,1-.2.18.35.35,0,0,1-.38,0,.36.36,0,0,1-.14-.37,1.42,1.42,0,0,0,0-.68c0-.18-.09-.35-.14-.54l-.06-.23c-.53.13-1,.28-1.64.46-.21.61-.37,1.21-.49,1.67l0,.09-.07.06A.44.44,0,0,1,31.45,34.8Zm1.75-4.48c-.22.53-.41,1.07-.6,1.63.36-.1.72-.2,1.08-.28-.15-.48-.32-.93-.49-1.35Z"/></g><g id="Group_120" data-name="Group 120"><path id="Path_348" data-name="Path 348" class="cls-1" d="M37.85,33.55c-.06.14-.1.28-.16.42a1.25,1.25,0,0,1-.2.4.35.35,0,0,1-.35.08.61.61,0,0,1-.26-.31c-.06-.11-.1-.24-.16-.35-.21-.77-.32-1.48-.47-2.3-.11-.62-.22-1.24-.3-1.85a2.67,2.67,0,0,1-.06-.56.12.12,0,0,1,.15,0,.3.3,0,0,1,.12.13c0,.27.11.77.14,1,.09.56.28,1.62.37,2.19.1.34.14.7.22,1a2.3,2.3,0,0,0,.31.76.12.12,0,0,0,.1.05.25.25,0,0,0,.07-.12c.12-.3.31-.8.43-1.12.25-.59.76-1.83,1-2.47l0-.1,0-.1a.46.46,0,0,1,.13-.18.24.24,0,0,1,.16,0s.06.1.05.14c-.16.37-.38.82-.49,1.09C38.55,31.87,38.07,33,37.85,33.55Z"/><path id="Path_349" data-name="Path 349" class="cls-1" d="M37.26,34.74a.63.63,0,0,1-.19,0H37a.88.88,0,0,1-.37-.42.72.72,0,0,1-.09-.2,1.19,1.19,0,0,0-.08-.16l0,0c-.17-.65-.28-1.25-.4-1.9,0-.14,0-.28-.07-.43-.12-.66-.22-1.29-.3-1.86l0-.16a3.13,3.13,0,0,1,0-.43V29l.06-.08a.4.4,0,0,1,.49-.09.54.54,0,0,1,.22.23l0,.05v.06c0,.22.09.59.12.83l0,.14.14.83c.09.48.17,1,.23,1.34s.09.39.13.58a3.41,3.41,0,0,0,.1.46,1.81,1.81,0,0,0,.09.31l.07-.18c.08-.21.16-.43.23-.6.25-.61.77-1.85,1-2.47v0l0-.08.05-.1a.58.58,0,0,1,.21-.28.46.46,0,0,1,.36-.09h0a.36.36,0,0,1,.26.45v.06c-.08.18-.18.38-.26.57s-.18.38-.23.51l-.35.82-.59,1.43h0l-.08.21a1.59,1.59,0,0,1-.07.2,2.2,2.2,0,0,1-.23.46l0,0A.57.57,0,0,1,37.26,34.74Z"/></g><g id="Group_121" data-name="Group 121"><path id="Path_350" data-name="Path 350" class="cls-1" d="M42.9,29.7a.38.38,0,0,0-.1-.12,1.06,1.06,0,0,0-.45-.19,2.37,2.37,0,0,0-1.06.1,1.7,1.7,0,0,0-.67.34.19.19,0,0,1-.12-.07l0,0a.16.16,0,0,1,.1-.22h0a2.39,2.39,0,0,1,1.25-.39,2.48,2.48,0,0,1,.81.08l.16.08a.52.52,0,0,1,.24.41c0,.05-.08.07-.11,0Zm.34,1.66A20.5,20.5,0,0,0,40.77,33a1.25,1.25,0,0,0,.16.73,1,1,0,0,0,.67.44A2,2,0,0,0,42.88,34a1.61,1.61,0,0,0,.38-.31s.07,0,.08,0a.12.12,0,0,1,0,.08,1.32,1.32,0,0,1-.74.59,2.21,2.21,0,0,1-.85.11,1.43,1.43,0,0,1-.84-.34,1.32,1.32,0,0,1-.4-.91c0-.43,0-.91,0-1.32a8,8,0,0,1,.18-1.19.53.53,0,0,1,.3-.29.24.24,0,0,1,.22.1c0,.09-.09.12-.15.15l0,0a.39.39,0,0,0-.11.28,9.22,9.22,0,0,0-.14,1.66,14.37,14.37,0,0,1,2.51-1.55.16.16,0,0,1,.17.05.26.26,0,0,1-.1.13Z"/><path id="Path_351" data-name="Path 351" class="cls-1" d="M41.89,34.76h-.18a1.75,1.75,0,0,1-1-.41,1.65,1.65,0,0,1-.48-1.08,5.16,5.16,0,0,1,0-.88c0-.17,0-.32,0-.47v0a1.49,1.49,0,0,1,0-.21,6,6,0,0,1,.15-1l0,0a.77.77,0,0,1,.45-.42H41a.46.46,0,0,1,.49.22l.06.08v.1a.45.45,0,0,1-.29.36h0l0,.08v0a9.46,9.46,0,0,0-.12,1.07,15.52,15.52,0,0,1,2.12-1.25l0,0h0a.44.44,0,0,1,.42.14l.1.12-.06.15a.49.49,0,0,1-.21.26l-.11.07-.62.39A15.32,15.32,0,0,0,41,33.15a1,1,0,0,0,.12.47.83.83,0,0,0,.5.31,1.65,1.65,0,0,0,1.09-.2,1.14,1.14,0,0,0,.32-.26l0,0,0,0a.32.32,0,0,1,.27,0,.34.34,0,0,1,.2.21.39.39,0,0,1,0,.3,1.61,1.61,0,0,1-.88.72A2.73,2.73,0,0,1,41.89,34.76ZM40.71,30.1h-.1A.47.47,0,0,1,40.3,30l-.06-.07,0-.06a.39.39,0,0,1,0-.35.5.5,0,0,1,.22-.21,2.84,2.84,0,0,1,1.36-.41,2.92,2.92,0,0,1,.88.08h0l.22.11a.8.8,0,0,1,.21.2.87.87,0,0,1,.16.4v0a.33.33,0,0,1-.2.3.35.35,0,0,1-.38-.07l-.07-.1,0,0a1,1,0,0,0-.34-.13,2.44,2.44,0,0,0-.93.09,1.71,1.71,0,0,0-.57.29Z"/></g><g id="Group_122" data-name="Group 122"><path id="Path_352" data-name="Path 352" class="cls-1" d="M50.87,33.51a4.36,4.36,0,0,1-1,.64,3.29,3.29,0,0,1-1.31.37.69.69,0,0,1-.61-.25.86.86,0,0,1-.18-.48,21.25,21.25,0,0,1,.36-4.5.23.23,0,0,1,.13-.15.15.15,0,0,1,.13.14L48.19,31a15.79,15.79,0,0,0-.12,2.75.5.5,0,0,0,.28.42,1,1,0,0,0,.69,0,4,4,0,0,0,.88-.31A6.22,6.22,0,0,0,51.17,33s.1,0,.08.08a1.3,1.3,0,0,1-.18.23Z"/><path id="Path_353" data-name="Path 353" class="cls-1" d="M48.52,34.79a1,1,0,0,1-.77-.35,1.1,1.1,0,0,1-.23-.63,21.76,21.76,0,0,1,.36-4.56v-.06a.45.45,0,0,1,.3-.3h.08a.41.41,0,0,1,.4.37v0l-.23,1.8a15.11,15.11,0,0,0-.12,2.69.24.24,0,0,0,.12.2.94.94,0,0,0,.5,0,4.21,4.21,0,0,0,.84-.3,6.43,6.43,0,0,0,1.2-.8l0,0h0a.34.34,0,0,1,.36.07.33.33,0,0,1,.08.34l0,0a1.09,1.09,0,0,1-.23.29l-.16.15-.05,0a4.34,4.34,0,0,1-1,.67,3.51,3.51,0,0,1-1.42.4Z"/></g><g id="Group_123" data-name="Group 123"><path id="Path_354" data-name="Path 354" class="cls-1" d="M55.51,33.22a1.94,1.94,0,0,1,0,.68.46.46,0,0,1-.05.1.24.24,0,0,1-.1.1c-.05,0-.14,0-.12-.08a1.66,1.66,0,0,0,0-.8c-.06-.35-.19-.7-.26-1-.69.15-1.37.36-2,.56-.21.6-.38,1.2-.54,1.82a.14.14,0,0,1-.14,0,.23.23,0,0,1-.07-.25c.13-.5.29-1,.44-1.51h-.1a.19.19,0,0,1-.1-.1.18.18,0,0,1,.1-.16l.12,0a.25.25,0,0,0,.09,0A26,26,0,0,1,54,29.11c0-.1.17-.05.22,0a.2.2,0,0,1,0,.13l0,.1c.36.83.69,1.67,1,2.53l.57-.1s0,.11,0,.12a1.92,1.92,0,0,1-.51.22C55.3,32.47,55.45,32.84,55.51,33.22ZM53,32.41c.62-.18,1.23-.35,1.86-.49A17.6,17.6,0,0,0,54,29.69c-.38.88-.72,1.79-1,2.71Z"/><path id="Path_355" data-name="Path 355" class="cls-1" d="M52.3,34.86h-.11l-.09,0L52,34.77a.51.51,0,0,1-.14-.51c.11-.41.23-.82.37-1.28a.41.41,0,0,1-.12-.19v0a.42.42,0,0,1,.23-.42l0,0,.09,0A25.73,25.73,0,0,1,53.75,29a.39.39,0,0,1,.25-.2.5.5,0,0,1,.38.1l0,0,0,0a.45.45,0,0,1,.05.32v0c.34.8.63,1.54.87,2.24l.35-.06h0a.3.3,0,0,1,.3.26.34.34,0,0,1-.16.36,2,2,0,0,1-.32.17c0,.1,0,.19.07.29a6,6,0,0,1,.15.61h0a2.27,2.27,0,0,1,0,.78V34l0,0a.41.41,0,0,1-.05.09.44.44,0,0,1-.2.18.35.35,0,0,1-.38,0A.36.36,0,0,1,55,34a1.43,1.43,0,0,0,0-.68c0-.18-.09-.36-.14-.55l-.06-.22c-.53.12-1,.28-1.64.46-.21.61-.37,1.21-.49,1.67l0,.09-.07.05A.38.38,0,0,1,52.3,34.86ZM54,30.37c-.21.53-.41,1.08-.6,1.64l1.09-.29c-.16-.48-.32-.93-.49-1.35Z"/></g><g id="Group_124" data-name="Group 124"><path id="Path_356" data-name="Path 356" class="cls-1" d="M60.11,32.08a14.13,14.13,0,0,0-.2,2.34.13.13,0,0,1-.1.1.15.15,0,0,1-.17-.12,14,14,0,0,0-.55-2A8.18,8.18,0,0,0,57.86,30a.71.71,0,0,1-.1-.14,10.23,10.23,0,0,0-.47,4.29c0,.07-.09.1-.13.06a.3.3,0,0,1-.12-.17l0-.23A13.31,13.31,0,0,1,57.14,31a5.23,5.23,0,0,1,.63-1.72c.15,0,.18.19.15.27l-.07.12a.44.44,0,0,1,.16.1,8.57,8.57,0,0,1,1.32,2.43c.14.39.27.77.38,1.17a13.77,13.77,0,0,1,.37-2.47,4.33,4.33,0,0,1,.61-1.39.93.93,0,0,1,.44-.37.11.11,0,0,1,0,.15h0a2.67,2.67,0,0,0-.5.78A6.91,6.91,0,0,0,60.11,32.08Z"/><path id="Path_357" data-name="Path 357" class="cls-1" d="M59.86,35.06l-.07-.27a.44.44,0,0,1-.41-.34,12.48,12.48,0,0,0-.55-2,9,9,0,0,0-1-2,10.73,10.73,0,0,0-.29,3.7.36.36,0,0,1-.18.33.38.38,0,0,1-.36,0,.57.57,0,0,1-.24-.33v0l-.05-.27A13.23,13.23,0,0,1,56.88,31a5.53,5.53,0,0,1,.65-1.81l.08-.12h.14a.43.43,0,0,1,.36.18.58.58,0,0,1,.08.39h0a8.54,8.54,0,0,1,1.37,2.49,10.63,10.63,0,0,1,.25-1.25,4.72,4.72,0,0,1,.65-1.47,1.19,1.19,0,0,1,.59-.47l.11,0,.1.05a.38.38,0,0,1,.13.52l0,0v0a2.42,2.42,0,0,0-.45.69,6.88,6.88,0,0,0-.52,1.94h0a13.65,13.65,0,0,0-.2,2.3v.07a.4.4,0,0,1-.3.29Z"/></g><g id="Group_125" data-name="Group 125"><path id="Path_358" data-name="Path 358" class="cls-1" d="M64.34,33.76a5,5,0,0,1-1.6.8c-.17,0-.43.07-.54-.13a3.29,3.29,0,0,0,.43-.09,1.8,1.8,0,0,1-.15-.55l-.08-.62a11.3,11.3,0,0,1-.1-1.93,8.75,8.75,0,0,1,.3-1.9c0-.07.07-.16.12-.18a3.37,3.37,0,0,1,.93.25,4.94,4.94,0,0,1,1.06.63,2.53,2.53,0,0,1,.55.58,1.76,1.76,0,0,1,.29.77,2.39,2.39,0,0,1-.15,1.09A3.54,3.54,0,0,1,64.34,33.76Zm0-3.63a4.06,4.06,0,0,0-.74-.4l-.75-.27a6.68,6.68,0,0,0-.26,1.61,12.42,12.42,0,0,0,.24,3.16A5.32,5.32,0,0,0,64,33.65a4,4,0,0,0,.79-.74,2.25,2.25,0,0,0,.44-.89,2,2,0,0,0,0-.87,2.55,2.55,0,0,0-.85-1Z"/><path id="Path_359" data-name="Path 359" class="cls-1" d="M62.53,34.86a.63.63,0,0,1-.57-.3l-.19-.35.39-.05.11,0-.06-.32-.08-.62a10.8,10.8,0,0,1-.1-2,9.3,9.3,0,0,1,.31-2,.59.59,0,0,1,.28-.36l.06,0h.07a3.53,3.53,0,0,1,1,.28,5.49,5.49,0,0,1,1.12.66,3,3,0,0,1,.6.64,2.06,2.06,0,0,1,.34.89,2.58,2.58,0,0,1-.18,1.23A3.82,3.82,0,0,1,64.51,34a5.43,5.43,0,0,1-1.7.85h0Zm.52-5.05a7.87,7.87,0,0,0-.17,1.28,12.25,12.25,0,0,0,.17,2.77,4.84,4.84,0,0,0,.78-.41,4,4,0,0,0,.73-.7A2,2,0,0,0,65,32a1.8,1.8,0,0,0,0-.73,2.24,2.24,0,0,0-.75-.89,3.44,3.44,0,0,0-.68-.37l-.46-.17Z"/></g></g></g></g></g></g></svg>