<svg id="Help" xmlns="http://www.w3.org/2000/svg" width="14" height="14" viewBox="0 0 14 14">
  <rect id="Rectangle_481" data-name="Rectangle 481" width="14" height="14" fill="none"/>
  <path id="Path_146" data-name="Path 146" d="M7,0a7,7,0,1,0,7,7A7.021,7.021,0,0,0,7,0ZM6.93,11.62a.98.98,0,1,1,.98-.98A.957.957,0,0,1,6.93,11.62ZM8.82,6.16,8.05,7a.855.855,0,0,0-.28.63.851.851,0,0,1-.84.84.809.809,0,0,1-.84-.84,1.562,1.562,0,0,1,.56-1.26l.63-.77a1.589,1.589,0,0,0,.49-.98A.734.734,0,0,0,7,3.85a.823.823,0,0,0-.84.63.914.914,0,0,1-.84.49.734.734,0,0,1-.77-.77.761.761,0,0,1,.07-.35A2.333,2.333,0,0,1,7,2.38,2.268,2.268,0,0,1,9.45,4.62,2.3,2.3,0,0,1,8.82,6.16Z" fill="#cecece"/>
</svg>
