<svg xmlns="http://www.w3.org/2000/svg" viewBox="0 0 284.56 6.52"><defs><style>.cls-1{fill:#a2ddf2;}</style></defs><g id="圖層_2" data-name="圖層 2"><g id="圖層_1-2" data-name="圖層 1"><g id="Group_4764" data-name="Group 4764"><path id="Path_4134" data-name="Path 4134" class="cls-1" d="M82.34.41c-2.61-1-5.2,0-7.76,1.32a29.37,29.37,0,0,1-8,2.93c-5.42,1-10.87-.16-16.29-.92A82.73,82.73,0,0,0,34,3.32c-5.4.3-10.82.83-16.21-.22C12.54,2.09,7.29.23,2.06,1.62a13.14,13.14,0,0,0-1.83.62C-.17,2.4,0,3.86.39,3.7,5.55,1.57,10.8,3.11,16,4.24a38.63,38.63,0,0,0,7.8,1c2.72,0,5.44-.12,8.16-.28A92.27,92.27,0,0,1,48.3,5c5.39.65,10.77,1.87,16.16,1.46a23.68,23.68,0,0,0,7.8-2c2.61-1.16,5.2-2.92,7.87-2.92a5.72,5.72,0,0,1,2,.38c.39.15.56-1.3.16-1.45Z"/><path id="Path_4224" data-name="Path 4224" class="cls-1" d="M284.34.41c-2.61-1-5.2,0-7.76,1.32a29.37,29.37,0,0,1-8,2.93c-5.42,1-10.87-.16-16.29-.92A82.73,82.73,0,0,0,236,3.32c-5.4.3-10.82.83-16.21-.22-5.22-1-10.47-2.87-15.7-1.48a13.14,13.14,0,0,0-1.83.62c-.4.16-.23,1.62.16,1.46,5.16-2.13,10.41-.59,15.58.54a38.63,38.63,0,0,0,7.8,1c2.72,0,5.44-.12,8.16-.28A92.27,92.27,0,0,1,250.3,5c5.39.65,10.77,1.87,16.16,1.46a23.68,23.68,0,0,0,7.8-2c2.61-1.16,5.2-2.92,7.87-2.92a5.72,5.72,0,0,1,2,.38c.39.15.56-1.3.16-1.45Z"/></g></g></g></svg>