<svg xmlns="http://www.w3.org/2000/svg" viewBox="0 0 15.57 19.29"><defs><style>.cls-1{fill:#043f98;}</style></defs><g id="圖層_2" data-name="圖層 2"><g id="圖層_1-2" data-name="圖層 1"><g id="组_260" data-name="组 260"><g id="路径_99" data-name="路径 99"><path id="Path_984" data-name="Path 984" class="cls-1" d="M15.54,18.13l-2.75-4.4a7.58,7.58,0,0,0,2.57-4.2A7.73,7.73,0,0,0,9.63.23l-.1,0A7.73,7.73,0,0,0,.23,5.94s0,.07,0,.1a7.73,7.73,0,0,0,5.73,9.3l.1,0a7.58,7.58,0,0,0,4.9-.47l2.74,4.4ZM2.37,6.54A5.51,5.51,0,0,1,8.93,2.35l.1,0a5.66,5.66,0,0,1,3.17,2A5.43,5.43,0,0,1,13.2,9a5.5,5.5,0,0,1-6.56,4.18l-.11,0A5.5,5.5,0,0,1,2.35,6.64.44.44,0,0,1,2.37,6.54Z"/></g><g id="路径_279" data-name="路径 279"><path id="Path_985" data-name="Path 985" class="cls-1" d="M10.58,6.29A.6.6,0,0,1,10,6C8.94,3.53,6.21,4.58,6.09,4.62a.59.59,0,1,1-.43-1.1C7,3,9.86,2.72,11.11,5.45a.58.58,0,0,1-.29.78.53.53,0,0,1-.24.06Z"/></g><g id="椭圆_4" data-name="椭圆 4"><circle id="Ellipse_53" data-name="Ellipse 53" class="cls-1" cx="11.7" cy="7.27" r="0.59"/></g></g></g></g></svg>