<svg xmlns="http://www.w3.org/2000/svg" width="15" height="15" viewBox="0 0 15 15">
  <path id="Path_1001" data-name="Path 1001" d="M-2310.086-492.687h-1.17a5.517,5.517,0,0,0-4.6-4.423v-1.139a.921.921,0,0,0-.918-.918.921.921,0,0,0-.919.918v1.17a5.521,5.521,0,0,0-4.391,4.391h-1.17a.921.921,0,0,0-.918.918.921.921,0,0,0,.918.918h1.139a5.517,5.517,0,0,0,4.422,4.6v1.17a.921.921,0,0,0,.919.918.921.921,0,0,0,.918-.918v-1.139a5.513,5.513,0,0,0,4.626-4.626h1.139a.921.921,0,0,0,.918-.918A.921.921,0,0,0-2310.086-492.687Zm-5.765,4.915v-1.6a.921.921,0,0,0-.918-.918.921.921,0,0,0-.919.918v1.546a3.99,3.99,0,0,1-2.874-3.026h1.6a.921.921,0,0,0,.919-.918.921.921,0,0,0-.919-.918h-1.546a3.988,3.988,0,0,1,2.822-2.822v1.546a.921.921,0,0,0,.919.918.921.921,0,0,0,.918-.918v-1.6a3.99,3.99,0,0,1,3.026,2.874h-1.546a.921.921,0,0,0-.918.918.921.921,0,0,0,.918.918h1.6A3.991,3.991,0,0,1-2315.851-487.772Z" transform="translate(2324.167 499.167)" fill="#cecece"/>
</svg>
