<svg xmlns="http://www.w3.org/2000/svg" width="15" height="15.677" viewBox="0 0 15 15.677">
  <g id="Group_987" data-name="Group 987" transform="translate(2254 502)">
    <g id="Group_985" data-name="Group 985" transform="translate(-2249.735 -502)">
      <path id="路径_114" data-name="路径 114" d="M-2236.181-494.626a3.027,3.027,0,0,0,3.034-3.021v-.01a3.12,3.12,0,0,0-3.034-3.138,3.027,3.027,0,0,0-3.033,3.02v.01A3.2,3.2,0,0,0-2236.181-494.626Zm-3.012-6.127a4.258,4.258,0,0,1,6.021,0,4.258,4.258,0,0,1,0,6.021l-3.011,3.011-3.01-3.011A4.374,4.374,0,0,1-2239.193-500.753Z" transform="translate(2240.394 502)" fill="#cecece" fill-rule="evenodd"/>
      <path id="Path_999" data-name="Path 999" d="M-2233.69-492.013l3.618-1.064-1.064,3.618-.744-1.809Z" transform="translate(2235.792 495.875)" fill="#cecece" fill-rule="evenodd"/>
    </g>
    <path id="Path_1000" data-name="Path 1000" d="M-2240.259-475.956l-2.967,1.359-.681-.26-.429.429.989.378.152,4.942-4.87-2.091,1.24-3.3-.292-.292-1.312,3.492-4.576,1.747,2.631-4.8,2.938-.757-.465-.465-2.637.68L-2254-468.58l5.636-2.152,5.329,2.289,4.035-1.386Zm-2.751,1.859,2.537-1.162,1.026,4.993-3.41,1.172Z" transform="translate(0 -17.879)" fill="#cecece"/>
  </g>
</svg>
