<svg xmlns="http://www.w3.org/2000/svg" width="43.177" height="40" viewBox="0 0 43.177 40">
  <g id="组_1203" data-name="组 1203" transform="translate(-1152 -557)">
    <path id="路径_4162" data-name="路径 4162" d="M10,0H30A10,10,0,0,1,40,10V30A10,10,0,0,1,30,40H10A10,10,0,0,1,0,30V10A10,10,0,0,1,10,0Z" transform="translate(1152 557)" fill="#043f98"/>
    <g id="组_1181" data-name="组 1181" transform="translate(1159.774 569)">
      <path id="users-solid" d="M3.521,39.042a2.347,2.347,0,1,0-2.347-2.347A2.35,2.35,0,0,0,3.521,39.042Zm16.432,0a2.347,2.347,0,1,0-2.347-2.347A2.35,2.35,0,0,0,19.953,39.042Zm1.174,1.174H18.779a2.34,2.34,0,0,0-1.654.682,5.365,5.365,0,0,1,2.755,4.013H22.3a1.172,1.172,0,0,0,1.174-1.174V42.563A2.35,2.35,0,0,0,21.127,40.216Zm-9.39,0a4.108,4.108,0,1,0-4.108-4.108A4.106,4.106,0,0,0,11.737,40.216Zm2.817,1.174h-.3a5.672,5.672,0,0,1-5.025,0h-.3a4.226,4.226,0,0,0-4.225,4.225v1.056a1.761,1.761,0,0,0,1.761,1.761H17.019a1.761,1.761,0,0,0,1.761-1.761V45.615A4.226,4.226,0,0,0,14.554,41.39Zm-8.2-.491a2.34,2.34,0,0,0-1.654-.682H2.347A2.35,2.35,0,0,0,0,42.563v1.174a1.172,1.172,0,0,0,1.174,1.174H3.591A5.379,5.379,0,0,1,6.349,40.9Z" transform="translate(0 -32)" fill="#fff"/>
      <g id="组_1180" data-name="组 1180" transform="translate(17.756 7.335)">
        <g id="椭圆_86" data-name="椭圆 86" transform="translate(0 0)" fill="#043f98" stroke="#fff" stroke-width="1">
          <circle cx="8.824" cy="8.824" r="8.824" stroke="none"/>
          <circle cx="8.824" cy="8.824" r="8.324" fill="none"/>
        </g>
        <path id="路径_1015" data-name="路径 1015" d="M3.616-1.737h1.1V-5.023H7.758v-1.02H4.712V-9.315h-1.1v3.271H.57v1.02H3.616Z" transform="translate(4.769 13.888)" fill="#fff"/>
      </g>
    </g>
  </g>
</svg>
