<svg id="圖層_1" data-name="圖層 1" xmlns="http://www.w3.org/2000/svg" viewBox="0 0 344.26 127.39"><defs><style>.cls-1{fill:#fff;stroke:#fff;}</style></defs><path class="cls-1" d="M-354,387.87c-.35-.2-.65,0-.87.28a28.76,28.76,0,0,1-7.75,7.13c-.07-9.63.07-19.25.47-28.86,0-.74.1-2.92-.88-3.2s-1.33,1.13-1.36,1.86h0q-.66,15.63-.5,31.27a13.65,13.65,0,0,1-2.93.72c-2.33.29-7,.42-7.47-2.62-.34-2.17.29-4.4-.19-6.66-.2-1-.79-1.51-1.59-.9s-.49,2.78-.32,3.6h0c.62,2.94-.89,5.83.71,8.74,1.42,2.57,4.49,3.17,7.21,3.18a14.22,14.22,0,0,0,5.16-1,.72.72,0,0,0,.64.35c.48,0,.74-.5.89-1a28.66,28.66,0,0,0,8.71-7.54c1.45,1,2.41,2.55,3.66,3.77,1.55,1.51,2.12-3.51,1.05-4.55C-351,390.9-352.09,389-354,387.87Z" transform="translate(378.15 -320.66)"/><path class="cls-1" d="M-343.59,380.94c0-.07,0-.14-.05-.21a.65.65,0,0,0,.23-.06h0l13.14-6c1.4-.64.89-5.77-.73-5l-13.14,6a1.26,1.26,0,0,0-.58.73c-.57-2.57-1-5.16-1.39-7.76a15.46,15.46,0,0,0,10.87-3.17c1.3-1,.48-6-.73-5a14.4,14.4,0,0,1-10.61,3h-.08c-.12-1.57-.2-3.14-.25-4.72A38.51,38.51,0,0,1-334,350.4c1.4-.55,1-5.7-.74-5a38.68,38.68,0,0,0-12.11,7.55c.06-1.89.16-3.79.34-5.68.22-2.32-1.9-4.89-2.24-1.34a104.93,104.93,0,0,0,3.29,37.74c.26.94.76,1.53,1.59.9S-343.37,381.73-343.59,380.94Z" transform="translate(378.15 -320.66)"/><path class="cls-1" d="M-292.37,374.82c0,.06-.06.12-.1.18a4.72,4.72,0,0,0-.32,3.59c.18.52,1,2,1.59.9a61.46,61.46,0,0,0,2.8-5.85q3.78-1.09,7.59-2.12c1.71-.46,1.19-5.59-.13-5.24-1.8.49-3.6,1-5.4,1.51A58.28,58.28,0,0,0-284,351.16c0-3.61,0-8.06-2.7-10.86a9.42,9.42,0,0,0-10-1.88c-1.4.6-.93,5.74.73,5h0a8.44,8.44,0,0,1,7.6.9c2.89,2.06,2.2,7.39,2,10.51a50.4,50.4,0,0,1-3.19,13.84q-7.56,2.21-15.05,4.65a51.14,51.14,0,0,0,1.95-5.08c.81-2.54,2.07-6.27.52-8.82s-6.5.22-8.69.94c-1.57.52-3.94,1.85-5.57,1.82-2.29,0-1.21-3.79-1.13-5.59.06-1.41.16-2.82.24-4.23l6.13-1c1.7-.29,1.33-5.48-.13-5.24l-5.65.95c.11-1.52.22-3,.36-4.54.06-.73.07-2.93-.88-3.2s-1.3,1.14-1.36,1.86h0c-.18,2.09-.35,4.18-.49,6.28l-4.69.78c-1.7.29-1.33,5.48.13,5.24l4.24-.71c0,.44-.06.88-.08,1.32-.16,3.3-.84,7.2,0,10.45.77,3,2.55,3.2,5.25,2.33,2.17-.7,4.32-1.43,6.47-2.14.9-.3,1.79-.62,2.7-.9,1.28-.4.94-.66,1.16,0,.41,1.19-1.77,5-2.31,6.21-.75,1.63-1.59,3.22-2.47,4.79q-17.52,6-34.54,13.3c-1.4.61-.91,5.75.73,5h0q14.72-6.37,29.85-11.69-1.61,2.56-3.27,5.1-7,10.69-15,20.72c-.91,1.15,0,6.15,1.27,4.49q8.15-10.25,15.32-21.19c2.3-3.53,4.66-7.13,6.76-10.86Q-300.15,377.14-292.37,374.82Z" transform="translate(378.15 -320.66)"/><path class="cls-1" d="M-286.11,400.37c1.45,1.55,2.07-3.45,1.05-4.55a47.83,47.83,0,0,0-13.47-10.12c-1.5-.75-1.92,4.34-.48,5.07h0A45.58,45.58,0,0,1-286.11,400.37Z" transform="translate(378.15 -320.66)"/><path class="cls-1" d="M-239.22,343a107.3,107.3,0,0,0,16-5.6c1.12-.49.83-4.56-.44-4a103.61,103.61,0,0,1-15.56,5.45C-240.55,339.16-240.24,343.21-239.22,343Z" transform="translate(378.15 -320.66)"/><path class="cls-1" d="M-260.88,358a39.9,39.9,0,0,0,13.58-2c1.12-.37.94-4.46-.44-4a38.33,38.33,0,0,1-13.1,1.87C-262.09,353.8-262.18,357.94-260.88,358Z" transform="translate(378.15 -320.66)"/><path class="cls-1" d="M-248.3,365.8c1.09-.65.66-4.66-.44-4A63.65,63.65,0,0,1-261,367.48c-1.12.38-.93,4.47.44,4h0A63.06,63.06,0,0,0-248.3,365.8Z" transform="translate(378.15 -320.66)"/><path class="cls-1" d="M-259.93,386.79a216.67,216.67,0,0,0,17.1-14.17c1-.89.35-4.72-.44-4a216.67,216.67,0,0,1-17.1,14.17C-261.41,383.56-260.88,387.5-259.93,386.79Z" transform="translate(378.15 -320.66)"/><path class="cls-1" d="M-234.37,347.34c-1.12.45-.88,4.52.44,4h0a32.28,32.28,0,0,1,8.26-2.12c1.65-.19,6.84-1,8,.52.53.7.42,2.69.43,3.54a17.31,17.31,0,0,1-.4,3.79,19.42,19.42,0,0,1-3.38,7.37,3.86,3.86,0,0,0-.23,2.3c-.18-.6-.51-1-1-.79a51,51,0,0,1-11.95,3.32l.23-6c0,1.16.45,2.27,1.06,1.9h0a55.92,55.92,0,0,1,12.16-5.63c1.12-.36,1-4.46-.44-4a55.92,55.92,0,0,0-12.16,5.63,1.79,1.79,0,0,0-.59,1.33l.25-6.49c.09-2.46-1.72-2.48-1.81,0l-1.45,38.29a.22.22,0,0,0,0,.08c-.69.33-1.39.64-2.11.91-1.12.43-.89,4.5.44,4h0a27.17,27.17,0,0,0,10.68-7.45c.78-.87.24-4.84-.87-3.58a26.2,26.2,0,0,1-6.31,5.14l.76-20a52.05,52.05,0,0,0,12.54-3.49c.59-.24.79-1.47.67-2.51.21.74.56,1.16,1,.6a25.1,25.1,0,0,0,4.28-19.23c-.23-1.23-.45-2.73-1.62-3.42-1.35-.78-3.62-.53-5.12-.5A33.43,33.43,0,0,0-234.37,347.34Z" transform="translate(378.15 -320.66)"/><polygon class="cls-1" points="142.72 35.36 142.72 35.36 142.72 35.36 142.72 35.36"/><path class="cls-1" d="M-227.94,379.2c-1.24-.59-1.65,3.46-.52,4h0c9.5,4.46,19.93,6.26,30.16,8.28,10.92,2.15,21.86,4.21,32.81,6.26,1.1.21,1.4-3.88,0-4.14-10.63-2-21.26-4-31.87-6.08-5.95-1.17-12-2.25-17.85-3.8,1.41-1.22,2.78-2.51,4.07-3.87.8-.84.3-4.82-.88-3.58h0a53.29,53.29,0,0,1-7.21,6.29A68.44,68.44,0,0,1-227.94,379.2Z" transform="translate(378.15 -320.66)"/><path class="cls-1" d="M-125.6,387.69c-4.35-3.08-9.62-6.48-15.71-8.4a73.89,73.89,0,0,0-13.6-2.6q11-10.33,20.88-21.72a1.55,1.55,0,0,0,.35-1.78c-.66-1.34-3.43-1.24-3.55-1.23-1.46.08-2.91.22-4.35.41a1.54,1.54,0,0,0,.33-1.05c-.14-2.54-.37-6.38-2-9.16-.45-.75-1.55-.74-2-.7s-1.66.23-2,1.08c-1.08,2.79-.84,6-.48,9.4a1.67,1.67,0,0,0,1.05,1.34q-2.67.62-5.27,1.48c-4.28,1.43-8.67,3.09-11.27,6.29a1,1,0,0,0-.06,1.19c.59.83,2.56.42,2.57.42,1.71-.62,3.38-1.37,5-2.12s3.64-1.64,5.51-2.27a40.47,40.47,0,0,1,6.85-1.66l-.37.41c-6.26,6.77-12.72,13.77-19.47,20.21a1.45,1.45,0,0,0-.47,1.57,2.49,2.49,0,0,0,2,1.37l1.74.19a74.84,74.84,0,0,1,14.55,2.58c5.36,1.7,10,4.76,14.31,7.8a3.72,3.72,0,0,0,2.38.44h0a7.72,7.72,0,0,0,2.36-.59c.86-.39,1.32-.9,1.38-1.52A1.49,1.49,0,0,0-125.6,387.69Z" transform="translate(378.15 -320.66)"/><path class="cls-1" d="M-70.23,376.92a1.94,1.94,0,0,0-1.18,1.5,1.39,1.39,0,0,0,.7,1.21,2.2,2.2,0,0,0,.53.22l.14.12a2,2,0,0,0,2,0l.33-.08a2.57,2.57,0,0,1,.73-.1c1.78,0,2.62,1.75,3,3.21a17,17,0,0,1,.3,2.56,4.08,4.08,0,0,0-2.38-.08l-.6.11a7.27,7.27,0,0,0-2,.53c-.42-1.62-.88-3.23-1.39-4.81-.36-1.09-1.69-1.36-2.85-1.15s-2,.94-2,1.87a50.67,50.67,0,0,0,2.75,13.72c.32,1,1.48,1.52,3,1.35h0a5.54,5.54,0,0,0,.9-.19c1.6-.47,1.94-1.5,1.74-2.24-.42-1.54-.81-3.13-1.19-4.66l0-.13c-.07-.27-.14-.55-.2-.82a8.08,8.08,0,0,0,1.63,0l.43-.05.72-.08a3.17,3.17,0,0,0,1.32-.4.57.57,0,0,0,0,.13,24.81,24.81,0,0,0-.09,4.72,1.41,1.41,0,0,0,1.55,1.2,5.9,5.9,0,0,0,.59-.06h0A2,2,0,0,0-60,392.9c.1-.92.28-1.93.48-3,.73-4,1.54-8.47-1.45-11.79C-63.52,375.26-67.56,375.5-70.23,376.92Z" transform="translate(378.15 -320.66)"/><path class="cls-1" d="M-61.51,396.57a14.69,14.69,0,0,0-8.5,1.15,1.83,1.83,0,0,0-1.28,1.38,1.48,1.48,0,0,0,.59,1.38,2.5,2.5,0,0,0,1.91.44h0a5.89,5.89,0,0,0,1.17-.29h0a15.84,15.84,0,0,1,4.78-.83,2.88,2.88,0,0,0,2.26-.9,1.48,1.48,0,0,0,.2-1.42A1.49,1.49,0,0,0-61.51,396.57Z" transform="translate(378.15 -320.66)"/><path class="cls-1" d="M-99.48,336.49c-1.63.95-1.13,3.07-.94,4.33h0a315.37,315.37,0,0,1,3,68.85c0,.44-.35,3.2,1.5,3.43s1.94-2.71,2-3a330,330,0,0,0-3.22-72.16C-97.27,337.41-97.89,335.57-99.48,336.49Z" transform="translate(378.15 -320.66)"/><path class="cls-1" d="M-74.85,338.65c0-.32-.22-2.81-.85-2.26-1.7,1.53-3.35,3.12-5,4.74a35,35,0,0,0-1.62-5c-1-2.53-2.25-5.19-4.46-6.9-6-4.62-13.51-.82-19.12,2.37-.83.47-.72,2.4-.73,3.22,0,.21.24,3.47.68,3.22h0c3.84-2.19,7.92-4.49,12.47-4.5s7.84,2.47,9.71,6.5c.45,1,.85,1.95,1.21,2.95q-3.56,3.74-6.77,7.78a17.46,17.46,0,0,0-2.44,3.42,11.09,11.09,0,0,0-.45,6.17c.19,1,.58,2.3,1.85,2.27a7,7,0,0,0,2.14-.82c.7-.32,1.4-.64,2.08-1a11,11,0,0,0,5.43-5.89,22.39,22.39,0,0,0,.79-9.76c1.51-1.56,3-3.08,4.44-4.33C-74.65,340.14-74.8,339.61-74.85,338.65Zm-6.27,9.92c0,.22,0,.12,0,0Zm0-.08a5.49,5.49,0,0,1-.37,1.3,9.47,9.47,0,0,1-4.16,4.37c-.21.12-1,.52-1.81.94,1-1.5,1.55-3.42,2.76-4.75,1-1.1,2.13-2.33,3.31-3.58A14.3,14.3,0,0,1-81.13,348.49Z" transform="translate(378.15 -320.66)"/><path class="cls-1" d="M-35.2,362.53A99.77,99.77,0,0,0-36,348.18a73,73,0,0,0-1.43-7.45c-.41-1.64-.54-5.23-4.08-3.76-2.76,1.14-4.83,3-7.45,4.32a55.64,55.64,0,0,1-5.56,2.38c-1.48.54-3.25,1.49-5,1.54s-2-.49-2.18-1.26a54.9,54.9,0,0,0,18-12.05c.77-.77.48-3,.39-4,0-.3-.33-2.82-.92-2.23-4.87,4.92-11,11.65-17.44,15l.12-1.44s.06,0,.08,0c1.52-3.15,4.56-5.78,6.78-8.7s3.59-6.59,1.53-9.57c.12.17-5.69,5.94-6.2,6.67a28.86,28.86,0,0,0-4,7.84c-1.68,5.18-2,11.18,1.07,16.12,1.58,2.53,5.48.74,8-.18,5.44-2,9.59-5.24,14.85-7.33l.06,1.07c.07,1.9.13,3.8.17,5.7.08,3.26.14,6.52.16,9.78v.48c-.13,13.79-.3,27.58-.23,41.37,0,9,.21,18,.37,26.94,0,1.53-.39,18.84,1.69,18.12.92-.32,2.05-3.77,2.1-4.7C-33.29,412.73-35.47,392.65-35.2,362.53Z" transform="translate(378.15 -320.66)"/><path class="cls-1" d="M-269.75,424.82H-270l-.24.15a1.71,1.71,0,0,0-.77,1.35v.2a49.1,49.1,0,0,1,.21,6.18,44.48,44.48,0,0,1-.67,6,8.72,8.72,0,0,1-.79,2.83c-.43.76-.93,1.21-1.43,1.27a2.29,2.29,0,0,1-1.67-.89,30.35,30.35,0,0,1-4.71-7.19l0-.11-.08-.09a1.74,1.74,0,0,0-1.54-.57l-.2.05a2,2,0,0,0-1.17,1l-.07.19A47.74,47.74,0,0,1-285.6,442a15.52,15.52,0,0,1-.85-5.82,21.51,21.51,0,0,1,.73-4.78l.1-.13a1.28,1.28,0,0,0,.08-1.5,1.92,1.92,0,0,0-1-.84l-.12,0a1.51,1.51,0,0,0-1.14.13,1.31,1.31,0,0,0-.61.79,24.58,24.58,0,0,0-1,6.43,16.54,16.54,0,0,0,1.68,8.24l.06.1.37.41a2.34,2.34,0,0,0,1.69.9,2,2,0,0,0,.48-.06,2.15,2.15,0,0,0,1.29-1l.17-.26a38.52,38.52,0,0,0,2.31-6.23c.37.67.76,1.34,1.17,2a20.22,20.22,0,0,0,3.09,3.86,4.54,4.54,0,0,0,3.32,1.36,4.37,4.37,0,0,0,3.07-1.44h0a8.14,8.14,0,0,0,1.68-3.23,42.82,42.82,0,0,0,1-8.22,59,59,0,0,0-.31-6.64A1.41,1.41,0,0,0-269.75,424.82Z" transform="translate(378.15 -320.66)"/><path class="cls-1" d="M-251.91,434.2l-.15,0c-.41.06-.85.14-1.25.22-.87-2.53-1.9-5.17-3.15-8.05l0-.11a1.61,1.61,0,0,0-.17-1.16l-.09-.14-.12-.1a1.69,1.69,0,0,0-1.36-.38,1.35,1.35,0,0,0-.93.73,94.82,94.82,0,0,0-4.48,11.87l-.33.09-.11.06a1.59,1.59,0,0,0-.84,1.53l0,.13a1.5,1.5,0,0,0,.43.69c-.5,1.66-.94,3.12-1.34,4.6a1.83,1.83,0,0,0,.51,1.84l.22.22.3.05a1.81,1.81,0,0,0,.4,0,1.37,1.37,0,0,0,.89-.3l.25-.2.09-.31c.43-1.67,1-3.84,1.76-6,2.14-.66,4-1.21,5.9-1.66.08.28.15.55.23.81a19.91,19.91,0,0,1,.48,2,5.08,5.08,0,0,1,0,2.45,1.2,1.2,0,0,0,.47,1.31,1.28,1.28,0,0,0,1.37.11,2,2,0,0,0,.72-.66,2.68,2.68,0,0,0,.18-.33l.12-.18,0-.22a7.93,7.93,0,0,0,.08-2.79h0a20.14,20.14,0,0,0-.53-2.2l-.28-1.06a7.85,7.85,0,0,0,1.16-.58,1.24,1.24,0,0,0,.57-1.31A1.1,1.1,0,0,0-251.91,434.2Zm-8.27,1.89c.68-2,1.38-4,2.15-5.89h0c.62,1.51,1.2,3.12,1.77,4.86C-257.59,435.37-258.87,435.72-260.18,436.09Z" transform="translate(378.15 -320.66)"/><path class="cls-1" d="M-236.1,428.36h-.05a1.73,1.73,0,0,0-1.3.33,2.5,2.5,0,0,0-.76,1l-.16.34-.18.3,0,.11c-1,2.25-2.83,6.71-3.73,8.91-.25.6-.55,1.4-.85,2.17l-.25.65a11.22,11.22,0,0,1-.33-1.13c-.13-.54-.24-1.09-.34-1.67s-.26-1.38-.45-2.07c-.21-1.25-.52-3.12-.82-4.85l-.51-3-.07-.48c-.13-.89-.34-2.22-.43-3l0-.22-.1-.18a2,2,0,0,0-.8-.81,1.41,1.41,0,0,0-1.76.31l-.23.27v.36a9.41,9.41,0,0,0,.16,1.58c0,.18.05.35.08.55.29,2.08.66,4.34,1.09,6.72.09.53.18,1.05.27,1.55.42,2.32.81,4.51,1.43,6.83l.07.18c.09.19.17.39.26.59s.2.47.32.71a3.39,3.39,0,0,0,1.34,1.49l.1.06.12,0a2.37,2.37,0,0,0,.7.1,2,2,0,0,0,1.57-.69l.06-.08a6.66,6.66,0,0,0,.83-1.64c.1-.24.18-.49.26-.72s.18-.51.28-.76v0c.49-1.23,1.36-3.31,2.13-5.14.48-1.13.92-2.19,1.24-2.95.2-.48.51-1.15.82-1.84s.66-1.42.95-2.08l.06-.2A1.38,1.38,0,0,0-236.1,428.36Z" transform="translate(378.15 -320.66)"/><path class="cls-1" d="M-232.64,428.65l.24.24a1.56,1.56,0,0,0,1.12.52h.36l.27-.23a5.31,5.31,0,0,1,2.05-1,7.51,7.51,0,0,1,3.36-.32,2.85,2.85,0,0,1,1.22.47,1,1,0,0,1,.13.16l.28.35a1.25,1.25,0,0,0,1.34.25,1.16,1.16,0,0,0,.73-1.08v-.13a2.86,2.86,0,0,0-.54-1.45,2.9,2.9,0,0,0-.77-.71l-.78-.4-.11,0a10.83,10.83,0,0,0-3.2-.33,10.26,10.26,0,0,0-4.88,1.5,1.62,1.62,0,0,0-.81.76,1.56,1.56,0,0,0-.08,1.25Z" transform="translate(378.15 -320.66)"/><path class="cls-1" d="M-221.82,432.08l-.15,0-.14.07a51.13,51.13,0,0,0-7.61,4.51,33.62,33.62,0,0,1,.44-3.88v-.1a2.8,2.8,0,0,0,0-.3l0,0a1.62,1.62,0,0,0,1-1.3l0-.34-.19-.29a1.78,1.78,0,0,0-1.78-.8l-.17,0a2.94,2.94,0,0,0-1.62,1.52l-.07.18a23.14,23.14,0,0,0-.57,3.7c0,.24-.05.49-.07.74v.1c0,.53,0,1.1-.07,1.7a22.21,22.21,0,0,0,0,3.16,5.77,5.77,0,0,0,1.74,3.9,6.05,6.05,0,0,0,3.61,1.48l.63,0a9,9,0,0,0,2.86-.49,5.69,5.69,0,0,0,3.19-2.59,1.35,1.35,0,0,0,.1-1.06,1.25,1.25,0,0,0-.72-.77,1.18,1.18,0,0,0-1,.1l-.12.07-.09.1a4.88,4.88,0,0,1-1.14.94,6.23,6.23,0,0,1-3.95.7,2.75,2.75,0,0,1-1.78-1.12,3.39,3.39,0,0,1-.43-1.7,53.75,53.75,0,0,1,6.18-4.2l2.26-1.4.38-.25a1.78,1.78,0,0,0,.76-.95l.2-.54-.37-.44A1.56,1.56,0,0,0-221.82,432.08Z" transform="translate(378.15 -320.66)"/><path class="cls-1" d="M-193.65,439.08l-.14.06-.12.1a21.19,21.19,0,0,1-4.31,2.88,13.45,13.45,0,0,1-3,1.08,3.17,3.17,0,0,1-1.8.14.79.79,0,0,1-.43-.7,55.16,55.16,0,0,1,.42-9.7l.82-6.49,0-.13a1.53,1.53,0,0,0-1.45-1.33h-.14l-.14,0a1.67,1.67,0,0,0-1.08,1.1l-.05.1,0,.11a79.49,79.49,0,0,0-1.3,16.44,4,4,0,0,0,.84,2.26,3.43,3.43,0,0,0,2.76,1.28h.29a12.92,12.92,0,0,0,5.08-1.45,15.79,15.79,0,0,0,3.72-2.43l.18-.14c.18-.15.39-.32.59-.52a5,5,0,0,0,.83-1.06l.07-.16a1.16,1.16,0,0,0-.31-1.21A1.23,1.23,0,0,0-193.65,439.08Z" transform="translate(378.15 -320.66)"/><path class="cls-1" d="M-176.79,434.4h-.15c-.4.06-.85.14-1.25.22-.87-2.53-1.9-5.17-3.14-8.05l0-.11a1.62,1.62,0,0,0-.18-1.16l-.08-.14-.13-.1a1.67,1.67,0,0,0-1.36-.38,1.38,1.38,0,0,0-.93.73,94.77,94.77,0,0,0-4.47,11.87l-.34.09-.11.06a1.57,1.57,0,0,0-.83,1.53l0,.13a1.36,1.36,0,0,0,.43.69c-.51,1.66-.95,3.12-1.35,4.6a1.85,1.85,0,0,0,.51,1.84l.22.22.31.06.4,0a1.41,1.41,0,0,0,.88-.31l.26-.2.08-.31c.43-1.67,1-3.84,1.77-6,2.14-.66,4-1.21,5.9-1.66.07.28.15.55.22.82.19.67.37,1.31.49,1.95a5.2,5.2,0,0,1,0,2.45,1.22,1.22,0,0,0,.48,1.31,1.27,1.27,0,0,0,1.36.11,1.91,1.91,0,0,0,.72-.66,2.68,2.68,0,0,0,.18-.33l.12-.18.05-.21a8.23,8.23,0,0,0,.07-2.8h0a20.11,20.11,0,0,0-.52-2.2c-.1-.36-.2-.72-.29-1.06a7.08,7.08,0,0,0,1.17-.58,1.24,1.24,0,0,0,.56-1.31A1.06,1.06,0,0,0-176.79,434.4Zm-8.27,1.88c.68-2,1.38-4,2.16-5.89.61,1.52,1.19,3.12,1.76,4.86C-182.47,435.56-183.75,435.91-185.06,436.28Z" transform="translate(378.15 -320.66)"/><path class="cls-1" d="M-156.91,425.14l-.35-.2-.39.1a4.33,4.33,0,0,0-2.11,1.71,17.26,17.26,0,0,0-2.35,5.3,40.67,40.67,0,0,0-.89,4.5c-.94-2.66-3.28-7.38-4.94-9l0,0a1.88,1.88,0,0,0-.3-1.42,1.43,1.43,0,0,0-1.28-.62l-.5,0-.27.43a20.53,20.53,0,0,0-2.38,6.52,49.4,49.4,0,0,0-.56,10.38l.19,1,0,.1a2,2,0,0,0,.85,1.16,1.28,1.28,0,0,0,1.31,0,1.19,1.19,0,0,0,.63-1.18,39.69,39.69,0,0,1,1-13.34,33.35,33.35,0,0,1,3.56,7.3,49.11,49.11,0,0,1,2,7.15,1.52,1.52,0,0,0,1.47,1.22l.25,1,.08-1a1.45,1.45,0,0,0,1.08-1l0-.13V445a49.84,49.84,0,0,1,.7-8.28h0a24.36,24.36,0,0,1,1.89-7,8.09,8.09,0,0,1,1.6-2.5l.06-.07.09-.14A1.36,1.36,0,0,0-156.91,425.14Z" transform="translate(378.15 -320.66)"/><path class="cls-1" d="M-141.67,430.72a10.57,10.57,0,0,0-2.17-2.31,19.11,19.11,0,0,0-4-2.39,12.51,12.51,0,0,0-3.64-1l-.24,0-.23.09a1.94,1.94,0,0,0-1,1.29,31.39,31.39,0,0,0-1.12,7.08,39.43,39.43,0,0,0,.34,7.12l.31,2.21a9.1,9.1,0,0,0,.21,1.16l-.41.07-1.4.2.69,1.23a2.15,2.15,0,0,0,2,1.08,5,5,0,0,0,.94-.1l.11,0a19.49,19.49,0,0,0,6.1-3.08,13.26,13.26,0,0,0,4.09-5,9.38,9.38,0,0,0,.63-4.42A7.45,7.45,0,0,0-141.67,430.72ZM-150.43,443a42.79,42.79,0,0,1-.63-10,26.39,26.39,0,0,1,.64-4.6c.52.18,1.09.4,1.66.62a12.74,12.74,0,0,1,2.47,1.32,8.06,8.06,0,0,1,2.7,3.2,6.47,6.47,0,0,1,0,2.63A7.1,7.1,0,0,1-145,439a13.71,13.71,0,0,1-2.66,2.5A14.11,14.11,0,0,1-150.43,443Z" transform="translate(378.15 -320.66)"/></svg>